<?xml version="1.0" encoding="utf-8"?>
<!-- Generator: Adobe Illustrator 19.1.0, SVG Export Plug-In . SVG Version: 6.00 Build 0)  -->
<svg version="1.1" id="Calque_1" width="182px" height="142px" xmlns="http://www.w3.org/2000/svg" xmlns:xlink="http://www.w3.org/1999/xlink" x="0px" y="0px"
	 viewBox="0 0 182.6 142.3" style="enable-background:new 0 0 182.6 142.3;" xml:space="preserve">
<style type="text/css">
	.st0{opacity:0.2;}
	.st1{fill:#48212f;}
</style>
<g class="st0">
	<path class="st1" d="M97.9,71.4c-0.3-0.9-1.3-3.4-2.7-5.5c-1.4-2-2.7-2.5-3.1-2.6c-3-1.8-7.2-1.9-11.8,1.5c-4.2,3-8.1,5.5-11.7,5
		c0.1-0.2,0.3-0.4,0.4-0.7c0.1-0.1,0.1-0.2,0.2-0.3c0.2-0.3,0.3-0.5,0.4-0.8c3-5.6,4.2-11.6,4.3-16.7c0-0.9,0-1.9,0-2.8
		c0.4-1.1,0.6-2.3,0.5-3.6c0.1-3-0.7-6.9-2.6-11c-0.3-0.5-0.5-0.9-0.7-1.4c1.1-1.1,1.3-3.3,0.4-5.4c-0.1-0.2-0.2-0.5-0.4-0.7
		c0.4-0.5,0.6-1,0.7-1.5c0-0.1,0.1-0.2,0.1-0.3c0.4-1.4-1.1-3-3.2-3.5c-1-0.3-1.9-0.2-2.7,0c-0.9,0-1.7,0.1-2.4,0.4
		c-5-5.2-11.8-9.6-15.8-8.8c-5-1.7-10.3-2.4-15.5-1.9c-0.4-1-1-2-1.6-2.9c-0.3-0.4-0.5-0.6-0.7-0.8c-2.9-4-7.7-8.5-14.1-7
		C4.6,2.9,0.2,14.8,0.5,27.5c0,1.4,0.1,2.6,0.1,3.7C0.3,34,0.2,36,0.2,36s-0.6,7.5,1.9,9c2.5,1.5,5.6-4,6.1-5.5
		c0.4-1.2,0.3-4.3-0.6-8.3c-0.3-1.6-0.7-3.5-1-6.1C6.9,14.2,14,4.9,20.6,9.8c1.3,0.9,2.1,2,2.8,3.1c-3,1.1-5.9,2.6-8.5,4.5
		C12,19.5,9.6,22,7.5,24.6c7.4-4.4,15.4-1.9,15.4-1.9s3.6,1.2,3.6,1.3c0,0.1-1.2,0.9-2.5,1.7C19.6,29.1,10.3,38.5,12.5,58
		c1.1,9.8,10.1,17.7,10.1,17.7S9.5,73.6,2,65c1.1,2.3,2.4,4.6,4,7c1.1,1.6,2.2,3,3.4,4.4c0.4,0.5,1,1.2,2,2.2c2,2.1,4.1,3.9,6.2,5.3
		c4,3,5.4,2.8,5.4,2.8s0.1,0,0.4,0.1c0,0,0,0,0.1,0c1.4,0.4,6.1,1.7,10.2,0.4c6.3,0.7,12.8-0.1,18.7-2.8c2.4,0.8,4.9,1.5,7.5,1.9
		c1.6,0.3,3.2,0.4,4.6,0.4c0,0,0,0,0,0s0.4,0,1,0c0,0,0,0,0.1,0c0.3,0,0.6,0,1-0.1c0.2,0,0.3,0,0.5-0.1c0.3,0,0.6-0.1,0.9-0.1
		c0.1,0,0.1,0,0.2,0c2.4-0.4,5.6-1.3,8.3-3.2c5.2-3.7,8.1-8,8.1-8s0,0,0,0c0.9-1,1.7-1.9,2.5-2.6c4.7-4.1,11.2-0.6,11.2-0.6
		S98,71.7,97.9,71.4z M41.7,29.6c-5.2-8.6-0.2-13-0.2-13s2.1-2.2,3.3-1.9c0,0-2.2,3.4-0.2,9.9c3,10.1,8.2,15.3,8.2,15.3
		S47,38.3,41.7,29.6z M62.2,29.7c-0.2,0-0.6-0.1-1.1-0.3c-0.1,0-0.2-0.1-0.3-0.2c-0.9-0.5-2.6-1.9-3.1-2.3c-0.6-0.6-1-1.2-1.4-2
		c-3.3-6.9,4.9-2.4,4.9-2.4S60.8,23,60.7,24c0,0,0,0,0,0c0,0,0,0.1,0,0.2c0,0.1,0,0.1,0,0.2c0,0,0,0,0,0c0,0.8,0.1,1.8,0.7,3.1
		C62.1,28.9,62.2,29.5,62.2,29.7z M70.7,27c1,2.2,1,4.3,0.1,5.5c-0.7-1.4-1.4-2.8-2.3-4.3C69.3,28,70.1,27.6,70.7,27z"/>
	<path class="st1" d="M173.5,124.9c-7.1-5.4-18.3-4.5-18.6-4.3c0.2-0.2,2.3-2,3.6-3.6c2.5-3.1,3.5-5.9,6.5-9.6
		c3.6-4.4,8.7-4.4,11.8-1.4c3.6,3.5,3.4,7.9,0.7,10.4c-2.3,2.2-4.9,2.2-6.4,0.6c-1.3-1.3-1-2.6-0.4-3c1.1,1,2.9,0.9,3.9-0.2
		c1.1-1.1,1.1-3,0-4.1c-1-1.4-3.5-2.2-6.1,0.5c-3.1,3.3-2.1,6.2,0,8.5c1.8,2,6.5,3.8,10.9-0.3c4.3-4,4-10.1,0-14.5
		c-3.8-4.2-9.4-5.6-15.3-0.7c-5.9,5-7,12.7-15,16.2c-8,3.4-20.6,1.9-27.6-4.7c-7-6.6-7.3-16.6-7.6-22.6c-0.2-5.8-1.8-9.9-2-10.4
		c0.3,0.6,2.7,5.4,6.4,11.7c3.9,6.6,11.3,9.2,16.3,4.2c5-4.9,2.6-10.6,0.6-13.1c-2.1-2.5-6.4-5.1-9.7-1.6c-3.3,3.5,1.3,8.3,4,5.6
		c0,0,0,0,0,0c0,0,0.1-0.1,0.1-0.1c0.8-0.8,0.8-2.1,0-2.8c-0.8-0.8-2.1-0.8-2.8,0c-0.1,0.1-0.1,0.2-0.2,0.3
		c-0.6-0.7-0.2-2.5,2.3-2.6c2.9-0.2,6.4,5.3,4.1,9.2c-2.2,3.8-6.4,4.8-9.8,2.1c-3.4-2.7-6.5-13.2-11.6-17.9
		c-5.2-4.9-7.6-4.5-10.8-5.3c-0.1,0-0.2,0-0.2,0l0.1,0.1c0.7,0.5,6.6,5.2,5.7,18.5c-0.7,10.2-12.5,16-12.5,16s9.3-0.3,13.9-10.1
		c2.2-4.6,2.3-8.9,2.1-10.8c1.1,2.7,1,4.5,1.1,7.2c0.4,10.1,1,17.4,9.1,24.8c11.5,10.5,31.3,7,31.3,7s13.7-2.1,21.3,4.9
		c6.2,5.7,5.3,13.7,5.3,13.7s1.1-1,1.6-4.1C180.1,135.2,179.5,129.4,173.5,124.9z M133.8,94c2.1-2.8,1.4-5.1,1.4-5.1
		s1.6,2.7-0.4,5.6c-2.3,3.2-4.8,2.7-4.8,2.7S132.2,96.2,133.8,94z"/>
</g>
</svg>
