<?xml version="1.0" encoding="utf-8"?>
<!-- Generator: Adobe Illustrator 19.1.0, SVG Export Plug-In . SVG Version: 6.00 Build 0)  -->
<svg version="1.1" id="Calque_1" width="41px" height="39px" xmlns="http://www.w3.org/2000/svg" xmlns:xlink="http://www.w3.org/1999/xlink" x="0px" y="0px"
	 viewBox="0 0 41 39" style="enable-background:new 0 0 41 39;" xml:space="preserve">
<style type="text/css">
	.st0{fill:#E73F60;}
	.st1{fill:#C01E42;}
	.st2{fill:#F29776;}
</style>
<g>
	<g>
		<path class="st0" d="M29.7,36.3c-0.8-0.4-1.3-0.6-2.1-0.3c-0.9-0.4-0.3-1-0.5-1.6c-0.2-0.8-1.8-1.1-1.5-2.1c0.1-0.4-0.5-3.4,0-3.5
			c1-0.2,3.9,4.5,4.2,5.2L29.7,36.3z"/>
		<path class="st1" d="M18.5,23.4c0,0-0.6-5.5-5.2-5.9c-4.6-0.4-8.9-1.4-11.1-4.8c-2.2-3.4,0.1-7.6,2.7-7.6c2.6,0,7.3-0.3,12.5,6.6
			C22.6,18.6,21.1,23.2,18.5,23.4z"/>
		<path class="st1" d="M19,22.1c0,0,4.7-4.2,11.4-1.3c6.6,2.9,9.4,10.4,7.9,14.1c-1.5,3.7-8.6,3.6-11.1-0.8c-1.8-3.2,1.3-5.9-2.3-9
			C23.3,23.6,19,22.1,19,22.1z"/>
		<path class="st1" d="M20.3,20.8c0,0,6.6,0.2,11.4,1.8c4.8,1.6,7.6-4.1,3.1-10c-4.5-5.9-8.7-7.3-11.6-2.1
			C20.2,15.7,20.3,20.8,20.3,20.8z"/>
		<path class="st0" d="M22.1,22.5c0,0,2.6,2.4,4.3,5.2c1.8,2.8,2.6,4.4,2.6,4.4s-0.3-2-0.9-3.6c-0.7-1.5-1.9-4.4-1.9-4.4
			s1.9,1.5,3.9,4.1c2.1,2.6,3.5,4.6,3.5,4.6s-1-2.1-3.5-5.6c-2.5-3.6-4.1-4.8-6.1-6.3C22.1,19.4,20.2,19.7,22.1,22.5z"/>
		<path class="st0" d="M23.4,21.6c0,0,5,2.1,6.5,3.7c1.5,1.5,2.3,2.4,2.3,2.4s-0.5-1.3-1.2-2.2c-0.7-0.9-1.4-1.5-1.4-1.5
			s1.3,0.4,2.9,1.7c1.7,1.3,2.6,2.5,2.6,2.5s-0.4-1.2-2.5-3c-2.1-1.9-3.5-2.8-4.9-3.4C26.3,21.2,21.7,20.1,23.4,21.6z"/>
		<path class="st0" d="M18.4,19.2c0,0-2.3-2.3-5.1-3.8c-2.8-1.5-7.6-2.2-7.6-2.2s2.9-0.7,6.9,0.7c1.5,0.5,5.1,2.4,5.1,2.4
			c-0.5-0.7-0.7-1.3-4-3.7c-2.5-1.8-4.8-3.1-4.8-3.1s2.3,0.6,5.9,2.8c3.6,2.2,4.1,3.1,5.5,4.9C21.6,19,21.2,20.8,18.4,19.2z"/>
		<path class="st0" d="M16.6,19.1c0,0-1.2-0.3-3.2-0.5c-1.9-0.2-2.9-0.3-2.9-0.3s1.2-0.3,2.2-0.4c1.3-0.1,1.1-0.2,1.7,0
			c0,0-1.4-1.4-3.2-1.9C9.4,15.4,8,15.5,8,15.5s1-0.8,3.5-0.3c2.5,0.5,4.6,1.3,5.7,2.2C18.4,18.1,18.6,19.4,16.6,19.1z"/>
		<path class="st0" d="M20,18.4c0,0-0.3-1.4-2.1-2.7c-1.8-1.3-2.6-2.3-2.6-2.3s-0.4-0.1,0.6,0.3c0.9,0.5,1.7,1.1,1.7,1.1
			s-0.4-1.4-2.1-3C13.8,10.4,12,9,12,9s1,0.2,3.4,2.1c2.3,1.9,4.3,4,5.3,5.5C21.8,18.3,21.9,19.9,20,18.4z"/>
		<path class="st0" d="M22,19.9c0,0-1.9-0.5,0.6-0.8c1.7-0.2,4-2.4,4-2.4s-0.4,1.4-1.6,2.2c-1.5,0.9,0,0.2,0,0.2s-0.1,0,1.7-0.2
			c1.9-0.2,4.1,0.6,4.1,0.6s-2-0.1-4.5,0.5c-2.5,0.6-3.7,2.3-3.7,2.3s-1-0.6-0.6-2.2"/>
		<path class="st1" d="M20.7,16c0,0,4.1-4.5,2.6-8.5c-2.6-6.8-9.5-8.1-12.1-7C8.7,1.8,8.2,2.9,8.2,2.9s4.9,1.5,8.1,6.8
			c3.2,5.3,3.1,5.8,3.1,5.8S20.6,16.2,20.7,16z"/>
		<path class="st0" d="M19.3,16.4c0,0,0-2.1-0.8-4.1c-0.7-2-1.2-3.1-1.2-3.1s1.1,1.1,1.6,2.1c0.6,1,1.4,2.6,1.4,2.6s0.2-1-0.2-3
			C19.7,9,18.4,6,18.4,6s2,2.5,2.7,5.1c0.8,2.7,0.7,4.3,0.1,6.6C20.9,19.2,19.9,18.5,19.3,16.4z"/>
		<path class="st0" d="M21.3,8.4c0,0,0.6,3-0.8,5.6c-1.7,3.1-0.2,3.9-0.2,3.9s1.8-1.6,2-5.1C22.5,11.4,21.9,9.8,21.3,8.4z"/>
		<path class="st0" d="M24.4,11.6c0,0-0.3,2.9-2.4,5c-2.5,2.4-1.3,3.6-1.3,3.6s2.2-1,3.5-4.1C24.7,14.7,24.6,13,24.4,11.6z"/>
		<path class="st0" d="M16.3,9.9c0,0,2.1,2.5,2.6,5.2c0.5,2.7-0.5,3.8-0.5,3.8s1.2-1.6,0.9-4.2C19.2,12.3,17.5,10.6,16.3,9.9z"/>
		<path class="st0" d="M40,27.3c0,0-2.9-3.2-5-4.4c-2.1-1.2-3.4-1.4-3.4-1.4s3.9,2.5,5.7,4.3C39.1,27.7,40,27.3,40,27.3z"/>
		<path class="st1" d="M12,24.8c-0.1-0.5-0.6-0.9-0.7-1.4c-0.1-0.7,0.3-0.9,0.7-1.2c0.4-0.4,0.6-1.2,1.2-0.8
			c0.4,0.3,0.3,0.4,0.3,0.8c-0.1,0.6-0.2,1.2-0.3,1.7"/>
		<path class="st1" d="M11.6,17.2c-0.9,0.3-2.5,0.9-3.2,0.1C8,16.8,8,16.6,7.2,16.6c-0.6,0-1.2,0.3-1.6-0.1
			c-0.1-0.1-0.1-0.5-0.3-0.6c-0.2-0.2-0.5-0.4-0.8-0.5C3.9,15,3.3,15,2.8,14.7c-0.7-0.4-0.4-1.1-0.9-1.7c-0.3-0.4-1.3-0.7-1.3-1.2
			c0-0.2,0.3-0.6,0.4-0.8C1,10.5,0.3,9.6,0.3,9.3c0-1.2,1-0.8,1.2-1.3c0.1-0.5,0.3-0.6,0.2-1.2C1.5,6.1,1.3,5.5,2.1,5
			C2.8,4.6,3.7,4.6,4.4,5c0.8,0.5,0.7,1.1,0.3,1.9C3.6,8.9,3,11.1,4.5,13c0.5,0.6,1,1.1,1.6,1.5c0.5,0.3,1.1,0.9,1.7,1"/>
		<path class="st1" d="M8.7,2.9C8.3,2.8,7.8,3,7.5,2.7c0.1-0.5,0.4-0.6,0.8-0.8c0.2-0.1,0.4-0.2,0.5-0.4C8.9,1.2,9.1,1,9.2,0.8
			C9.6,0,10,0.2,10.9,0.2c0.5,0,1.1-0.2,1.6-0.2c0.6,0,1-0.1,1.6,0.1c0.7,0.2,1.4,0.6,1.9,1.2c-0.3,0.3-1.1,0.4-1.6,0.5
			c-0.7,0.2-1.5,0.5-2.2,0.6"/>
		<path class="st0" d="M37.2,17.8c-0.2-0.5-0.3-1-0.7-1.4c-0.5-0.4-1.1-0.4-1.2-1c-0.1-0.5,0.3-0.8,0.3-1.3
			c-0.1-0.5-0.8-0.9-1.2-1.2c0.2-0.6,0-0.9,0.7-0.6c0.8,0.4,1.1,1.1,1.5,1.8c0.3,0.6,0.7,1.2,1,1.8c0.3,0.5,0.3,1,0.5,1.6"/>
		<path class="st0" d="M30.9,37.1c0.6,0.3,1.2,0.2,1.6-0.1c0.3-0.2,0.3-0.5,0.7-0.4c0.4,0,0.6,0.3,0.8,0.5c0.4,0.4,1.6,0.5,1.4,1.1
			c-0.1,0.4-0.7,0.4-1.1,0.4c-1.3,0.1-2.6-0.1-3.9-0.3"/>
		<path class="st1" d="M3.4,4.9c1-0.3,1.9-0.2,2.8,0c0.4,0.1,1.3,0.3,1.3,0.8c0,0.7-1.9,0.8-2.4,0.9"/>
		<path class="st0" d="M22.9,23.8c1.2-0.4,1.8-2,1-3.1c-0.7-1-1.7-1.9-2.7-2.7c-0.8-0.7-2.2-1.6-3-0.7c-0.5,0.5,0,1.4,0.1,2.1
			c0.1,0.8,0.3,1.5,0.8,2.2c0.3,0.5,0.7,0.9,1.2,1.3"/>
		<path class="st1" d="M20.5,22c1.2,1.1,2-0.6,3,0.2c2.3,1.8,3,6.4,1.6,10.8c-1.3,4.1-4.2,6.8-8.1,3.7c-5.9-4.7-6.1-13.9-3.9-16.7
			c1.7-2.2,6.1-2.8,6.8-1C20.8,21.5,19.3,21,20.5,22z"/>
		<path class="st1" d="M12,23.6c-0.6,0,0.1,1.1-0.5,1.4c-0.6,0.4-1.1,0.1-1.5,0.8c-0.5,0.8-0.2,0.8,0.2,1.6c0.4,0.8-0.4,0.9-0.7,1.4
			c-0.2,1.7,2.7,0.4,2,3.4c-0.2,0.7-0.1,0.8,0.5,1.4c0.4,0.5,1.9-0.1,2.1,0.5c0.3,0.7-0.8,1.4-0.5,2.1c0.3,0.8,0.6,1,1.4,1.3
			c0.6,0.3,1.2,0.5,1.7,1c0.6,0.5,1,0.6,1.7,0.6c1.4-0.1,2.5-0.2,3.4-1.2c0.7-0.8,0.7-1.8,0.5-2.9c-0.1-0.5-0.3-1.5-0.7-1.9
			c-0.5-0.7-1.6-0.9-2.4-1.2c-2.4-0.9-4.5-1.7-6.1-3.8c-0.8-1-0.6-2-0.4-3.1"/>
		<path class="st0" d="M22.6,23c0,0,0.7,1.2,0.5,3.4c-0.2,2.2-1.3,4-1.3,4s0.5-1.9,0.7-3.5c0.1-1.6-0.4-2.6-0.4-2.6s0,1-0.6,2.5
			C21,28.4,19.6,30,19.6,30s0.8-1.5,1.3-3.8c0.5-2.3-0.4-4-0.4-4s0.8-0.5,1.9,0.6"/>
		<path class="st0" d="M21.6,20.9c0,0,0.4,1.1-0.6,2.7c-2.1,3.3-5.2,4.8-5.2,4.8s3.4-3.4,4.1-4.6c0.8-1.1,0.7-2.1,0.7-2.1
			s-0.4,1-1.5,2c-1.1,1-2.3,1-2.3,1s0.7-0.5,2-2c1.3-1.5,1.9-3.6,1.9-3.6s0.3,0.4,0.8,1.7"/>
		<path class="st0" d="M26.2,16.9c0,0.5-0.8,1.1-1.2,1.3c-0.5,0.3-0.8,0.9-1.4,1c-0.5,0-1.4-0.5-1.5,0.3c-0.3,1.8,1.5,0.9,2,0.7
			L26.2,16.9z"/>
	</g>
	<g>
		<path class="st2" d="M31.2,13c-0.8,0.3-1.6,1-2.4,2.1c-1.7,2.5-3.3,3.7-4.6,4.3c-1.3,0.6-2.2,0.4-2.2,0.4l0-0.8c0,0,0,0,0.1,0
			c0.1,0,0.2,0,0.4,0c0.3,0,0.8-0.1,1.4-0.4c1.1-0.5,2.7-1.6,4.3-4c0.8-1.2,1.8-2,2.7-2.4c0,0,0,0,0,0c0,0,0.1,0,0.1-0.1
			c0.1,0.3,0.2,0.6,0.4,0.8C31.3,13,31.3,13,31.2,13z"/>
		<path class="st2" d="M33.1,12.4c1-0.2,2-0.3,3-0.4c0.7-0.1,2.3-0.2,2.4-0.4c-1-0.4-3.2,0.1-4.4,0.2c1.3-0.7,3.2-0.8,4.5-1.5
			c-1.2-0.2-2.6,0.4-3.9,0.5c1-0.7,1.4-0.9,2.5-1.6c-0.8-0.2-3.3,1.1-4,1.4c0.6-0.7,1.2-0.9,1.6-1.7c-0.4,0.1-1.4,0.9-2,1.3
			c-0.7,0.6-1.4,1.4-2.1,2.1c-0.4,0.5,0.2,0.9,0.4,0.8L33.1,12.4z"/>
	</g>
	<path class="st2" d="M37.4,7.9c0.2-0.1,0.1-0.6-0.3-0.5c-0.3,0.1-0.3,0.4,0,0.5C37.2,8.1,37.3,8,37.4,7.9z"/>
	<path class="st2" d="M38.7,8.1c0.6-0.4,1.6,0.1,1.1,0.9c-0.6,0.9-1.6-1-0.8-1"/>
	<path class="st2" d="M39.7,10.7c0-0.4,0.5-0.9,0.9-0.2C41.1,11.4,39.4,11.3,39.7,10.7"/>
	<path class="st2" d="M39.6,13.2c-0.7-0.1-0.5-0.5-0.4-0.8C39.3,12,40.5,12.5,39.6,13.2"/>
</g>
</svg>
