<?xml version="1.0" encoding="utf-8"?>
<!-- Generator: Adobe Illustrator 19.1.0, SVG Export Plug-In . SVG Version: 6.00 Build 0)  -->
<svg version="1.1" id="Calque_1" xmlns="http://www.w3.org/2000/svg" xmlns:xlink="http://www.w3.org/1999/xlink" x="0px" y="0px"
	 viewBox="0 0 77 77" style="enable-background:new 0 0 77 77;" xml:space="preserve">
<style type="text/css">
	.st0{opacity:0.2;fill:#48212f;}
</style>
<path class="st0" d="M65,0c0,0-3.3,20.6-16.9,38.1C34.5,55.6,19.3,66.6,19.3,66.6s12.3-3.4,27.9-18.1c0.7-0.7,1.4-1.4,2.1-2.2
	c-11.5,16.1-23.5,22.5-30.5,25C10.4,73.7,0.9,74,0.9,74c-2.1,2.6,0.3,2.6,0.3,2.6s4.9-1,14.9-2.2c0.2,0,0.5-0.1,0.7-0.1
	c10.6,3,38.2,7.9,52.6-15.5C82.3,38.1,65,0,65,0z"/>
</svg>
