<?xml version="1.0" encoding="utf-8"?>
<!-- Generator: Adobe Illustrator 19.1.0, SVG Export Plug-In . SVG Version: 6.00 Build 0)  -->
<svg version="1.1" id="Calque_1" width="116px" height="72px" xmlns="http://www.w3.org/2000/svg" xmlns:xlink="http://www.w3.org/1999/xlink" x="0px" y="0px"
	 viewBox="0 0 116 72" style="enable-background:new 0 0 116 72;" xml:space="preserve">
<style type="text/css">
	.st0{opacity:0.2;fill:#48212f;}
</style>
<path class="st0" d="M1.2,13.3c0,0.4,0,1.5,0.2,2.8c-0.6,2-1.4,6-1.4,6.7c-0.1,0.8,0.3,1.6,0.8,1.7c0.6,0.1,1.1-0.6,1.2-1.4
	c0-0.4,0.2-1.8,0.2-3.4c0.7,2.2,2,4.3,4.4,5.2c3.6,1.4,6.1-0.2,7.5-1.6c-0.8,1.9-1.9,7.6-2,8.4c-0.1,1,0.3,1.9,1.1,1.9
	c0.7,0.1,1.4-0.6,1.5-1.6c0.1-0.8,0.4-6.6,0.1-8.7c1.3,2.6,4.5,7.2,10.6,8.6c6,1.4,10-1.4,11.7-3c-0.8,1.6-2,7.9-2.1,8.7
	c-0.1,1,0.4,1.9,1.1,1.9c0.7,0.1,1.4-0.6,1.5-1.6c0.1-0.8,0.4-6.6,0.1-8.6c1.1,2.2,3.5,5.7,8.2,6.4c-0.2,0.7-0.4,1.5-0.5,2.3
	c-0.4,3.4,0.5,6.6,2.4,8.9c0,0.1,0.1,0.3,0.2,0.5c1.8,2.6-2.4,5.4-6.2,5.5c-9.4,0-16.2,1.8-16.5,4.7c-0.1,0.5-0.3,2.5-0.4,3
	c-0.5,4.1,11.4,8.9,26.5,10.8c15.2,1.9,27.9,0.1,28.4-3.9c0.1-0.5,0.3-2.4,0.4-3c0.4-3-5.8-6.3-15-8.7c-3.6-1-7-4.7-4.6-6.8
	c0.1-0.1,0.2-0.2,0.2-0.3c2.4-1.8,4.3-4.7,4.7-8.2c0.1-0.8,0.1-1.6,0.1-2.3c0.1,0,0.1,0,0.2,0c0.1,0,0.2,0,0.4,0.1
	c4.9,0.6,8.2-2.3,9.8-4.2c-0.8,1.9-1.9,7.6-2,8.4c-0.1,1,0.3,1.8,1,1.9c0.7,0.1,1.4-0.6,1.5-1.6c0.1-0.8,0.5-7.3,0.1-9
	c1.3,2,4.5,5.7,10.6,5.8c6.2,0.2,10.4-3.5,12.3-5.7c-0.8,1.9-1.9,7.6-2,8.4c-0.1,1,0.4,1.8,1.1,1.9c0.7,0.1,1.4-0.6,1.5-1.6
	c0.1-0.8,0.4-6.6,0.1-8.6c1,1.7,3,3.9,6.8,3.4c2.5-0.3,4.3-2,5.5-4c-0.3,1.6-0.6,3-0.6,3.4c-0.1,0.8,0.2,1.6,0.8,1.7
	c0.6,0.1,1.1-0.6,1.2-1.4c0.1-0.6,0.3-4.7,0.2-6.8c0.4-0.9,0.6-1.8,0.7-2.3c0.3-0.4,0.6-0.9,0.7-1.3c0-0.4,0.3-2.7,0.3-2.7
	s-0.3,0.6-0.9,0.8c-5.1,4.8-29.2,5.5-57.7,1.3c-18.7-2.8-35-7-45-11.3c10.1,4,26.3,7.9,44.9,10.2c31.6,4,57.9,2.1,58.7-4.2
	C116.6,14.3,91.6,6,60,2.1C28.4-1.9,2.1,0,1.3,6.3c-0.1,1.1-0.2,5-0.3,6C1,12.6,1.1,12.9,1.2,13.3z M53.8,47.1
	c-0.1-0.8-0.3-2.6-0.2-4.6c0-0.9,0.1-1.7,0.1-2.4c0.7-0.2,1.2-0.3,1.8-0.5c-0.2,1-0.5,2.7-0.6,3.7c-0.2,1.1-0.7,3-1,3.9
	C54,47.2,53.9,47.2,53.8,47.1z M56.8,47.2c0.1-0.8,0.3-2.6,0.5-4.6c0.2-1.6,0.3-2.8,0.4-3.6c0.7-0.2,1.4-0.5,2-0.8
	c-0.1,1.1-0.3,2.9-0.8,4.7c-0.6,2-1.5,3.6-1.9,4.3C56.9,47.2,56.8,47.2,56.8,47.2z M51.2,45.1l-0.6-4.3c0.6-0.1,1-0.2,1.5-0.3
	L51.2,45.1z M100.8,32.2c5.4-0.6,9.6-1.5,12-2.8c-0.9,2.5-2.8,6.2-6.1,6.6C102.7,36.5,101.2,33.4,100.8,32.2z M77.4,32.6
	c8.2,0.4,15.5,0.3,21.5-0.2c-1.4,1.8-5.6,5.9-11.7,5.7C81,38,78.3,34.2,77.4,32.6z M65.2,36.6c-0.4-1.9-1.1-3.7-2.3-5.1
	c4.2,0.4,8.3,0.8,12.2,1c-1.2,1.6-4.5,5-9.4,4.3C65.6,36.7,65.4,36.6,65.2,36.6z M59.6,46.7c0,0,1.2-1.9,1.6-5.6
	c0.2-1.8,0.1-2.9,0-3.6c0.4-0.2,0.7-0.3,1-0.5c0.2,0.1,0.5,0.2,0.7,0.3c0.1,1.3,0.2,3.4-0.5,5.2C61.2,45.3,59.6,46.7,59.6,46.7z
	 M40.1,66.1c3.5,0.9,7.4,1.6,11.6,2.2c10.3,1.3,19.5,0.9,24.5-0.8c-4,1.9-9.4,3.1-18.3,2.5C50.7,69.5,44.3,68.1,40.1,66.1z
	 M38.5,27.9c3.6,0.7,7.4,1.4,11.4,2c-1.5,1.1-2.7,2.7-3.5,4.5C41.5,33.8,39.2,29.6,38.5,27.9z M15.5,21.9c5.7,2,12.8,3.9,20.8,5.5
	c-1.3,1.3-4.9,4.3-10.8,3C19.4,29.1,16.5,24,15.5,21.9z M2.7,15.4c2,1.9,5.8,3.9,11,5.9c-0.6,1-2.9,3.7-6.7,2.2
	C3.8,22.3,2.9,18.1,2.7,15.4z"/>
</svg>
