<?xml version="1.0" encoding="utf-8"?>
<!-- Generator: Adobe Illustrator 19.1.0, SVG Export Plug-In . SVG Version: 6.00 Build 0)  -->
<svg version="1.1" id="Calque_1" xmlns="http://www.w3.org/2000/svg" xmlns:xlink="http://www.w3.org/1999/xlink" x="0px" y="0px"
	 viewBox="0 0 102 171" style="enable-background:new 0 0 102 171;" xml:space="preserve">
<style type="text/css">
	.st0{opacity:0.2;}
	.st1{fill:#48212f;}
</style>
<g class="st0">
	<g>
		<path class="st1" d="M11,75c0,0-8.9-13.9-4.5-27.7c4.5-13.8,16-16.8,16-16.8S6,30.4,1,45.1C-3.9,59.7,11,75,11,75z"/>
		<path class="st1" d="M50.6,106.3c0,0-4.1-14.8,7.2-18.3c8.5-2.6,14.9,8,8.5,10.1c-3.3,1.1-3.9-4.6-7.6-4.2
			C53.2,94.6,51,102,50.6,106.3z"/>
		<path class="st1" d="M46.2,7.4c-4.1,2.4-7.8,4.9-13.6,3.6C26.1,9.5,26.2,0,26.2,0S23.1,4.7,25,11.3c2.1,7,10.8,7.6,16.2,5.3
			c5.6-2.4,12.4-5.2,14.9-1.2c2.5,4-3.4,8.5-10.3,9.8c-6.1,1.2-21.5,3.6-29.1,18.7C9.1,59,13.6,72,25.7,91.6
			c8.5,13.7,7.6,22.3,6.2,26.3l-13.8,6.2c0,0-1.7,0.7-1.7,0.9c-0.4,1.1,0.9,1.6,3.1,3.1c2.2,1.5,9.8,6.4,10.6,13
			c0.7,5.3,1.6,16.1,14.2,13.9c0.6-0.1,1.1-0.2,1.7-0.3C33.3,160.6,19.5,166.9,17,168c-2.9,1.3-1.3,2.6,0.7,2.2
			c2-0.4,6.6-0.2,9.1,0.4c2.5,0.6,8.9,0.9,13.3-0.8c4.4-1.7,5.5-2,5.5-2s1,1.5,3,0.6c1.4-0.6,8-3.6,12.3-5.6c2.2-1,3.7-1.7,3.7-1.7
			c4.3-2,10.9-5,12.3-5.6c2.1-0.9,1.5-2.7,1.5-2.7s0.9-0.7,5.2-2.8c4.2-2.2,8.2-7.2,9.4-9.5c1.2-2.3,4.1-5.8,5.7-7.1
			c1.7-1.2,1.7-3.3-1.1-2c-2.5,1.1-16.4,7.4-29.1,13.2c0.4-0.4,0.9-0.7,1.3-1.1c2.9-2.4,4.3-4.7,4.8-6.9c0.2,0,0.5-0.1,0.7-0.2
			c0.1,0,0.2-0.1,0.3-0.1c0.7-0.5,1-1.4,0.6-2.3c-1.8-4-1.6-6.9,0.5-10.9c2.1-3.8,8.1-5,8.1-5c1-0.2,1.6-1.1,1.4-2.1
			c-0.1-0.7-0.7-1.3-1.4-1.4c1.4-1.4,2.6-3.7,3.5-8.7c0.7-4.3-0.4-8.6-3-11.5c-1.8-2-4.1-3-6.3-2.8c-5.2,0.4-6,6-6.4,9.3l-0.1,0.6
			c-0.4,2.7-2.5,4.2-4.1,4.6c-1,0.2-1.8,0.6-2.7,1.1c0-0.1,0-0.2,0-0.2c0.3-2.6,0.7-4-0.3-4.4c-0.2-0.1-1.8,0.7-1.8,0.7l-19.7,8.9
			c0-0.2,0-0.3,0.1-0.5c1.7-12.2-4.5-21.6-9.7-26.6c-5.2-5-12-10.5-14.3-27.1C17.9,41.5,38.7,29.6,45.8,28
			c6.5-1.5,25.4-5.9,20.4-16.7C61.2,0.5,50.3,4.9,46.2,7.4z M69.5,109.7c3.6-0.9,6.3-3.9,6.8-7.6l0.1-0.6c0.6-4,1.2-6,3.1-6.2
			c1-0.1,2.3,0.5,3.3,1.6c1.9,2.1,2.7,5.2,2.1,8.5c-1,5.7-2.3,6.7-3.5,7.6l-0.5,0.4c-1.5,1.2-3.5,1.2-3.5,1.2c-1,0-1.8,0.8-1.8,1.8
			c0,0.7,0.4,1.3,1.1,1.6c-1.2,0.9-2.3,2-3.1,3.5c-1.1,2-1.7,3.8-2,5.6c-1-1.3-2-2.5-2.8-3.4c-2.7-3-3.2-7.5-3.2-11.2
			C66.8,110.8,68.3,110,69.5,109.7z M39.5,101.4c1.3,4.3,1.5,8.6,1.2,12.5l-6.7,3c5-16.5-6-30.4-6-30.4S36.6,92.1,39.5,101.4z"/>
	</g>
</g>
</svg>
