<?xml version="1.0" encoding="utf-8"?>
<!-- Generator: Adobe Illustrator 19.1.0, SVG Export Plug-In . SVG Version: 6.00 Build 0)  -->
<svg version="1.1" id="Calque_1" xmlns="http://www.w3.org/2000/svg" xmlns:xlink="http://www.w3.org/1999/xlink" x="0px" y="0px"
	 viewBox="0 0 78 66" style="enable-background:new 0 0 78 66;" xml:space="preserve">
<style type="text/css">
	.st0{opacity:0.2;}
	.st1{fill:#014839;}
</style>
<g class="st0">
	<g>
		<path class="st1" d="M35.8,34c2.1,1,4.2,2.5,6.4,3.7c2.8,1.4,5.7,2.8,8.7,3.7c3.1,0.9,6.2,1.5,9.2,2.7c2.1,0.8,4.2,1.3,6.1,2
			c-0.6,2.5-12.3-2.3-14.3-2.7c-5.3-1-10.4-3.5-15.5-5.8c-0.9-0.4-1.9-0.6-2.7-1c0.1-0.9,1.4-0.8,1.1-1.7L35.8,34z"/>
		<g>
			<path class="st1" d="M32.7,5.2c-5.7,2-7.1,10.8-4.6,17.5c2.5,6.7,9.6,12.1,15.3,10.1c5.7-2,7.8-10.6,5.3-17.3
				C46.2,8.8,38.4,3.2,32.7,5.2z"/>
			<path class="st1" d="M36.3,4.4c0.1-0.2,0.2-0.3,0.4-0.3c4,2.6-3.4,6.2-5.9,5.5c-2.3-0.7-2.5-2.6-0.9-3.9c1.1-0.9,3.3-2.8,4.9-2"
				/>
			<path class="st1" d="M41.8,9.3c1.8,0.1,3.7,3.3,4.3,4.7c0.8,1.7,2.5,4.7,1.6,6.6c-1.2,2.6-3.9-2.3-4.4-3.2
				c-0.9-1.6-1.6-3.2-2.2-4.9c-0.5-1.4-1.4-3-0.8-4.5"/>
		</g>
		<path class="st1" d="M47.6,31.6c1.1,1.4,1.9,3.2,3,4.7c1.4,1.9,2.9,3.8,4.9,5.2c2,1.4,4.2,2.6,5.9,4.3c1.2,1.2,2.7,2.1,3.8,3.1
			c-2.1,2.1-8.8-4.6-10.2-5.3c-3.7-2-6.5-5.3-9.2-8.5c-0.5-0.6-1.2-0.9-1.7-1.4c0.7-0.8,1.6-0.4,2-1.3L47.6,31.6z"/>
		<g>
			<path class="st1" d="M2.8,2.6c-4.3,4.1-1.5,13.1,3.8,18.5C12,26.6,21,29,25.3,25c4.3-4.1,2.3-13.2-3-18.6
				C16.9,0.9,7.1-1.5,2.8,2.6z"/>
			<path class="st1" d="M5.7,0.4c0-0.2,0.1-0.3,0.2-0.4C10.8,0.9,5.7,7.3,3,7.5C0.5,7.8-0.5,6,0.4,4.1C1,2.8,2.1,0.1,4,0.3"/>
			<path class="st1" d="M13,3.1c1.7-0.6,4.9,1.7,6.1,2.8c1.5,1.3,4.4,3.5,4.5,5.7c0.1,3-6.9-1.3-7.8-2C14.3,8.5,15,9.4,13.6,8
				c-1.2-1.2-3.5-4.2-1.3-4.6"/>
		</g>
		<path class="st1" d="M7.2,21.4c-3,5.1,2,13.1,8.7,16.9c6.6,3.9,15.9,3.9,19-1.1c3-5.1-1.3-13.4-7.9-17.3
			C20.3,16.1,10.3,16.3,7.2,21.4z"/>
		<path class="st1" d="M9.5,18.5c0-0.2,0-0.3,0.1-0.5c4.9-0.4,1.7,7.1-0.8,8.1C6.5,27,5,25.5,5.4,23.5c0.2-1.4,0.6-4.3,2.4-4.7"/>
		<path class="st1" d="M17.7,18.7c1.5-1,5.2,0.4,6.7,1.2c1.8,0.9,5.2,2.3,5.8,4.4c0.9,2.8-4.6,2.3-5.6,1.9c-1.8-0.7-3.5-3.5-5.2-4.5
			c-1.4-0.8-3.2-1.5-3.8-3.1"/>
		<path class="st1" d="M60.8,52.9c1.3-0.1,2.7,0.3,4,0.3c1.7,0,3.4-0.1,5-0.7c1.6-0.6,3.2-1.6,4.9-1.9c1.2-0.2,2.3-0.8,3.3-1.1
			c0.5,2.5-6.1,3.7-7.1,4.2c-2.6,1.5-5.7,1.7-8.6,2c-0.5,0-1,0.4-1.5,0.4c-0.2-0.8,0.3-1.3-0.1-2L60.8,52.9z"/>
		<g>
			<path class="st1" d="M32.6,54.9c-0.1,5.9,7.8,10.6,15,10.8c7.2,0.3,14.9-4.1,15-10c0.1-5.9-7.3-11.2-14.5-11.4
				C40.9,43.9,32.7,48.9,32.6,54.9z"/>
			<path class="st1" d="M33.1,51.2c-0.1-0.1-0.2-0.3-0.1-0.5c3.9-2.7,4.7,5.5,3.1,7.5c-1.5,1.9-3.3,1.3-4-0.7
				c-0.5-1.3-1.5-4.1-0.2-5.3"/>
		</g>
		<path class="st1" d="M38.4,36c0,0-1.4-7.3-5.3-11.8c-3.6-4.1-6.3-4.4-6.3-4.4s4.5,3,6.4,6.4c1.9,3.4,2.8,6.4,2.9,8.9
			C36.2,37.7,38.4,36,38.4,36z"/>
		<path class="st1" d="M35.8,58.3c0,0,6.7,0.2,10.4,1.5c3.6,1.3,3.5,3.4-0.7,4.1C41.3,64.6,34.7,59.4,35.8,58.3z"/>
		<path class="st1" d="M17,35.9c0,0,6.8-1.1,10.4,0.2c3.6,1.3,3.5,3.4-0.7,4.1C22.6,40.8,15.9,37,17,35.9z"/>
	</g>
	<path class="st1" d="M48.9,46.1c1.7-0.6,4.9,1.7,6.1,2.8c1.5,1.3,4.4,3.5,4.5,5.7c0.1,3-6.9-1.3-7.8-2c-1.6-1.1-0.8-0.2-2.2-1.6
		c-1.2-1.2-3.5-4.3-1.3-4.6"/>
</g>
</svg>
