<?xml version="1.0" encoding="utf-8"?>
<!-- Generator: Adobe Illustrator 19.1.0, SVG Export Plug-In . SVG Version: 6.00 Build 0)  -->
<svg version="1.1" id="Calque_1" xmlns="http://www.w3.org/2000/svg" xmlns:xlink="http://www.w3.org/1999/xlink" x="0px" y="0px"
	 viewBox="0 0 90 94" style="enable-background:new 0 0 90 94;" xml:space="preserve">
<style type="text/css">
	.st0{opacity:0.2;}
	.st1{fill:#014839;}
</style>
<g class="st0">
	<g>
		<path class="st1" d="M3.5,32.7c0.4,1.9,0.8,3.8,1.2,5.7l0,0c0,0,2.4,10.3,6.3,16.5c3.9,6.2,5.8,9.6,5.8,9.6S7.3,62.3,2.2,54.2
			c-7.9,16.6,7.9,31.7,20.3,37.2c14,6.3,29.6,0.7,34.8-9.8c5.2-10.5,7.5-31.1,14-40.8c6.5-9.7,17.9,2,18.6-4.6
			c0.4-3.6-2.9-11.8-18.8-19.3c-9-4.3-16.7-6.2-22.2-6.3c-1.3,2-1.8,5.2-0.8,8.2c1.5,4.5,10.2,10.3,14.4,12.6c4.2,2.3-6.3,1-12-2.3
			c-4.4-2.6-9.9-7.9-12.6-12.8c-2.7-4.1-5.8-8.1-9.4-11.5C14.5-9.1-0.8,9.7,3.5,32.7z M26,12.2c2.4,2.1,5,5.2,7.4,8.6
			C28.2,25.5,20.9,32,12.9,40.6c-1.2-3.5-2.3-6.9-2.9-10.1C6.6,13.3,17.1,4.6,26,12.2z"/>
		<path class="st1" d="M48.1,17.9c0,0,7.3,0.8,13.6,4.7c6.3,3.9,12.7,8.8,9,10.1c-3.6,1.4-8.1-0.2-8.1-0.2S47.1,23.3,48.1,17.9z"/>
	</g>
	<path class="st1" d="M62.1,52.8c0,0-2.8,22.2-9,29.8c-6.2,7.6-17.7,8.1-17.7,8.1S53,73.4,62.1,52.8z"/>
</g>
</svg>
