<?xml version="1.0" encoding="utf-8"?>
<!-- Generator: Adobe Illustrator 19.1.0, SVG Export Plug-In . SVG Version: 6.00 Build 0)  -->
<svg version="1.1" id="Calque_1" width="82px" height="41px" xmlns="http://www.w3.org/2000/svg" xmlns:xlink="http://www.w3.org/1999/xlink" x="0px" y="0px"
	 viewBox="0 0 82 41" style="enable-background:new 0 0 82 41;" xml:space="preserve">
<style type="text/css">
	.st0{fill:none;}
	.st1{fill:#0095AC;}
	.st2{fill:#1FB4B8;}
	.st3{fill:#93BE4B;}
	.st4{fill:#C1D456;}
</style>
<g>
	<g>
		<g>
			<path class="st0" d="M48.3,24.6c0,0,2.3-0.1,0.9-0.4c-0.5-0.1-0.9-0.2-1.2-0.3c0.4,0.1,2.4,0.6,4.6,0.6c2.4,0,4.6-0.6,4.6-0.6
				s-1.5,0.7-4.6,1c-3.1,0.3-5.9-0.6-5.9-0.6l0,0c0,0,0.1,0,0.1,0L48.3,24.6z"/>
			<path class="st1" d="M65.9,10.4C71.7,4.5,73.2,0,73.2,0s-0.9,10.1-7.7,18c0,0.1-0.1,0.2-0.1,0.2l2.2-1.2c0,0-0.9,1.7-2.9,4
				c-2,2.3-5.9,5.6-5.9,5.6l1.5,0.4c0,0-1.2,1.5-4.4,3.6c-2.3,1.5-5.6,3.1-7.3,3.8c-0.3,0.2-0.7,0.4-1,0.5l2.9,0.9
				c0,0-4,1.6-7.3,2.3c-3.3,0.7-8.3,0.3-8.3,0.3l2.3,2.2c0,0-4.7-0.5-9.1-2c-4.4-1.5-9-4.1-9-4.1l1,3.2c0,0-3.1-2.3-4.7-4.2
				c-3.9-4.5-5.3-7.8-5.3-7.8l-0.4-0.4c0.1,0,0.2,0.1,0.3,0.1c-0.4-0.6-0.6-1-0.6-1s5.9,2.1,13,2.8c0.4,0.5,2.2,2.6,6.8,5.6
				c5.4,3.5,11,3.6,11,3.6s-3.5-0.6-8.2-3.1c-4.1-2.2-6.6-5.2-7.2-6c3.1,0.1,6.3,0.1,9.5-0.3c0.5,0.4,4.7,3.2,9.7,3.7
				c5.4,0.5,9.8-0.6,9.8-0.6s-6.2,0.8-10.2-0.1c-3.5-0.8-6.8-2.7-7.6-3.2c1.3-0.2,2.5-0.5,3.7-0.8c2.7-0.8,4.5-1,6.6-1.7
				c0.1,0,3,1,6.1,0.7c3.1-0.3,4.6-1,4.6-1s-2.2,0.6-4.6,0.6c-2.1,0-4.5-0.6-4.8-0.7c0,0,0.1,0,0.1,0c2.6-1,5.9-2.8,7.9-3.8
				c-1-0.5-1.7-0.9-1.7-0.9s2.8-0.8,7.7-4.9c0.7-0.3,4-1.7,6-3.2c2.8-2.1,3.1-4.4,3.1-4.4C69.8,8.9,67.3,10,65.9,10.4z"/>
		</g>
		<g>
			<path class="st2" d="M47.8,23.8c0.1-0.2,1.3-1.8,3.2-3.4c2-1.7,2.3-1.9,2.3-1.9s-1,0.5-3.3,2.4c-2.4,2-3.5,3.4-3.5,3.4
				c-3,1-6.4,1.9-10.2,2.2c0.5-0.6,2.2-2.7,5.2-4.5c3.4-2.1,6.9-3.3,6.9-3.3s-4,0.9-8.1,3.3c-3.5,2.1-5.2,4-5.7,4.6
				c-1.2,0.1-2.5,0.1-3.9,0.1c-2,0-3.9-0.2-5.6-0.4c0.5-0.7,1.8-2.2,3.9-3.7c2.9-2.1,6-3.3,6-3.3s-3.3,0.9-6.6,2.8
				c-2.5,1.5-4.3,3.2-5.1,3.9c-7.8-1.3-13.2-4-13.2-4s0.2-0.1,0.8-0.2c1.2-0.3,3.7-1.1,6-1.8c3.1-1,8.8-2.1,8.8-2.1l-2.5,1.5
				c0,0,4.8-0.8,8.2-1.3c2.6-0.4,8.9-1.3,8.9-1.3l-2.7,1.4c1.1-0.1,2.3-0.1,3.5-0.2c1.5-0.1,3.1-0.3,4.6-0.6
				c3.4-0.6,8.1-2.1,8.1-2.1l-2,1.6c0.3-0.1,0.7-0.1,1-0.2c1.2-0.3,2.2-0.6,3.8-1.2c2.9-1,5.5-2.9,5.5-2.9l-1.4,1.7
				c4.7-1.8,7.5-3.8,8.1-4.2c-0.6,0.8-3.4,3.9-9.1,7.4C56.2,19.8,52.4,22.1,47.8,23.8z"/>
		</g>
		<path class="st1" d="M15.2,26.1c0,0-4.9-1-8.4-2.9C2.5,20.8,1.4,19,1.4,19s-0.6-0.7-1.1-0.1c-0.7,0.8,0.1,1.6,0.1,1.6
			s2.2,3.1,11.3,6.2C18.1,28.9,15.2,26.1,15.2,26.1z"/>
	</g>
	<g>
		<path class="st3" d="M72.2,31.5c-0.8,0.1-1.3,0.1-1.5,0c-0.7,0.9-1.4,1.7-2.2,2.4c0.4,0,1.1,0.1,2,0c1.1,0,2.2-0.1,2.9-0.2
			c0.4-0.3,0.7-0.7,1.1-1.1c0.5-0.6,1-1.2,1.5-1.8c-0.7,0.1-1.7,0.3-2.7,0.4C72.9,31.5,72.5,31.5,72.2,31.5z"/>
		<path class="st3" d="M74.2,28.6c-0.8,0.1-1.4,0-1.5,0c-0.5,0.9-1,1.7-1.6,2.4c0,0,0,0,0,0c0.3,0,0.6,0,1.1,0
			c0.3,0,0.7-0.1,1.1-0.1c1.1-0.2,2.4-0.4,3.1-0.5c0.6-0.8,1.1-1.6,1.5-2.4c-0.7,0.1-1.7,0.3-2.6,0.4C74.9,28.6,74.5,28.6,74.2,28.6
			z"/>
		<path class="st3" d="M74,26.2c-0.1,0-0.1,0-0.2,0c-0.3,0.7-0.7,1.4-1,2.1c0.3,0,0.7,0,1.3,0c0.3,0,0.7-0.1,1.1-0.1
			c1-0.1,2.1-0.3,2.9-0.5c0.5-0.9,0.8-1.8,1.1-2.6c-0.7,0.2-1.8,0.5-2.9,0.7C75.2,26,74.5,26.1,74,26.2z"/>
		<path class="st3" d="M65.9,36.3c-1.8,1.5-3.2,2.4-3.2,2.4s0,0,2-0.2c1.1-0.1,2.6-0.5,4.5-1.5c-0.3,0-0.7-0.1-1-0.2
			C67,36.7,66.2,36.4,65.9,36.3z"/>
		<path class="st3" d="M68.1,34.4c-0.6,0.6-1.2,1.1-1.8,1.6c0.4,0.1,1.1,0.3,2.1,0.5c0.5,0.1,1,0.2,1.5,0.2c1-0.6,2-1.4,3.1-2.4
			c-0.7,0.1-1.6,0.1-2.4,0.1C69.3,34.5,68.5,34.5,68.1,34.4z"/>
		<g>
			<path class="st3" d="M77.5,17.3c0.3,0,1.1-0.2,2.4-0.6c0.2-0.1,0.3-0.1,0.5-0.2c0.3-0.8,0.6-1.5,1-2.2c-1.6,0.5-2.5,0.6-2.5,0.6
				l-0.3,0l0.2-0.5c0,0,1-0.1,2.7-0.7c0.1,0,0.1,0,0.2-0.1c0-0.1,0.1-0.1,0.1-0.2c0.6-1.7-1-5.2-1.2-5.6c0,2-1.6,6.5-2.5,8.4
				C77.8,16.5,77.6,16.9,77.5,17.3z"/>
			<path class="st3" d="M78.6,19.6c0.5-0.2,1-0.3,1.5-0.5c0-0.8,0-1.5,0.2-2.1C80.2,17,80.1,17,80,17c-1.7,0.6-2.7,0.7-2.7,0.7l0,0
				l-0.1,0c-0.3,0.7-1.1,2.4-1.1,2.5C76.4,20.2,77.2,20,78.6,19.6z"/>
		</g>
		<path class="st3" d="M74.9,23.7c-0.2,0.6-0.5,1.3-0.8,2.1c0.4,0,1.2-0.1,2.2-0.4c1.2-0.3,2.5-0.6,3.1-0.8c0.3-0.8,0.5-1.7,0.6-2.4
			c-0.7,0.3-1.6,0.6-2.5,0.9C76,23.5,75.1,23.6,74.9,23.7z"/>
		<path class="st3" d="M76.1,20.6L76.1,20.6l-0.1,0c0,0.1-0.1,0.1-0.2,0.4c-0.2,0.6-0.4,1.3-0.7,2.2c0.4-0.1,1.2-0.2,2.3-0.6
			c1-0.3,2-0.7,2.7-1c0.1-0.7,0.1-1.4,0.1-2.1c0,0,0-0.1,0-0.1c-0.4,0.2-0.9,0.3-1.4,0.5C77,20.5,76.1,20.6,76.1,20.6z"/>
		<path class="st4" d="M61.6,38.1c4.2-2,8.7-6.7,11.9-12.6c0.1-0.2,0.2-0.3,0.3-0.5c1.1-2,1.7-3.3,2-4c0.1-0.3,1.5-3.3,1.5-3.5l0,0
			c0,0,0,0,0,0c0,0,0.5-1,0.6-1.3c0.9-1.9,2.4-6.4,2.5-8.4c0,0,0-0.1,0-0.1c0,2.5-3,5.4-3.9,7.7c-0.9,2.3-3.5,6.3-5.5,7.7
			c-2,1.4-1.4,4-2.5,6.2c-1.1,2.2-2.7,1.6-3.9,2.7c-1.2,1.2-3,4.7-3,4.7s-1.6,1.1-3.7,1.8c-2,0.8-3.3,1.1-3.3,1.1s-0.2,0-0.4,0.4
			c-0.2,0.5,0.2,0.6,0.2,0.6S57.4,40.1,61.6,38.1z"/>
	</g>
</g>
</svg>
