<?xml version="1.0" encoding="utf-8"?>
<!-- Generator: Adobe Illustrator 19.1.0, SVG Export Plug-In . SVG Version: 6.00 Build 0)  -->
<svg version="1.1" id="Calque_1" xmlns="http://www.w3.org/2000/svg" xmlns:xlink="http://www.w3.org/1999/xlink" x="0px" y="0px"
	 viewBox="0 0 55 67" style="enable-background:new 0 0 55 67;" xml:space="preserve">
<style type="text/css">
	.st0{fill:#007A33;}
	.st1{fill:#00943A;}
	.st2{fill:#00AA9D;}
	.st3{fill:#00847C;}
</style>
<g>
	<g>
		<g>
			<path class="st0" d="M3.8,0c0,0-0.9,6.1-2.7,13.1c-2.2,8.6-0.7,13.1,2,17.8c8.3,14.4,34.6,9.4,34.6,9.4s-11.8-1.7-20.4-14.1
				C10.6,16.6,3.8,0,3.8,0z"/>
			<path class="st1" d="M34.4,37.6c0,0-10.3-18.9-18.8-25.7C8.7,6.4,3.8,0,3.8,0s7.8,21.4,16.1,28.9C28.2,36.5,34.4,37.6,34.4,37.6z
				"/>
		</g>
		<path class="st0" d="M28.8,37.6c0,0,4.8,1.5,7.7,2.3c2.9,0.8,9.1,1.5,9.1,1.5s0.4,0.5,0.2,1c-0.2,0.5-1,0.7-1,0.7
			s-5.2-1.6-8.6-2.4c-3.4-0.8-8-1-10.4-1.3C23.4,39.2,28.8,37.6,28.8,37.6z"/>
	</g>
	<path class="st1" d="M22.2,32c0,0-2.9,1.5-6.2,2.2c-4.3,0.9-8.3-0.5-8.3-0.5s3.2,0.9,7.4,0c2.4-0.5,6.4-2.4,6.4-2.4L22.2,32z"/>
	<path class="st1" d="M17.7,26.9c0,0-5.2,0.5-9.6-0.8c-4.5-1.3-5.3-2.3-5.3-2.3s3.4,1.4,6.2,1.9c4,0.7,8,0.1,8,0.1L17.7,26.9z"/>
	<path class="st1" d="M12.9,19.5c0,0-2.8,0-5.9-1.4C3.9,16.7,2.1,15,2.1,15s3.2,1.9,5.3,2.7c2.1,0.8,5,1.1,5,1.1L12.9,19.5z"/>
	<path class="st0" d="M22.8,31.4c0,0,0.6-3,0.5-5.1c-0.1-1-0.4-2.5-0.4-2.5s0.2,1.6-0.1,4.2c-0.1,1.2-0.8,2.9-0.8,2.9L22.8,31.4z"/>
	<path class="st0" d="M17.9,26.8c0,0,1-3.1,0.7-6.3c-0.2-1.5-0.9-3.6-0.9-3.6s0.6,2,0.5,4.5c-0.1,3-1,4.4-1,4.4L17.9,26.8z"/>
	<path class="st0" d="M12.7,19.5c0,0,0.8-2.3,0.7-4.5c-0.1-1-0.5-2.4-0.5-2.4s0.2,1.8,0.1,3.1c-0.1,1.3-0.8,3.1-0.8,3.1L12.7,19.5z"
		/>
</g>
<g>
	<path class="st2" d="M5.8,56.2c0,0-2.7,0.2-3,2.4c-0.3,2.2,2.6,2.8,2.6,2.8s-0.7,2.9,0.6,4.2c3.6,3.6,6.4-1.8,6.4-1.8
		s2.2,2.7,4.9,0.3c2.1-1.9-0.4-6.4-0.4-6.4s1.7-3.2-0.7-4.6c-2.4-1.4-5.7,0.5-5.7,0.5S5.2,51.7,5.8,56.2z"/>
	<path class="st3" d="M14.5,59.1c0,0-0.1-2.4-2.3-2.8c-2.2-0.4-3.7,1.3-3.7,1.9c0,0.6-0.3,2.3,1.5,3C11.7,61.8,14.3,60.6,14.5,59.1z
		"/>
</g>
<g>
	<path class="st2" d="M38.7,4.7c0,0-3.6,0.3-3.9,3.2c-0.4,2.9,3.4,3.7,3.4,3.7s-1,3.8,0.8,5.6c4.7,4.8,8.5-2.3,8.5-2.3
		s2.9,3.6,6.4,0.4c2.8-2.5-0.5-8.5-0.5-8.5s2.2-4.2-1-6.1C49.2-1.2,45,1.3,45,1.3S37.9-1.2,38.7,4.7z"/>
	<path class="st3" d="M50,8.5c0,0-0.2-3.2-3-3.7c-2.9-0.5-4.9,1.7-4.9,2.5c0,0.8-0.4,3,2,3.9C46.5,12,49.8,10.5,50,8.5z"/>
</g>
</svg>
