<?xml version="1.0" encoding="utf-8"?>
<!-- Generator: Adobe Illustrator 19.1.0, SVG Export Plug-In . SVG Version: 6.00 Build 0)  -->
<svg version="1.1" id="Calque_1" xmlns="http://www.w3.org/2000/svg" xmlns:xlink="http://www.w3.org/1999/xlink" x="0px" y="0px"
	 viewBox="0 0 54 39" style="enable-background:new 0 0 54 39;" xml:space="preserve">
<style type="text/css">
	.st0{fill:#00A099;}
	.st1{fill:#90CFCF;}
</style>
<g>
	<g>
		<path class="st0" d="M41.3,3.2C39.1,2,36.6,1.2,34,1c-2.2-1.4-8,0-11.4,2.2C19.1,5.6,17,8,16.4,10.1c-2.3,3.7-3.3,8-2.8,12.3
			c-1.7-0.5-2.9-2.3-4.2-4.5c-1.8-3-4.3-3.5-6.2-2.6c-2,0.9-3.1,2.2-3.1,2.2s3.5-0.3,4.8,2.4c1.3,2.7,1.6,9.5,9.3,11.4
			c1.2,0.3,2.5,0.5,3.7,0.6c2.6,2.8,6,4.7,9.6,5.4c1.8,2.4,7.7,1.7,13.3-1.8c1.2-0.7,2.2-1.5,3.1-2.3c-5,2.3-11.2,0.7-11.2,0.7
			s5.5-1.8,7.9-5.9c4.7-8.2,2.4-14.2,1.2-16.5c-0.4-0.6-0.8-1.2-0.8-1.2c0,0,1.9,0.1,1.9,0.1s4,0.5,6.5,3.8c-0.4-1.6-1-3.2-1.9-4.6
			c-0.8-1.4-1.8-2.6-2.9-3.7c0.5-0.4,1.1-0.7,1.8-0.8c3.9-0.9,5.3,4.6,3.2,9.5c0,0,0,0,0,0c0,0,0,0.1,0,0.1
			c-0.2,0.5-0.5,0.9-0.8,1.3c-1.8,2.1-2.6,3.9-2.7,4.7c-0.1,0.8,0.2,3.8,1.6,3.6c1.4-0.2,2.6-3.6,2.6-3.6s0.3-0.9,0.7-2.2
			c0.2-0.5,0.5-1,0.7-1.6c2.6-5.5,3-11.7-1.4-15C47.2-0.9,43,1.9,41.3,3.2z M25,4.9c1.4-1.1,1-2.2,1-2.2s4.5-0.4,1.7,2
			c-1.3,1.1-3.4,1.1-3.4,1.1S23.8,5.9,25,4.9z M36,3.9c0,0,1.4,2.9-2.6,5.7c-4,2.9-6.9,2.4-6.9,2.4s3.4-1.3,6.6-5.2
			c2.1-2.5,1.8-4.4,1.8-4.4C35.4,2.5,36,3.9,36,3.9z"/>
		<path class="st1" d="M25.5,36.5c0,0,2.3,1.1,6.5,0.5c6.7-1,6.5-1,6.5-1s2.4,0.1-2.4,1.7c-4.5,1.5-5.4,0.9-5.4,0.9
			S27.3,38.4,25.5,36.5z"/>
		<path class="st1" d="M4.6,14.9c0,0-0.7-0.3-2,0.5c-1.3,0.8-2.4,2-2.4,2s1.5-0.2,2.8-0.8C4.3,16,6.3,15,4.6,14.9z"/>
		<path class="st1" d="M5.6,21.5c0,0,2.9,2.5,4.2,4.2c1.3,1.7,2.5,4.9,2.5,4.9s-3-1.2-4.6-3.9C6.1,24,5.6,21.5,5.6,21.5z"/>
		<path class="st1" d="M50.8,9.7c0,0,0.2,2.6-1,4.7c-1.2,2.1-2.2,3-2.5,4.2c-0.3,1.1,1.1,1.5,1.1,1.5c0.6-0.9,2.5-3,3-5.7
			C51.8,11.8,50.8,9.7,50.8,9.7z"/>
		<path class="st1" d="M24.1,5.7C24,5.8,23.8,5.9,23.7,6c-1.5,0.9-3.1,0.6-3.7-0.4c-0.5-0.9,0.3-2.5,1.8-3.4
			c0.8-0.5,1.6-0.7,2.2-0.7c-0.7-0.1-1.6,0.1-2.4,0.6l-0.2,0.1c-0.3,0.1-0.6,0.3-0.9,0.6c-0.8,0.8-1.1,1.8-0.9,2.5
			c-0.2,0.1-0.4,0.3-0.6,0.5c-1.7,1.4-2.7,3-3.3,4.4c-0.3,0.6-0.5,1.2-0.5,1.8c-1.9,3.7-3.1,9.6-0.2,15.3c1.3,2.5,4.1,4.3,5.9,5.3
			c2.1,1.2,3.8,1.3,3.7,1.2c-0.3-0.2-3.2-1.9-4.4-6.3C18.7,21,22,19.8,21,17.2c-0.5-1.2-1.2-1.2-2.3-1.3c-0.8-0.3-0.8-1.2-0.8-1.2
			s-0.1-0.3,0.1-0.7c0.7,0.1,1.3-0.1,1.6-0.2c0.1,0,0.2,0,0.3-0.1c2.8-0.9,4.1-2.7,5.4-4.2c1.4-1.8,1.5-4.2,1.5-4.2
			s-1.7,0.5-2.1,0.5C24.4,5.8,24.2,5.7,24.1,5.7z"/>
		<path class="st1" d="M38.7,6.5c0,0,1.3-2.6,3.8-4.2c2.1-1.3-1,3.6-3.1,5.1C38.3,8.1,38.3,7.8,38.7,6.5z"/>
	</g>
	<path class="st0" d="M26,3.6c-0.3,0.8-2,1.2-3.4,0.6c-1.4-0.5-1.9-1.7-1.6-2.6c0.3-0.8,1.7-1.1,3.1-0.5C25.5,1.7,26.3,2.8,26,3.6z"
		/>
	<path class="st1" d="M24.8,2.3c-0.1,0.7-1.1,1.1-2.1,0.9c-1.1-0.2-1.8-0.9-1.7-1.6C21,1,22,0.6,23.1,0.7
		C24.1,0.9,24.9,1.6,24.8,2.3z"/>
</g>
</svg>
