<?xml version="1.0" encoding="utf-8"?>
<!-- Generator: Adobe Illustrator 19.1.0, SVG Export Plug-In . SVG Version: 6.00 Build 0)  -->
<svg version="1.1" id="Calque_1" xmlns="http://www.w3.org/2000/svg" xmlns:xlink="http://www.w3.org/1999/xlink" x="0px" y="0px"
	 viewBox="0 0 37 20" style="enable-background:new 0 0 37 20;" xml:space="preserve">
<style type="text/css">
	.st0{fill:#FFF4C9;}
</style>
<g>
	<g>
		<path class="st0" d="M23.2,5.4C23.3,5,24,2.1,21.5,1.1c-2.7-1-4.3,2-4.3,2l0.5,0.2c0.9,0.1,1.8,0.3,2.9,0.7
			C21.7,4.4,22.5,4.9,23.2,5.4z"/>
		<path class="st0" d="M23.2,10.7c0.3-1,0.3-1.9,0.2-2.5c-0.7-0.6-1.9-1.3-3.4-1.9c-0.1,0-0.2-0.1-0.3-0.1C19.5,6,19.3,6,19.1,5.9
			c-1.5-0.5-2.9-0.7-3.9-0.8c-0.5,0.5-1,1.1-1.5,2c-0.9,1.8-0.8,3.6-0.7,4.6c0.8,0.6,1.9,1.2,3.2,1.8c0.2,0.1,0.3,0.2,0.5,0.2
			c0.1,0,0.1,0,0.2,0.1c1.4,0.5,2.6,0.7,3.6,0.8C21.4,14,22.7,12.7,23.2,10.7z"/>
		<path class="st0" d="M16.2,16.1c-0.1,0-0.1,0-0.2-0.1c-0.2-0.1-0.4-0.2-0.6-0.3c-1.1-0.5-2-1-2.7-1.6c-0.1,0.3-0.4,1-0.3,1.9
			c0.1,0.7,0.9,1.7,1.6,2.1c0.1,0,0.1,0.1,0.2,0.1l0,0c0,0,0.2,0.1,0.6,0.2c0.4,0.1,0.6,0.2,0.6,0.2l0,0c0.1,0,0.1,0,0.2,0
			c0.9,0.2,2-0.1,2.6-0.5c0.6-0.4,0.9-1.1,1-1.4C18.3,16.7,17.3,16.5,16.2,16.1z"/>
	</g>
	<path class="st0" d="M24.8,8.7c0,0,3.4,0,6.4,1.1c3,1.2,5.9,3.1,5.8,4.6c-0.2,1.6-2.1,2.1-3.7,2c-1.6-0.1-3.4-0.8-3.4-0.8
		s1.2,1.8,0.3,2.5c-0.8,0.6-3,0.3-5.2-1.8c-2.1-2-3-3.4-3-3.4s1.1-0.6,2-2.1C24.8,9.3,24.8,8.7,24.8,8.7z"/>
	<path class="st0" d="M13.6,4.1c0,0-2.7-2.3-5.7-3.3C4.8-0.1,1.2-0.5,0.4,1C-0.5,2.4,0.7,4.2,2,5.1c1.3,0.9,3.2,1.5,3.2,1.5
		S3.1,7.4,3.4,8.6c0.2,1,2.1,2.2,5.2,1.9c2.9-0.3,4.6-0.9,4.6-0.9s-0.5-1.3-0.2-3.1C13.2,4.6,13.6,4.1,13.6,4.1z"/>
</g>
</svg>
