<?xml version="1.0" encoding="utf-8"?>
<!-- Generator: Adobe Illustrator 19.1.0, SVG Export Plug-In . SVG Version: 6.00 Build 0)  -->
<svg version="1.1" id="Calque_1" xmlns="http://www.w3.org/2000/svg" xmlns:xlink="http://www.w3.org/1999/xlink" x="0px" y="0px"
	 viewBox="0 0 64 70" style="enable-background:new 0 0 64 70;" xml:space="preserve">
<style type="text/css">
	.st0{fill:#FAB900;}
</style>
<path class="st0" d="M3,35.2c5.7-14.5,20.1-24,33.4-29.4c14-5.7,24-5.9,27.1-5.8c-3.3,1.5-13.4,6.5-31.3,19.6
	c-12.4,9.1-17,17.2-17,17.2s6.7-7,18.6-15.1C42,15.9,60,5.2,64,1c-1.8,3.3-8.7,15.2-22.2,27.1c-17.1,15.1-25,14.5-34,29
	c-2.9,4.7-3.7,13-3.7,13S-4.3,53.9,3,35.2z"/>
</svg>
