<?xml version="1.0" encoding="utf-8"?>
<!-- Generator: Adobe Illustrator 19.1.0, SVG Export Plug-In . SVG Version: 6.00 Build 0)  -->
<svg version="1.1" id="Calque_1" xmlns="http://www.w3.org/2000/svg" xmlns:xlink="http://www.w3.org/1999/xlink" x="0px" y="0px"
	 viewBox="0 0 63 84" style="enable-background:new 0 0 63 84;" xml:space="preserve">
<style type="text/css">
	.st0{fill:#F5BE00;}
	.st1{fill:#FFF4C9;}
</style>
<g>
	<g>
		<path class="st0" d="M49.6,44.2c0,0,2-2.2,0.5-1.2c-0.6,0.4-1,0.6-1.4,0.8c0.5-0.3,2.8-1.7,4.7-3.6c2.2-2.2,3.6-4.7,3.6-4.7
			s-0.7,2-3.2,5.1c-2.5,3.1-5.9,4.8-5.9,4.8l0,0c0.1,0,0.1,0,0.1-0.1L49.6,44.2z"/>
		<path class="st0" d="M52.1,15.7C51.8,5.4,49,0,49,0s8.7,9.6,10,22.6c0,0.1,0,0.2,0.1,0.3l0.9-3.1c0,0,0.8,2.3,1.1,6.1
			c0.3,3.8,0,10.2,0,10.2l1.7-1c0,0,0.3,2.4-0.6,7.1c-0.6,3.4-2.2,7.7-3,9.9c-0.1,0.4-0.3,0.9-0.4,1.4l3.4-1.8c0,0-2.1,5-4.4,8.6
			c-2.3,3.6-7.3,7.8-7.3,7.8l4.2-0.1c0,0-4.7,3.8-10.1,6.5c-5.4,2.7-12,4.6-12,4.6l3.9,1.9c0,0-4.9,0.8-8.2,0.6
			c-7.7-0.4-12.1-2-12.1-2l-0.7,0c0.1-0.1,0.2-0.1,0.4-0.2c-0.9-0.2-1.5-0.3-1.5-0.3s7.3-3.5,14.4-9.4c0.9,0.1,4.5,0.3,11.5-1.3
			c8.1-1.9,13.3-6.8,13.3-6.8s-3.7,2.7-10.4,4.8c-5.8,1.8-10.9,1.4-12.1,1.3c2.9-2.7,5.8-5.7,8.3-8.9c0.8-0.2,7.3-1.5,12.3-5.6
			c5.3-4.4,8.3-9.5,8.3-9.5s-4.8,6.3-9.3,9.2c-3.9,2.5-8.8,3.8-9.9,4.1c1-1.3,1.8-2.7,2.6-4.1c1.7-3.2,3.1-5,4.4-7.4
			c0.1,0,3.7-1.9,6.2-4.9c2.5-3.1,3.2-5.1,3.2-5.1s-1.5,2.5-3.6,4.7c-1.9,1.9-4.6,3.5-5,3.8c0,0,0-0.1,0.1-0.1
			c1.4-3.2,2.7-7.8,3.6-10.5c-1.4,0.5-2.4,0.7-2.4,0.7s1.8-3.2,2.4-11.3c0.4-0.9,2.1-5.1,2.5-8.3c0.5-4.4-1.4-6.7-1.4-6.7
			C54.3,10.9,53,14.1,52.1,15.7z"/>
	</g>
	<g>
		<path class="st1" d="M48.3,44c-0.1-0.3-0.5-2.8-0.4-5.9c0.2-3.3,0.3-3.8,0.3-3.8s-0.5,1.3-0.7,5.1c-0.3,3.9,0,6.1,0.1,6.2
			c-1.8,3.7-4,7.4-7.1,11.2c-0.1-0.9-0.5-4.4,0.5-8.6c1.1-5,3.1-9.1,3.1-9.1s-2.8,4.4-4.3,10.3c-1.2,5-0.9,8.3-0.8,9.2
			c-1.1,1.2-2.2,2.4-3.4,3.6c-1.8,1.8-3.7,3.3-5.5,4.8c-0.2-1.1-0.4-3.5,0.1-6.8c0.6-4.4,2.3-8.3,2.3-8.3s-2.1,3.9-3.3,8.5
			c-0.9,3.5-0.9,6.7-0.9,8c-8.3,6-15.7,8.5-15.7,8.5s0.2-0.3,0.5-0.9c0.8-1.4,2.4-4.3,3.8-7c1.9-3.7,6-9.8,6-9.8L22,62.7
			c0,0,3.7-5,6.2-8.6c2-2.8,6.8-9.1,6.8-9.1l-1.1,3.7c0.9-1.1,1.9-2.2,2.9-3.3c1.2-1.4,2.5-3.1,3.6-4.7c2.5-3.6,5.4-9.2,5.4-9.2
			l-0.3,3.2c0.2-0.4,0.5-0.7,0.7-1.1c0.8-1.3,1.4-2.6,2.3-4.5c1.7-3.5,2.3-7.5,2.3-7.5l0.4,2.8c2.5-5.8,3.2-10.1,3.3-11
			c0.2,1.3,0.6,6.5-1.2,14.7C52.2,32.8,50.9,38.3,48.3,44z"/>
	</g>
	<path class="st0" d="M20.9,75.5c0,0-5.3,3.5-10.3,5c-6.1,1.9-8.8,1.3-8.8,1.3s-1.2-0.1-1.1,0.9C0.8,84,2.2,84,2.2,84
		s4.9,0.6,16.1-4.8C26.2,75.3,20.9,75.5,20.9,75.5z"/>
</g>
</svg>
