<?xml version="1.0" encoding="utf-8"?>
<!-- Generator: Adobe Illustrator 19.1.0, SVG Export Plug-In . SVG Version: 6.00 Build 0)  -->
<svg version="1.1" id="Calque_1" xmlns="http://www.w3.org/2000/svg" xmlns:xlink="http://www.w3.org/1999/xlink" x="0px" y="0px"
	 viewBox="0 0 31 20" style="enable-background:new 0 0 31 20;" xml:space="preserve">
<style type="text/css">
	.st0{fill:#FFFFFB;}
	.st1{fill:#FFEB97;}
	.st2{fill:#FDC400;}
	.st3{fill:#FFD800;}
</style>
<g>
	<g>
		<path class="st0" d="M12.8,10.1c0,0-2.7-2.5-6.3-2.5c-1.6,0-4,0.8-4.9,2c-0.5,0.7,4.7,0.4,6.2,0.7c1.5,0.3,2.9,0.2,2.9,0.2
			S14.2,11.1,12.8,10.1z"/>
		<path class="st0" d="M16,10.8c0,0,3.2-3.2,8.3-4.9C29.7,4.1,31.1,6,31,6.6c-0.1,0.5-3.1,1-6.2,2.3c-3.1,1.2-6.8,3.1-7.6,3.7
			C16.4,13.1,16,10.8,16,10.8z"/>
		<path class="st0" d="M14.6,10.5c0,0,3.5-2.1,8.2-2.2c4.8-0.2,5.3,2,5.1,2.4c-0.2,0.5-2.8,0.1-5.7,0.4c-2.9,0.3-6.3,1-7.1,1.3
			C14.2,12.7,14.6,10.5,14.6,10.5z"/>
		<path class="st1" d="M17.7,10.1c0,0,1.1-0.7,2.3-1C21.3,8.8,23.3,9,23.2,9c-0.1,0.1-2.5,0.5-3.6,0.9c-1.1,0.4-2,0.8-2,0.8
			L17.7,10.1z"/>
		<path class="st1" d="M17.7,9.6c0,0,0.3-0.7,2-1.6c1.7-0.8,4.2-1.1,4.1-1c-0.1,0.1-2,0.9-3.4,1.8c-1.4,0.9-2.6,1.7-2.6,1.7
			L17.7,9.6z"/>
		<path class="st0" d="M15.4,10.4c0,0-2.9-1.3-7.2-1.5c-4.3-0.2-10,3.6-7.7,3.9c1.3,0.2,5.3-1.4,10.3,0.3c3.5,1.2,5.6-1,5.6-1
			S20.2,9.8,15.4,10.4z"/>
		<path class="st0" d="M14.8,11.8c0,0-3.9-1-9,0.3c-5.3,1.4-5.7,3.8-5.5,4.2c0.3,0.4,3-0.8,6.2-1.4c3.1-0.6,6.8-2,7.7-1.9
			C15.1,13.1,14.8,11.8,14.8,11.8z"/>
		<path class="st1" d="M14.3,11.9c0,0,1.3-3.9,3.9-6.5c2.6-2.6,6.1-3.8,7.1-3.6c3.1,0.6-2,3.1-5.3,6.1
			C16.7,10.8,14.3,11.9,14.3,11.9z"/>
		<path class="st1" d="M12.3,12.2c0,0,0.2-4.5,1.3-7.3c1.1-3,3.9-3.7,4.7-1.5c0.8,2.2,0.2,5.8-1.3,7.9
			C15.5,13.4,12.3,12.2,12.3,12.2z"/>
		<path class="st0" d="M12.1,11.3c0,0-6.1,2.4-7.1,5.7c-1,3.6,4.3-0.3,6.2-1.8c1.8-1.5,4.4-3.6,3.5-4C13.8,10.6,12.1,11.3,12.1,11.3
			z"/>
		<path class="st0" d="M13.2,13c0,0,0.8,1.9,4.4,2.4c2.2,0.3,5-0.3,4.9-1.6c-0.1-1.2-3-2.6-4.5-2.9C16.6,10.7,13.2,10.7,13.2,13z"/>
		<path class="st1" d="M12.4,11.3c0,0-1.3,0-3.1,0.3c-1.8,0.2-3.3,0.9-3.1,1c0.2,0,2.1-0.4,3.6-0.4c1.5,0,2.8,0.1,2.8,0.1L12.4,11.3
			z"/>
		<path class="st1" d="M11.7,10.2c0,0-1.3,0-3.1,0.3c-1.8,0.2-3.3,0.9-3.1,1c0.2,0,2.6-0.4,5.1,0.1c1.5,0.3,1.3-0.4,1.3-0.4
			L11.7,10.2z"/>
		<path class="st1" d="M13,9.6c0,0-1.2-0.4-2.9-0.7C8.4,8.6,6.7,9.2,6.8,9.3c0.1,0.1,2,0.2,3.4,0.7c1.4,0.5,2.5,1.2,2.5,1.2L13,9.6z
			"/>
		<path class="st2" d="M12.5,10.9c0.1,0.1,0.2,0.1,0.3,0c0.1-0.1,0.2-0.2,0.1-0.3c-0.1-0.1-0.2-0.1-0.3,0
			C12.5,10.6,12.4,10.8,12.5,10.9z"/>
		<path class="st0" d="M20.2,4.6c0,0,1.7-1.4,3.1-2c1.4-0.6,3.2-1,4-0.4c0.3,0.2-1,1.5-2.4,2.5c-1.4,1-4.9,3.3-4.9,3.3
			s-0.1-0.1,0.8-1.1c1.1-1.2,2.1-2,2.1-2s-1,0.2-2.4,1.3C19,7.2,19,7.3,18.2,7.9C18,8,17,8.8,17,8.8s-1.4,1.6-0.3,0.1
			c1.5-2.4,1.8-2.5,1.8-2.5S19.2,5.5,20.2,4.6z"/>
		<path class="st0" d="M7.5,4c0,0,1.5-1,2-1.1c0.5-0.1,2.6,0.3,3.7,1.8c1.1,1.4,1.3,3.2,1.3,3.2S14,7.1,13,6.1
			c-0.6-0.6-2.5-1.3-2.9-1.2C9.7,4.9,8.7,5.2,9,5.4c0.2,0.2,1.4,1.8,1.9,2.5c0.5,0.7,0.5,0.9,0.5,0.9S9.9,7.5,9,6.7
			C8,5.9,7,4.6,7.5,4z"/>
		<path class="st0" d="M8.2,5.5c0,0,2.2,2.5,2.8,3c0.6,0.5,1.3,0.4,1.3,0.4S11.9,7,11.3,6.1c-0.9-1.6-1.5-1.9-1.5-1.9L8.2,5.5z"/>
		<path class="st0" d="M14.9,6.7c0,0,0-2.2,2.1-4.9c0.8-1,1.8-1.5,2.1-1.6c0.3-0.1,1.6-0.2,1.7-0.1C21,0.2,21,1.4,20.1,3
			c-0.9,1.6-1.8,2.5-1.8,2.5s0.6-0.8,0.8-1.4c0.2-0.9,0.2-1.4-0.1-1.2c-0.3,0.2-1.7,1.2-2.1,1.6C15.7,5.6,14.9,6.7,14.9,6.7z"/>
		<path class="st0" d="M10,10.3c0,0-2.7-0.1-4.5,0.4c-1.8,0.5-1.5-0.8-0.3-1.1C6.4,9.3,10,10.3,10,10.3z"/>
		<g>
			<path class="st3" d="M11,12.1c0,0,0.1-1.6,1.4-2.5c1.5-1.1,3.2-1.2,4.5-1.2c1.3,0,2.3,1.2,2.3,1.2s-0.3,0.9-3.9,2.3
				C12.9,12.7,11.4,12.5,11,12.1z"/>
			<path class="st2" d="M11,12.1c0-0.2,0.1-0.5,0.2-0.6c0-0.1,0.2-0.2,0.3-0.2c0.1,0,0.2,0.1,0.3,0.1c0,0,0,0.1,0,0.1
				c0.1-0.1,0.2-0.2,0.3-0.3c0.1,0,0.2,0.2,0.3,0.2c0.1,0,0.1-0.1,0.1-0.1c0.1,0,0.1,0,0.2,0c0.2,0,0.2-0.1,0.3-0.3
				c0.2-0.2,0.2,0,0.4,0c0.1,0,0.1-0.1,0.2-0.1c0.1,0,0.1,0,0.2,0c0.2,0,0.2,0,0.3-0.2c0.1-0.2,0.2-0.3,0.3-0.2
				c0.1,0.1,0.2,0.2,0.3,0.3c0.2,0.1,0.3,0.1,0.4,0.2c0.2-0.3,0.3,0.1,0.4,0.2c0.2,0,0.3-0.1,0.4-0.2c0.2-0.1,0.2-0.1,0.2-0.3
				c0-0.2,0-0.3,0.1-0.5c0.1,0,0.1,0,0.2-0.1c0.1-0.1,0.1-0.2,0.1-0.2c0.3-0.1,0.6,0.3,0.8,0c0.1-0.1,0-0.3,0.1-0.4
				c0.1-0.1,0.3,0,0.4,0c0.1-0.1,0.2,0,0.3-0.1c0.1,0,0.2-0.1,0.3-0.1c0.2,0,0.3,0.3,0.2,0.4c-0.1,0.2-0.4,0.3-0.5,0.4
				c-0.2,0.1-0.4,0.2-0.6,0.3c-0.4,0.2-0.8,0.4-1.2,0.6c-0.4,0.1-0.8,0.4-1.2,0.5c-0.8,0.3-1.5,0.5-2.3,0.6
				C12.6,12.5,11.4,12.7,11,12.1L11,12.1z"/>
			<path class="st2" d="M15.5,11c0.1,0.1,0.2,0.1,0.3,0c0.1-0.1,0.2-0.2,0.1-0.3c-0.1-0.1-0.2-0.1-0.3,0
				C15.5,10.8,15.4,10.9,15.5,11z"/>
			<path class="st2" d="M15.8,10.4c0.1,0.1,0.2,0.1,0.3,0c0.1-0.1,0.2-0.2,0.1-0.3c-0.1-0.1-0.2-0.1-0.3,0
				C15.8,10.2,15.7,10.3,15.8,10.4z"/>
			<path class="st2" d="M14.9,10.5c0.1,0.1,0.2,0.1,0.3,0c0.1-0.1,0.2-0.2,0.1-0.3c-0.1-0.1-0.2-0.1-0.3,0
				C14.9,10.2,14.9,10.4,14.9,10.5z"/>
			<path class="st2" d="M12.1,11c0.1,0.1,0.2,0.1,0.3,0c0.1-0.1,0.2-0.2,0.1-0.3c-0.1-0.1-0.2-0.1-0.3,0
				C12.1,10.7,12.1,10.9,12.1,11z"/>
			<path class="st2" d="M13,11c0.1,0.1,0.2,0.1,0.3,0c0.1-0.1,0.1-0.2,0.1-0.3c-0.1-0.1-0.2-0.1-0.3,0C13,10.8,13,10.9,13,11z"/>
		</g>
	</g>
	<path class="st1" d="M18.4,16.7c0,0-0.6-1-1-1.4c-0.4-0.4-0.8-0.8-0.8-0.8s1.7,0.4,2.5,1c0.8,0.7,0.9,1,0.9,1L18.4,16.7z"/>
</g>
</svg>
