<?xml version="1.0" encoding="utf-8"?>
<!-- Generator: Adobe Illustrator 19.1.0, SVG Export Plug-In . SVG Version: 6.00 Build 0)  -->
<svg version="1.1" id="Calque_1" xmlns="http://www.w3.org/2000/svg" xmlns:xlink="http://www.w3.org/1999/xlink" x="0px" y="0px"
	 viewBox="0 0 57.9 66" style="enable-background:new 0 0 57.9 66;" xml:space="preserve">
<style type="text/css">
	.st0{fill:#FDC400;}
	.st1{fill:#63B349;}
	.st2{fill:#FFEB97;}
	.st3{fill:#FFD800;}
	.st4{fill:#F9B32F;}
</style>
<g>
	<g>
		<path class="st0" d="M55.1,43.2L55.1,43.2C55.1,43.2,55.1,43.2,55.1,43.2L55.1,43.2z"/>
		<path class="st1" d="M32.3,33.4c0,0-3.2-3.1-6.6-1.3c-3.5,1.7-1.3,3.3,1.7,3.6C30.3,36,33.5,35,32.3,33.4z"/>
		<path class="st2" d="M25.9,20.8c0,0-2-1.2-3.4,0.1c-1.4,1.3,1.3,2.8,2.8,2.6C26.7,23.3,26.7,21.5,25.9,20.8z"/>
		<path class="st1" d="M53.4,37.5c-1.9-1.9-3.6-5.3-16.3,3.8c-5.6,4-14.3,8.9-11.9,11.4c2.7,2.9,9.4-0.7,9.4-0.7s-3.6,5-0.4,6.5
			c2.6,1.2,5.7-3.1,5.7-3.1s-2.7,7.7,1.8,6.8c2.7-0.5,6.9-7,9.2-11.6C54.4,43.6,55.3,39.4,53.4,37.5z"/>
		<path class="st3" d="M43.9,38.3c0,0-6.4,0.1-9.4,6.1c-3,5.9,1,5.3,5,2.2C43.5,43.5,46.6,38.8,43.9,38.3z"/>
		<g>
			<path class="st4" d="M20,47.1c2,1.2,4.3,1.9,6.6,1.7c0.1-0.1,0.2-0.2,0.3-0.2c2.3-0.8,5.4-3.4,8.9-5.9C41.9,38.3,44,37,44,37
				s-1.8,0.7-9.1,4.7c-2.1,1.2-3.8,2-5.2,2.7c-1-0.1-2.5-0.4-4.6-1.6c-0.8-0.5-1.3-1-1.5-1.6c0-0.1,0-0.2,0.1-0.3
				c0.1-1.1,1.5-2,4.3-3.3c2.8-1.3,8.2-4,8.2-4s-1.2,0.5-7.4,2.7c-2.6,1-4.6,1.2-6,1.1c-1.1-0.2-2.5-0.7-3.4-1.7
				c-0.9-1-0.7-1.7-0.2-2.2c0.9-0.6,2.6-0.9,5-1.2c3.6-0.5,10.5-1.8,10.5-1.8s-1.5,0.1-9.3,0.6c-5.8,0.3-8.3-1.1-9.3-1.9
				c-0.2-0.2-0.3-0.4-0.3-0.6c0,0,0-0.1,0-0.1c0-0.1,0-0.2,0-0.3c0,0,0-0.1,0-0.1c0.1-0.2,0.1-0.3,0.3-0.5c0-0.1,0.1-0.1,0.1-0.2
				c0.1-0.1,0.2-0.2,0.3-0.3c0,0,0,0,0,0c0.3-0.2,0.6-0.5,1.1-0.7c1.5-0.7,2-0.7,2.2-0.7c-2.1-0.7-3.2-2-1.8-2.4
				c0.5-0.2,1-0.2,1.5-0.2c-0.2-0.1-0.5-0.2-0.7-0.4c-2.3-1.6-1.3-3.3,2.6-2.9c5.8,0.6,11.4,2.6,13,3.2c0.4,0.1,0.9,0.3,1.3,0.4
				c-12-5.4-30-9-34.6-6.8c-2,0.9-0.7,2.7,1.8,5.6c0.2-0.1,0.5-0.2,0.7-0.3c1-0.3,1.9-0.5,2.8-0.5c-1.7-0.6-2.2-1.9,0.3-3.1
				c3.3-1.7,6.3,1.3,6.3,1.3c0,0,0,0,0,0c0,0,0,0,0,0c1.4-1.3,3.4-0.1,3.4-0.1c0.8,0.7,0.8,2.5-0.6,2.7c-1,0.1-2.4-0.4-2.9-1.2
				c-0.4,0.4-1.2,0.7-2.2,0.8c3.2,0.9,5.3,2.7,5.3,2.7c1.5,2-2.5,3.2-7.2,3.2c0.1,0.4,0,0.9-0.3,1.3c0.3,0.4,0.5,0.7,0.8,1.1
				c0.7,0.1,1.1,0.4,1.1,0.4c0.6,0.4,0.7,1.3,0.4,2c0.5,0.8,1,1.6,1.4,2.5c0.8,0.1,1.4,0.4,1.4,0.4c0.7,0.5,0.8,1.8,0.1,2.6
				c0.4,1,0.8,2,1.2,3.1c0.4,1.2,1.1,2.4,1.9,3.5c1.8-1,3.7,0,3.7,0C21.2,44.9,21.2,46.4,20,47.1z M13.4,33.4c-1-1.1-1.5-2.8-0.2-3
				c1.3-0.3,5.2,1.6,5.2,1.6S14.4,34.5,13.4,33.4z"/>
			<path class="st4" d="M36.7,66c6-0.4,10.2-6.6,12.1-10.1c0.1-0.2,1.7-3.1,1.9-3.3c-0.1-0.1-0.3-0.3-0.4-0.5
				c-2.4,4.4-6,9.7-8.5,10.1c-1.3,0.3-2-0.2-2.4-1.1c-0.5-1.4-0.1-2.7,1.2-5.2c1.5-2.7,4.1-8.1,4.1-8.1S44,49,40.4,54.5
				c-0.6,1-1.2,1.7-1.8,2.4c-1.2,1.1-2.9,2.3-4.4,1.6C33,58,32.8,57,32.9,55.9c0.3-1.6,0.7-2.2,2.7-4.3c2-2.3,5.9-6.9,5.9-6.9
				s-0.9,0.9-5.7,5.4c-2.3,2.2-4.2,3.1-5.6,3.5c-1.8,0.4-3.8,0.4-5-0.9c-0.8-0.9-0.3-2.1,1-3.4c-1,0.7-2.1,1.4-3.1,2.3
				c-2.9,2.5,3.5,10.2,9.1,13.2c1-1.2,4-2.5,4-2.5S36.7,64.6,36.7,66z M29.3,61.6c-1.5-0.5-4.3-3.3-3.6-4.9c0.6-1.6,5.6-1.7,5.6-1.7
				S30.9,62.1,29.3,61.6z"/>
		</g>
		<path class="st0" d="M56.3,35.5c-0.2-2.2-0.3-3.4-0.6-4.6c0,0,0,0,0,0c-0.5-2.8-1.5-7.7-2.7-10.5c-0.5-1.2-1.2-2.3-1.9-3.2
			c-1.4-1.7-2.8-2.1-3.8-1.7c-1,0.4-1.5,1.6-1.1,2.5c0.2,0.4,0.5,0.7,1,0.9c0.4,0.2,0.8,0.2,1.1,0.1c0.7-0.3,0.9-0.9,0.9-0.9
			l-0.7-0.3c0,0-0.2,0.5-0.5,0.5c-0.1,0-0.2,0.1-0.5,0c-0.3-0.2-0.5-0.3-0.6-0.6c-0.2-0.5,0.1-1.3,0.7-1.6c0.6-0.2,1.6-0.1,2.9,1.4
			c0.7,0.9,1.3,1.9,1.8,3.1c1.4,3.2,2,6.9,2.2,8.2c-0.7-0.6-1.6-0.4-1.9,0.6c-0.6-1.6-1.5-3.5-2.5-5.3c-0.7-1.1-1.5-2.1-2.4-2.9
			c-1.6-1.5-3.1-1.7-4-1.1c-0.9,0.6-1.3,1.8-0.7,2.7c0.2,0.4,0.6,0.7,1.1,0.8c0.4,0.1,0.8,0.1,1.1-0.1c0.6-0.4,0.7-1,0.7-1.1
			l-0.7-0.2c0,0-0.1,0.5-0.4,0.6c-0.1,0.1-0.2,0.1-0.5,0c-0.3-0.1-0.5-0.3-0.6-0.5c-0.3-0.5-0.1-1.3,0.5-1.7c0.6-0.3,1.6-0.3,3.1,1
			c0.8,0.7,1.6,1.7,2.2,2.8c1.4,2.7,3.2,6.7,3.7,8.2c-1.9-2.1-4.9-4.8-9.6-7.7c-0.8-0.5-2.9-1.7-3.8-2.2c0-0.1-0.3-0.1-0.3-0.2
			C41.6,10,36.7-2.3,41.5,0.7c9.7,6,20.1,21.4,15,35.8c-0.1,0.2-0.1,0.3-0.2,0.5C56.4,36.4,56.4,36,56.3,35.5z"/>
		<path class="st3" d="M54.3,40.2c-0.2,0.1-0.5,0.5-0.9,1.5c-2.2,6-6.4,10.4-6.4,10.4s3.6-3.9,5.1-9.5c1.1-4.1-0.1-6.1-0.9-6.9
			C50,35,47.9,35,43.9,37c0,0,0,0,0,0s-12.7,6.7-14.2,7.3c-0.1,0-0.1,0-0.1,0.1c-0.8-0.1-1.9-0.3-3.4-1c0,0,0,0,0,0
			c-0.4-0.2-0.8-0.4-1.2-0.6c-0.2-0.1-0.4-0.2-0.6-0.4c-0.1-0.1-0.2-0.2-0.3-0.3c0,0-0.1-0.1-0.1-0.1c-0.1-0.1-0.2-0.3-0.3-0.4
			c0,0,0,0,0,0c-0.1-0.1-0.1-0.3-0.2-0.4c0-0.1,0-0.2,0.1-0.3c0.1-1.1,1.5-2,4.3-3.3c2.8-1.3,8.2-4,8.2-4s-1.2,0.5-7.4,2.7
			c-2.6,1-4.6,1.2-6,1.1c-0.3-0.1-0.6-0.1-0.9-0.2c-0.1,0-0.1-0.1-0.2-0.1c-0.2-0.1-0.5-0.2-0.7-0.3c-0.1-0.1-0.3-0.2-0.4-0.3
			c-0.1-0.1-0.3-0.1-0.4-0.2c-0.3-0.2-0.5-0.4-0.8-0.7c-0.2-0.3-0.4-0.5-0.5-0.7c0-0.1,0-0.2-0.1-0.3c0-0.1-0.1-0.2-0.1-0.3
			c0-0.1,0-0.2,0.1-0.3c0-0.1,0-0.1,0.1-0.1c0.1-0.1,0.2-0.3,0.3-0.4h0c0.9-0.6,2.6-0.9,5-1.2c3.6-0.5,10.5-1.8,10.5-1.8
			s-1.5,0.1-9.3,0.6c-5.8,0.3-8.3-1.1-9.3-1.9c-0.2-0.2-0.3-0.4-0.3-0.6c0,0,0-0.1,0-0.1c0-0.1,0-0.2,0-0.3c0,0,0-0.1,0-0.1
			c0.1-0.2,0.1-0.3,0.3-0.5c0-0.1,0.1-0.1,0.1-0.2c0.1-0.1,0.2-0.2,0.3-0.3c0,0,0,0,0,0c0.3-0.2,0.6-0.5,1.1-0.7
			c1.5-0.7,2-0.7,2.2-0.7c-2.1-0.7-3.2-2-1.8-2.4c0.5-0.2,1-0.2,1.5-0.2c-0.2-0.1-0.5-0.2-0.7-0.4c-2.3-1.6-1.3-3.3,2.6-2.9
			c5.8,0.6,11.4,2.6,13,3.2c0.4,0.1,0.9,0.3,1.3,0.4c9.2,3.1,20.8,14,20.8,14S56,39.7,55,43.2c0,0-1.4,4.4-2.2,6.1
			c-3.3,7.7-8,12.2-9,13.2C46.1,60.4,53.7,47.1,54.3,40.2z"/>
		<path class="st2" d="M35.9,25.9c0,0-3.2-3.1-6.6-1.3c-3.5,1.7-1.3,3.3,1.7,3.6C34,28.5,37.1,27.5,35.9,25.9z"/>
		<path class="st2" d="M43.6,33.1c0,0-3.9-2-6.7,0.7c-2.8,2.7-0.2,3.6,2.7,3C42.5,36.1,45.2,34.2,43.6,33.1z"/>
		<path class="st2" d="M46.8,57.2c0,0-2.7,0.4-3.5,3c-0.8,2.6,0.8,2.1,2.3,0.6C47,59.4,48,57.3,46.8,57.2z"/>
		<path class="st2" d="M49.4,43.8c0,0,3.1-2.3,2.1-5.5c-1-3.2-2.7-1.6-3.4,0.9C47.4,41.8,47.8,44.6,49.4,43.8z"/>
	</g>
	<path class="st1" d="M40.1,14.9c0,0,0.7-6.9,1-8.8c0.3-1.9,1.6-2.1,3.7-0.7c3.4,2.1,9,9,9,9s-2.6-5.3-6.5-9.1
		c-4-3.8-6.8-5.7-7.6-4.9c-0.8,0.8-0.4,4.9-0.2,7C39.8,9.6,40.1,14.9,40.1,14.9z"/>
</g>
</svg>
