<?xml version="1.0" encoding="utf-8"?>
<!-- Generator: Adobe Illustrator 19.1.0, SVG Export Plug-In . SVG Version: 6.00 Build 0)  -->
<svg version="1.1" id="Calque_2" xmlns="http://www.w3.org/2000/svg" xmlns:xlink="http://www.w3.org/1999/xlink" x="0px" y="0px"
	 viewBox="0 0 210.7 893" style="enable-background:new 0 0 210.7 293;" xml:space="preserve">
<style type="text/css">
	.st0{fill:url(#SVGID_1_);}
	.st1{fill:url(#SVGID_2_);}
	.st2{fill:url(#SVGID_3_);}
	.st3{fill:url(#SVGID_4_);}
	.st4{fill:url(#SVGID_5_);}
	.st5{fill:url(#SVGID_6_);}
	.st6{fill:url(#SVGID_7_);}
	.st7{fill:url(#SVGID_8_);}
</style>
<g>
	<linearGradient id="SVGID_1_" gradientUnits="userSpaceOnUse" x1="-81.1213" y1="306.4092" x2="147.5454" y2="14.4092">
		<stop  offset="0" style="stop-color:#292929"/>
		<stop  offset="1" style="stop-color:#464646"/>
	</linearGradient>
	<path class="st0" d="M63.7,87.6c0,0,20.7,20.5,40.4,12.8c13.8-5.4,13-29.4,13-29.4s-1.4,2-3.9,4.6c-2.4,1.9-6.2,4-12,5.6
		c-13.5,3.7-28,4.6-28,4.6s6.4,3,20.4,1.3c1.7-0.2,3.4-0.6,5-1.2c-1.3,0.6-2.6,1.1-4,1.5C76.3,93.3,63.7,87.6,63.7,87.6z"/>
	<linearGradient id="SVGID_2_" gradientUnits="userSpaceOnUse" x1="-56.8221" y1="325.438" x2="171.8445" y2="33.438">
		<stop  offset="0" style="stop-color:#292929"/>
		<stop  offset="1" style="stop-color:#464646"/>
	</linearGradient>
	<path class="st1" d="M32.6,193.9C23.8,207.5,34,227,34,227s0.3-2.5,1.3-6.4c1.1-3.2,3.3-7.4,7.3-12.6c9.2-11.9,20.4-22.2,20.4-22.2
		s-6.3,1.7-16.7,12.3c-1.3,1.3-2.5,2.8-3.6,4.3c0.8-1.3,1.7-2.7,2.6-4c12.2-16.9,24.6-20.3,24.6-20.3S45.1,174.6,32.6,193.9z"/>
	<linearGradient id="SVGID_3_" gradientUnits="userSpaceOnUse" x1="-0.5547" y1="369.5013" x2="228.112" y2="77.5013">
		<stop  offset="0" style="stop-color:#292929"/>
		<stop  offset="1" style="stop-color:#464646"/>
	</linearGradient>
	<path class="st2" d="M157,120.4c0,0,1.1,25,22.4,33.7c15,6.1,32.3-7.6,32.3-7.6s-2.6,0.2-6.5-0.1c-3.3-0.5-7.9-1.8-13.7-4.8
		c-13.4-6.9-25.6-15.9-25.6-15.9s2.8,5.9,15.2,14.2c1.5,1,3.2,1.9,4.9,2.7c-1.5-0.5-2.9-1.1-4.4-1.8
		C162.6,131.8,157,120.4,157,120.4z"/>
	<linearGradient id="SVGID_4_" gradientUnits="userSpaceOnUse" x1="-22.3651" y1="352.4214" x2="206.3016" y2="60.4214">
		<stop  offset="0" style="stop-color:#292929"/>
		<stop  offset="1" style="stop-color:#464646"/>
	</linearGradient>
	<path class="st3" d="M42.8,258.6c-12.1,15.6-25.6,25.3-25.6,25.3s10.9-3,24.9-16.1c0.7-0.6,1.3-1.3,1.9-2
		c-10.2,14.4-20.8,20-27.1,22.3c-7.5,2.2-16,2.5-16,2.5c-1.9,2.3,0.3,2.3,0.3,2.3s4.3-0.9,13.3-2c0.2,0,0.4-0.1,0.6-0.1
		c9.4,2.7,34,7.1,46.9-13.8c11.4-18.4-4.1-52.3-4.1-52.3S54.8,243,42.8,258.6z"/>
	<linearGradient id="SVGID_5_" gradientUnits="userSpaceOnUse" x1="8.4753" y1="376.5728" x2="237.142" y2="84.5727">
		<stop  offset="0" style="stop-color:#292929"/>
		<stop  offset="1" style="stop-color:#464646"/>
	</linearGradient>
	<path class="st4" d="M184.4,185.9c11.4,4,16.7,6.5,16.7,6.5s-13.2-16.5-40.9-22.3c-35.2-7.5-70.9,18.1-70.9,18.1s29.4-8.2,58.6,2.5
		c34.2,12.6,63.9,11.8,63.9,11.8c-27.7-15.8-57.1-20.8-57.1-20.8S172,181.6,184.4,185.9z"/>
	<linearGradient id="SVGID_6_" gradientUnits="userSpaceOnUse" x1="-70.574" y1="314.6688" x2="158.0927" y2="22.6688">
		<stop  offset="0" style="stop-color:#292929"/>
		<stop  offset="1" style="stop-color:#464646"/>
	</linearGradient>
	<path class="st5" d="M141,86.5c9.2-20.4,10.7-41.3,10.7-41.3s1.2,12.2-1,21.1c-2,8.2-3.4,12.1-3.4,12.1s10.6-10.3,12.9-30.1
		C163,23.3,142.8,0,142.8,0s7.7,20,2.1,41.1C138.4,65.8,141,86.5,141,86.5z"/>
	<linearGradient id="SVGID_7_" gradientUnits="userSpaceOnUse" x1="-84.4681" y1="303.7882" x2="144.1985" y2="11.7882">
		<stop  offset="0" style="stop-color:#292929"/>
		<stop  offset="1" style="stop-color:#464646"/>
	</linearGradient>
	<path class="st6" d="M41.4,155.4c1.1-3,3.1-7.1,7-12.1c8.9-11.4,19.5-21.2,19.5-21.2s-6,1.6-16,11.7c-1.3,1.3-2.4,2.6-3.4,4.1
		c0.8-1.3,1.6-2.5,2.5-3.8c11.7-16.2,23.5-19.5,23.5-19.5s-23.7-3.4-35.7,15.1c-8.4,13,1.4,31.7,1.4,31.7S40.4,159.1,41.4,155.4z"/>
	<linearGradient id="SVGID_8_" gradientUnits="userSpaceOnUse" x1="-44.7058" y1="334.9263" x2="183.9609" y2="42.9263">
		<stop  offset="0" style="stop-color:#292929"/>
		<stop  offset="1" style="stop-color:#464646"/>
	</linearGradient>
	<path class="st7" d="M128.5,144.4c10.9-17.6-3.9-50.1-3.9-50.1s-2.8,17.6-14.4,32.5c-11.6,14.9-24.6,24.2-24.6,24.2
		s10.5-2.9,23.8-15.4c0.6-0.6,1.2-1.2,1.8-1.9c-9.8,13.8-20,19.2-26,21.3c-7.2,2.1-15.3,2.3-15.3,2.3c-1.8,2.2,0.3,2.2,0.3,2.2
		s4.2-0.9,12.7-1.9c0.2,0,0.4-0.1,0.6-0.1C92.7,160.1,116.2,164.4,128.5,144.4z"/>
</g>
</svg>
