<?xml version="1.0" encoding="utf-8"?>
<!-- Generator: Adobe Illustrator 19.1.0, SVG Export Plug-In . SVG Version: 6.00 Build 0)  -->
<svg version="1.1" id="Calque_1" xmlns="http://www.w3.org/2000/svg" xmlns:xlink="http://www.w3.org/1999/xlink" x="0px" y="0px"
	 viewBox="0 0 20 20" style="enable-background:new 0 0 20 20;" xml:space="preserve">
<style type="text/css">
	.st0{fill:#007A33;}
	.st1{fill:#01963A;}
</style>
<g>
	<g>
		<g>
			<path class="st0" d="M1.6,0.6c0,0-0.4,2.7-1.2,5.7c-1,3.8-0.3,5.7,0.9,7.8c3.6,6.3,15.1,4.1,15.1,4.1s-5.2-0.7-8.9-6.2
				C4.6,7.8,1.6,0.6,1.6,0.6z"/>
			<path class="st1" d="M15,17c0,0-4.5-8.2-8.2-11.2c-3-2.4-5.2-5.2-5.2-5.2s3.4,9.3,7,12.6C12.3,16.5,15,17,15,17z"/>
		</g>
		<path class="st0" d="M12.6,17c0,0,2.1,0.7,3.4,1s4,0.6,4,0.6s0.2,0.2,0.1,0.4c-0.1,0.2-0.4,0.3-0.4,0.3s-2.3-0.7-3.8-1
			s-3.5-0.5-4.5-0.6C10.2,17.7,12.6,17,12.6,17z"/>
	</g>
	<path class="st1" d="M9.6,14.6c0,0-1.2,0.6-2.6,0.9c-1.9,0.4-3.6-0.2-3.6-0.2s1.4,0.4,3.2,0c1-0.2,2.8-1,2.8-1L9.6,14.6z"/>
	<path class="st1" d="M7.7,12.3c0,0-2.2,0.2-4.2-0.3c-2-0.6-2.3-1-2.3-1s1.5,0.6,2.7,0.8c1.7,0.3,3.5,0.1,3.5,0.1L7.7,12.3z"/>
	<path class="st1" d="M5.6,9.1c0,0-1.2,0-2.6-0.6C1.7,7.9,0.9,7.1,0.9,7.1S2.3,8,3.2,8.3c0.9,0.4,2.2,0.5,2.2,0.5L5.6,9.1z"/>
	<path class="st0" d="M10,14.3c0,0,0.3-1.3,0.2-2.2c0-0.4-0.2-1.1-0.2-1.1s0.1,0.7-0.1,1.8c0,0.5-0.3,1.2-0.3,1.2L10,14.3z"/>
	<path class="st0" d="M7.8,12.3c0,0,0.5-1.3,0.3-2.8C8,8.9,7.7,8,7.7,8S8,8.9,7.9,10c-0.1,1.3-0.4,1.9-0.4,1.9L7.8,12.3z"/>
	<path class="st0" d="M5.5,9.1c0,0,0.3-1,0.3-2C5.8,6.6,5.6,6,5.6,6s0.1,0.8,0.1,1.3c0,0.6-0.3,1.4-0.3,1.4L5.5,9.1z"/>
</g>
</svg>
