<?xml version="1.0" encoding="utf-8"?>
<!-- Generator: Adobe Illustrator 19.1.0, SVG Export Plug-In . SVG Version: 6.00 Build 0)  -->
<svg version="1.1" id="Calque_1" xmlns="http://www.w3.org/2000/svg" xmlns:xlink="http://www.w3.org/1999/xlink" x="0px" y="0px"
	 viewBox="0 0 24 24" style="enable-background:new 0 0 24 24;" xml:space="preserve">
<style type="text/css">
	.st0{fill:url(#SVGID_1_);}
	.st1{fill-rule:evenodd;clip-rule:evenodd;fill:#FFFFFF;}
</style>
<linearGradient id="SVGID_1_" gradientUnits="userSpaceOnUse" x1="6.791013e-02" y1="12" x2="24.0049" y2="12">
	<stop  offset="0" style="stop-color:#F6BE03"/>
	<stop  offset="0.7599" style="stop-color:#FFF4C9"/>
	<stop  offset="1" style="stop-color:#F6BE03"/>
</linearGradient>
<path class="st0" d="M12,24c-6.6,0-12-5.4-12-12c0-6.6,5.4-12,12-12s12,5.4,12,12C24,18.6,18.6,24,12,24z M12,1C6,1,1.1,6,1.1,12
	c0,6,4.9,11,11,11S23,18,23,12C23,6,18.1,1,12,1z"/>
<path class="st1" d="M17,9.7l-5,5l-5-5H17z"/>
</svg>
