<?xml version="1.0" encoding="utf-8"?>
<!-- Generator: Adobe Illustrator 19.1.0, SVG Export Plug-In . SVG Version: 6.00 Build 0)  -->
<svg version="1.1" id="Calque_1" xmlns="http://www.w3.org/2000/svg" xmlns:xlink="http://www.w3.org/1999/xlink" x="0px" y="0px"
	 viewBox="0 0 20 20" style="enable-background:new 0 0 20 20;" xml:space="preserve">
<style type="text/css">
	.st0{fill:#FFFDEE;}
</style>
<path id="XMLID_12_" class="st0" d="M2.6,5.9c-2,1.8-2.6,4-2.6,6c0,2,0.6,3.8,1.1,4.9c0.7-0.9,3-3.8,6.4-7.4
	c4.4-4.7,8.8-6.9,8.9-6.9l1.2-0.6c-0.5,0.4-1,0.9-1,0.9c-0.1,0-3.4,2.9-7.5,7.7c-3.8,4.4-5.7,7.7-6.1,8.4c2.3,1,7.4,2.6,11.1-1.4
	c4-4.4,5.4-13.3,5.8-16.5C19.9,0.7,20,0.1,20,0C18.4,0.2,7.6,1.3,2.6,5.9z"/>
</svg>
