<?xml version="1.0" encoding="utf-8"?>
<!-- Generator: Adobe Illustrator 19.1.0, SVG Export Plug-In . SVG Version: 6.00 Build 0)  -->
<svg version="1.1" id="Calque_1" xmlns="http://www.w3.org/2000/svg" xmlns:xlink="http://www.w3.org/1999/xlink" x="0px" y="0px"
	 viewBox="0 0 132 93" style="enable-background:new 0 0 132 93;" xml:space="preserve">
<style type="text/css">
	.st0{fill:#B5D283;}
	.st1{fill:#93C01F;}
</style>
<g>
	<path class="st0" d="M92.1,29.1c-2.9,3.2-4.3,5.7-5,7l5.3-0.7c0,0-3.8,8.1-7.7,22.5c-0.6,2.2-1.1,4.3-1.5,6.2
		c6.9-9.6,11.1-14,16.2-17.3c2.1-1.4,7.4-1.8,7.4-1.8S98.7,51.7,91.2,61c-2.1,2.6-4.2,5.4-6,8.3c0,0,0,0,0,0.1
		c-1.4,4-2.9,8.2-3.6,10.4c0.1,5.5,0.9,9.1,1.5,11.2c0.6,0.3,1.3,0.6,2,0.8c4.6,1.4,5.1,0.8,9.8,0.4c5.1-0.6,11.3-3.1,11.3-3.1
		l-5.8-1.6c0,0,0,0,0,0c0.8-0.1,6-1,10.4-3.9c4.8-3.2,8.1-6.2,8.1-6.2l-7.5,0.9c0,0,3.6-2.2,8.4-7.1c4.8-4.8,6.9-8.4,6.9-8.4l-8,4.1
		c0.1-0.2,0.1-0.4,0.2-0.6c1.5-1.7,4.5-5.1,6.7-8.8c0,0,0-0.1,0.1-0.1c4.7-7.5,4.9-10.1,4.9-10.1l-7.2,5.1c0-0.1,0-0.1,0-0.2
		c1.1-1.8,2.2-3.6,4-6.5c1.9-3.3,4.9-7.7,4.5-7.8c-0.4-0.1-5.1,1.1-6.6,1c-0.6,0.3,6.2-9.7,6-9.8c-0.1,0-0.3,0-0.8,0.1
		c-1.6,0.4-7.4,1.2-10.6,2.5c2.5-5.2,3.8-7.8,3.6-7.9c-0.8-0.3-3.8,0.1-6.6,0.5c-3,0.5-7.7,2.8-7.7,2.8l3.4-6c0,0-3.6-0.1-7.8,2.2
		c-4.4,2.3-6.6,5.3-6.6,5.3l1.4-5.5C98.6,23.2,96.2,24.6,92.1,29.1z"/>
	<path class="st1" d="M12.8,0.7c0.1-0.2,10.7,10.1,10.4,9.3c0.3-2.1-0.2-9,0-9.5c0.2-0.6,4.8,4,8.3,7c3.2,2.8,5,4.5,6.9,6.2
		c0.1,0,0.2,0,0.3,0L33.9,3c0,0,3,0.5,10.9,7.6c0,0,0.1,0,0.1,0.1c3.9,3.4,7.4,7.9,9.1,10.2c0.2,0.1,0.4,0.2,0.6,0.3L51.1,9.4
		c0,0,3.8,3.2,8.7,10.4c4.9,7.2,7,12.4,7,12.4L67,21.5c0,0,3,5,5.9,12c2.7,6.5,2.9,14,2.9,15.2c0,0,0,0,0,0l2.8-8.2
		c0,0,0.1,2-0.1,9.3c-0.2,6.9-0.1,13-1.8,19.8c-1.4,5.5-2.5,7.8-5.3,8c-4.5,0.3-9.4-2.1-9.6-2.2c-3.2-1.6-8.6-5.4-10.4-7.2
		c-3-2.9-5-4.7-7.7-7.9C34.1,48.8,27.5,37,27.5,37s1.4,5.4,2.6,8.5c3.4,8.4,11.4,22.7,26.9,33c1.2,0.8,0.1-0.1,1,0.7
		c2,1.7,1.4,5.3-0.7,8.5c-1,1.6-3.5,3.3-6.9,4.2c-1.8,0.3-2.7,0.3-2.7,0.3l4.5-4.9c0,0-2.9,1.1-10.4,0.9c-7.5-0.2-10.2-1.3-10.2-1.3
		l4.8-2.5l1.2-0.7c0,0-3.5,0.2-8.1-1.3c-5-1.7-9.6-4.7-9.6-4.7l10-2.5c0,0-7.5-0.9-13.6-3.8c-5.5-2.6-11.1-8.6-11.1-8.6l9.9,2.6
		c0,0-3.5-1.7-8.4-8.4C2.2,50.8,1,47.2,0.6,45.9l6.2,2.4c0,0-3.1-3.4-5.2-9.9c-2-6.2-1.2-11.3-1.2-11.3l6.3,5.2c0,0-1.9-6.9-2-11.3
		c-0.1-4.1-0.1-8.4,0.5-9.6c0.1-0.2,2.9,1.8,8.6,5.7c-0.9-4.6-1-13-1.1-15.4C12.7,1.2,12.7,0.8,12.8,0.7z"/>
</g>
</svg>
