<?xml version="1.0" encoding="utf-8"?>
<!-- Generator: Adobe Illustrator 19.1.0, SVG Export Plug-In . SVG Version: 6.00 Build 0)  -->
<svg version="1.1" id="Calque_1" width="110px" height="87px" xmlns="http://www.w3.org/2000/svg" xmlns:xlink="http://www.w3.org/1999/xlink" x="0px" y="0px"
	 viewBox="0 0 110 87" style="enable-background:new 0 0 110 87;" xml:space="preserve">
<style type="text/css">
	.st0{fill:#FFEB97;}
	.st1{fill:#FFFFFB;}
	.st2{fill:#FFD800;}
	.st3{fill:#FDC400;}
</style>
<g>
	<path class="st0" d="M23.4,6c0,0,0.1-0.6,0.6-1.1c0.5-0.5,1.4-1.3,2-1.5c0.6-0.2,1-0.2,1.4,0.2c0.3,0.4,0,0.8-0.3,1.1
		c-0.3,0.3-1.1,0.7-1.9,1.2c-0.7,0.6-1.2,0.6-1.4,0.5C23.5,6.3,23.4,6,23.4,6z"/>
	<g>
		<path class="st1" d="M24,4C24.2,3,24.8,2,24.9,1.5c0.1-0.5,0.2-1.3-0.3-1.4c-0.5-0.1-1.1,0.2-1.4,0.9c-0.3,0.7-0.4,1.9-0.5,2.8
			c0,0.7,0.5,1.2,0.7,1.3c0.1,0,0.3,0.1,0.4,0.2C23.9,4.8,23.9,4.5,24,4z"/>
		<path class="st1" d="M22.4,3.7c-0.3-1-0.3-2.1-0.5-2.5c-0.2-0.5-0.4-1.3-0.9-1.1c-0.5,0.2-0.8,0.7-0.8,1.4c0,0.7,0.5,1.9,0.9,2.7
			C21.4,5,22,5,22.2,4.9c0.1,0,0.3-0.1,0.4-0.1C22.6,4.5,22.5,4.2,22.4,3.7z"/>
		<path class="st1" d="M25.5,5c0.7-0.8,1.7-1.3,2-1.8c0.3-0.4,0.7-1.1,0.3-1.5c-0.4-0.4-0.9-0.3-1.5,0.1c-0.6,0.4-1.4,1.4-1.9,2.1
			c-0.5,0.7-0.1,1.5-0.1,1.5c0.1,0.1,0.2,0.2,0.2,0.4C24.8,5.7,25.1,5.4,25.5,5z"/>
		<path class="st1" d="M24.8,7c0.2-0.1,0.5-0.2,1-0.3c1-0.3,2.3-0.3,2.8-0.5C29,6,29.8,5.6,29.6,5c-0.2-0.5-0.7-0.7-1.4-0.6
			c-0.7,0-1.8,0.6-2.6,1c-0.6,0.3-0.8,0.8-0.9,1.1c0,0.1,0,0.2,0,0.3C24.8,6.8,24.8,6.9,24.8,7z"/>
		<path class="st1" d="M21.6,5.2c-0.2-0.2-0.5-0.4-0.8-0.8C20,3.7,19.4,2.9,19,2.6c-0.4-0.3-1.2-0.7-1.5-0.3
			c-0.3,0.4-0.2,0.9,0.2,1.5c0.4,0.6,1.7,1.5,2.4,2c0.5,0.3,0.8,0.1,1,0C21.3,5.5,21.5,5.4,21.6,5.2z"/>
		<path class="st1" d="M19.8,5.9c-1-0.3-1.9-0.6-2.5-0.6c-0.5,0-1.4,0-1.4,0.6c-0.1,0.5,0.3,0.9,1,1.2c0.7,0.3,2.2,0.4,3.1,0.3
			c0.9,0,0.8-0.8,0.8-0.8s0.1-0.3,0.1-0.5C20.7,6.1,20.3,6.1,19.8,5.9z"/>
		<path class="st1" d="M20,7.6c-1,0.4-2.1,0.6-2.5,0.9c-0.4,0.3-1.1,0.7-0.9,1.2c0.2,0.5,0.7,0.6,1.4,0.5c0.7-0.1,2-0.8,2.7-1.3
			c0.7-0.5,0.5-1.2,0.5-1.2S21,7.5,21,7.3C20.7,7.4,20.4,7.5,20,7.6z"/>
		<path class="st1" d="M20.8,9.2c-0.6,0.9-1.4,1.6-1.6,2c-0.2,0.5-0.5,1.2-0.1,1.5c0.5,0.3,0.9,0.1,1.5-0.4c0.5-0.5,1.1-1.7,1.5-2.5
			c0.4-0.8-0.2-1.3-0.2-1.3s-0.3-0.2-0.4-0.3C21.4,8.4,21.2,8.7,20.8,9.2z"/>
		<path class="st1" d="M22.5,8.7c0,0.3,0,0.7,0,1.2c0,1.1-0.1,2.1,0,2.6c0.1,0.5,0.3,1.3,0.9,1.3c0.5-0.1,0.8-0.5,0.9-1.2
			c0.1-0.7-0.2-2.1-0.4-2.9C23.7,8.8,23,8.8,23,8.8S22.6,8.7,22.5,8.7z"/>
		<path class="st1" d="M24.3,9.7c0.6,0.9,1,1.7,1.3,2.1c0.4,0.4,1,0.9,1.4,0.6s0.4-0.9,0.1-1.5c-0.3-0.7-1.2-1.6-1.9-2.2
			C24.6,8,24,8.4,24,8.4s-0.3,0.1-0.5,0.2C23.7,8.8,23.9,9.2,24.3,9.7z"/>
		<path class="st1" d="M24.8,8.2c1,0.3,2.5,1.2,3,1.3c0.5,0.1,1.3,0.3,1.5-0.3c0.2-0.5-0.1-0.9-0.7-1.3C28,7.5,26.7,7.2,25.9,7
			c-0.8-0.2-1.2,0.5-1.2,0.5h0c-0.1,0.2-0.2,0.4-0.3,0.5C24.5,8,24.6,8.1,24.8,8.2z"/>
	</g>
	<path class="st0" d="M22.9,7.9c0,0-0.3,1.2-0.6,1.8c-0.3,0.6-0.7,1.2-1.2,1.4c-0.5,0.2-0.6-0.4-0.5-0.9c0.1-0.5,1.2-2.5,1.4-2.8
		C22.3,7.2,22.9,7.9,22.9,7.9z"/>
	<path class="st0" d="M22.3,7.7c0,0-1.2,1-1.8,1.1s-1,0-1.2-0.2c-0.4-0.3-0.2-0.8,0.2-0.9c0.8-0.1,2.2-0.8,2.5-0.8
		C22.2,6.9,22.3,7.7,22.3,7.7z"/>
	<path class="st0" d="M21.3,7c0,0-1.2,0.2-1.7,0.1C19,7,18.7,7,18.6,6.6c-0.1-0.4,0-0.5,0.3-0.6c0.3-0.1,2,0.1,2.2,0.2
		C21.3,6.2,21.3,7,21.3,7z"/>
	<path class="st0" d="M23.6,7.3c0,0,0.6,1.5,0.5,2.1C24,10,24,11,23.6,11.1c-0.5,0.1-0.7-0.6-0.8-1c-0.1-0.4-0.3-2.5-0.3-2.8
		C22.5,7,23.6,7.3,23.6,7.3z"/>
	<path class="st0" d="M24.4,8c0,0,1,1.1,1.2,1.6c0.2,0.5,0.3,0.9-0.1,1.1c-0.4,0.2-0.6,0.2-0.9-0.1c-0.3-0.3-1.2-2-1.3-2.3
		C23.3,8.1,24.4,8,24.4,8z"/>
	<path class="st0" d="M24.7,6.8c0,0,1.5,0,2,0.3c0.5,0.3,0.8,0.4,0.8,0.9c-0.1,0.4-0.3,0.5-0.7,0.5c-0.4,0-2.3-0.6-2.5-0.7
		C24,7.6,24.7,6.8,24.7,6.8z"/>
	<path class="st0" d="M22.7,7c0,0,0-0.4-1.1-1.2c-1.1-0.9-2.5-1.3-2.5-1.3s0.5,0.7,1.4,1.4C21.5,6.6,22.7,7,22.7,7z"/>
	<path class="st0" d="M23.3,7.3c0,0,0.2-0.3-0.3-1.6c-0.5-1.3-1.5-2.3-1.5-2.3s0.1,0.8,0.5,1.9C22.5,6.4,23.3,7.3,23.3,7.3z"/>
	<path class="st0" d="M23.2,7.2c0,0,0.3-0.2,0.4-1.6c0.1-1.4-0.3-2.8-0.3-2.8S23,3.7,22.9,4.9C22.9,6,23.2,7.2,23.2,7.2z"/>
	<path class="st0" d="M22.4,7.4c0,0,0.3,0.1,1.4-0.8c1-0.9,1.7-2.2,1.7-2.2s-0.8,0.3-1.6,1.1C23,6.3,22.4,7.4,22.4,7.4z"/>
	<path class="st0" d="M22.5,6.6c0,0,0.2,0.3,1.6,0.2c1.4-0.1,2.7-1,2.7-1s-0.8,0.1-2,0.2C23.6,6.1,22.5,6.6,22.5,6.6z"/>
	<g>
		<path class="st2" d="M24.3,5.6c-0.8-0.7-2-0.6-2.6,0.2c-0.4,0.5-0.5,1.1-0.4,1.7c0-0.1,0-0.1,0-0.2c0-0.1-0.1-0.1-0.1-0.2
			c0-0.1,0.1-0.1,0.1-0.2c0,0,0-0.1,0.1-0.2c0,0,0.1,0,0.1,0c0,0.1,0.1,0.2,0,0.3l0,0.1c0,0.1,0,0.1,0.1,0.2c0,0,0.1,0,0.1,0.1
			c0,0,0,0.1,0,0.1c0.1,0.1,0.2,0.3,0.4,0.3c0,0.1,0,0.1,0.1,0.2c0,0,0.1,0,0.1,0.1c0,0,0,0.1,0.1,0.1c0.2,0.1,0.2,0.1,0.4,0.1
			c0.1,0,0.1,0.1,0.2,0.1c0.1,0,0.1,0,0.2,0c0.2,0,0.3,0.1,0.4-0.1c0.1,0.1,0.1,0,0.2,0c0.1,0,0.1,0,0.2,0.1c-0.1,0-0.1,0.2-0.2,0.3
			c0,0,0,0-0.1,0.1c0.2-0.1,0.4-0.3,0.6-0.5C25.2,7.4,25.1,6.3,24.3,5.6z"/>
		<path class="st3" d="M24.1,8.3c-0.1-0.1-0.1,0-0.2-0.1c-0.1,0-0.1,0.1-0.2,0c-0.1,0.1-0.3,0.1-0.4,0.1c-0.1,0-0.1,0-0.2,0
			c-0.1,0-0.1-0.1-0.2-0.1c-0.2-0.1-0.3,0-0.4-0.1c0,0,0-0.1-0.1-0.1c0,0-0.1,0-0.1-0.1c-0.1-0.1-0.1-0.1-0.1-0.2
			c-0.2,0-0.3-0.2-0.4-0.3c0,0,0-0.1,0-0.1c0,0-0.1,0-0.1-0.1c-0.1-0.1,0-0.1-0.1-0.2l0-0.1c0-0.1,0-0.2,0-0.3c0,0-0.1,0-0.1,0
			c-0.1,0-0.1,0.1-0.1,0.2c0,0-0.1,0.1-0.1,0.2c0,0.1,0,0.1,0.1,0.2c0,0.1,0,0.1,0,0.2c0.1,0.4,0.3,0.7,0.6,1c0.6,0.5,1.4,0.6,2,0.3
			c0,0,0,0,0.1-0.1C24,8.5,24,8.3,24.1,8.3z"/>
	</g>
	<g>
		<path class="st3" d="M23.9,8.2c0,0-0.1,0-0.1,0c0,0,0-0.1,0-0.1c0,0,0.1,0,0.1,0C23.9,8.1,23.9,8.2,23.9,8.2z"/>
		<path class="st3" d="M23.3,8.3c0,0-0.1,0-0.1,0c0,0,0-0.1,0-0.1c0,0,0.1,0,0.1,0C23.3,8.2,23.3,8.3,23.3,8.3z"/>
		<path class="st3" d="M23.6,8c0,0-0.1,0-0.1,0c0,0,0-0.1,0-0.1c0,0,0.1,0,0.1,0C23.6,7.9,23.6,8,23.6,8z"/>
		<path class="st3" d="M23,8.1c0,0-0.1,0-0.1,0c0,0-0.1-0.1,0-0.1c0,0,0.1,0,0.1,0C23.1,7.9,23.1,8,23,8.1z"/>
		<path class="st3" d="M22.8,8.3c0,0-0.1,0-0.1,0c0,0-0.1-0.1,0-0.1c0,0,0.1,0,0.1,0C22.9,8.2,22.9,8.2,22.8,8.3z"/>
		<path class="st3" d="M22.6,8c0,0-0.1,0-0.1,0c0,0-0.1-0.1,0-0.1c0,0,0.1,0,0.1,0C22.6,7.9,22.6,8,22.6,8z"/>
		<path class="st3" d="M22.2,7.8c0,0-0.1,0-0.1,0c0,0,0-0.1,0-0.1c0,0,0.1,0,0.1,0C22.3,7.6,22.3,7.7,22.2,7.8z"/>
		<path class="st3" d="M22.5,7.8c0,0-0.1,0-0.1,0c0,0,0-0.1,0-0.1c0,0,0.1,0,0.1,0C22.6,7.7,22.6,7.7,22.5,7.8z"/>
		<path class="st3" d="M21.7,7.2c0,0-0.1,0-0.1,0c0,0,0-0.1,0-0.1c0,0,0.1,0,0.1,0C21.7,7.1,21.8,7.1,21.7,7.2z"/>
		<path class="st3" d="M22.8,7.9c0,0-0.1,0-0.1,0c0,0,0-0.1,0-0.1c0,0,0.1,0,0.1,0C22.8,7.8,22.9,7.9,22.8,7.9z"/>
		<path class="st3" d="M23.3,8.1c0,0-0.1,0-0.1,0c0,0,0-0.1,0-0.1c0,0,0.1,0,0.1,0C23.3,8,23.3,8,23.3,8.1z"/>
		<path class="st3" d="M23.9,7.9c0,0-0.1,0-0.1,0c0,0,0-0.1,0-0.1c0,0,0.1,0,0.1,0C24,7.8,24,7.9,23.9,7.9z"/>
		<path class="st3" d="M24.2,8.2c0,0-0.1,0-0.1,0c0,0,0-0.1,0-0.1c0,0,0.1,0,0.1,0C24.2,8.1,24.2,8.1,24.2,8.2z"/>
		<path class="st3" d="M24.5,8c0,0-0.1,0-0.1,0c0,0,0-0.1,0-0.1c0,0,0.1,0,0.1,0C24.5,7.9,24.5,7.9,24.5,8z"/>
		<path class="st3" d="M24.1,8.4c0,0-0.1,0-0.1,0c0,0,0-0.1,0-0.1c0,0,0.1,0,0.1,0C24.1,8.3,24.1,8.4,24.1,8.4z"/>
		<path class="st3" d="M23.6,8.3c0,0-0.1,0-0.1,0c0,0,0-0.1,0-0.1c0,0,0.1,0,0.1,0C23.6,8.2,23.6,8.3,23.6,8.3z"/>
	</g>
</g>
<path class="st3" d="M1,86.5c0,0,0.4-9.6,9.1-19c8.7-9.3,12.6-10.8,15-23C27,34.9,23.5,30,23.5,30s-1,9.7-4.3,16.6
	c-3.3,6.9-7.3,10.9-7.3,10.9s1.9-3.9,4.5-9.9c2.6-6,3-10.9,3-10.9S12.5,44,7,54.7C-0.8,69.9,1,86.5,1,86.5z"/>
<path class="st3" d="M109.9,68c0,0-10.5-3.5-19.6-15.8c-9.1-12.3-10.3-17-23.3-23.5c-10.3-5.1-16.2-2.9-16.2-2.9s10.5,4.1,17.7,9.9
	c7.2,5.8,11,11.4,11,11.4s-4.1-3.3-10.3-8c-6.2-4.7-11.6-6.6-11.6-6.6s7.1,9.7,18.2,19C91.5,64.8,109.9,68,109.9,68z"/>
</svg>
