<?xml version="1.0" encoding="utf-8"?>
<!-- Generator: Adobe Illustrator 19.1.0, SVG Export Plug-In . SVG Version: 6.00 Build 0)  -->
<svg version="1.1" id="Calque_1" width="34px" height="38px" xmlns="http://www.w3.org/2000/svg" xmlns:xlink="http://www.w3.org/1999/xlink" x="0px" y="0px"
	 viewBox="0 0 34 38" style="enable-background:new 0 0 34 38;" xml:space="preserve">
<style type="text/css">
	.st0{fill:#76B72A;}
</style>
<g>
	<g>
		<path class="st0" d="M21.1,22.9c1.3-1.3,2.8-1.9,3-2.2c-1,0.1-1.6,0.4-2,0.3c-0.4-0.1-0.5-0.8-1.8-0.7c-1,0.1-2.5,0.2-3.6,0.5
			c-1.5,0.4-3.3,1.2-5.3,2.3c-1.7,1-0.5-0.1-2.4,1.5c-2.6,2.2-5.5,3.7-4.5,3.6c4.7-0.5,4,1.3,8.1,0.9c1-0.1,0.8-0.4,2.2-1.2
			c1.6-0.9,3-1.6,5.3-4L21.1,22.9z"/>
		<path class="st0" d="M17.9,23.7c0,0,4.7,1.9,5.9,3.3c2.2,2.7,5.6,6,6.9,7.4c1.4,1.5,1.1,2.9,0.5,3.6c-0.2,0.3-0.7-0.8-4.4-2.2
			c-3-1.2-7.9-3.4-9.4-4.8c-1.8-1.6-3.9-4.9-2.2-5.9C17,24,17.9,23.7,17.9,23.7z"/>
		<path class="st0" d="M16,22c0,0-0.1-5.4-1.3-7.3C12.3,10.9,10.9,6,9.8,3.9C8.5,1.4,8,0.3,5.5,0C5.4,0,5.9,7,6.8,12.4
			c0.4,2.1,0.8,5.6,1.7,7.8c1.1,2.7,1.9,3.9,4.2,3.1C15.1,22.5,16,22,16,22z"/>
		<path class="st0" d="M17,21.6c0,0-8.1,2.8-9.8,3.1c-1.9,0.4-6.7-1.2-7-1.2C0,23.5,2.5,31,3.4,31c0.9,0,3.3-2.9,7.5-1.9
			C12.5,29.5,17,21.6,17,21.6z"/>
	</g>
</g>
</svg>
