<?xml version="1.0" encoding="utf-8"?>
<!-- Generator: Adobe Illustrator 19.1.0, SVG Export Plug-In . SVG Version: 6.00 Build 0)  -->
<svg version="1.1" id="Calque_1" xmlns="http://www.w3.org/2000/svg" xmlns:xlink="http://www.w3.org/1999/xlink" x="0px" y="0px"
	 viewBox="0 0 56 73" style="enable-background:new 0 0 56 73;" xml:space="preserve">
<style type="text/css">
	.st0{fill:#E8456C;}
	.st1{fill:#8A0437;}
</style>
<path class="st0" d="M35.5,16.7c0,0,0.2-2.5-0.5-4.3c-0.7-1.9-2-3.3-2-3.3l-0.2,1.1c0,0-1.3-1.3-2.6-2.6c-1.4-1.3-4.6-2.7-4.6-2.7
	l0.6,1.2c-0.3-0.1-0.6-0.2-0.9-0.3c-0.8-0.3-2-0.8-3.3-1.4c-2.3-1-3.6-1.3-3.6-1.3l1.2,1.3c0,0-2.7-0.5-4.2-1
	c-1.5-0.5-2.8-0.6-2.8-0.6L13.2,4l0,0C12,3.9,10.7,3.8,9.4,3.6C7.3,3,6,2.2,6,2.2l0.2,0.7C4.2,2.3,2.1,1.4,0,0c0,0,0.1,0.1,0.1,0.1
	c0,0.1,1.4,3,3.7,6.6L3,6.7c0,0,2,3.2,4.2,5.1c0.3,0.3,0.6,0.5,0.9,0.7c0.1,0.1,0.2,0.3,0.4,0.4L7.6,13c0,0,1,1.3,2.4,2.3
	c0.7,0.5,2,1.2,2.7,1.6c0.1,0.1,0.2,0.2,0.4,0.3l-1.5,0.3c0,0,1.6,1,4.6,2.1c1.2,0.4,2.3,0.7,3.1,0.9c0.4,0.1,0.8,0.2,1.2,0.3
	l-1,0.7c0,0,3.1,0.2,4.4,0.1c1.7-0.2,3.8-0.6,3.8-0.6l-0.6,1c0,0,2.7-0.9,4.3-1.9c0.7-0.5,1.4-0.9,1.8-1.2c0.6-0.4,1-0.6,1-0.6
	s-4.4-0.2-11.1-3.4c-1.2-0.6-2.8-1.4-4.5-2.5c2.4,1.1,4.7,2.1,7.1,2.7C30.9,16.3,35.5,16.7,35.5,16.7z"/>
<path class="st1" d="M52.7,23.9c0,0-4-1.8-7.4-1.7c-3.5,0.1-6.6,1.4-6.6,1.4l1.7,1c0,0-3,1.2-5.9,2.8c-2.9,1.5-7.2,5.9-7.2,5.9
	l2.4-0.3c-0.3,0.4-0.6,0.8-0.9,1.2c-1,1.1-2.5,2.8-4.2,4.6c-3,3.2-4.3,5.2-4.3,5.2l2.8-1.1c0,0-2.4,4.1-4.1,6.3
	c-1.6,2.2-2.6,4.2-2.6,4.2l2.2-0.5l0,0c-0.9,2-1.9,4-3,6c-2.2,3.2-4.3,4.8-4.3,4.8l1.2,0.1c-2.1,3-4.8,5.8-8.4,8.4
	c0,0,0.1-0.1,0.3-0.1c0.1,0,5.7-0.5,13.1-2.2l-0.5,1.3c0,0,6.3-1.3,10.8-3.8c0.7-0.4,1.2-0.7,1.8-1.1c0.3-0.1,0.6-0.2,0.9-0.3
	l-0.4,1.5c0,0,2.6-0.8,5.2-2.5c1.3-0.8,3.2-2.5,4.2-3.4c0.2-0.1,0.4-0.3,0.7-0.4l-0.4,2.5c0,0,2.6-1.9,6.1-6.4
	c1.4-1.8,2.5-3.4,3.2-4.5c0.4-0.6,0.8-1.2,1.2-1.9l0.5,2.1c0,0,2.2-4.9,2.8-7.2c0.7-2.8,1.2-6.7,1.2-6.7l1.3,1.5c0,0,0.1-5-0.6-8.2
	c-0.4-1.5-0.7-2.8-0.9-3.7c-0.2-1.3-0.4-2-0.4-2s-2.9,7.2-12.1,16.2c-1.7,1.6-4,3.7-6.7,5.9c3.3-3.3,6.2-6.5,8.7-10
	C49.3,31.1,52.7,23.9,52.7,23.9z"/>
</svg>
