<?xml version="1.0" encoding="utf-8"?>
<!-- Generator: Adobe Illustrator 19.1.0, SVG Export Plug-In . SVG Version: 6.00 Build 0)  -->
<svg version="1.1" id="Calque_1" width="50px" height="54px" xmlns="http://www.w3.org/2000/svg" xmlns:xlink="http://www.w3.org/1999/xlink" x="0px" y="0px"
	 viewBox="0 0 50 54" style="enable-background:new 0 0 50 54;" xml:space="preserve">
<style type="text/css">
	.st0{fill:#F6BF05;}
	.st1{fill:#F5BE04;}
	.st2{fill:#F29776;}
	.st3{fill:#FFD35A;}
	.st4{fill:#F7C3BE;}
	.st5{fill:#C01E42;}
</style>
<path class="st0" d="M27,8.1c0,0-3.2,1.6-6.3,3.7c-6.3,4.4-12.3,12-9.2,17.7c3.1,5.8,12,10.3,20.9,3.6c6.4-4.7,6.7-8.3,7.7-14
	c0.5-2.8,0.3-6.6,2-9.7c1.4-2.7,1-8.6-2.9-8.4C28.9,1.5,28.2,7.3,27,8.1z"/>
<path class="st1" d="M11.3,25.4c0.4,9.3-4.7,17.7-10.9,24.5c0.3,0.8,1.2,1.4,1.7,1.1c0.8-0.4,0.3,2,1.4,2.9
	c1.2,0.9,4.5-5.3,7.6-10.3c3-5,9.7-10.1,10.8-11.4C22.8,31.2,15.1,25.8,11.3,25.4z"/>
<path class="st1" d="M35.5,28.3c0,0-5.1,6.6-10.4,9c-5.3,2.4-11.3,4.6-8.1,2.4c3.2-2.1,6.4-5.2,6.4-5.2S40.2,20.2,35.5,28.3z"/>
<path class="st2" d="M27.6,36c0,0,2.6,1.6,3.5,2.1c0.8,0.5,1.8-1,2.8-0.3c1,0.7,0.2,0.8,0.2,0.8s-0.4-0.5-2.2,0
	c-1.8,0.5-2.5,1.6-3.4,2.4c-0.9,0.8-0.7,1.6-0.7,1.6s-1.2-1,0.3-2c1.4-1,1.6-2.4,1.6-2.4l-1.8-1.5L27.6,36z"/>
<g>
	<polygon class="st3" points="40.7,3.9 49.5,3.3 47.3,4.1 42.3,7 	"/>
	<path class="st3" d="M28.1,6.4c0,0,2.3-4.5,6.3-6C36.9-0.5,40,0,41.8,2c1.8,1.9,1.6,2.9,1.6,2.9L42,7.4c0,0-1.8-4.6-5.2-4.7
		C31.2,2.4,28.1,6.4,28.1,6.4z"/>
	<path class="st3" d="M29.1,8.8c0,0-6.4,3.3-11.8,11c-5.3,7.7-7,15.6-7,15.6s-0.2-5.8,1-9c1.2-3.3,1.1-3.5,1.1-3.5l-4.7,6.8
		c0,0,4-11.5,11.5-16.9C26.7,7.4,29.1,8.8,29.1,8.8z"/>
	<path class="st3" d="M8.3,32.9c0,0-2.1,6.3-4,9.2c-1.9,2.9-3.8,5.7-4,6.8c-0.2,1.1,0.6,1.6,0.6,1.6l6.7-9l-4,9.8
		c0,0,4.9-8.7,5.7-10.7c0.9-2,2.1-13.6,2.1-13.6L6.5,41.9L8.3,32.9z"/>
	<path class="st3" d="M40,19.3c0,0-2.9,7.8-7.7,10.4c-4.9,2.6-9.1,4.6-9.1,4.6s4.8,1.1,9.9-1.8C40.1,28.5,40,19.3,40,19.3z"/>
	<path class="st3" d="M44.7,5.4c0,0-1.6,0.9-0.9,1.6c0.4,0.5,5.6,2.1,5.6,2.1s-4.7-0.4-6-0.1c-1.3,0.3-1.5,0.8-1.5,0.8
		s0.6-1.1,0-2.8C41.5,5.8,44.7,5.4,44.7,5.4z"/>
	<path class="st3" d="M41.9,2.1c0,0,0.9,1,1.6,1.2c0.8,0.3,2,0.2,2.6,0.2c0.6,0-3.2,0.6-3.2,0.6L41.9,2.1"/>
	<path class="st3" d="M26.8,11.9c0,0-2.7,0.2-5.6,3c-2.9,2.9-6.1,8.1-6.3,13.3c-0.2,5.1,1.2-0.4,2.7-2.9
		C19,22.8,20.5,17.9,26.8,11.9z"/>
</g>
<path class="st4" d="M40.3,4c0,0-0.6-0.1-1.2,0.4c-0.5,0.5-0.8,1.1-1,1.3s-0.7,0.5-0.7,0.5s0.9-0.2,1.3-0.1c0.4,0.1,0.9,0.7,1.8,0.5
	c0.9-0.2,1.1-0.8,1.2-0.9C41.7,5.6,40.3,4,40.3,4z"/>
<path class="st5" d="M41.4,5.3c0,0.7-0.6,1.2-1.2,1.1c-0.6,0-1.1-0.6-1.1-1.2c0-0.7,0.6-1.2,1.2-1.1C40.9,4.1,41.4,4.7,41.4,5.3z"/>
</svg>
