<?xml version="1.0" encoding="utf-8"?>
<!-- Generator: Adobe Illustrator 19.1.0, SVG Export Plug-In . SVG Version: 6.00 Build 0)  -->
<svg version="1.1" id="Calque_1" xmlns="http://www.w3.org/2000/svg" xmlns:xlink="http://www.w3.org/1999/xlink" x="0px" y="0px"
	 viewBox="0 0 93 74" style="enable-background:new 0 0 93 74;" xml:space="preserve">
<style type="text/css">
	.st0{fill:none;}
	.st1{fill:#93C01F;}
	.st2{fill:#B5D283;}
</style>
<g>
	<g>
		<path class="st0" d="M59.8,44.6c0,0,1.2,2,0.8,0.6c-0.1-0.5-0.2-0.9-0.3-1.2c0.1,0.4,0.7,2.4,1.7,4.3c1.2,2.1,2.7,3.7,2.7,3.7
			s-1.3-0.9-3.1-3.5C59.8,46,59.3,43,59.3,43l0,0c0,0,0,0.1,0,0.1L59.8,44.6z"/>
		<path class="st1" d="M80.4,52.5c7.7,2,12.4,1,12.4,1s-9,4.4-19,2.6c-0.1,0-0.2,0-0.3,0l2.1,1.3c0,0-1.9,0.1-4.8-0.5
			c-2.9-0.6-7.6-2.2-7.6-2.2l0.4,1.5c0,0-1.8-0.3-5.2-2c-2.4-1.2-5.3-3.3-6.7-4.3c-0.3-0.2-0.6-0.4-0.9-0.6l0.7,2.9
			c0,0-3.2-2.6-5.4-5.1c-2.2-2.5-4.3-7.1-4.3-7.1L41,43.1c0,0-1.8-4.3-2.7-8.9c-0.9-4.6-0.9-9.9-0.9-9.9l-2.2,2.5
			c0,0,0.5-3.8,1.3-6.3c1.9-5.6,4.1-8.6,4.1-8.6l0.2-0.5c0,0.1,0.1,0.2,0.1,0.3c0.3-0.7,0.5-1,0.5-1s1,6.2,3.9,12.7
			c-0.3,0.7-1.2,3.3-1.5,8.8C43.4,38.7,46,43.7,46,43.7s-1.2-3.3-1.4-8.7c-0.1-4.7,1.3-8.4,1.6-9.3c1.4,2.7,3,5.5,4.8,8.1
			c-0.1,0.6-0.4,5.7,1.6,10.3c2.2,4.9,5.3,8.2,5.3,8.2s-3.7-4.9-4.9-8.9c-1-3.5-1-7.3-0.9-8.2c0.8,1,1.6,1.9,2.5,2.8
			c2,2,3.1,3.4,4.6,4.8c0,0.1,0.6,3.2,2.4,5.7c1.8,2.5,3.1,3.5,3.1,3.5s-1.6-1.6-2.7-3.7c-1-1.8-1.7-4.2-1.7-4.5c0,0,0,0,0.1,0.1
			c2.1,1.8,5.2,3.7,7.1,4.9c-0.1-1.1,0-1.9,0-1.9s2,2,7.9,4.2c0.6,0.5,3.4,2.6,5.6,3.6c3.1,1.3,5.2,0.4,5.2,0.4
			C83.5,55.2,81.5,53.6,80.4,52.5z"/>
	</g>
	<g>
		<path class="st2" d="M60.3,43.7c0.2,0,2.2,0.2,4.5,1c2.4,0.8,2.8,1,2.8,1s-0.9-0.6-3.7-1.6c-2.8-1-4.6-1.3-4.6-1.3
			c-2.3-2.1-4.7-4.6-6.8-7.7c0.7,0.1,3.4,0.6,6.3,2.2c3.4,1.9,6.1,4.3,6.1,4.3s-2.7-3-6.7-5.4c-3.4-2-6-2.5-6.7-2.6
			c-0.7-1-1.3-2.1-2-3.3c-0.9-1.7-1.7-3.4-2.4-5.1c0.8,0.1,2.7,0.5,5,1.5c3.1,1.4,5.7,3.5,5.7,3.5s-2.4-2.4-5.6-4.3
			c-2.4-1.4-4.8-2.1-5.7-2.4c-2.7-7.4-3-13.5-3-13.5s0.2,0.2,0.5,0.5c0.9,0.9,2.7,2.7,4.4,4.3c2.3,2.2,6,6.6,6,6.6l-2.5-1.4
			c0,0,3,3.8,5.1,6.5c1.6,2.1,5.3,7,5.3,7L59.9,32c0.6,0.9,1.2,1.9,1.8,2.9c0.8,1.2,1.8,2.6,2.7,3.7c2.1,2.6,5.7,6,5.7,6l-2.3-0.9
			c0.2,0.3,0.4,0.5,0.7,0.7c0.8,0.9,1.6,1.6,2.8,2.7c2.3,2,5.1,3.3,5.1,3.3l-2.1-0.3c3.8,3.1,6.8,4.5,7.5,4.8c-1-0.1-5-0.9-10.7-4
			C67.8,49,64,46.8,60.3,43.7z"/>
	</g>
	<path class="st1" d="M42.6,16.6c0,0-1.5-4.7-1.6-8.8C41,2.9,42,1,42,1s0.3-0.9-0.4-1c-1-0.2-1.3,0.8-1.3,0.8s-1.5,3.5,0.1,13
		C41.7,20.6,42.6,16.6,42.6,16.6z"/>
</g>
<g>
	<g>
		<path class="st0" d="M25.6,53.4c0,0,1-1.1,0.2-0.6c-0.3,0.2-0.5,0.3-0.7,0.4c0.3-0.1,1.4-0.9,2.4-1.9c1.1-1.1,1.9-2.4,1.9-2.4
			s-0.4,1-1.6,2.6c-1.3,1.6-3.1,2.5-3.1,2.5l0,0c0,0,0.1,0,0.1,0L25.6,53.4z"/>
		<path class="st1" d="M26.9,38.8c-0.2-5.3-1.6-8.1-1.6-8.1s4.5,4.9,5.1,11.6c0,0.1,0,0.1,0,0.2l0.5-1.6c0,0,0.4,1.2,0.6,3.1
			c0.2,1.9,0,5.3,0,5.3l0.9-0.5c0,0,0.1,1.2-0.3,3.7c-0.3,1.7-1.1,4-1.5,5.1c-0.1,0.2-0.1,0.5-0.2,0.7l1.7-0.9c0,0-1.1,2.5-2.3,4.4
			c-1.2,1.9-3.8,4-3.8,4l2.1,0c0,0-2.4,2-5.2,3.4c-2.8,1.4-6.2,2.4-6.2,2.4l2,1c0,0-2.5,0.4-4.2,0.3c-3.9-0.2-6.2-1.1-6.2-1.1
			l-0.4,0c0.1,0,0.1-0.1,0.2-0.1c-0.5-0.1-0.7-0.1-0.7-0.1s3.8-1.8,7.4-4.8c0.5,0,2.3,0.1,5.9-0.7c4.2-0.9,6.9-3.5,6.9-3.5
			s-1.9,1.4-5.3,2.5c-3,0.9-5.6,0.7-6.2,0.6c1.5-1.4,3-2.9,4.3-4.5c0.4-0.1,3.7-0.8,6.3-2.9c2.7-2.3,4.3-4.9,4.3-4.9
			S28.3,56.5,26,58c-2,1.3-4.5,2-5.1,2.1c0.5-0.7,0.9-1.4,1.3-2.1c0.9-1.6,1.6-2.6,2.3-3.8c0.1,0,1.9-1,3.2-2.5
			C29,50,29.4,49,29.4,49s-0.8,1.3-1.9,2.4c-1,1-2.4,1.8-2.6,1.9c0,0,0,0,0-0.1c0.7-1.7,1.4-4,1.9-5.4c-0.7,0.3-1.2,0.4-1.2,0.4
			s0.9-1.6,1.2-5.8c0.2-0.5,1.1-2.6,1.3-4.2c0.3-2.2-0.7-3.4-0.7-3.4C28,36.4,27.4,38,26.9,38.8z"/>
	</g>
	<g>
		<path class="st2" d="M24.9,53.3c0-0.1-0.3-1.5-0.2-3c0.1-1.7,0.1-1.9,0.1-1.9S24.7,49,24.5,51c-0.1,2,0,3.2,0,3.2
			c-0.9,1.9-2.1,3.8-3.7,5.7c-0.1-0.5-0.3-2.3,0.2-4.4c0.6-2.5,1.6-4.7,1.6-4.7s-1.5,2.2-2.2,5.3c-0.6,2.6-0.5,4.2-0.4,4.7
			c-0.5,0.6-1.1,1.2-1.8,1.9c-0.9,0.9-1.9,1.7-2.8,2.4c-0.1-0.6-0.2-1.8,0-3.5c0.3-2.3,1.2-4.3,1.2-4.3s-1.1,2-1.7,4.4
			c-0.5,1.8-0.5,3.4-0.5,4.1c-4.3,3.1-8,4.4-8,4.4s0.1-0.1,0.2-0.4C7.2,69,8,67.5,8.7,66.1c1-1.9,3.1-5,3.1-5l-0.4,1.8
			c0,0,1.9-2.6,3.2-4.4c1-1.4,3.5-4.7,3.5-4.7l-0.6,1.9c0.5-0.6,1-1.1,1.5-1.7c0.6-0.7,1.3-1.6,1.9-2.4c1.3-1.8,2.8-4.7,2.8-4.7
			l-0.2,1.6c0.1-0.2,0.2-0.4,0.4-0.6c0.4-0.7,0.7-1.3,1.2-2.3c0.9-1.8,1.2-3.9,1.2-3.9l0.2,1.4c1.3-3,1.7-5.2,1.7-5.7
			c0.1,0.7,0.3,3.3-0.6,7.6C27,47.6,26.2,50.4,24.9,53.3z"/>
	</g>
	<path class="st1" d="M10.8,69.5c0,0-2.7,1.8-5.3,2.6C2.4,73,1,72.7,1,72.7s-0.6-0.1-0.6,0.4c0.1,0.7,0.8,0.7,0.8,0.7
		s2.5,0.3,8.3-2.5C13.6,69.4,10.8,69.5,10.8,69.5z"/>
</g>
</svg>
