<?xml version="1.0" encoding="utf-8"?>
<!-- Generator: Adobe Illustrator 19.1.0, SVG Export Plug-In . SVG Version: 6.00 Build 0)  -->
<svg version="1.1" id="Calque_1" xmlns="http://www.w3.org/2000/svg" xmlns:xlink="http://www.w3.org/1999/xlink" x="0px" y="0px"
	 viewBox="0 0 77 77" style="enable-background:new 0 0 77 77;" xml:space="preserve">
<style type="text/css">
	.st0{opacity:0.2;fill:#014839;}
</style>
<path class="st0" d="M65.1-0.1c0,0-3.3,20.7-16.9,38.3C34.6,55.7,19.3,66.7,19.3,66.7s12.3-3.4,28-18.2c0.7-0.7,1.4-1.4,2.1-2.2
	C37.9,62.5,25.9,68.9,18.8,71.4c-8.4,2.5-18,2.7-18,2.7c-2.1,2.6,0.3,2.6,0.3,2.6s4.9-1,15-2.2c0.2,0,0.5-0.1,0.7-0.1
	c10.7,3,38.3,8,52.8-15.5C82.5,38.2,65.1-0.1,65.1-0.1z"/>
</svg>
