<?xml version="1.0" encoding="utf-8"?>
<!-- Generator: Adobe Illustrator 19.1.0, SVG Export Plug-In . SVG Version: 6.00 Build 0)  -->
<svg version="1.1" id="Calque_1" xmlns="http://www.w3.org/2000/svg" xmlns:xlink="http://www.w3.org/1999/xlink" x="0px" y="0px"
	 viewBox="0 0 99 59" style="enable-background:new 0 0 99 59;" xml:space="preserve">
<style type="text/css">
	.st0{fill:#FAB900;}
</style>
<g>
	<path class="st0" d="M23.7,24.4c11.2,6.4,36.6,9.5,36.6,9.5s-22.5,2-39.3-7.6C10.8,20.5,5.3,12.2,2.4,6.2
		c2.9,6.4,8.5,16.5,18.2,24.5c17.2,14.3,37.7,8.6,57.1,12.8C90.4,46.2,99,58.4,99,58.4s-4.4-14.2-19.1-25
		c-13.4-9.8-37.2-14.9-48.4-17.9C13.5,10.7,0.4,0.3,0,0C0.4,0.7,8.9,15.9,23.7,24.4z"/>
</g>
</svg>
