<?xml version="1.0" encoding="utf-8"?>
<!-- Generator: Adobe Illustrator 19.1.0, SVG Export Plug-In . SVG Version: 6.00 Build 0)  -->
<svg version="1.1" id="Calque_1" xmlns="http://www.w3.org/2000/svg" xmlns:xlink="http://www.w3.org/1999/xlink" x="0px" y="0px"
	 viewBox="0 0 68 68" style="enable-background:new 0 0 68 68;" xml:space="preserve">
<style type="text/css">
	.st0{opacity:0.2;}
	.st1{fill:#014839;}
</style>
<g class="st0">
	<g>
		<path class="st1" d="M17.8,58.9c0,0,13.5-9.7,25.5-25.1C55.2,18.3,58.1,0,58.1,0s-1.9,29.8-15.7,42.9
			C28.6,55.9,17.8,58.9,17.8,58.9z"/>
		<path class="st1" d="M58.1,0c0,0,15.3,33.7,4,52c-16.1,26-50.4,12.4-50.4,12.4S28.6,63,44.4,40.8C56.5,23.7,58.1,0,58.1,0z"/>
	</g>
	<path class="st1" d="M1.5,65.4c0,0,12.9-0.4,20.9-4.3c8-4,11-0.4,11-0.4s-9.5,3.9-18.4,5c-8.9,1.1-13.2,2-13.2,2
		S-0.4,67.7,1.5,65.4z"/>
</g>
</svg>
