<?xml version="1.0" encoding="utf-8"?>
<!-- Generator: Adobe Illustrator 19.1.0, SVG Export Plug-In . SVG Version: 6.00 Build 0)  -->
<svg version="1.1" id="Calque_1" width="103px" height="113px" xmlns="http://www.w3.org/2000/svg" xmlns:xlink="http://www.w3.org/1999/xlink" x="0px" y="0px"
	 viewBox="0 0 103 113" style="enable-background:new 0 0 103 113;" xml:space="preserve">
<style type="text/css">
	.st0{opacity:0.2;fill:#014839;}
</style>
<path class="st0" d="M101.2,109.6c0,0-4.6,1-14.7-1c-3.1-0.6-6.2-1.6-8.9-2.6c-4.3-1.7-12.7-5.3-20.9-10.7
	c-1.5,0.2-7.5,0.8-19.1-0.9C24.1,92.4,15.5,86,15.5,86s6.2,3.4,17.2,5.8c9.6,2.1,18.1,1.1,20.2,0.8C48,89.1,43.2,85.1,39,80.9
	c-1.4-0.2-12.1-1.5-20.4-6.8C9.8,68.4,4.9,61.7,4.9,61.7s8,8.4,15.4,12c6.5,3.2,14.6,4.6,16.4,4.8c-1-1.2-1.9-2.4-2.8-3.6
	c1,1.1,2,2.1,3,3.2c0.2-1.3,0.9-6.1-0.7-11.9c-1.9-6.8-5.1-12.3-5.1-12.3s4.6,5.8,7,13.9c2,6.8,1.5,11.4,1.3,12.7
	c1.8,1.6,3.6,3.2,5.7,4.7c3,2.3,6.1,4.3,9.1,6.1c0.3-1.5,0.7-4.9-0.1-9.4c-1-6.1-3.8-11.4-3.8-11.4s3.6,5.2,5.5,11.5
	c1.5,4.8,1.5,9.2,1.5,11c13.7,7.6,26,10.5,26,10.5s-0.2-0.4-0.8-1.2c-1.3-1.9-3.9-5.8-6.2-9.3c-3.2-5-10-13.1-10-13.1l1.3,4.9
	c0,0-6-6.7-10.3-11.5C54,69.6,46,61.1,46,61.1l1.8,5c-1.6-1.4-3.2-2.9-4.9-4.4c-2-1.9-4.2-4.1-6-6.2c-4.1-4.8-8.9-12.4-8.9-12.4
	l0.5,4.3c-0.4-0.5-0.8-1-1.1-1.4c-1.3-1.8-2.3-3.5-3.8-6c-2.8-4.8-3.7-10.2-3.7-10.2l-0.6,3.9c-3.9-7.3-5.1-12.7-5.4-14.6
	c-0.2-5.1,2.4-7.9,2.4-7.9c-2.1,4.4,0,8.7,1.5,10.9C18.4,7.8,23.1,0,23.1,0S8.6,14.1,6.4,32.3c-0.1,0.2-0.1,0.3-0.1,0.5l-1.4-4.2
	c0,0-1.3,3.3-1.9,8.6c-0.6,5.3,0,14.2,0,14.2l-2.9-1.3c0,0-0.5,3.3,1,9.8C2.1,64.6,4.6,70.4,6,73.4c0.2,0.6,0.4,1.2,0.7,1.9L1,73
	c0,0,3.5,6.7,7.3,11.6c3.8,4.9,12.1,10.2,12.1,10.2L13.5,95c0,0,7.8,4.9,16.8,8.2c9,3.3,19.9,5.4,19.9,5.4l-6.4,2.9
	c0,0,8.1,0.7,13.7,0.2c10-0.9,16.7-2.7,19.1-3.5c16.5,5.5,23.9,4.4,23.9,4.4s2.3-0.1,2.5-1.9C103.2,109.3,101.2,109.6,101.2,109.6z
	 M17.9,46.5c0,0.1,0,0.1,0.1,0.2C18,46.7,17.9,46.6,17.9,46.5C17.9,46.5,17.9,46.5,17.9,46.5z M24,60.9c0.1-0.4,0.8-4,0.6-8.2
	c-0.2-4.6-0.4-5.2-0.4-5.2s0.8,1.8,1.2,7.1c0.4,5.2-0.1,8.3-0.1,8.5c0,0-0.3-0.1-0.8-0.3l-2.6-1.4c0,0-3.3-2.8-0.8-1.6
	c0.9,0.5,1.7,0.8,2.3,1c-0.7-0.3-3.2-1.5-5.9-3.3C20.4,59.3,23.4,60.7,24,60.9c0,0-0.1-0.1-0.1-0.1c-0.4-0.8-0.8-1.6-1.2-2.5
	C23.1,59.2,23.5,60,24,60.9z"/>
</svg>
