<?xml version="1.0" encoding="utf-8"?>
<!-- Generator: Adobe Illustrator 19.1.0, SVG Export Plug-In . SVG Version: 6.00 Build 0)  -->
<svg version="1.1" id="Calque_1" xmlns="http://www.w3.org/2000/svg" xmlns:xlink="http://www.w3.org/1999/xlink" x="0px" y="0px"
	 viewBox="0 0 132 89" style="enable-background:new 0 0 132 89;" xml:space="preserve">
<style type="text/css">
	.st0{opacity:0.2;}
	.st1{fill:#014839;}
</style>
<g class="st0">
	<path class="st1" d="M86.7,44.6L84,47.3c0,0,6.7-1.7,10.1-3.4c3.4-1.7,5.9-3.1,5.9-3.1l-2.3,3.7c0,0,3.3-2,5.7-4
		c8-6.6,13.4-14.3,13.4-14.3s-11.4,3.4-24.5,3.9c-21.5,0.8-41.6-3.8-41.6-3.8s24.4,1.3,39,0.2c14.7-1,30.9-3.7,30.9-3.7s0,0,0,0
		c2.1-0.3,3.7-0.9,4.1-1.3c0.5-0.6-0.2-1.4-0.2-1.4s-0.8,0.4-3.6,0.1c-1.8-0.2-4.1-1.5-5.4-2.3c-1.1-1.1-2.3-2.2-3.4-3.2
		c-3.6-3.3-10.2-7.6-10.2-7.6l2.1,3c0,0-2.3-1.9-7.8-4.7C91,2.7,81.9,0,81.9,0l4.8,3.8c0,0-5.1-1.7-11.8-2.5c-6.8-0.8-11.6,0-11.6,0
		l5.9,1.8c0,0-5.8,0.3-11.2,1.2c-5.4,0.9-11.8,2.4-11.8,2.4l6.9,0.7l-17.6,3.5l2.9,1.6l-14.9,1.7l2.7,1.8l-11.5-1.1l1.6,1.3
		l-7.8-0.5l1,1.1c0,0-2.1-0.5-4.3-1.3c-2.2-0.8-5.2-2.8-5.2-2.8s1.3,2,4.8,4.4c1.8,1.3,3.9,2,3.9,2l-2.1,0.2l7.7,3.5l-1.6,0.5
		L24.5,28L22,28.7c0,0,9.7,2.6,13.2,4c3.5,1.4,5.1,1.9,5.1,1.9l-5.7-0.2c0,0,7.4,2.8,12.7,4.2c5.3,1.4,9.2,2.4,9.2,2.4l-6.1,0.4
		c0,0,11.6,2.1,15.4,2.5c3.8,0.3,7.9,0.1,7.9,0.1l-1.1,1.4c0,0,4.6,0.4,9.9-0.5C87.7,44.2,86.7,44.6,86.7,44.6z"/>
	<path class="st1" d="M121.4,64.8c4.7-4.9,9.4-10.9,9.4-10.9s0,0,0,0c0.6-0.8,1-1.5,1-1.7c0-0.4-0.5-0.4-0.5-0.4s-0.1,0.4-1.2,1.1
		c-0.7,0.5-1.9,0.8-2.5,0.9c-0.7,0-1.5,0-2.1,0c-2.3,0-5.9,0.6-5.9,0.6l1.7,0.4c0,0-1.4,0.1-4.1,0.8c-2.7,0.7-6.7,2.6-6.7,2.6
		l2.8-0.2c0,0-2.3,1-4.8,2.8c-2.6,1.8-4,3.6-4,3.6l2.6-1.2c0,0-1.9,1.9-3.4,3.9c-1.5,2-3.3,4.5-3.3,4.5l2.6-1.9L98,76.4l1.5-0.4
		l-4.6,5.2l1.5-0.2l-4.3,3.2l1,0l-2.8,2.3l0.7,0.1c0,0-0.9,0.5-1.9,0.9c-1,0.4-2.7,0.7-2.7,0.7s1.1,0.3,3,0c1-0.1,2-0.5,2-0.5
		l-0.6,0.7l3.7-1.2l-0.4,0.7l5.5-2.1l-0.6,1c0,0,4.1-2.1,5.8-2.7c1.6-0.6,2.3-0.9,2.3-0.9l-2,1.7c0,0,3.4-1.4,5.6-2.5
		c2.2-1.2,3.9-2.1,3.9-2.1l-2,2c0,0,4.6-2.9,6-4c1.4-1.1,2.7-2.4,2.7-2.4l0.1,0.9c0,0,1.7-1.3,3.2-3.3c1.5-1.9,1.3-1.5,1.3-1.5
		l-0.1,1.8c0,0,1.7-2.7,2.4-4.3c0.6-1.6,1-2.9,1-2.9l0.4,2c0,0,0.5-1.7,0.7-3.1c0.7-4.7,0.1-9.1,0.1-9.1s-2.8,4.7-7.1,9
		c-7.1,7-15.4,11.7-15.4,11.7S116.7,69.7,121.4,64.8z"/>
</g>
</svg>
