<?xml version="1.0" encoding="utf-8"?>
<!-- Generator: Adobe Illustrator 19.1.0, SVG Export Plug-In . SVG Version: 6.00 Build 0)  -->
<svg version="1.1" id="Calque_1" xmlns="http://www.w3.org/2000/svg" xmlns:xlink="http://www.w3.org/1999/xlink" x="0px" y="0px"
	 viewBox="0 0 79 49" style="enable-background:new 0 0 79 49;" xml:space="preserve">
<style type="text/css">
	.st0{fill:#009779;}
</style>
<g>
	<g>
		<path class="st0" d="M63.8,33.8c2.5-1.2,6.6-1.6,6.9-1.8c-2.9-0.1-4.6,0.1-5.7-0.1c-1.3-0.2-2.5-1.1-6.1-1.2
			c-2.9-0.1-7.4-0.3-10.6-0.3c-4.3,0-8.9,0.6-13.5,1.5c-4.1,0.8-6.6-0.1-10.7,1.3c-5.6,1.9-13,3-10,3.1c14,0.5,13.6,2.4,25.6,2.9
			c3.1,0.1,6.9-0.4,10.3-1c4-0.7,7.3-1.2,12-3.4L63.8,33.8z"/>
		<path class="st0" d="M48.2,31.8c0,0-8.8-5.7-9.9-7.3c-1.2-1.6-1.5-3.2-2.6-4.5c-1.2-1.3-3.5-3-9.2-6.6C22.5,11,17.6,7.9,15,3.1
			c-3.2-5.8-3.1-2-3.2-0.8c-0.2,2.5,0.3,6.3,2.7,11.2c1,2,4.9,5.5,5.8,8.2c0.6,2,0.6,4.4,9.9,7.4C34,30.4,48.2,31.8,48.2,31.8z"/>
		<path class="st0" d="M48.1,31.3c0,0,9.7,2.2,12.1,4c4.4,3.5,9.7,8,13.9,9.5c4.1,1.4,6.4,2,3.6,2.3c-2.8,0.3-14.5-1.4-21.3-4.4
			c-3-1.3-7.2-1.7-10.4-3.4c-3.7-2-7.4-4.2-3.5-5.8C46.3,31.9,48.1,31.3,48.1,31.3z"/>
		<path class="st0" d="M49.8,31.3c0,0-17.5,1.1-22.4,1.1c-5.4,0-26.6-2.2-27.3-2.2c-0.7-0.1,3.8,1.4,9.5,2.5C11.8,33,21,34,17.9,35
			C17.4,35.1,4.4,36.9,7.1,37c2.8,0.2,18-0.2,23.2,0.2C35.4,37.7,49.8,31.3,49.8,31.3z"/>
	</g>
</g>
</svg>
