<?xml version="1.0" encoding="utf-8"?>
<!-- Generator: Adobe Illustrator 19.1.0, SVG Export Plug-In . SVG Version: 6.00 Build 0)  -->
<svg version="1.1" id="Calque_1" width="39px" height="44px" xmlns="http://www.w3.org/2000/svg" xmlns:xlink="http://www.w3.org/1999/xlink" x="0px" y="0px"
	 viewBox="0 0 39 44" style="enable-background:new 0 0 39 44;" xml:space="preserve">
<style type="text/css">
	.st0{fill:#FDC400;}
	.st1{fill:#63B349;}
	.st2{fill:#FFEB97;}
	.st3{fill:#FFD800;}
	.st4{fill:#009946;}
</style>
<g>
	<g>
		<path class="st0" d="M1.9,28.7L1.9,28.7C1.9,28.8,1.9,28.8,1.9,28.7L1.9,28.7z"/>
		<path class="st1" d="M17.1,22.2c0,0,2.1-2,4.4-0.9c2.3,1.2,0.9,2.2-1.1,2.4C18.4,24,16.3,23.3,17.1,22.2z"/>
		<path class="st2" d="M21.4,13.8c0,0,1.3-0.8,2.3,0.1c0.9,0.9-0.8,1.9-1.8,1.7C20.8,15.5,20.9,14.2,21.4,13.8z"/>
		<path class="st1" d="M3,24.9c1.2-1.3,2.4-3.5,10.9,2.5c3.7,2.7,9.5,5.9,8,7.6c-1.8,1.9-6.3-0.4-6.3-0.4S18,38,15.9,39
			c-1.7,0.8-3.8-2.1-3.8-2.1s1.8,5.2-1.2,4.6c-1.8-0.3-4.6-4.7-6.2-7.8C2.3,29,1.8,26.2,3,24.9z"/>
		<path class="st3" d="M9.4,25.5c0,0,4.3,0.1,6.3,4c2,4-0.7,3.5-3.3,1.5C9.6,29,7.5,25.8,9.4,25.5z"/>
		<g>
			<path class="st4" d="M25.1,29.5c0,0,1.3-0.7,2.4,0c0.6-0.7,1-1.5,1.3-2.3c0.2-0.7,0.5-1.4,0.8-2.1c-0.5-0.5-0.4-1.4,0-1.7
				c0,0,0.4-0.2,0.9-0.3c0.3-0.6,0.6-1.1,1-1.7c-0.2-0.5-0.1-1.1,0.3-1.3c0,0,0.3-0.2,0.7-0.2c0.2-0.3,0.3-0.5,0.5-0.8
				c-0.2-0.3-0.2-0.6-0.2-0.9c-3.1,0-5.8-0.8-4.8-2.1c0,0,1.3-1.3,3.5-1.8c-0.6-0.1-1.2-0.3-1.4-0.5c-0.4,0.5-1.3,0.9-2,0.8
				c-1-0.1-1-1.3-0.4-1.8c0,0,1.3-0.8,2.3,0.1c0,0,0,0,0,0c0,0,0,0,0,0c0,0,2-2,4.2-0.9c1.7,0.8,1.3,1.6,0.2,2.1
				c0.6,0.1,1.2,0.2,1.9,0.4c0.2,0.1,0.3,0.1,0.5,0.2c1.7-1.9,2.5-3.1,1.2-3.7c-3-1.4-15.1,0.9-23.1,4.6c0.3-0.1,0.6-0.2,0.9-0.3
				c1.1-0.4,4.8-1.8,8.7-2.1c2.6-0.2,3.3,0.9,1.7,1.9c-0.1,0.1-0.3,0.2-0.4,0.3c0.3,0,0.7,0.1,1,0.2c1,0.3,0.2,1.2-1.2,1.6
				c0.1,0,0.5,0,1.5,0.5c0.3,0.1,0.5,0.3,0.7,0.5c0,0,0,0,0,0c0.1,0.1,0.1,0.1,0.2,0.2c0,0,0.1,0.1,0.1,0.1c0.1,0.1,0.1,0.2,0.2,0.3
				c0,0,0,0.1,0,0.1c0,0.1,0,0.1,0,0.2c0,0,0,0.1,0,0.1c0,0.1-0.1,0.3-0.2,0.4c-0.6,0.5-2.3,1.5-6.2,1.3c-5.2-0.3-6.2-0.4-6.2-0.4
				s4.6,0.8,7,1.2c1.6,0.2,2.7,0.4,3.3,0.8c0.3,0.3,0.5,0.8-0.1,1.5c-0.6,0.7-1.5,1-2.3,1.2c-1,0-2.3-0.1-4-0.7
				c-4.2-1.5-5-1.8-5-1.8s3.6,1.8,5.5,2.7c1.9,0.9,2.8,1.4,2.9,2.2c0,0.1,0,0.2,0,0.2c-0.1,0.4-0.4,0.7-1,1.1
				c-1.4,0.8-2.4,1-3.1,1.1c-0.9-0.4-2.1-1-3.5-1.8c-4.9-2.7-6.1-3.2-6.1-3.2s1.3,0.9,5.5,3.8c2.4,1.7,4.4,3.4,5.9,3.9
				c0.1,0.1,0.1,0.1,0.2,0.2c1.5,0.1,3.1-0.3,4.4-1.2C24.6,30.9,24.6,29.9,25.1,29.5z M26.4,21.3c0,0,2.6-1.3,3.5-1.1
				c0.9,0.2,0.5,1.3-0.1,2C29.1,22.9,26.4,21.3,26.4,21.3z"/>
			<path class="st4" d="M14.6,41.6c0,0,2,0.8,2.7,1.6c3.8-2,8-7.2,6.1-8.9c-0.7-0.6-1.4-1.1-2.1-1.6c0.9,0.9,1.2,1.7,0.7,2.3
				c-0.8,0.9-2.1,0.9-3.3,0.6c-0.9-0.3-2.2-0.9-3.8-2.4c-3.2-3-3.8-3.6-3.8-3.6s2.6,3.1,3.9,4.6c1.3,1.4,1.6,1.8,1.8,2.9
				c0.1,0.7-0.1,1.4-0.9,1.7c-1,0.5-2.2-0.3-2.9-1.1c-0.4-0.4-0.8-1-1.2-1.6c-2.4-3.7-2.8-4.4-2.8-4.4s1.8,3.6,2.7,5.4
				c0.9,1.7,1.1,2.5,0.8,3.5c-0.2,0.5-0.7,0.9-1.6,0.7c-1.6-0.3-4.1-3.8-5.7-6.8C5.1,34.8,5,34.9,4.9,35C5,35.2,6,37.1,6.1,37.3
				c1.2,2.3,4.1,6.5,8.1,6.7C14.2,43,14.6,41.6,14.6,41.6z M17.8,36.6c0,0,3.4,0.1,3.8,1.2c0.4,1.1-1.4,3-2.4,3.3
				C18.1,41.4,17.8,36.6,17.8,36.6z"/>
		</g>
		<path class="st4" d="M1.1,23.6c0.1-1.5,0.2-2.3,0.4-3.1c0,0,0,0,0,0c0.3-1.9,1-5.2,1.8-7c0.3-0.8,0.8-1.5,1.3-2.2
			c0.9-1.1,1.9-1.4,2.5-1.1c0.7,0.3,1,1,0.7,1.7c-0.1,0.3-0.3,0.5-0.6,0.6c-0.3,0.1-0.5,0.1-0.7,0.1C6,12.4,5.9,12,5.9,12l0.5-0.2
			c0,0,0.1,0.3,0.3,0.4c0.1,0,0.2,0,0.3,0c0.2-0.1,0.3-0.2,0.4-0.4c0.2-0.4,0-0.9-0.5-1.1c-0.4-0.2-1.1-0.1-2,1
			c-0.5,0.6-0.9,1.3-1.2,2c-0.9,2.1-1.4,4.6-1.5,5.5c0.5-0.4,1-0.3,1.3,0.4c0.4-1.1,1-2.4,1.7-3.5c0.5-0.7,1-1.4,1.6-2
			c1.1-1,2-1.1,2.7-0.7c0.6,0.4,0.9,1.2,0.5,1.8c-0.1,0.2-0.4,0.4-0.7,0.5c-0.3,0.1-0.6,0.1-0.7-0.1C8.1,15.3,8,14.9,8,14.9l0.5-0.1
			c0,0,0.1,0.3,0.3,0.4c0.1,0,0.2,0.1,0.3,0c0.2-0.1,0.3-0.2,0.4-0.3c0.2-0.3,0.1-0.9-0.3-1.1c-0.4-0.2-1.1-0.2-2.1,0.7
			c-0.5,0.5-1.1,1.1-1.5,1.9c-1,1.8-2.1,4.5-2.4,5.5c1.3-1.4,3.3-3.2,6.4-5.2c0.5-0.3,1.9-1.2,2.6-1.5c0-0.1,0.2-0.1,0.2-0.1
			c-1.5-8.4,1.8-16.6-1.4-14.6C4.5,4.3-2.5,14.6,0.9,24.3c0,0.1,0.1,0.2,0.1,0.3C1,24.2,1,23.9,1.1,23.6z"/>
		<path class="st3" d="M2.4,26.8c0.2,0,0.3,0.3,0.6,1c1.5,4,4.3,6.9,4.3,6.9s-2.4-2.6-3.4-6.4c-0.7-2.7,0.1-4.1,0.6-4.6
			c0.9-0.4,2.3-0.5,4.9,0.9c0,0,0,0,0,0s8.5,4.5,9.5,4.9c0,0,0.1,0,0.1,0c0.5,0,1.3-0.2,2.3-0.7c0,0,0,0,0,0
			c0.2-0.1,0.5-0.2,0.8-0.4c0.1-0.1,0.3-0.2,0.4-0.2c0.1-0.1,0.1-0.1,0.2-0.2c0,0,0.1,0,0.1-0.1c0.1-0.1,0.1-0.2,0.2-0.3
			c0,0,0,0,0,0c0.1-0.1,0.1-0.2,0.1-0.3c0-0.1,0-0.1,0-0.2c-0.1-0.7-1-1.3-2.9-2.2c-1.9-0.9-5.5-2.7-5.5-2.7s0.8,0.3,5,1.8
			c1.7,0.6,3.1,0.8,4,0.7c0.2,0,0.4-0.1,0.6-0.1c0,0,0.1,0,0.1-0.1c0.2-0.1,0.3-0.1,0.5-0.2c0.1-0.1,0.2-0.1,0.3-0.2
			c0.1-0.1,0.2-0.1,0.3-0.2c0.2-0.1,0.4-0.3,0.5-0.5c0.2-0.2,0.2-0.3,0.3-0.5c0-0.1,0-0.1,0-0.2c0-0.1,0-0.2,0-0.2
			c0-0.1,0-0.2-0.1-0.2c0,0,0-0.1,0-0.1c-0.1-0.1-0.1-0.2-0.2-0.2h0c-0.6-0.4-1.7-0.6-3.3-0.8c-2.4-0.3-7-1.2-7-1.2s1,0.1,6.2,0.4
			c3.9,0.2,5.6-0.8,6.2-1.3c0.1-0.1,0.2-0.3,0.2-0.4c0,0,0-0.1,0-0.1c0-0.1,0-0.1,0-0.2c0,0,0,0,0-0.1c0-0.1-0.1-0.2-0.2-0.3
			c0,0-0.1-0.1-0.1-0.1c-0.1-0.1-0.1-0.1-0.2-0.2c0,0,0,0,0,0c-0.2-0.2-0.4-0.3-0.7-0.5c-1-0.5-1.3-0.5-1.5-0.5
			c1.4-0.4,2.1-1.3,1.2-1.6c-0.3-0.1-0.7-0.1-1-0.2c0.2-0.1,0.3-0.2,0.4-0.3c1.5-1.1,0.8-2.2-1.7-1.9c-3.9,0.4-7.6,1.7-8.7,2.1
			c-0.3,0.1-0.6,0.2-0.9,0.3C8.8,17.5,1,24.7,1,24.7s0.2,1.7,0.9,4c0,0,0.9,2.9,1.4,4.1c2.2,5.2,5.3,8.2,6,8.8
			C7.9,40.3,2.8,31.4,2.4,26.8z"/>
		<path class="st2" d="M14.7,17.2c0,0,2.1-2.1,4.4-0.9c2.3,1.2,0.9,2.2-1.1,2.4C16,18.9,13.9,18.3,14.7,17.2z"/>
		<path class="st2" d="M9.6,22c0,0,2.6-1.3,4.5,0.5c1.9,1.8,0.2,2.4-1.8,2C10.3,24,8.5,22.8,9.6,22z"/>
		<path class="st2" d="M7.4,38.1c0,0,1.8,0.3,2.4,2c0.5,1.8-0.6,1.4-1.5,0.4C7.3,39.6,6.6,38.2,7.4,38.1z"/>
		<path class="st2" d="M5.7,29.1c0,0-2.1-1.5-1.4-3.7c0.7-2.1,1.8-1.1,2.3,0.6C7,27.8,6.8,29.7,5.7,29.1z"/>
	</g>
	<path class="st1" d="M11.9,9.8c0,0-0.5-4.6-0.7-5.9C11,2.7,10.1,2.6,8.7,3.5c-2.3,1.4-6,6-6,6S4.4,6,7.1,3.4
		c2.6-2.6,4.5-3.8,5.1-3.3c0.5,0.5,0.3,3.3,0.1,4.7C12.1,6.3,11.9,9.8,11.9,9.8z"/>
</g>
<path class="st2" d="M2.1,24.2c0-0.3,0-0.8,0-1.1c0.1-1.4,0.2-2.2,0.4-3c0,0,0,0,0,0c0.3-1.8,1-5,1.8-6.9c0.3-0.8,0.8-1.5,1.3-2.1
	C6.5,10,7.4,9.7,8.1,10c0.7,0.3,1,1,0.7,1.7c-0.1,0.3-0.3,0.5-0.6,0.6c-0.3,0.1-0.5,0.1-0.7,0.1c-0.4-0.2-0.6-0.6-0.6-0.6l0.5-0.2
	c0,0,0.1,0.3,0.3,0.4c0.1,0,0.2,0,0.3,0c0.2-0.1,0.3-0.2,0.4-0.4c0.2-0.4,0-0.9-0.5-1c-0.4-0.1-1.1-0.1-1.9,0.9
	c-0.5,0.6-0.9,1.3-1.2,2c-0.9,2.1-1.3,4.5-1.4,5.3c0.5-0.4,1-0.3,1.2,0.4c0.4-1,0.9-2.3,1.7-3.5c0.5-0.7,1-1.4,1.5-1.9
	c1.1-1,2-1.1,2.6-0.7c0.6,0.4,0.8,1.2,0.5,1.8c-0.1,0.2-0.4,0.4-0.7,0.5c-0.3,0.1-0.5,0.1-0.7-0.1C9.1,15,9,14.6,9,14.6l0.5-0.1
	c0,0,0.1,0.3,0.3,0.4c0.1,0,0.2,0.1,0.3,0c0.2-0.1,0.3-0.2,0.4-0.3c0.2-0.3,0.1-0.9-0.3-1.1c-0.4-0.2-1-0.2-2,0.7
	c-0.5,0.5-1,1.1-1.5,1.8c-0.9,1.8-2.6,6-3,6.9L2.1,24.2z"/>
</svg>
