<?xml version="1.0" encoding="utf-8"?>
<!-- Generator: Adobe Illustrator 19.1.0, SVG Export Plug-In . SVG Version: 6.00 Build 0)  -->
<svg version="1.1" id="Calque_1" width="149px" height="152px" xmlns="http://www.w3.org/2000/svg" xmlns:xlink="http://www.w3.org/1999/xlink" x="0px" y="0px"
	 viewBox="0 0 149 152" style="enable-background:new 0 0 149 152;" xml:space="preserve">
<style type="text/css">
	.st0{fill:#8A0437;}
	.st1{fill:#95C45F;}
	.st2{fill:#00A25D;}
	.st3{fill:#00847C;}
	.st4{fill:#00AA9D;}
</style>
<g>
	<g>
		<g>
			<path class="st0" d="M142.4,98.4c0,0-2-1.2-2.7-2.9c-0.7-1.8-0.5-2.8-0.5-2.8s-2,1.5-2.2,3.4c-0.2,1.8,5.4,2.5,5.4,2.5
				L142.4,98.4z"/>
		</g>
		<g>
			<path class="st1" d="M142.1,89.4c0,0,0.5-0.1,1,0c0.4,0.1,0.6,0.2,1,0.4c0.4,0.2,0.6,0.1,1,0.2c0.3,0.1,0.6,0.6,0.6,0.8
				c0,0.2-1.9-0.3-2.1-0.3C143.4,90.4,142,89.4,142.1,89.4z"/>
			<path class="st1" d="M149,95.6c-0.1-1.3-0.9-3.1-2.3-4.4c-1.4-1.3-2.8-1.4-2.8-1.4c-0.1,0-0.2,0-0.2,0.2c0.1-0.3-0.5-0.6-0.7-0.6
				l-0.2,0.1c-0.4-0.3-1.1-0.1-1.5,0.2c-0.1,0.1-0.2,0.2-0.2,0.3c-0.7,0.1-1.3,0.3-1.8,0.6c-2.9,1.9-2.4,4.9-1.7,7
				c1.1,3.4,3.8,4.6,7.2,4.1c1.7-0.2,3.9-2.7,4.2-5.2C149,96.3,149,96,149,95.6z M145,92.4c-0.3,0.2-0.6,0.2-1,0.1
				c-0.2-0.1-0.5-0.2-0.8,0c-0.3,0.2-0.2,0.1-0.6,0.2c-0.4,0-0.8-0.1-1-0.5l-0.1-0.1c-0.2-0.5,0.3-0.6,0.2-0.8
				c-0.2-0.4-0.5-0.9,0-1.2c0,0,0.1,0,0.1,0c0,0,0,0,0,0c0.3-0.1,0.6-0.1,1-0.1c0.3,0,0.5,0.1,0.7,0.2c0,0,0,0,0,0c0,0,0,0,0,0.1
				c0.1,0.1,0.3,0.2,0.4,0.3c0.3,0.2,0.6-0.1,1,0.1c0.1,0.1,0.3,0.2,0.2,0.4c0,0.3,0,0.2-0.1,0.4C145,91.6,145.8,91.8,145,92.4z"/>
		</g>
	</g>
	<path class="st2" d="M143.7,92.3c-0.1,0-0.3,0-0.4,0.1c-0.3,0.2-0.2,0.1-0.6,0.2c-0.4,0-0.8-0.1-1-0.5l-0.1-0.1
		c-0.2-0.5,0.3-0.6,0.2-0.8c-0.2-0.4-0.5-0.9,0-1.2c0.2-0.1,0.4-0.1,0.6-0.1c-0.2,0-0.3-0.1-0.5-0.1c-0.8,0-3.1,0.4-4.4,2.5
		c-2,3-0.2,6.3-0.2,6.3s0.6,1.3,1.8,1.1c1.8-0.3,5.5-0.3,5.1-1.4C143.7,96,143.7,93.9,143.7,92.3z"/>
</g>
<g>
	<g>
		<g>
			<path class="st0" d="M5.8,148.5c0,0-2-1.2-2.7-2.9c-0.7-1.8-0.5-2.8-0.5-2.8s-2,1.5-2.2,3.4c-0.2,1.8,5.4,2.5,5.4,2.5L5.8,148.5z
				"/>
		</g>
		<g>
			<path class="st1" d="M5.4,139.5c0,0,0.5-0.1,1,0c0.4,0.1,0.6,0.2,1,0.4c0.4,0.2,0.6,0.1,1,0.2c0.3,0.1,0.6,0.6,0.6,0.8
				c0,0.2-1.9-0.3-2.1-0.3C6.7,140.5,5.3,139.5,5.4,139.5z"/>
			<path class="st1" d="M12.3,145.7c-0.1-1.3-0.9-3.1-2.3-4.4C8.7,140,7.2,140,7.2,140c-0.1,0-0.2,0-0.2,0.2
				c0.1-0.3-0.5-0.6-0.7-0.6l-0.2,0.1c-0.4-0.3-1.1-0.1-1.5,0.2c-0.1,0.1-0.2,0.2-0.2,0.3c-0.7,0.1-1.3,0.3-1.8,0.6
				c-2.9,1.9-2.4,4.9-1.7,7c1.1,3.4,3.8,4.6,7.2,4.1c1.7-0.2,3.9-2.7,4.2-5.2C12.3,146.4,12.4,146.1,12.3,145.7z M8.4,142.5
				c-0.3,0.2-0.6,0.2-1,0.1c-0.2-0.1-0.5-0.2-0.8,0c-0.3,0.2-0.2,0.1-0.6,0.2c-0.4,0-0.8-0.1-1-0.5l-0.1-0.1
				c-0.2-0.5,0.3-0.6,0.2-0.8c-0.2-0.4-0.5-0.9,0-1.2c0,0,0.1,0,0.1,0c0,0,0,0,0,0c0.3-0.1,0.6-0.1,1-0.1c0.3,0,0.5,0.1,0.7,0.2
				c0,0,0,0,0,0c0,0,0,0,0,0.1c0.1,0.1,0.3,0.2,0.4,0.3c0.3,0.2,0.6-0.1,1,0.1c0.1,0.1,0.3,0.2,0.2,0.4c0,0.3,0,0.2-0.1,0.4
				C8.4,141.7,9.2,141.9,8.4,142.5z"/>
		</g>
	</g>
	<path class="st2" d="M7,142.4c-0.1,0-0.3,0-0.4,0.1c-0.3,0.2-0.2,0.1-0.6,0.2c-0.4,0-0.8-0.1-1-0.5l-0.1-0.1
		c-0.2-0.5,0.3-0.6,0.2-0.8c-0.2-0.4-0.5-0.9,0-1.2c0.2-0.1,0.4-0.1,0.6-0.1c-0.2,0-0.3-0.1-0.5-0.1c-0.8,0-3.1,0.4-4.4,2.5
		c-2,3-0.2,6.3-0.2,6.3s0.6,1.3,1.8,1.1c1.8-0.3,5.5-0.3,5.1-1.4C7,146.1,7.1,144,7,142.4z"/>
</g>
<g>
	<g>
		<g>
			<path class="st0" d="M78.3,22.5c0,0-5-2.9-6.8-7.3c-1.8-4.4-1.2-7-1.2-7s-4.9,3.8-5.4,8.4c-0.5,4.6,13.5,6.2,13.5,6.2L78.3,22.5z
				"/>
		</g>
		<g>
			<path class="st1" d="M77.4,0.1c0,0,1.3-0.2,2.4,0c1.1,0.2,1.6,0.6,2.5,1c0.9,0.4,1.6,0.3,2.5,0.6c0.8,0.3,1.5,1.4,1.5,1.9
				c0,0.5-4.8-0.6-5.2-0.8C80.6,2.7,77.1,0.2,77.4,0.1z"/>
			<path class="st1" d="M94.6,15.4c-0.3-3.3-2.3-7.7-5.8-10.9c-3.4-3.2-6.9-3.4-6.9-3.4c-0.4-0.1-0.5,0.1-0.6,0.5
				c0.2-0.9-1.3-1.5-1.8-1.5l-0.4,0.2c-1-0.7-2.8-0.2-3.7,0.5c-0.3,0.2-0.5,0.5-0.6,0.9c-1.6,0.2-3.2,0.7-4.5,1.6
				c-7.2,4.8-6,12.2-4.3,17.3C68.7,29.1,75.4,32,83.9,31c4.3-0.5,9.8-6.6,10.5-12.9C94.6,17.3,94.7,16.5,94.6,15.4z M84.7,7.4
				C83.9,8,83.2,8,82.2,7.6c-0.6-0.2-1.3-0.5-1.9-0.1c-0.7,0.4-0.5,0.4-1.4,0.4c-1.1,0.1-2.1-0.2-2.5-1.2l-0.2-0.3
				c-0.5-1.3,0.8-1.5,0.6-2c-0.5-1-1.1-2.1,0.1-2.9c0.1-0.1,0.2-0.1,0.2-0.1c0,0,0,0,0.1,0c0.8-0.3,1.6-0.1,2.5-0.1
				c0.6,0,1.2,0.3,1.7,0.6c0,0,0.1-0.1,0.1-0.1c0,0,0,0.1,0,0.2c0.3,0.2,0.6,0.4,1,0.6C83,3,83.9,2.3,84.7,2.8
				c0.3,0.2,0.6,0.4,0.6,1c-0.1,0.7-0.1,0.4-0.2,0.9C84.7,5.6,86.7,6.1,84.7,7.4z"/>
		</g>
	</g>
	<path class="st2" d="M81.3,7.3c-0.4-0.1-0.7-0.1-1.1,0.1c-0.7,0.4-0.5,0.4-1.4,0.4c-1.1,0.1-2.1-0.2-2.5-1.2l-0.2-0.3
		c-0.5-1.3,0.8-1.5,0.6-2c-0.5-1-1.1-2.1,0.1-2.9c0.5-0.3,1.1-0.4,1.6-0.3C78,1.1,77.6,1,77.1,1c-1.9,0-7.6,1.1-11,6.1
		c-5,7.5-0.4,15.6-0.4,15.6s1.5,3.1,4.6,2.6c4.5-0.7,13.7-0.6,12.8-3.4C81.4,16.4,81.5,11.2,81.3,7.3z"/>
</g>
<g>
	<path class="st3" d="M96.5,51.8c0,0-5.7-1.2-11.5,0.6c-5.8,1.8-9.3,7.5-9.3,7.5s6.5-0.1,12.3-2.3C93.8,55.4,96.5,51.8,96.5,51.8z"
		/>
	<path class="st3" d="M75.7,100.4c0,0-5.4-2.2-11.4-1.5c-6,0.7-10.5,5.6-10.5,5.6s6.4,1.1,12.5,0C72.3,103.4,75.7,100.4,75.7,100.4z
		"/>
	<path class="st4" d="M112.4,12.5c0,0-2.4,5.3-1.9,11.3c0.5,6,5.3,10.7,5.3,10.7s1.3-6.4,0.4-12.5C115.3,15.9,112.4,12.5,112.4,12.5
		z"/>
	<path class="st4" d="M103.4,71.8c0,0-4.7,3.4-7.2,9c-2.5,5.5-0.6,11.9-0.6,11.9s4.3-4.9,6.5-10.7C104.2,76.2,103.4,71.8,103.4,71.8
		z"/>
	<path class="st4" d="M73.8,130c0,0-4.7,3.4-7.2,9c-2.5,5.5-0.6,11.9-0.6,11.9s4.3-4.9,6.5-10.7C74.7,134.4,73.8,130,73.8,130z"/>
</g>
</svg>
