<?xml version="1.0" encoding="utf-8"?>
<!-- Generator: Adobe Illustrator 19.1.0, SVG Export Plug-In . SVG Version: 6.00 Build 0)  -->
<svg version="1.1" id="Calque_1" xmlns="http://www.w3.org/2000/svg" xmlns:xlink="http://www.w3.org/1999/xlink" x="0px" y="0px"
	 viewBox="0 0 99 175" style="enable-background:new 0 0 99 175;" xml:space="preserve">
<style type="text/css">
	.st0{fill:#00847C;}
	.st1{fill:#00AA9D;}
</style>
<g>
	<g>
		<path class="st0" d="M11.2,133.2c0,0,0.4-9.3,5.4-20.4c5-11.1,13.6-20.8,18.4-35.6c3.7-11.6,2.7-27.2,0.4-39
			c-2.7-14.2-7.3-27.5-11.2-37c0,0,3.8,17.1,1.3,27.2c-1.5,6.2-7.5,11.2-8.5,28.6c-1.1,19.1,2,12.4-0.1,29.3
			C15.3,100.2,8.6,114.4,11.2,133.2z"/>
		<path class="st1" d="M7.2,145.1c0,0-5-26.7,3.4-45.7C21.1,75.9,24.7,65,26.9,54.6c2.2-10.4,3.1-20,2.9-26.4
			c-0.5-15.4-6.2-28.7-6.2-28.7s5.6,16.7-6.9,44.9C7.2,65.5,1.3,86.7,0.8,102.7C0,128.8,7.2,145.1,7.2,145.1z"/>
	</g>
	<g>
		<path class="st0" d="M20.3,167.3c0,0,5-7.8,14.9-14.9c9.9-7.1,22.2-11.1,33.9-21.5c9.1-8.2,16-22.1,20-33.5
			c4.8-13.7,7.5-27.5,9-37.6c0,0-5.3,16.7-12.5,24.2c-4.4,4.6-12.1,5.9-21.7,20.4c-10.6,16-4.5,11.8-14.8,25.3
			C40.4,140.8,27.5,149.7,20.3,167.3z"/>
		<path class="st1" d="M10.8,175.5c0,0,9.1-25.6,25.9-37.7c20.9-15.1,29.6-22.7,36.7-30.6c7.1-7.9,12.7-15.7,15.8-21.4
			c7.3-13.5,9.1-27.9,9.1-27.9s-3.6,17.3-28.6,35.3c-18.8,13.5-34.6,28.8-43.1,42.4C12.8,157.9,10.8,175.5,10.8,175.5z"/>
	</g>
</g>
</svg>
