<?xml version="1.0" encoding="utf-8"?>
<!-- Generator: Adobe Illustrator 19.1.0, SVG Export Plug-In . SVG Version: 6.00 Build 0)  -->
<svg version="1.1" id="Calque_1" xmlns="http://www.w3.org/2000/svg" xmlns:xlink="http://www.w3.org/1999/xlink" x="0px" y="0px"
	 viewBox="0 0 99 71" style="enable-background:new 0 0 99 71;" xml:space="preserve">
<style type="text/css">
	.st0{fill:#FFDB75;}
	.st1{fill:#EE7B20;}
	.st2{fill:#F29100;}
	.st3{fill:#FFD700;}
</style>
<g>
	<g>
		<path class="st0" d="M54.6,60.1c0,0-15.6-6.8-23.8-19.1c-8.2-12.3-6-22.9-4.3-21.7c4.3,2.9,10.9,18.2,21.3,28.6
			c10.4,10.4,12.4,8.6,12.4,8.6L54.6,60.1z"/>
		<path class="st0" d="M60.6,52.8c0,0-2.1-13.1-4-25.6c-1.9-12.5-6.6-20-8.4-20.9c-1.5-0.8-2.4,3.5-1.4,14.9
			c0.9,11.1,8.2,34.3,9.5,36.1C57.6,59.1,60.6,52.8,60.6,52.8z"/>
		<path class="st1" d="M60,54.9l-5.4-17c-1.3-5.6-1.8-10.3-1.8-10.3s-0.1,4,0.8,12.3c0.9,8.3,1.4,15.7,1.4,15.7S56.7,58.7,60,54.9z"
			/>
		<path class="st2" d="M49.2,57.1l-11.7-4.2c-3.4-1.4-5.9-2.7-5.9-2.7s2.1,1.5,6.6,3.8c4.5,2.3,8.3,4.2,8.3,4.2S49.7,58.8,49.2,57.1
			z"/>
		<path class="st0" d="M61.5,53.3c0,0,9.3-13.9,8.9-30.2C70,6.8,60.9-1.8,60,0.5c-1.3,3,4.3,19.2,2,36.1c-2.3,16.8-7.8,22-7.8,22
			L61.5,53.3z"/>
		<path class="st1" d="M57.6,57.5c-4.6,2.2-7.7,1.3-8.8-1c-1.1-2.3,0.9-5.4,4.3-7.1c3.5-1.6,7.2-1.1,8.2,1.1
			C62.4,52.9,61.1,55.9,57.6,57.5z"/>
		<path class="st3" d="M55,54.9c-2.9,1.4-5.8,1.3-6.5-0.2c-0.7-1.5,1.1-3.8,3.9-5.1c2.9-1.4,5.8-1.3,6.4,0.2
			C59.6,51.3,57.8,53.6,55,54.9z"/>
		<path class="st0" d="M60.4,55.9c0,0,0,0.4,7.2-2.7c6.5-2.8,10.4-7.7,14.9-11.8c11.3-10.2,19.5-28.5,15-25.8
			c-4.5,2.7-8,7.3-16.9,18.3C71.6,44.8,70.7,49.2,60.4,55.9z"/>
		<path class="st0" d="M1.1,43c-2.6-0.4-1.4,8.5,12.8,14.5c6.7,2.8,22,3.4,28.9,4c-5.1-1.7-7.4-5.1-9.6-7.1C17.1,50,7.2,43.9,1.1,43
			z"/>
		<path class="st0" d="M47.2,60c0,0,13.2,4.5,23.8-0.8C81.7,53.9,92.3,36,87.2,38.7c-4.4,2.3-9.5,6.8-14.3,11.5
			c-4.8,4.7-7.8,7.4-14.1,7.6c-4,0.1-10,1.1-10,1.1L47.2,60z"/>
		<path class="st0" d="M27.3,64.7c-6.4-1.4-14.7-3.1-18-1.2c-2.4,1.3,12.8,6.9,25,5.9c6.7-0.5,12.7-3.3,16.7-5.7
			c-2.3-0.1-4.6,0-6.7-0.5C39.7,64.3,32.7,65.9,27.3,64.7z"/>
		<path class="st1" d="M60.3,54.9c0,0,2.4-0.5,3.8-9.2c0.7-4,0.8-9.9,0.8-9.9S64,43,63,46c-1.1,2.9-2.5,4.4-2.5,4.4L60.3,54.9z"/>
		<path class="st1" d="M48.8,56.6c0,0-2.8-2.4-5.1-4.8c-2.3-2.4-5.5-7.6-5.5-7.6s3.3,3.9,6,6.4c2.7,2.5,4.4,3.4,4.4,3.4
			S52.1,58.8,48.8,56.6z"/>
		<path class="st2" d="M52.7,58.9c0,0-5.7,0-9.9-0.4c-4.1-0.4-9-4.5-9-4.5s4.1,3,8.7,3.2c4.6,0.2,7-0.4,7-0.4S57.7,58.4,52.7,58.9z"
			/>
		<path class="st0" d="M51.6,60.8c0,0-10.3-0.9-21.4-7.6c-7.4-4.5-13.5-11.6-12-12.7c3.3-2.4,20.1,8.1,28.8,12.7
			c8.6,4.6,12.1,4.1,12.1,4.1L51.6,60.8z"/>
		<path class="st1" d="M68.8,44.4c0,0-0.2,1.1-2.9,6.1c-2,3.7-2.8,5.8-2.8,5.8s-2.3,1.9-4.4,1.4c-2-0.5-3.4-1.1-3.4-1.1L68.8,44.4z"
			/>
		<path class="st0" d="M67.5,53.1c0,0,12.3-15.4,17.2-28.5C89.6,11.4,87,4.5,85.8,6.4c-2.7,4.6-6,17.2-12.4,30.6
			C67,50.3,60.7,55.8,60.7,55.8L67.5,53.1z"/>
		<path class="st1" d="M60.9,55c0,0,1.6-0.4,4.4-1.1c2.8-0.7,4.8-1.9,4.8-1.9s-3.3,2.5-6.1,3.7C61.2,56.9,57.8,56.9,60.9,55z"/>
	</g>
</g>
</svg>
