<?xml version="1.0" encoding="utf-8"?>
<!-- Generator: Adobe Illustrator 19.1.0, SVG Export Plug-In . SVG Version: 6.00 Build 0)  -->
<svg version="1.1" id="Calque_1" xmlns="http://www.w3.org/2000/svg" xmlns:xlink="http://www.w3.org/1999/xlink" x="0px" y="0px"
	 viewBox="0 0 85 69" style="enable-background:new 0 0 85 69;" xml:space="preserve">
<style type="text/css">
	.st0{fill:#ED7635;}
	.st1{fill:#FAB900;}
</style>
<g>
	<g>
		<path class="st0" d="M61.1,7.2c-4.1-1-8.4-1-12.6-0.2c-4.1-1.3-12.8,3.6-17.3,8.6c-4.7,5.3-7,10.1-6.9,13.7
			c-2,7-1.7,14.4,1.1,20.9c-2.9-0.1-5.8-2.4-8.8-5.3c-4.2-4-8.4-3.7-11.1-1.4c-2.7,2.3-3.9,4.9-3.9,4.9s5.6-2,8.8,1.7
			c3.3,3.7,6.9,14.4,20.1,14.1c2.1-0.1,4.1-0.3,6.2-0.7c5.4,3.4,11.7,4.8,17.8,4.3c4,3.1,13-0.8,20.5-8.9c1.5-1.7,2.8-3.4,4-5.1
			c-7,6-17.6,6.2-17.6,6.2s8.1-5.4,10-13.1c3.9-15.3-2.5-23.9-5.6-27c-1-0.8-1.8-1.6-1.8-1.6c0-0.1,3-0.7,3-0.7s6.7-1.1,12.1,3.2
			c-1.4-2.4-3-4.6-5.1-6.6c-1.9-1.9-4.1-3.3-6.3-4.5c0.6-0.8,1.5-1.6,2.6-2.2c5.8-3.2,10.5,5,9.4,13.8c0,0,0,0,0,0.1
			c0,0,0.1,0.1,0.1,0.1c-0.2,0.9-0.4,1.7-0.7,2.4c-1.9,4.1-2.5,7.5-2.3,8.7c0.2,1.3,2,6,4.2,5.1c2.2-0.9,2.5-7,2.5-7
			s0.1-1.6,0.2-3.8c0.1-0.9,0.3-1.8,0.5-3C86.2,14,84,3.9,75.4,0.6C68.7-2,63.2,4.4,61.1,7.2z M35.8,17.2c1.7-2.4,0.6-3.9,0.6-3.9
			s7.1-2.7,3.7,2.5c-1.5,2.3-4.9,3.2-4.9,3.2S34.3,19.4,35.8,17.2z M52.9,10.7c0,0,3.5,4-1.6,10.4c-5.2,6.4-10.1,7-10.1,7
			s4.8-3.6,8.3-11.3c2.3-5,0.9-7.9,0.9-7.9C51.4,8.7,52.9,10.7,52.9,10.7z"/>
		<path class="st1" d="M50.8,67.7c0,0,4.2,0.7,10.6-2.1c10.2-4.6,10-4.5,10-4.5s4-0.9-3.1,3.8c-6.5,4.4-8.3,3.9-8.3,3.9
			S54.6,69.9,50.8,67.7z"/>
		<path class="st1" d="M7.5,42.5c0,0-1.2-0.2-3,1.7c-1.7,1.9-3,4.4-3,4.4s2.2-1,4.1-2.6C7.6,44.4,10.4,41.9,7.5,42.5z"/>
		<path class="st1" d="M12.2,52.6c0,0,5.8,2.7,8.5,4.8c2.8,2.1,6.2,6.7,6.2,6.7s-5.4-0.6-9.1-4.2C14,56.4,12.2,52.6,12.2,52.6z"/>
		<path class="st1" d="M79.3,13.4c0,0,1.5,4.1,0.5,8c-1,3.9-2.1,5.8-2.2,7.8c-0.1,2,2.4,1.9,2.4,1.9c0.6-1.7,2.7-6,2.3-10.4
			C81.9,16.3,79.3,13.4,79.3,13.4z"/>
		<path class="st1" d="M34.8,18.9c-0.2,0.3-0.4,0.5-0.6,0.7c-2.1,2.2-4.7,2.3-6,1c-1.3-1.3-0.7-4.1,1.4-6.3c1-1.1,2.2-1.8,3.3-2.1
			c-1.2,0.2-2.5,0.9-3.6,2.1L29,14.6c-0.4,0.4-0.8,0.8-1.1,1.3c-1,1.6-1,3.4-0.3,4.4c-0.2,0.3-0.5,0.6-0.7,1c-2,3-3,6.1-3.3,8.5
			c-0.2,1-0.2,2.1,0.1,3c-1.4,6.7-0.6,16.8,6.5,24.6c3.1,3.5,8.5,5.1,11.9,5.8c3.9,1,6.7,0.4,6.4,0.4c-0.5-0.2-6-1.6-9.9-8.1
			c-5.6-9.6-0.8-13-3.6-16.7c-1.3-1.7-2.4-1.4-4.2-1.1c-1.4-0.1-1.8-1.5-1.8-1.5s-0.3-0.4-0.1-1.2c1.2-0.2,2.1-0.7,2.5-1
			c0.1-0.1,0.2-0.1,0.4-0.2c4.1-2.6,5.4-6.1,6.7-9.2c1.4-3.4,0.6-7.4,0.6-7.4s-2.4,1.5-3.2,1.7C35.3,18.9,34.9,18.9,34.8,18.9z"/>
		<path class="st1" d="M58.5,13.6c0,0,0.9-4.8,4.3-8.5c2.8-3.1,0,6.2-2.7,9.5C58.6,16.4,58.4,16,58.5,13.6z"/>
	</g>
	<path class="st0" d="M35.6,12.7c1.3,1.3,0.6,4.7-1.4,6.9c-2.1,2.2-4.7,2.3-6,1c-1.3-1.3-0.7-4.1,1.4-6.3
		C31.6,12.2,34.3,11.5,35.6,12.7z"/>
	<path class="st1" d="M32.2,14c1.2,0.7,1.3,2.9,0.1,4.7c-1.1,1.9-3.1,2.8-4.3,2c-1.2-0.7-1.3-2.9-0.1-4.7C29.1,14.1,31,13.2,32.2,14
		z"/>
</g>
</svg>
