<?xml version="1.0" encoding="utf-8"?>
<!-- Generator: Adobe Illustrator 19.1.0, SVG Export Plug-In . SVG Version: 6.00 Build 0)  -->
<svg version="1.1" id="Calque_1" width="133px" height="104px" xmlns="http://www.w3.org/2000/svg" xmlns:xlink="http://www.w3.org/1999/xlink" x="0px" y="0px"
	 viewBox="0 0 133 104" style="enable-background:new 0 0 133 104;" xml:space="preserve">
<style type="text/css">
	.st0{fill:#F5DA7A;}
</style>
<g>
	<path class="st0" d="M132.4,14.4c-2.6-10.6-16.2-13.7-23-7.5c-10.1,9.2-1.4,26.9,9.4,19.7c0.3-0.2,0.6-0.4,0.8-0.6
		c0.9-0.7,1.5-1.8,1.8-3c0.6-3-1.3-6-4.3-6.6c-1.8-0.4-3.6,0.2-4.9,1.3c-1.2-1-2-3.1,1.1-6.2C117,8,125.1,9.9,127,16.5
		c1.9,6.6-3.2,16.1-14.3,21.4c-11.8,5.6-28.9-2-36.5-6.1c0,0,14.4,16.8,34.2,11.9C129.2,38.9,135.1,25.3,132.4,14.4z"/>
	<path class="st0" d="M28.2,84.5c-1.6,0.5-2.7,1.4-3,2.5c-0.6,2.8,4.1,6.2,10.5,7.5c6.4,1.4,12.1,0.2,12.7-2.6
		c0.2-1.1-0.4-2.4-1.7-3.5c10.4-3,19.7-13.9,22.8-28.3c0-0.2,0.2-0.3,0-0.5c-0.1-4.4-8.2-9.7-19.2-12.7c0-0.1,0-0.2,0-0.3
		c0.4-4.9-2.2-9.5-4.3-12.1c-2.1-2.5-6.5-8-5.7-14.9C41.5,9.7,48.6,7.3,53.5,8c5,0.7,11.3,4.3,10.9,10.1c-0.5,6.2-4.2,10.1-9.7,8.9
		c-4.5-1-5.8-5.2-4.8-8c0.6-1.8,2.2-2.3,3.5-2.1c-0.2,0.3-0.5,0.6-0.6,0.9c-0.9,1.9-0.1,4.2,1.8,5.1c1.9,0.9,4.2,0.1,5.1-1.8
		c0.2-0.4,0.3-0.8,0.3-1.2c0.6-2.4-0.2-5.2-3.5-6.9c-3.4-1.8-10-1.1-11.7,6c-1.7,7.4,5.4,15.5,15.1,12.9c9.7-2.6,9.6-13.9,9.6-13.9
		s11.2,5.9,17-2.9c4.1-6.3,1.7-11.7-2.2-13.9c-3.6-2-7.5-1.2-9.3,1.4c-0.3,0.3-0.6,0.7-0.8,1.1c-1.1,2.2-0.2,4.9,2.1,6
		c2.2,1.1,4.9,0.2,6-2.1c0.3-0.5,0.4-1,0.4-1.6c1.5,1.5,2.2,5.8-1.8,8.4c-5.1,3.3-11.9-2.8-11.9-2.8s-4.6-6-11.8-8.1
		c-7.4-2.1-17.5,0-20.7,11.9c-3.2,11.9,4.5,18.8,4.5,18.8s0,0-0.1-0.1c2.7,2.7,4.5,6.2,5.3,10c0.3,0.7,0.6,1.3,0.7,2
		c-0.3-0.1-0.7-0.1-1-0.2c-13.1-2.8-24.9-1.4-27,3.1c-0.2,0.1-0.2,0.3-0.2,0.5C15.8,63.8,19.9,77.5,28.2,84.5z M22.7,50.5
		c0.8-3.7,9-5.1,19.1-3.7l-5.3,6.1c2.5,0.2,5.1,0.5,7.9,1.1c8.5,1.8,15.4,5.1,18.3,8.3c0,0,0,0-0.1,0c-3.6-2.3-8.9-4.4-15.1-5.7
		c-3.2-0.7-6.2-1.1-9-1.2l11.1,8c-2.3-0.2-4.6-0.5-7.1-1.1C30.7,60,21.8,54.6,22.7,50.5z"/>
	<path class="st0" d="M81.1,60.5c-4-2.6-10.3-0.2-9.7,1.9c0.5,1.7,1.8,1.9,3.2,1.5c1.4-0.5,3.6-1.5,5.2,0.2c1.6,1.8,1,5-4.8,9.3
		c-4.4,3.2-11.6,6.1-11.1,6.9c0.5,0.8,7,0.8,14.5-4.9C86,69.7,85,63.1,81.1,60.5z"/>
	<path class="st0" d="M69.7,82.8c-0.4-0.3-1.2-1-1.2-1s-4.4,2.7-8.2,4.6c2.3,2.2,3.5,4.5,3,6.7c-0.5,2.2-2.6,3.9-5.8,5
		c1.6-1,2.6-2.2,2.9-3.7c0.4-1.9-0.5-4-2.4-6c-3.8,3.1-6.6,4.4-6.6,4.4s0,0.7,0,1.1c-0.7,3.5-7.8,5-15.8,3.3
		c-8-1.7-13.8-5.9-13.1-9.4c0.3-1.4,1.7-2.5,3.7-3.2c-4.6-3.8-8.1-9.3-10.2-15.8C7.3,69.8,1.2,73,0.1,77.9
		c-1.8,8.7,13.5,19.3,34.1,23.6c20.7,4.4,39,0.9,40.8-7.8C75.8,90.2,73.8,86.4,69.7,82.8z M8.7,88.2c-8.3-6.9-5.2-11.8-5.2-11.8
		S2.3,79.9,9,85.9c8.1,7.3,23.5,12.9,23.5,12.9S17.6,95.6,8.7,88.2z"/>
</g>
</svg>
