<?xml version="1.0" encoding="utf-8"?>
<!-- Generator: Adobe Illustrator 19.1.0, SVG Export Plug-In . SVG Version: 6.00 Build 0)  -->
<svg version="1.1" id="Calque_1" xmlns="http://www.w3.org/2000/svg" xmlns:xlink="http://www.w3.org/1999/xlink" x="0px" y="0px"
	 viewBox="0 0 77 51" style="enable-background:new 0 0 77 51;" xml:space="preserve">
<style type="text/css">
	.st0{fill:#FAB900;}
	.st1{fill:#F49900;}
</style>
<g>
	<path class="st0" d="M76.5,48.5c0,0-10.2-8.7-24.3-13c-8.8-2.6-27.4-7.2-37.7-15.3C3.1,11.3,0,0,0,0s6.5,9.8,16.4,12.3
		c15.2,3.8,31.4-0.2,44.6,11.5C72.8,34.2,76.5,48.5,76.5,48.5z"/>
	<path class="st1" d="M24.6,50.4c-5.1-0.2-14.3-1.7-14.3-1.7s6.3-2.1,17.8-4.2c11.4-2.1,26.8-1.2,32.5,0.4c1,0.3,1.8,0.5,2.4,0.8
		c-5.4-0.3-9.8,0.5-14.7,1.9c-0.4,0.1-0.8,0.2-1.2,0.2C36.2,50.1,29.6,50.6,24.6,50.4z"/>
</g>
</svg>
