<?xml version="1.0" encoding="utf-8"?>
<!-- Generator: Adobe Illustrator 19.1.0, SVG Export Plug-In . SVG Version: 6.00 Build 0)  -->
<svg version="1.1" id="Calque_1" xmlns="http://www.w3.org/2000/svg" xmlns:xlink="http://www.w3.org/1999/xlink" x="0px" y="0px"
	 viewBox="0 0 120 120" style="enable-background:new 0 0 120 120;" xml:space="preserve">
<style type="text/css">
	.st0{fill:#FAB900;}
	.st1{fill:#F49900;}
</style>
<g>
	<path class="st0" d="M106.5,74.9c0,0,2,2.9,2.3,5.7c0.4,2.8-0.2,5.5-0.2,5.5l-1.1-1.2c0,0-0.6,2.5-1.5,5c-0.9,2.5-3.8,6.6-3.8,6.6
		l-0.1-2c-0.3,0.3-0.6,0.6-0.9,0.9c-0.7,0.9-1.9,2.4-3.1,4c-2.2,2.8-3.6,4.1-3.6,4.1l0.5-2.4c0,0-3,2.5-4.5,4.1
		c-1.5,1.6-3,2.7-3,2.7l0.1-1.8l0,0c-1.5,1-3,2-4.5,3.2c-2.3,2.2-3.3,4.1-3.3,4.1l-0.2-1c-2.1,2.1-4,4.6-5.7,7.8c0,0,0-0.1,0.1-0.3
		c0-0.1-0.3-4.7,0.1-10.7l-1,0.6c0,0,0.2-5.2,1.7-9.1c0.2-0.6,0.4-1.1,0.6-1.5c0.1-0.3,0.1-0.5,0.2-0.8l-1.1,0.5
		c0,0,0.3-2.2,1.3-4.5c0.5-1.1,1.6-2.9,2.2-3.8c0.1-0.2,0.2-0.4,0.3-0.6l-2,0.7c0,0,1.2-2.4,4.3-5.7c1.2-1.3,2.4-2.4,3.2-3.2
		c0.4-0.4,0.9-0.8,1.3-1.2l-1.8-0.2c0,0,3.6-2.4,5.4-3.1c2.2-0.9,5.2-1.8,5.2-1.8l-1.4-0.8c0,0,4-0.7,6.6-0.5
		c1.3,0.1,2.3,0.2,3.1,0.3c1,0,1.6,0.1,1.6,0.1S98.7,77.4,92.7,86c-1.1,1.6-2.4,3.7-3.8,6.1c2.2-3,4.4-5.8,6.9-8.3
		C101.2,78.5,106.5,74.9,106.5,74.9z"/>
	<path class="st1" d="M118.9,26.5c0,0-1.3,7.6-4.9,12.5c-3.5,5-8.6,8.3-8.6,8.3l0.2-3.5c0,0-4.8,3.1-9.9,5.8
		c-5.1,2.7-15.8,4.7-15.8,4.7l2.9-3.2c-0.9,0.1-1.8,0.1-2.8,0.1c-2.6,0.3-6.5,0.9-10.9,1.6c-7.6,1.2-11.8,1.1-11.8,1.1l4.5-3.1
		c0,0-8.4-0.6-13.3-0.4c-4.8,0.2-8.7-0.3-8.7-0.3l2.9-2.6l0,0c-3.9-0.6-7.8-1.3-11.8-1.7c-6.9,0.1-11.4,1.5-11.4,1.5l1.1-1.9
		C14.2,45.6,7.4,46.6,0,49.2c0,0,0.2-0.1,0.5-0.3c0.2-0.2,6.4-7.9,16.2-16.9l-2.5-0.5c0,0,8.2-7.9,16.3-11.9
		c1.2-0.6,2.3-1.1,3.3-1.5c0.5-0.3,0.9-0.7,1.4-1l-2.5-0.8c0,0,3.9-3,8.9-5.1c2.5-1.1,6.9-2.2,9.2-2.8C51.1,8.2,51.6,8,52,7.8
		l-4.1-1.9c0,0,5.5-1.9,15.4-2.6c3.9-0.3,7.4-0.3,9.8-0.2c1.3,0,2.6,0,3.9,0.1l-2.6-2.9c0,0,9.3,1.6,13.2,3.1
		c4.8,1.9,10.9,4.9,10.9,4.9l-0.9-3.4c0,0,7.5,4.9,11.3,9.1c1.8,2,3.4,3.8,4.5,5.1c1.6,1.5,2.5,2.5,2.5,2.5s-13.4-2.9-35.7,1.6
		c-4.1,0.8-9.3,2.2-15.2,3.9c8-1.5,15.7-2.6,23.3-2.7C104.9,24.2,118.9,26.5,118.9,26.5z"/>
</g>
</svg>
