<?xml version="1.0" encoding="utf-8"?>
<!-- Generator: Adobe Illustrator 19.1.0, SVG Export Plug-In . SVG Version: 6.00 Build 0)  -->
<svg version="1.1" id="Calque_1" xmlns="http://www.w3.org/2000/svg" xmlns:xlink="http://www.w3.org/1999/xlink" x="0px" y="0px"
	 viewBox="0 0 114 98" style="enable-background:new 0 0 114 98;" xml:space="preserve">
<style type="text/css">
	.st0{fill:#F8AF00;}
	.st1{fill:#FFD600;}
	.st2{fill:#F29100;}
</style>
<g>
	<g>
		<g>
			<path class="st0" d="M113.8,87.9c0,0-15.2,2.4-32.6,6.7c-21.4,5.3-32.8,2.3-45-3.2c-37.3-17.1-28-74-28-74s5.7,25.4,38.2,43.2
				C71.2,74.2,113.8,87.9,113.8,87.9z"/>
			<path class="st1" d="M15.2,24.2c0,0,48.8,20.9,67.1,38.9c14.7,14.5,31.6,24.8,31.6,24.8S59,72.4,39,55
				C18.9,37.6,15.2,24.2,15.2,24.2z"/>
		</g>
		<path class="st0" d="M16,36.4c0,0-4.4-10.3-6.8-16.5C6.8,13.8,4.3,0.5,4.3,0.5S2.9-0.4,1.7,0.1C0.6,0.7,0,2.4,0,2.4
			s4.7,11.2,7.1,18.4C9.5,28,10.8,37.9,11.7,43C12.7,48.2,16,36.4,16,36.4z"/>
	</g>
	<path class="st1" d="M30.9,50.2c0,0-3.5,6.3-4.7,13.4c-1.6,9.3,2.3,17.9,2.3,17.9s-2.6-6.9-1.1-16c0.9-5.1,5.2-13.9,5.2-13.9
		L30.9,50.2z"/>
	<path class="st1" d="M44.4,59.6c0,0-0.6,11.1,3.2,20.7c3.8,9.6,6.4,11.3,6.4,11.3s-4-7.3-5.6-13.2C46.1,69.8,47,61.1,47,61.1
		L44.4,59.6z"/>
	<path class="st1" d="M63.4,69.4c0,0,0.3,6,4.4,12.6c4,6.6,8.5,10.5,8.5,10.5s-5.1-6.7-7.4-11.3c-2.3-4.5-3.3-10.6-3.3-10.6
		L63.4,69.4z"/>
	<path class="st2" d="M32.4,48.8c0,0,7.5-1.6,12.9-1.3c2.5,0.1,6.2,0.6,6.2,0.6s-4.1-0.2-10.4,0.5c-3,0.4-7.1,1.8-7.1,1.8L32.4,48.8
		z"/>
	<path class="st2" d="M44.5,59.2c0,0,7.6-2.4,15.8-1.9c3.8,0.3,9.2,1.8,9.2,1.8s-5.1-1.1-11.3-0.7c-7.6,0.5-11,2.5-11,2.5L44.5,59.2
		z"/>
	<path class="st2" d="M63.6,69.9c0,0,5.6-1.8,11.2-1.7c2.6,0,6.2,0.9,6.2,0.9s-4.6-0.4-7.7-0.1c-3.2,0.3-7.7,1.9-7.7,1.9L63.6,69.9z
		"/>
</g>
</svg>
