<?xml version="1.0" encoding="utf-8"?>
<!-- Generator: Adobe Illustrator 19.1.0, SVG Export Plug-In . SVG Version: 6.00 Build 0)  -->
<svg version="1.1" id="Calque_1" xmlns="http://www.w3.org/2000/svg" xmlns:xlink="http://www.w3.org/1999/xlink" x="0px" y="0px"
	 viewBox="0 0 59 71" style="enable-background:new 0 0 59 71;" xml:space="preserve">
<style type="text/css">
	.st0{fill:#FFD800;}
	.st1{fill:#F9B32F;}
</style>
<g>
	<g>
		<path class="st0" d="M31.2,29.8c0,0-8.4-20.2-10.5-24.7c-2.1-4.5-5.2-5.3-6.6-2.8c-1.5,2.7-0.6,7.1,0.9,11c1.8,4.8,4.3,10,4.3,10
			S6.6,9.6,3.6,7.7c-3-1.9-5.9,1.6-0.8,8.3c8,10.5,20.5,20.4,20.5,20.4L31.2,29.8z"/>
		<path class="st0" d="M32,30.9c0,0,19.1,10.6,23.3,13.2c4.2,2.6,4.7,5.7,2,6.8c-2.9,1.2-7.2-0.2-10.8-2.1c-4.5-2.3-9.5-5.4-9.5-5.4
			s12.2,14.1,13.7,17.3c1.5,3.2-2.2,5.7-8.3-0.1c-9.6-9.1-16-20.5-16-20.5L32,30.9z"/>
		<path class="st1" d="M34.3,31.5c-1.2,1-3,0.9-4.1-0.3c-1-1.2-0.9-3,0.3-4.1c1.2-1.1,3-0.9,4.1,0.3C35.6,28.6,35.5,30.4,34.3,31.5z
			"/>
		<path class="st1" d="M30.7,29.3c0,0-9.1,6.8-17.6,16.7C4.5,55.8-1.4,70.1,0.1,70.3c1.6,0.2,2.6-8.1,13.6-21.4
			c6.3-7.6,18.2-17.3,18.2-17.3L30.7,29.3z"/>
	</g>
	<path class="st1" d="M29.8,28.5c0.1,0.4-0.6,1-0.8,1.3c-0.3,0.3-0.7,0.6-1,0.9c-0.8,0.6-1.8,1-2.6,1.6c-1.3,1-3,2.3-3.3,4
		c-0.1,0.3-0.3,0.9-0.1,1.2c0.1,0.3,0.8,0.6,1.1,0.7c0.4,0.1,0.8,0.4,1.2,0.3c0.4-0.1,0.7-0.4,1.1-0.6c1.8-0.9,3.6-2.3,4.9-3.8
		c0.6-0.7,1.2-1.3,1.8-1.9c0.5-0.5,1.7-1.3,1.6-2.1L29.8,28.5z"/>
</g>
</svg>
