<?xml version="1.0" encoding="utf-8"?>
<!-- Generator: Adobe Illustrator 19.1.0, SVG Export Plug-In . SVG Version: 6.00 Build 0)  -->
<svg version="1.1" id="Calque_1" xmlns="http://www.w3.org/2000/svg" xmlns:xlink="http://www.w3.org/1999/xlink" x="0px" y="0px"
	 viewBox="0 0 50 112" style="enable-background:new 0 0 50 112;" xml:space="preserve">
<style type="text/css">
	.st0{fill:#F49900;}
	.st1{fill:#FAB900;}
	.st2{fill:#8A0437;}
</style>
<g>
	<g>
		<path class="st0" d="M11.7,12c2-1.4,2.1-4.7,3.7-6.7c1.5-1.9,3.8-2.8,5.9-3.6c4.9-1.9,9.3-1.3,13.1,2.7c3.4,3.6,4.4,10.9,6.1,15.5
			c2,5.4,3.5,11,5.2,16.4c3.9,12.2,3.3,22.6-3.2,33.4c-3.4,5.6-13.5,12.6-20,18.1c-4.7,4-1.2-0.1-5.1-4c-9.6-9.5-13.2-26-10.8-39.1
			c1.2-6.5,4.6-11.8,7.4-17.5c0.9-1.8,1.5-2.8,1.3-4.8c-0.2-2-1.7-4.6-1.3-6.4L11.7,12z"/>
		<polygon class="st1" points="3.2,17.1 17.9,8.3 13.7,16.1 		"/>
		<polygon class="st0" points="20.8,78.3 0.8,111.3 15.9,110 27.7,78 		"/>
	</g>
	<path class="st2" d="M19.1,10.6c0,1,0.9,1.7,1.9,1.7c1,0,1.9-0.8,1.9-1.7c0-1-0.9-1.7-1.9-1.7C19.9,8.8,19.1,9.6,19.1,10.6z"/>
	<polygon class="st0" points="27.5,77.8 27.6,109.1 18.5,110.2 22.6,82.2 	"/>
	<path class="st1" d="M42.1,26.4c0,0,5.4,16.1,0.4,28.7c-3.5,8.8-6,10.4-6,10.4s5.7-1.7,9.3-11.1C51.1,40.9,42.1,26.4,42.1,26.4z"/>
	<path class="st1" d="M39,23.2c0,0,5.9,15.8,0.1,29.7c-4.4,10.5-11.4,18.9-11.4,18.9s10.1-7.9,15.7-20.2C49.9,37,39,23.2,39,23.2z"
		/>
	<path class="st1" d="M15.6,24.8c0,0-10.8,14.4-10.6,25.5c0.4,20.2,9.8,30.4,9.8,30.4s-4-13.5-4-28.5C10.7,37.3,15.6,24.8,15.6,24.8
		z"/>
	<path class="st1" d="M11,12.8c0,0,0.9-0.5,2.1-3.4c1.2-2.8,1.5-5.8,7.9-8.2c4.4-1.7,9.3,0.1,9.3,0.1s-5.5-0.5-9.4,2.5
		C17,6.7,16.7,10.1,11,12.8z"/>
	<polygon class="st1" points="18.8,79.4 0.2,111.8 8.1,110.7 19.4,80.6 	"/>
	<polygon class="st1" points="11.2,110.4 16.7,92 14.5,110.3 	"/>
	<path class="st1" d="M11.9,37.7c0,0-4.4,5-2.8,16.3c1.6,11.3,10.6,23,10.6,23S13.6,64.6,12.3,54C11.1,43.3,11.9,37.7,11.9,37.7z"/>
</g>
</svg>
