<?xml version="1.0" encoding="utf-8"?>
<!-- Generator: Adobe Illustrator 19.1.0, SVG Export Plug-In . SVG Version: 6.00 Build 0)  -->
<svg version="1.1" id="Calque_1" xmlns="http://www.w3.org/2000/svg" xmlns:xlink="http://www.w3.org/1999/xlink" x="0px" y="0px"
	 viewBox="0 0 33 84" style="enable-background:new 0 0 33 84;" xml:space="preserve">
<style type="text/css">
	.st0{fill:#FDC400;}
</style>
<path class="st0" d="M8.5,40.2c0,0-4.5,3.4-6.8,8.7c-2.3,5.3-0.5,11.4-0.5,11.4s4-4.8,6.1-10.3C9.4,44.4,8.5,40.2,8.5,40.2z"/>
<path class="st0" d="M16.4,0.9c0,0-0.9,5.2,0.9,10.3c1.8,5.1,7,8.1,7,8.1s-0.3-5.8-2.4-11C19.7,3.2,16.4,0.9,16.4,0.9z"/>
<path class="st0" d="M25.2,65.2c0,0-0.9,5.2,0.9,10.3c1.8,5.1,7,8.1,7,8.1s-0.3-5.8-2.4-11C28.5,67.5,25.2,65.2,25.2,65.2z"/>
</svg>
