<?xml version="1.0" encoding="utf-8"?>
<!-- Generator: Adobe Illustrator 19.1.0, SVG Export Plug-In . SVG Version: 6.00 Build 0)  -->
<svg version="1.1" id="Calque_1" width="50px" height="78px" xmlns="http://www.w3.org/2000/svg" xmlns:xlink="http://www.w3.org/1999/xlink" x="0px" y="0px"
	 viewBox="0 0 50 78" style="enable-background:new 0 0 50 78;" xml:space="preserve">
<style type="text/css">
	.st0{fill:#F7C3BE;}
	.st1{fill:#F29776;}
	.st2{fill:#E73F60;}
</style>
<g>
	<path class="st0" d="M2.1,61.6c0.1,0.2,0.2,0.3,0.3,0.5c0.2,0.3,0.4,0.5,0.6,0.7C3.8,64,4.8,65,5.9,66C6,66,6,66.1,6,66.1
		c0,0,0.1,0,0.1,0c0.7,0.6,1.5,1.2,2.3,1.7c2.7,1.7,4.3,2.3,4.3,2.3l-1.2-1.9c0,0,3.3,1.2,5.1,2c1.8,0.9,3.4,1.3,3.4,1.3l-0.7-1.5
		l0,0c1.6,0.4,3.2,0.8,4.8,1.3c2.6,1.1,4.1,2.4,4.1,2.4l-0.1-0.9c2.5,1.1,4.9,2.6,7.3,4.8c0,0-6.7-9.1-11.1-12
		c-3.8-2.6-7.1-4.8-10.3-6.8c0.4,0.8,0.9,2,1.5,3c1.1,1.9,4.9,5.9,4.9,5.9s-2.9-2.1-5.1-4.9c-1.7-2.2-2.6-4.2-3-5
		c-1.2-0.7-2.4-1.4-3.6-2c0.3,0.9,0.8,2.3,1.4,3.5c1,1.9,4.5,6,4.5,6s-2.7-2.1-4.7-4.9c-1.6-2.3-2.4-4.5-2.6-5.2
		c-0.5-0.2-1-0.5-1.5-0.7c-0.7-0.3-1.4-0.6-2.1-0.9c0.3,0.8,1,2.7,1.9,4.3c1.2,2.1,5.3,6.7,5.3,6.7S7.7,62.2,5.3,59
		C2.9,55.9,2,52.9,2,52.9l0,0c-0.5-0.2-1.1-0.5-1.6-0.7C0.2,53.1,0.2,54,0.3,55c0,0,0,0,0,0c0,0.1,0,0.1,0,0.2c0,0.5,0.1,1,0.2,1.4
		C0.7,58.2,1.3,59.9,2.1,61.6z"/>
	<path class="st1" d="M7.7,50.8c4-0.3,6.3,0.8,6.3,0.8s-2.9-0.4-5.3,0c-1.5,0.2-3.2,0.8-4.1,1.2c0.8,0.5,1.7,0.9,2.6,1.5
		c0.6-0.1,2.4-0.4,5.4,0c3.8,0.5,6.1,2,6.1,2s-2.8-0.8-5-1c-2.2-0.2-4.4,0.2-4.5,0.2c0.9,0.6,1.9,1.2,2.8,1.8
		c0.2,0.1,0.4,0.3,0.6,0.4c0.8,0,2.4,0.1,4.9,0.7c3.8,0.9,6.3,2.5,6.3,2.5s-2.9-1.1-5.1-1.5c-1.9-0.4-3.9-0.4-4.3-0.4
		c8.2,6.3,21.2,18.7,21.2,18.7s-1.2-4-3.5-9.1l1,0.2c0,0-1.9-4.4-4.3-7.2c-0.4-0.4-0.7-0.8-1-1.1c-0.1-0.2-0.3-0.4-0.4-0.6l1.1,0.1
		c0,0-1-1.8-2.6-3.4c-0.8-0.8-2.2-1.9-3-2.5c-0.1-0.1-0.3-0.3-0.4-0.4l1.9-0.1c0,0-1.8-1.6-5.5-3.5c-1-0.5-1.9-0.9-2.7-1.2
		c-0.3-0.1-0.6-0.2-0.8-0.4c-0.3-0.1-0.6-0.3-0.9-0.4c-0.1,0-0.2,0-0.3,0c-0.2,0-0.4-0.1-0.5-0.1c-2.3-0.3-4.6,0.1-6.8,0.6
		c-0.3,0.1-0.6,0.1-1,0.2c-0.2,0-0.3,0-0.5,0.1c-0.1,0-0.2,0.1-0.2,0.1c-1.4,0.3-2.9,0.9-3.6,1.6c-0.1,0.2-0.3,0.3-0.4,0.5
		c0.5,0.3,1.1,0.6,1.7,0.9C3.7,51.4,5.4,50.9,7.7,50.8z"/>
</g>
<g>
	<path class="st1" d="M45.9,18.6c0,0-1,1.6,0.6-5.5C48.2,6,46.6-0.2,46.6-0.2s2.4,2.6,2.5,5.1C49.3,10.8,49.8,15.2,45.9,18.6z"/>
	<path class="st0" d="M47.7,15.8c0,0,2.8,11.4-0.2,19.5c-4.8,12.9-17.7,12.3-17.7,12.3s6.5-5.3,11.6-13.4
		C46.6,26.2,47.7,15.8,47.7,15.8z"/>
	<path class="st1" d="M49,4c0,0,2.3,7.3-0.1,14.3c-2.8,8.2-7.5,15.6-12.5,20.4c-5,4.8-10,8.9-10,8.9s-3.8-6.6-2.1-13.1
		c1.7-6.5,10.4-12.2,15.9-15.6C45.7,15.5,49,9.7,49,4z"/>
	<path class="st1" d="M26.4,47.7c0,0-2.5-3.1-3.3-6c-0.8-2.8-0.5-5.5-0.5-5.5l1.3,1.3c0,0,0.3-2.5,0.8-5c0.5-2.5,3.1-6.3,3.1-6.3
		l0.4,2.2c0,0,1.6-2.1,3.5-4.8c1.9-2.6,3.2-3.8,3.2-3.8l-0.2,2.4c0,0,2.7-2.4,4.2-3.7c1.5-1.3,2.8-2.4,2.8-2.4l0.1,1.8
		C41.8,17.9,30,40.6,26.4,47.7z"/>
	<path class="st2" d="M28.6,46.2c0,0-1.1-3.4-0.3-8c0.8-4.5,3.2-8.8,3.2-8.8s-2,7-1.9,9.8c0.1,2.8,0.9,5.9,0.9,5.9L28.6,46.2z"/>
	<path class="st2" d="M32.3,42.8c0,0-0.1-4.2,1.7-9.6c1.8-5.4,4.8-10.3,4.8-10.3s-3.4,8.2-4.1,11.6c-0.6,3.4-0.7,7.1-0.7,7.1
		L32.3,42.8z"/>
	<path class="st2" d="M37.1,38.6c0,0,0.4-3.8,2.5-8.9c2.1-5.1,5.3-9.9,5.3-9.9s-3.8,7.8-4.8,10.9c-0.9,3.1-1.4,6.5-1.4,6.5
		L37.1,38.6z"/>
	<path class="st2" d="M41.8,17.8c0,0,4.6-1.7,6.3-7.5c1-3.2,0.8-7.1,0.8-7.1s-0.4,6.9-2.4,8.3C44.6,12.8,41.8,17.8,41.8,17.8z"/>
	<path class="st2" d="M35,41.9c0,0,2.1,0,4.1-0.9c2-0.9,4.3-2.7,4.3-2.7s-1.6,2.2-4.9,3.9c-3.3,1.8-5.4,1.8-5.4,1.8L35,41.9z"/>
	<path class="st2" d="M39.5,36.4c0,0,1.5-0.5,3.2-1.7c1.7-1.2,3.8-3.2,3.8-3.2s-1.6,2.2-4.5,4.5c-2.8,2.2-4.4,2.8-4.4,2.8L39.5,36.4
		z"/>
</g>
</svg>
