<?xml version="1.0" encoding="utf-8"?>
<!-- Generator: Adobe Illustrator 19.1.0, SVG Export Plug-In . SVG Version: 6.00 Build 0)  -->
<svg version="1.1" id="Calque_1" xmlns="http://www.w3.org/2000/svg" xmlns:xlink="http://www.w3.org/1999/xlink" x="0px" y="0px"
	 viewBox="0 0 20 20" style="enable-background:new 0 0 20 20;" xml:space="preserve">
<style type="text/css">
	.st0{fill:url(#SVGID_1_);}
</style>
<linearGradient id="SVGID_1_" gradientUnits="userSpaceOnUse" x1="3.806650e-06" y1="10" x2="19.9855" y2="10">
	<stop  offset="0" style="stop-color:#F6BE04"/>
	<stop  offset="0.6517" style="stop-color:#FFF4C9"/>
	<stop  offset="1" style="stop-color:#F6BE04"/>
</linearGradient>
<path class="st0" d="M19.9,18.6c0,0-2.7-0.3-4-0.6c-0.4-0.1-0.9-0.3-1.4-0.4c-1.8-0.7-4.7-2.3-7-5.6c-0.1-0.1-0.1-0.2-0.2-0.3
	c0.1,0.2,0.3,0.3,0.4,0.5l0.1,0.1c0,0,0,0,0,0c0.3,0.3,0.6,0.7,0.9,0.9c0.3,0.3,0.6,0.6,1,0.8l0,0l0,0c3.1,2.5,5.4,3,5.4,3
	S10.5,8.8,6.8,5.8c-3-2.4-5.2-5.2-5.2-5.2S1.2,3.3,0.5,6.3c-1,3.8-0.3,5.7,0.9,7.8c3,5.1,11.2,4.6,14.1,4.2c0.1,0,0.2,0,0.3,0.1
	c1.5,0.3,3.8,1,3.8,1s0.3-0.1,0.4-0.3C20.1,18.9,19.9,18.6,19.9,18.6z"/>
</svg>
