<?xml version="1.0" encoding="utf-8"?>
<!-- Generator: Adobe Illustrator 19.1.0, SVG Export Plug-In . SVG Version: 6.00 Build 0)  -->
<svg version="1.1" id="Calque_2" xmlns="http://www.w3.org/2000/svg" xmlns:xlink="http://www.w3.org/1999/xlink" x="0px" y="0px"
	 viewBox="0 0 166 193" style="enable-background:new 0 0 166 193;" xml:space="preserve">
<style type="text/css">
	.st0{fill:url(#SVGID_1_);}
	.st1{fill:url(#SVGID_2_);}
	.st2{fill:url(#SVGID_3_);}
</style>
<g>
	<linearGradient id="SVGID_1_" gradientUnits="userSpaceOnUse" x1="12.9574" y1="126.2321" x2="70.934" y2="126.2321">
		<stop  offset="0" style="stop-color:#292929"/>
		<stop  offset="1" style="stop-color:#464646"/>
	</linearGradient>
	<path class="st0" d="M42.3,139.9c22.3-3.9,28.6-27.5,28.6-27.5s-7.9,9.8-27.8,14.3c-1.5,0.3-3.1,0.6-4.6,0.8
		c1.8-0.4,3.5-0.9,5.2-1.5c13.6-5.4,17.5-10.4,17.5-10.4s-13.6,6.1-27.9,9.9c-6.2,1.6-10.9,1.9-14.2,1.7c-3.9-0.6-6.3-1.3-6.3-1.3
		S26.7,142.6,42.3,139.9z"/>
	<linearGradient id="SVGID_2_" gradientUnits="userSpaceOnUse" x1="1.1149" y1="175.4487" x2="121.5529" y2="175.4487">
		<stop  offset="0" style="stop-color:#292929"/>
		<stop  offset="1" style="stop-color:#464646"/>
	</linearGradient>
	<path class="st1" d="M57.4,159.3c-27.8-0.2-44,12.7-44,12.7s5.6-1.3,17.4-2.7c12.8-1.5,29.5,2.2,29.5,2.2s-29.3-1.4-59.1,7.8
		c0,0,28.3,7.1,63.7,2.3c30.3-4.1,56.7,10,56.7,10S92.7,159.6,57.4,159.3z"/>
	<linearGradient id="SVGID_3_" gradientUnits="userSpaceOnUse" x1="82.7955" y1="41.603" x2="110.0033" y2="41.603">
		<stop  offset="0" style="stop-color:#292929"/>
		<stop  offset="1" style="stop-color:#464646"/>
	</linearGradient>
	<path class="st2" d="M88.4,61.9c-0.2-9,3.5-20.5,3.5-20.5s-3,20.4,1.5,41.8c0,0,6.8-19.3,5.8-44.4C98.4,17.5,110-0.1,110-0.1
		S85.7,18,83.1,42.6c-2,19.4,6,31.6,6,31.6S88.6,70.2,88.4,61.9z"/>
</g>
</svg>
