<?xml version="1.0" encoding="utf-8"?>
<!-- Generator: Adobe Illustrator 19.1.0, SVG Export Plug-In . SVG Version: 6.00 Build 0)  -->
<svg version="1.1" id="Calque_1" xmlns="http://www.w3.org/2000/svg" xmlns:xlink="http://www.w3.org/1999/xlink" x="0px" y="0px"
	 viewBox="0 0 59 48" style="enable-background:new 0 0 59 48;" xml:space="preserve">
<style type="text/css">
	.st0{fill:#C5D576;}
</style>
<path class="st0" d="M34.6,36.8c0.5,1.8,1.2,3.6,2.2,5.3c1,1.7,2.4,3.1,4.3,4.1c1.9,1,4.1,1.5,6.7,1.5c2.9,0,5.5-1,7.7-3
	c2.3-2,3.4-4.6,3.4-7.8c0-6.2-3-9.3-9-9.3c-1.1,0-2.4,0.5-4.1,1.6c-1.4,1-2.5,1.5-3.4,1.5c-2.2,0-3.3-1.1-3.3-3.4
	c0-4.9,1-9.1,2.9-12.7c1.9-3.6,5-7.6,9.1-12.1l-3-2.7C43,5.2,39.3,10.3,37.2,15.3c-2.2,5-3.2,10.3-3.2,15.9
	C33.9,33.1,34.1,35,34.6,36.8z M1.1,36.8c0.5,1.8,1.2,3.6,2.2,5.3c1,1.7,2.4,3.1,4.3,4.1c1.9,1,4.1,1.5,6.7,1.5c2.9,0,5.5-1,7.7-3
	c2.3-2,3.4-4.6,3.4-7.8c0-6.2-3-9.3-9-9.3c-1.1,0-2.4,0.5-4.1,1.6c-1.4,1-2.5,1.5-3.4,1.5c-2.2,0-3.3-1.1-3.3-3.4
	c0-4.9,1-9.1,2.9-12.7c1.9-3.6,5-7.6,9.1-12.1l-3-2.7C9.5,5.2,5.8,10.3,3.7,15.3c-2.2,5-3.2,10.3-3.2,15.9C0.4,33.1,0.6,35,1.1,36.8
	z"/>
</svg>
