<?xml version="1.0" encoding="utf-8"?>
<!-- Generator: Adobe Illustrator 19.1.0, SVG Export Plug-In . SVG Version: 6.00 Build 0)  -->
<svg version="1.1" id="Calque_1" xmlns="http://www.w3.org/2000/svg" xmlns:xlink="http://www.w3.org/1999/xlink" x="0px" y="0px"
	 viewBox="0 0 20 20" style="enable-background:new 0 0 20 20;" xml:space="preserve">
<style type="text/css">
	.st0{fill:#FFFDEE;}
</style>
<g id="XMLID_6_">
	<g>
		<path class="st0" d="M2.6,5.9c-2,1.8-2.6,4-2.6,6c0,2,0.6,3.7,1.1,4.9c0.7-0.9,2.9-3.2,6.4-6.6c4.7-4.5,8.8-6.8,8.8-6.8
			c-0.4,0.4-3.1,3-7.3,7.8c-3.8,4.4-5.7,6.9-6,7.6c2.3,1,7.4,2.6,11-1.4c4-4.4,5.4-13.3,5.8-16.4C19.9,0.7,20,0.1,20,0
			C18.4,0.2,7.6,1.3,2.6,5.9z M13.3,16.7c-2.5,2.6-5.8,2.5-8.4,1.5c0.6-0.9,2.9-4.3,4.7-6.6C12,8.7,16,4.2,16,4.2l2-2l-1.8,0.9
			c-0.2,0.1-4.1,2.2-9,6.4c-3.2,2.7-4.3,3.8-5.5,5c-0.3-0.7-0.5-1.6-0.5-2.7c0-2.4,0.9-4,2.1-5.2c4.2-3.8,12.8-5.6,16.1-6
			C19,3.3,16.4,13.4,13.3,16.7z"/>
	</g>
</g>
</svg>
