<?xml version="1.0" encoding="utf-8"?>
<!-- Generator: Adobe Illustrator 19.1.0, SVG Export Plug-In . SVG Version: 6.00 Build 0)  -->
<svg version="1.1" id="Calque_1" xmlns="http://www.w3.org/2000/svg" xmlns:xlink="http://www.w3.org/1999/xlink" x="0px" y="0px"
	 viewBox="0 0 17 19.7" style="enable-background:new 0 0 17 19.7;" xml:space="preserve">
<style type="text/css">
	.st0{fill:#C72170;}
</style>
<g>
	<g>
		<g>
			<path class="st0" d="M8.3,16.7c0,0-0.3-4.2-2-8.5C4.7,3.9,1.9,0,0.8,0C-0.1,0,0.9,2.5,1,5.5c0,1.2-0.6,3.4,0,4.6
				c1.7,3.4,5.7,7,6.1,7.1C7.5,17.3,8.3,16.7,8.3,16.7z"/>
			<path class="st0" d="M7,16.5c0,0-3.1-3.3-5.1-3.5c-3.2-0.2-1.6,3.3,0.3,5.3c1.4,1.5,4,1.6,4.9,0.6c0.6-0.7,1.3-2.2,1.3-2.2
				L7,16.5z"/>
		</g>
	</g>
	<g>
		<g>
			<g>
				<path class="st0" d="M8.2,16.6c0,0,2-3.3,4.2-6.3c2.2-3,4.4-5.4,4.6-5.2c0.1,0.2-1.2,2-2.5,4.3c-0.5,0.9-1.5,2.9-2.1,3.7
					c-1.8,2.3-4,4.2-4.1,4.2C8.1,17.2,8.2,16.6,8.2,16.6z"/>
				<path class="st0" d="M8.5,16.7c0,0,2-1.9,2.4-1.6c0.6,0.6-1.2,3-2.5,4.2c-0.9,0.9-1.3,0.3-1-0.7c0.2-0.7,0.8-2.1,0.8-2.1
					L8.5,16.7z"/>
			</g>
		</g>
	</g>
</g>
</svg>
