<?xml version="1.0" encoding="utf-8"?>
<!-- Generator: Adobe Illustrator 19.1.0, SVG Export Plug-In . SVG Version: 6.00 Build 0)  -->
<svg version="1.1" id="Calque_1" xmlns="http://www.w3.org/2000/svg" xmlns:xlink="http://www.w3.org/1999/xlink" x="0px" y="0px"
	 viewBox="0 0 550 290" style="enable-background:new 0 0 550 290;" xml:space="preserve">
<style type="text/css">
	.st0{opacity:0.2;}
	.st1{fill:#B27CB1;}
	.st2{opacity:0.2;fill:#B27CB1;}
</style>
<g class="st0">
	
		<rect x="394.9" y="156.4" transform="matrix(0.9143 0.4051 -0.4051 0.9143 97.4824 -146.7538)" class="st1" width="1.2" height="1.2"/>
	<path class="st1" d="M395.3,154.1L395.3,154.1c-0.2,0.4-0.3,0.7-0.4,1L395.3,154.1L395.3,154.1z"/>
	<path class="st1" d="M394.1,159.8c0,0.5,0.1,0.9,0.1,1.4l0,0l0.5-1.1L394.1,159.8z"/>
	<path class="st1" d="M395.5,158.4l-1.1-0.5l-0.3,0.6c0,0.2,0,0.4,0,0.5l0.9,0.4L395.5,158.4z"/>
	
		<rect x="401.3" y="165.4" transform="matrix(-0.9146 -0.4045 0.4045 -0.9146 702.2402 480.4259)" class="st1" width="1.2" height="1.2"/>
	<path class="st1" d="M394.6,162.1l-0.1,0.3c0.1,0.4,0.2,0.8,0.4,1.2l0.3,0.2l0.5-1.1L394.6,162.1z"/>
	<path class="st1" d="M326.3,77.6c0,0,0.1,0,0.1,0c-0.3-0.2-0.4-0.4-0.4-0.4S326.1,77.3,326.3,77.6z"/>
	
		<rect x="395.7" y="154.6" transform="matrix(0.9136 0.4065 -0.4065 0.9136 97.3221 -147.6877)" class="st1" width="1.2" height="1.2"/>
	
		<rect x="396.4" y="152.9" transform="matrix(0.914 0.4058 -0.4058 0.914 96.4411 -147.9119)" class="st1" width="1.2" height="1.2"/>
	<path class="st1" d="M395.9,152.9c-0.1,0.2-0.2,0.4-0.3,0.6l0,0L395.9,152.9z"/>
	<path class="st1" d="M333.7,75.4c0.1,0,0.2-0.1,0.3-0.1c-0.9-0.1-1.4-0.2-1.4-0.2S333,75.2,333.7,75.4z"/>
	
		<rect x="400.5" y="148.4" transform="matrix(0.9132 0.4074 -0.4074 0.9132 95.5176 -150.4829)" class="st1" width="1.2" height="1.2"/>
	<path class="st1" d="M402.3,95.1c0.6-1.2-0.4-1.7-1-0.6c0,0-1.7,3.3-2.6,5c-1.1,2.3-2.2,4.9-2.2,4.9s1.4-1.8,2.7-4.1
		C400.4,98.4,401.8,96.2,402.3,95.1z"/>
	<path class="st1" d="M395.5,164.7c0.3,0.4,0.5,0.7,0.9,1l0.3-0.6L395.5,164.7L395.5,164.7z"/>
	
		<rect x="401.1" y="161.2" transform="matrix(0.914 0.4057 -0.4057 0.914 100.1749 -149.0426)" class="st1" width="1.2" height="1.2"/>
	<path class="st1" d="M393.4,88.7c0,0-1.3,3.5-1.3,7.3c-0.1,3.8,1,5.1,1,5.1s-0.5-3.1-0.1-6c0.4-2.8,1.1-5.5,1.3-5.9
		C394.6,88.5,393.7,88,393.4,88.7z"/>
	
		<rect x="400.3" y="162.9" transform="matrix(0.9143 0.4051 -0.4051 0.9143 100.608 -148.3824)" class="st1" width="1.2" height="1.2"/>
	
		<rect x="402" y="163.7" transform="matrix(0.9132 0.4074 -0.4074 0.9132 101.8705 -149.7873)" class="st1" width="1.2" height="1.2"/>
	<path class="st1" d="M405.7,104.1c3.3-1.9,5.7-4.7,5.7-4.7c0.5-0.6-0.3-1.2-0.9-0.5c-0.3,0.4-2.3,2.3-4.5,4.1
		c-2.3,1.8-5.2,2.8-5.2,2.8S402.4,106,405.7,104.1z"/>
	<path class="st1" d="M396.9,166.3c0.3,0.3,0.7,0.5,1,0.6l0.5-1l-1.1-0.5L396.9,166.3z"/>
	<path class="st1" d="M398.6,167.2c0.4,0.1,0.8,0.3,1.2,0.3l0.4-0.9l-1.1-0.5L398.6,167.2z"/>
	
		<rect x="407.1" y="161.8" transform="matrix(-0.9126 -0.4089 0.4089 -0.9126 713.3042 477.2267)" class="st1" width="1.2" height="1.2"/>
	<path class="st1" d="M410,155.7l1.1,0.5l0,0c0-0.4,0-0.9,0-1.3l-0.7-0.3L410,155.7z"/>
	
		<rect x="407.8" y="160" transform="matrix(-0.9146 -0.4044 0.4044 -0.9146 717.032 472.6988)" class="st1" width="1.2" height="1.2"/>
	<path class="st1" d="M399.9,148.5c-0.2,0.1-0.4,0.3-0.6,0.4l0.3,0.1L399.9,148.5z"/>
	<path class="st1" d="M406.1,164.4l0.9,0.4c0.1-0.1,0.3-0.2,0.4-0.4l0.3-0.6l-1.1-0.5L406.1,164.4z"/>
	<path class="st1" d="M319.6,79.6C319.6,79.6,319.6,79.6,319.6,79.6c0-0.1,0-0.2,0-0.2S319.6,79.5,319.6,79.6z"/>
	<path class="st1" d="M409.4,161.6c0.2-0.3,0.4-0.6,0.5-1c0,0,0,0,0,0l-0.1,0L409.4,161.6z"/>
	
		<rect x="399.3" y="160.4" transform="matrix(0.9142 0.4052 -0.4052 0.9142 99.5325 -148.2308)" class="st1" width="1.2" height="1.2"/>
	
		<rect x="408.6" y="158.3" transform="matrix(-0.914 -0.4058 0.4058 -0.914 718.7314 470.1646)" class="st1" width="1.2" height="1.2"/>
	
		<rect x="409.4" y="156.5" transform="matrix(-0.9134 -0.4071 0.4071 -0.9134 720.4656 467.6079)" class="st1" width="1.2" height="1.2"/>
	<path class="st1" d="M410.2,160c0.1-0.2,0.1-0.4,0.2-0.6L410.2,160L410.2,160z"/>
	<path class="st1" d="M427.2,87.4c0.4-2.6,1.2-5,2.2-7.3c-0.6-0.7-1-1.5-1.3-2.4C426.4,79.1,424.8,83,427.2,87.4z"/>
	<path class="st1" d="M399.4,149.7l-0.7-0.3c-0.3,0.3-0.6,0.6-0.9,0.9l0,0l1.1,0.5L399.4,149.7z"/>
	<path class="st1" d="M402.8,167.1l0.3,0.2c0.4-0.1,0.8-0.3,1.1-0.5l0.1-0.3l-1.1-0.5L402.8,167.1z"/>
	<path class="st1" d="M478.7,150.7c-1.6,2.4-1.5,5.3-0.6,8c1.6-1.6,3.1-3.2,4.5-4.8c0.3-1.5,1.4-2.7,2.7-3.3c0.8-1,1.6-2,2.3-3.1
		C485.3,146,481.2,146.9,478.7,150.7z"/>
	
		<rect x="403.8" y="164.5" transform="matrix(-0.9134 -0.407 0.407 -0.9134 706.5516 480.4471)" class="st1" width="1.2" height="1.2"/>
	<path class="st1" d="M405.3,166.2L405.3,166.2c0.4-0.2,0.8-0.5,1.1-0.8l-0.7-0.3L405.3,166.2z"/>
	
		<rect x="399.7" y="150.2" transform="matrix(-0.4042 0.9147 -0.9147 -0.4042 700.0355 -154.4599)" class="st1" width="1.2" height="1.2"/>
	<path class="st1" d="M481.7,60.6c1.3,0.6,2.6,0.9,3.9,1.1c-2.4-2.4-5-4.4-7.8-6.1c-0.8-0.5-1.5-0.9-2.3-1.3
		C477.1,57.2,479.2,59.4,481.7,60.6z"/>
	
		<rect x="397.2" y="151.1" transform="matrix(0.9135 0.4067 -0.4067 0.9135 96.1144 -148.6889)" class="st1" width="1.2" height="1.2"/>
	
		<rect x="399.1" y="156.2" transform="matrix(0.914 0.4058 -0.4058 0.914 98.0122 -148.7325)" class="st1" width="1.2" height="1.2"/>
	
		<rect x="397.6" y="159.6" transform="matrix(-0.9137 -0.4063 0.4063 -0.9137 696.9259 468.4651)" class="st1" width="1.2" height="1.2"/>
	<polygon class="st1" points="403,152.6 404.1,153.1 404.6,152 403.5,151.5 	"/>
	
		<rect x="400.1" y="158.7" transform="matrix(0.9144 0.4049 -0.4049 0.9144 98.8129 -148.6131)" class="st1" width="1.2" height="1.2"/>
	
		<rect x="400.9" y="156.9" transform="matrix(0.9133 0.4073 -0.4073 0.9133 98.9893 -149.8775)" class="st1" width="1.2" height="1.2"/>
	<path class="st1" d="M394.8,63.8l-0.7,0.2l-0.4-0.2l-6.9,19.4c2.4-0.4,4.4-0.7,5.6-0.8c0,0,0-0.1,0-0.1l0,0c0-0.4,0.1-0.7,0.3-1
		c0.8-1.4,2.9-1.8,5.7-1.4c-0.7-0.5-1.1-0.8-1.1-0.8l0.2-8.8c0,0-0.2-6.1-3-8.9l-0.1,0.1L394.8,63.8z"/>
	
		<rect x="398.4" y="157.9" transform="matrix(0.9136 0.4065 -0.4065 0.9136 98.894 -148.5068)" class="st1" width="1.2" height="1.2"/>
	
		<rect x="404.7" y="148.2" transform="matrix(-0.9144 -0.4047 0.4047 -0.9144 715.7651 449.0072)" class="st1" width="1.2" height="1.2"/>
	
		<rect x="404" y="150" transform="matrix(-0.9144 -0.4048 0.4048 -0.9144 713.5687 452.0413)" class="st1" width="1.2" height="1.2"/>
	<path class="st1" d="M409.9,149.4c-0.1-0.3-0.2-0.5-0.3-0.8c-0.1-0.2-0.2-0.5-0.4-0.7l-0.4,1L409.9,149.4L409.9,149.4z"/>
	
		<rect x="401.6" y="155.2" transform="matrix(-0.9136 -0.4067 0.4067 -0.9136 706.3775 461.7209)" class="st1" width="1.2" height="1.2"/>
	
		<rect x="405.7" y="150.7" transform="matrix(-0.9126 -0.4089 0.4089 -0.9126 715.2308 455.6088)" class="st1" width="1.2" height="1.2"/>
	<path class="st1" d="M400.5,167.6c0.4,0,0.9,0,1.3-0.1l0-0.1l-1.1-0.5L400.5,167.6z"/>
	
		<rect x="404.4" y="158.5" transform="matrix(0.9135 0.4069 -0.4069 0.9135 99.7655 -151.0077)" class="st1" width="1.2" height="1.2"/>
	
		<rect x="406.5" y="149" transform="matrix(-0.9132 -0.4074 0.4074 -0.9132 717.9005 452.1033)" class="st1" width="1.2" height="1.2"/>
	
		<rect x="407.4" y="151.5" transform="matrix(0.914 0.4058 -0.4058 0.914 96.8398 -152.4977)" class="st1" width="1.2" height="1.2"/>
	<rect x="405.9" y="155" transform="matrix(0.914 0.4058 -0.4058 0.914 98.1248 -151.5767)" class="st1" width="1.2" height="1.2"/>
	
		<rect x="402.4" y="153.5" transform="matrix(0.9135 0.4068 -0.4068 0.9135 97.5268 -150.6283)" class="st1" width="1.2" height="1.2"/>
	
		<rect x="405.1" y="156.7" transform="matrix(0.914 0.4058 -0.4058 0.914 98.764 -151.1135)" class="st1" width="1.2" height="1.2"/>
	
		<rect x="404.9" y="152.5" transform="matrix(0.9133 0.4072 -0.4072 0.9133 97.5002 -151.8844)" class="st1" width="1.2" height="1.2"/>
	
		<rect x="401.8" y="159.4" transform="matrix(0.913 0.408 -0.408 0.913 100.3217 -150.2722)" class="st1" width="1.2" height="1.2"/>
	
		<rect x="402.6" y="157.7" transform="matrix(0.9132 0.4074 -0.4074 0.9132 99.4803 -150.5443)" class="st1" width="1.2" height="1.2"/>
	
		<rect x="404.2" y="154.2" transform="matrix(-0.9144 -0.4047 0.4047 -0.9144 712.2372 460.2309)" class="st1" width="1.2" height="1.2"/>
	
		<rect x="403.4" y="156" transform="matrix(0.9144 0.4047 -0.4047 0.9144 97.9363 -150.1122)" class="st1" width="1.2" height="1.2"/>
	
		<rect x="399.5" y="164.7" transform="matrix(0.4058 -0.914 0.914 0.4058 86.7059 463.8974)" class="st1" width="1.2" height="1.2"/>
	<path class="st1" d="M392.1,66.3l1.3-4l-2.3,3.5C391.3,66.1,391.7,66.2,392.1,66.3z"/>
	<path class="st1" d="M390.6,65.6l2.5-3.4l-3.3,2.6C390,65.1,390.3,65.3,390.6,65.6z"/>
	
		<rect x="396.8" y="161.4" transform="matrix(0.914 0.4058 -0.4058 0.914 99.9304 -147.3428)" class="st1" width="1.2" height="1.2"/>
	<polygon class="st1" points="399.2,164.2 398.1,163.7 397.6,164.8 398.7,165.3 	"/>
	<path class="st1" d="M389.5,64.4l3.4-2.5l-4,1.5C389.1,63.7,389.3,64.1,389.5,64.4z"/>
	<path class="st1" d="M392.6,60.2c-0.2,0-0.3-0.1-0.5-0.1l0.9,0.7L392.6,60.2z"/>
	
		<rect x="398.6" y="162.1" transform="matrix(0.9132 0.4074 -0.4074 0.9132 100.9384 -148.505)" class="st1" width="1.2" height="1.2"/>
	<path class="st1" d="M393.3,60.4C393.3,60.4,393.3,60.4,393.3,60.4L393.3,60.4L393.3,60.4z"/>
	<path class="st1" d="M388.5,61.3l4.3,0l-3.5-1c-0.3,0.1-0.5,0.1-0.7,0.2c0,0.1,0,0.1,0,0.2C388.5,60.9,388.6,61.1,388.5,61.3z"/>
	
		<rect x="396" y="163.1" transform="matrix(0.9137 0.4065 -0.4065 0.9137 100.7858 -147.0858)" class="st1" width="1.2" height="1.2"/>
	<path class="st1" d="M391.4,60c-0.4,0-0.8,0-1.2,0.1l2.7,0.9L391.4,60z"/>
	
		<rect x="400.7" y="152.7" transform="matrix(-0.9139 -0.4059 0.4059 -0.9139 705.8286 456.247)" class="st1" width="1.2" height="1.2"/>
	<path class="st1" d="M392.8,61.6l-4.3,0.2c0,0.4,0.1,0.8,0.2,1.1L392.8,61.6z"/>
	
		<rect x="398.9" y="151.9" transform="matrix(-0.9132 -0.4075 0.4075 -0.9132 702.2882 454.5892)" class="st1" width="1.2" height="1.2"/>
	
		<rect x="399.9" y="154.4" transform="matrix(-0.9146 -0.4044 0.4044 -0.9146 704.1201 458.7876)" class="st1" width="1.2" height="1.2"/>
	
		<rect x="402.2" y="149.2" transform="matrix(-0.9133 -0.4073 0.4073 -0.9133 709.7311 450.6976)" class="st1" width="1.2" height="1.2"/>
	
		<rect x="401.5" y="150.9" transform="matrix(-0.9133 -0.4073 0.4073 -0.9133 707.5463 453.7028)" class="st1" width="1.2" height="1.2"/>
	
		<rect x="398.2" y="153.6" transform="matrix(-0.9132 -0.4075 0.4075 -0.9132 700.0988 457.6031)" class="st1" width="1.2" height="1.2"/>
	
		<rect x="395.1" y="160.6" transform="matrix(-0.9132 -0.4074 0.4074 -0.9132 691.3646 469.6337)" class="st1" width="1.2" height="1.2"/>
	
		<rect x="395.9" y="158.9" transform="matrix(-0.9143 -0.4051 0.4051 -0.9143 694.3328 465.8653)" class="st1" width="1.2" height="1.2"/>
	
		<rect x="397.4" y="155.4" transform="matrix(-0.9133 -0.4073 0.4073 -0.9133 697.9792 460.5536)" class="st1" width="1.2" height="1.2"/>
	<polygon class="st1" points="396.4,158 397.5,158.5 398,157.4 396.9,156.9 	"/>
	<path class="st1" d="M286.7,234c0.5-1.4,0.7-2.6,0.7-3.9l-1.2,0.1c0.1,0.8,0.1,1.5,0.1,2.2c0,0.5-0.1,1-0.2,1.4L286.7,234z"/>
	
		<rect x="405.3" y="161" transform="matrix(0.9133 0.4073 -0.4073 0.9133 101.0099 -151.3174)" class="st1" width="1.2" height="1.2"/>
	<circle class="st1" cx="316.5" cy="124.6" r="0.9"/>
	
		<rect x="406.1" y="159.2" transform="matrix(0.9132 0.4075 -0.4075 0.9132 100.4259 -151.8412)" class="st1" width="1.2" height="1.2"/>
	<path class="st1" d="M410.7,151.9c-0.1-0.5-0.3-1-0.4-1.5l-0.5,1.1L410.7,151.9z"/>
	<polygon class="st1" points="405,160.5 403.9,160 403.4,161.1 404.5,161.6 	"/>
	<path class="st1" d="M317.4,139.2c3.1-4.7-0.6-6.7-0.6-6.7s1.2,3.4-1.6,6.7c-2.8,3.4-7.2,7-7.2,7S314.3,143.9,317.4,139.2z"/>
	
		<rect x="404.5" y="162.7" transform="matrix(0.9146 0.4044 -0.4044 0.9146 100.6709 -149.9038)" class="st1" width="1.2" height="1.2"/>
	<path class="st1" d="M385.1,185.9l-1,0.3c0.5,0.1,0.9,0.3,1.3,0.7L385.1,185.9z"/>
	<path class="st1" d="M392.1,112.1c2.2,1.3,4.4,2.3,6.5,3.2c-2.1-0.9-4.2-2-6.2-3.3c-10.1-6.3-16.1-15.1-13.3-19.5
		c0,0,0.1-0.1,0.1-0.1c-0.5,0.3-0.9,0.7-1.1,1.2C375.5,97.8,381.9,106.1,392.1,112.1z"/>
	<polygon class="st1" points="293.1,238.3 292.1,239.7 292.5,239.9 293.6,238.3 	"/>
	<polygon class="st1" points="287.8,238 288.3,238 288.3,236.9 287.9,236.6 	"/>
	<path class="st1" d="M324.6,146.1c0,0,0.3,0.9,0.4,1.6s0.1,0.9,0,1.6c0,0,0,0,0,0.1c0.3-0.1,0.7-0.2,1-0.3
		c-0.1-0.4-0.2-1.2-0.4-1.7C325.3,146.4,324.6,146.1,324.6,146.1z"/>
	
		<rect x="406.9" y="157.5" transform="matrix(0.9139 0.406 -0.406 0.9139 99.2811 -151.8073)" class="st1" width="1.2" height="1.2"/>
	
		<rect x="409.2" y="152.3" transform="matrix(0.9132 0.4074 -0.4074 0.9132 97.8465 -153.6886)" class="st1" width="1.2" height="1.2"/>
	
		<rect x="407.6" y="155.8" transform="matrix(0.914 0.4058 -0.4058 0.914 98.5813 -152.2101)" class="st1" width="1.2" height="1.2"/>
	<rect x="408.4" y="154" transform="matrix(0.914 0.4058 -0.4058 0.914 97.9488 -152.6796)" class="st1" width="1.2" height="1.2"/>
	<path class="st1" d="M434.7,207.6c0,0,3,4,5.1,7.7c0.3-0.7,0.6-1.3,0.8-2c-0.1-0.1-0.2-0.3-0.3-0.4
		C438.1,209.7,434.7,207.6,434.7,207.6z"/>
	
		<rect x="402.8" y="162" transform="matrix(0.9133 0.4072 -0.4072 0.9133 101.1711 -150.1982)" class="st1" width="1.2" height="1.2"/>
	<path class="st1" d="M389.7,201.9c0,0,0,0.1,0,0.1c-0.1,0.2-0.3,0.4-0.5,0.6l0.7-0.2L389.7,201.9z"/>
	<path class="st1" d="M370.8,206c0.2-0.3,0.2-0.6,0.1-0.9c-0.1-0.5-0.6-0.9-1.1-0.9c-0.1,0-0.2,0-0.3,0c-0.3,0.1-0.6,0.3-0.7,0.6
		c-0.2,0.3-0.2,0.6-0.1,0.9c0.2,0.6,0.8,1,1.5,0.8C370.4,206.5,370.7,206.3,370.8,206z"/>
	<path class="st1" d="M351.2,213.5l0.4-0.1c-0.2-0.1-0.4-0.1-0.5-0.2L351.2,213.5z"/>
	<path class="st1" d="M346.7,197.8c0.1-0.4,0.4-0.7,0.7-1l-0.9,0.3L346.7,197.8z"/>
	<path class="st1" d="M402.6,147c-0.5,0.2-0.9,0.4-1.4,0.7l0.9,0.4L402.6,147z"/>
	<rect x="403" y="147.5" transform="matrix(0.914 0.4058 -0.4058 0.914 94.8167 -151.0492)" class="st1" width="1.2" height="1.2"/>
	<path class="st1" d="M268.1,142.9c0,0-2.4-1.8-4.1-5.1c-0.3,0.8-0.5,1.6-0.8,2.4c0,0,0.1,0.1,0.1,0.1
		C265.4,142,268.1,142.9,268.1,142.9z"/>
	<path class="st1" d="M405.1,146.2c-0.3,0-0.5,0.1-0.8,0.2c-0.2,0.1-0.5,0.2-0.7,0.3l0,0l1.1,0.5L405.1,146.2z"/>
	<path class="st1" d="M408.7,147.5c-0.3-0.3-0.7-0.5-1-0.7l-0.6,1.4l1.1,0.5L408.7,147.5z"/>
	<path class="st1" d="M407,146.5c-0.4-0.2-0.8-0.3-1.2-0.3l-0.5,1.2l1.1,0.5L407,146.5z"/>
	
		<rect x="408.2" y="149.8" transform="matrix(-0.914 -0.4058 0.4058 -0.914 721.4484 453.7382)" class="st1" width="1.2" height="1.2"/>
	<path class="st1" d="M272.1,219.1c0.4,1.9,0.4,3.8,0.1,5.6l-10.5-3.2l8-7.5C270.8,215.5,271.7,217.2,272.1,219.1z M247.2,217.1
		c1.4-3.5,4.3-6.3,8-7.5l2.5,10.7L247.2,217.1z M257.6,209c3.9-0.5,7.7,0.7,10.5,3.2l-8,7.5L257.6,209z M263.5,234.5l-2.5-10.7
		l10.5,3.2C270.1,230.4,267.2,233.2,263.5,234.5z"/>
	<path class="st1" d="M286.5,224l-0.1-0.4c-0.5,0.2-0.9,0.3-1.2,0.4c0.1,0.4,0.2,0.9,0.2,1.3c0.2,1.1,0.4,2.2,0.5,3.2l1.3-0.1
		C287.2,227.1,286.9,225.6,286.5,224z"/>
	<path class="st1" d="M286.1,222c-0.3-2.9,1.1-4.9,2.4-5.8l-0.1-0.1c-0.4-0.2-1.3-0.4-2.5,0.6c-1.3,1.1-1.3,3.3-1,5.8
		C285.3,222.3,285.7,222.1,286.1,222z"/>
	
		<rect x="406.7" y="153.3" transform="matrix(0.9146 0.4043 -0.4043 0.9146 96.9622 -151.5108)" class="st1" width="1.2" height="1.2"/>
	<path class="st1" d="M411,153.4l-0.2,0.5l0.3,0.2C411,153.9,411,153.7,411,153.4z"/>
	<path class="st1" d="M307.2,220.4l-0.3,0.2c0.2,1.1,0.2,3.4-2.3,6.1c0.1,0.2,0.2,0.3,0.3,0.5c2-2.1,3.6-4.2,3.4-5.6
		c0-0.3-0.1-0.8-0.4-1C307.7,220.4,307.3,220.4,307.2,220.4z"/>
	<path class="st1" d="M296.2,237l0.1,0.1c0.3-0.6,0.7-1.2,1.1-1.7c0.5-0.7,1-1.3,1.6-2l-0.5-0.3C297.6,234.3,296.8,235.5,296.2,237z
		"/>
	<path class="st1" d="M303.1,228.2c-1.3,1.3-2.5,2.5-3.6,3.7l0.5,0.4c0.9-0.9,1.8-1.9,2.7-2.8c0.4-0.4,0.8-0.8,1.2-1.2
		c-0.1-0.1-0.2-0.3-0.3-0.5L303.1,228.2z"/>
	<path class="st1" d="M209.5,172.2c2.5,4,5.3,8.6,8.5,13.4c0.2-0.8,0.3-1.8,0.3-2.8C218.6,176.8,214.6,173.4,209.5,172.2z"/>
	<path class="st1" d="M175.5,136.6c0,0-6.9,1.8-12.7,1.8c-0.9,0-1.9,0-2.9-0.1c-0.3,0.5-0.5,0.9-0.6,1.4l1.6,2.2
		c0.8,0.3,1.9,0.4,3.2,0.3c1.1-0.1,3.5,0.1,6.7,0.7C174.8,140.3,175.5,136.6,175.5,136.6z"/>
	<path class="st1" d="M181.2,123.3c0.9-1.4,1.7-2.6,2.3-3.6c-3.8-0.9-4.5,0-5.4,0c-0.1,0-0.4,0.1-0.7,0.4
		c-2.5,6.2-6.4,11.2-6.4,11.3C170.8,131.5,177.3,129.4,181.2,123.3z"/>
	<path class="st1" d="M277.4,217.8c-2-8.4-9.4-14.3-18-14.3c-1.4,0-2.8,0.2-4.2,0.5c-6.6,1.5-11.5,6.4-13.4,12.4
		c0.6,0.7,1.2,1.4,1.9,2c1.3-5.8,5.9-10.7,12.1-12.1c1.2-0.3,2.4-0.4,3.7-0.4c7.6,0,14,5.2,15.7,12.5c1.8,7.8-2.4,15.7-9.7,18.6
		c0.5,0.3,0.9,0.6,1.4,0.9c0.3,0.2,0.7,0.4,1,0.6C275.2,234.6,279.4,226.2,277.4,217.8z"/>
	<path class="st1" d="M257.6,209l2.5,10.7l8-7.5C265.3,209.8,261.5,208.5,257.6,209z"/>
	<path class="st1" d="M272.2,224.7c0.4-1.8,0.4-3.7-0.1-5.6c-0.4-1.9-1.3-3.6-2.4-5.1l-8,7.5L272.2,224.7z"/>
	<path class="st1" d="M247.2,217.1l10.5,3.2l-2.5-10.7C251.5,210.8,248.7,213.6,247.2,217.1z"/>
	<path class="st1" d="M246.6,219.4c-0.1,0.6-0.2,1.2-0.2,1.8c2,2,4,3.9,6,5.8l4.7-4.4L246.6,219.4z"/>
	<path class="st1" d="M261,223.8l2.5,10.7c3.7-1.2,6.6-4,8-7.5L261,223.8z"/>
	<path class="st1" d="M254.1,228.6c2.2,1.9,4.5,3.7,6.8,5.4l-2.2-9.6L254.1,228.6z"/>
	<path class="st1" d="M296.8,248.9c0.1-0.4-0.2-0.8-0.7-1.2l1-1.4c0,0,0-0.1-0.2-0.3c-0.4-1.1-1.6-5.4,1.7-9.7
		c1.4-1.9,3.3-3.8,5.1-5.7c3.4-3.5,6.4-6.5,6.1-9.2c-0.1-1-0.5-1.7-1.1-2.1c-0.2-0.1-0.3-0.2-0.5-0.3c0.7-1.3,1.5-3.4,0.6-5.2
		c-0.6-1.3-1.6-1.7-2.5-1.8c0-1.7-0.7-4.1-3.6-4.7c-3.2-0.7-5.9,1.5-6.9,2.5c-0.7-0.4-2.1-0.7-4,0.1c-2.4,1-3.2,3.2-3.5,4.6
		c-0.9-0.2-2.2-0.2-3.6,1c-2.5,2.1-1.7,6-1,10.2c0.4,2.3,0.8,4.7,0.8,6.8c-0.2,5.4-5.5,8.3-5.8,8.5c-0.2,0-0.4,0-0.4,0l-0.4,1.6
		c-1.1-0.1-2.2-0.2-3.2-0.2c9.3,4.7,16.6,7.1,21.8,8.2c-0.1-0.1-0.1-0.2-0.2-0.3C296.7,249.7,296.8,249.1,296.8,248.9z M303.3,219.4
		c-0.5,0.2-1,0.5-1.6,0.9l-0.9-2.6c0.7-0.4,1.3-1.1,1.6-2c0.1-0.3,0.1-0.5,0.2-0.8l0.2-0.1C304,215.7,303.7,218,303.3,219.4z
		 M304.1,222.9c0.3-0.3,0.4-0.7,0.6-1l0.8-0.5c0,0.8-0.3,2.2-1.7,3.8c-0.3-0.5-0.5-0.9-0.7-1.3C303.4,223.7,303.7,223.3,304.1,222.9
		z M301,224.8c0.2,0,0.5,0,0.7-0.1c0.3,0.5,0.6,1.2,1,1.8l-0.7,0.6c-1.4,1.3-2.7,2.6-3.8,4l-0.2-0.1c0.1-0.6-0.1-1.3-0.5-1.9
		L301,224.8z M297.6,223.6l2.3,0.2l-3.4,4.2c-0.1-0.1-0.2-0.2-0.4-0.2L297.6,223.6z M294.1,220.7c0.1-0.2,0.1-0.4,0.1-0.5l3.8-2.1
		l-0.5,1.3l-1,2.3L294.1,220.7z M300.2,222.4l-2.1-0.2l0.2-0.5l1.3-3l1,3C300.5,221.9,300.3,222.1,300.2,222.4z M298.2,216l-4.1,2.3
		c-0.2-0.6-0.5-1-0.9-1.4c0.7-1.2,2.3-3.1,4.4-3.3l0.7,0.8C298.2,215,298.1,215.5,298.2,216z M295.8,223l-1.8,4
		c-0.3,0-0.5-0.1-0.8-0.1l-0.2-4.9L295.8,223z M294,232.8c1.2,0.1,2.4-0.1,3.1-0.6l0.1,0.1c-1,1.3-1.9,2.7-2.5,4.4l-1.2,0.1
		L294,232.8z M297.4,235.4c-0.4,0.6-0.8,1.2-1.1,1.7l-0.1-0.1c0.7-1.5,1.4-2.8,2.3-4l0.5,0.3C298.4,234,297.9,234.7,297.4,235.4z
		 M302.7,229.5c-0.9,0.9-1.8,1.8-2.7,2.8l-0.5-0.4c1.1-1.2,2.3-2.4,3.6-3.7l0.4-0.4c0.1,0.2,0.2,0.4,0.3,0.5
		C303.4,228.7,303,229.1,302.7,229.5z M308.3,221.5c0.1,1.5-1.4,3.5-3.4,5.6c-0.1-0.2-0.2-0.3-0.3-0.5c2.5-2.7,2.5-5,2.3-6.1
		l0.3-0.2c0.1,0,0.5,0,0.7,0.1C308.2,220.7,308.3,221.2,308.3,221.5z M305.8,213.6c0.1,0,1.1-0.3,1.7,0.9c0.7,1.5-0.5,3.8-1.1,4.7
		l-1.4,0.8c0-0.1-0.1-0.2-0.2-0.3c0.5-1.6,0.7-4-0.4-5.5L305.8,213.6z M302.5,208.8c2.3,0.5,2.4,2.6,2.4,3.6l-2.2,0.9
		c-0.2-0.6-0.5-1.1-1.1-1.3c-0.8-0.3-1.7,0.1-2.4,0.9l-2-2.2C298.1,209.8,300.2,208.2,302.5,208.8z M292.6,211.3
		c1.6-0.7,2.6-0.2,2.9,0l0,0l0.8,0.9c-2.4,0.7-4.1,2.9-4.8,4.3c-0.2,0.1-0.4,0.1-0.7,0.3l-0.9-1.5
		C290,214.4,290.5,212.2,292.6,211.3z M291.6,227.1c-0.8,0.2-1.4,0.7-1.8,1.3l-0.9,0c-0.1-1.6-0.5-3.1-0.8-4.7l-0.1-0.6
		c1-0.4,1.9-0.7,2.7-1.1c0.2,0.2,0.5,0.3,0.7,0.4L291.6,227.1z M289.4,217.6l0.4,0.6c-0.1,0.4-0.2,0.8-0.2,1.3
		c0,0.4,0.1,0.8,0.2,1.2c-0.6,0.2-1.3,0.5-2,0.8C287.6,219.3,288.7,218.1,289.4,217.6z M285.9,216.6c1.2-1,2.1-0.8,2.5-0.6l0.1,0.1
		c-1.3,0.9-2.7,2.9-2.4,5.8c-0.4,0.2-0.8,0.3-1.1,0.4C284.6,219.8,284.6,217.7,285.9,216.6z M286.2,230.2l1.2-0.1
		c0,1.2-0.2,2.5-0.7,3.9l-0.5-0.2c0.1-0.5,0.1-0.9,0.2-1.4C286.3,231.7,286.3,231,286.2,230.2z M286,228.6c-0.2-1.1-0.3-2.2-0.5-3.2
		c-0.1-0.4-0.2-0.9-0.2-1.3c0.3-0.1,0.7-0.2,1.2-0.4l0.1,0.4c0.4,1.6,0.7,3,0.8,4.5L286,228.6z M281.4,241.1c1.4-1.1,3.4-3,4.3-5.6
		l0.6,0.2l-0.2,2.7l-3.1,2.9l0,0C282.5,241.2,281.9,241.2,281.4,241.1z M288.3,242.4c-1.2-0.3-2.3-0.6-3.2-0.7l2.2-2.1l1.1,0.1
		V242.4z M288.3,238l-0.5,0l0.1-1.4l0.4,0.3V238z M288.2,234.7c0.6-1.6,0.8-3.1,0.8-4.6l0.7,0c0.3,0.8,1,1.6,2.1,2.1l-2.8,3.2
		L288.2,234.7z M292.3,234.1l-0.4,3.2l-2,2.8v-3.3L292.3,234.1z M290,242.9L290,242.9l1.3-1.9l0.8,0.3l0,2.2
		C291.5,243.3,290.8,243.1,290,242.9z M292.1,239.7l0.9-1.4l0.6,0l-1.1,1.6L292.1,239.7z M295.1,244.7c-0.4-0.2-0.9-0.4-1.4-0.6
		l-0.1-3l1.8-2.7l0.3,0.1C294.7,240.9,294.8,243.2,295.1,244.7z"/>
	<path class="st1" d="M356,144.7c0.1-6.6,5.4-12.7,11.2-16.6c6.4-4.3,10.8-13.2,6.5-23.9s-20.1-11.5-25.4-4.1
		c-5.3,7.3-0.4,15.5,6.9,16.1c0,0,0,0,0,0c0.2,0,0.3,0,0.5,0c2.6,0,4.7-2.1,4.7-4.7c0-2.6-2.1-4.7-4.7-4.7c-0.7,0-1.4,0.2-2,0.5
		c-1-2.6,1-6.8,6.7-5.8c7.2,1.3,10,9.4,7.3,16.3c-2.6,6.9-13.6,12.5-15.6,20.5c-1.2,5.2,1,10.8,2.7,14c0.4-0.1,0.9-0.3,1.3-0.4
		C356.1,150.2,356,147.7,356,144.7z"/>
	<path class="st1" d="M374.9,131c5.6-3.8,15.3-5.9,19.1-2.5c1.8,1.6,2.3,2.9,2.1,4c-0.2,0-0.4-0.1-0.6-0.1c-2.6,0-4.7,2.1-4.7,4.7
		c0,1.2,0.4,2.2,1.1,3c0.3,0.7,0.9,1.2,2,1.4c0.5,0.2,1,0.3,1.6,0.3c0.8,0,1.6-0.2,2.2-0.6c5.2-1.9,8-9.7,4.4-14.4
		c-4-5.3-15.6-11.1-31.3,0.6c-9.3,7-11,18.5-11.2,23.5c0.4-0.1,0.7-0.2,1.1-0.3C361.2,145.1,365.4,137.6,374.9,131z"/>
	<path class="st1" d="M345.2,142.3c-6.5-7-11.7-7.6-13.8-12.2c-2.1-4.5,0-9.4,0-9.4s-5.9,3.7-3.2,12s9.5,8.2,14,13.2
		c3.3,3.6,4.6,6.7,5.1,8.6c0.4-0.1,0.8-0.2,1.2-0.4C349.2,151.5,349.3,146.9,345.2,142.3z"/>
	<path class="st1" d="M339.3,152.4c-2.1-2.4-7.8-4.4-13.2-3.3c-0.1,0.2-0.1,0.4-0.1,0.4s0-0.1-0.1-0.3c-0.3,0.1-0.7,0.2-1,0.3
		c-0.2,0.7-0.9,0.8-1.3,0.7c-0.1,0-0.1-0.1-0.1-0.1c-0.5,0.2-1,0.4-1.4,0.7c-0.6,0.4-1.2,0.8-1.7,1.2c0,0.5-0.1,1-0.1,1l-1.8,1.3
		c0,0-0.1-0.1-0.2-0.2c-4,4.8-5.2,12,0.1,16.1c5.7,4.5,12.8,2.6,15.1-1.6c0,0,0,0,0,0c0.5-0.8,0.8-1.7,0.8-2.7c0-2.8-2.2-5-5-5
		c-2.8,0-5,2.2-5,5c0,0.5,0.1,1.1,0.3,1.5c-1.7-0.3-3-1.2-3.5-3c-0.9-2.9-1-9.1,6.6-11.2c6.5-1.8,11.3,1.3,13.5,3.2
		c0.2-0.1,0.5-0.1,0.8-0.2C341.4,155.2,340.7,153.9,339.3,152.4z"/>
	<path class="st1" d="M285.6,145.1c5.8-5.1,5.9-13.8,0.6-18.2c-5-4.2-11.2-2.2-13.8,0.9c-2.6,3.3-1.3,7.7,1.7,9.2c0,0,0,0,0,0
		c0.5,0.3,1.1,0.4,1.7,0.4c1.9,0,3.5-1.6,3.5-3.5c0-1.3-0.7-2.4-1.7-3c1.6-2.4,5.8-0.6,6.4,3.6c0.5,3.8-1.8,6.8-7,7.7
		c-5.5,0.9-10-3.2-10.8-9c-0.1-0.6-0.1-1.1-0.1-1.7c-0.7,2-1.3,4-2,6.2c1.7,3.3,4.1,5.1,4.1,5.1s-2.7-0.9-4.8-2.6
		c0,0-0.1-0.1-0.1-0.1c-0.5,1.7-1.1,3.3-1.6,5C270.3,151.3,280.2,149.9,285.6,145.1z"/>
	<path class="st1" d="M279,120c16.6-1.7,24.3,11.2,24.3,11.2s1.8-11.5-4.8-14.4c-13.3-6-28.3,3.6-28.3,3.6s5-4.1,9-6.6
		c4-2.5,5.7-6.3,6.3-7.9c0.6-1.6,2.5-5,2.5-5s-2,0.6-5.3,2.6c-3.3,2-6.2,6.4-7.4,9c-0.8,1.7-3.2,4.1-4.8,5.6c-0.6,1.7-1.4,4-2.3,6.6
		C270.5,122.3,274.1,120.5,279,120z"/>
	<path class="st1" d="M273,101.5c5.9-4.7,13.9-3.9,13.9-3.9s-8.8-5.1-15.3-2.4c-3.1,1.3-5.2,4.1-6.5,6.9c0.2,1.4,0.8,2.9,2,4.2
		c0.1,0.2,0.3,0.3,0.4,0.5C269.1,105,270.9,103.2,273,101.5z"/>
	<path class="st1" d="M275.2,105.3c-0.5,0-1.8,3-2.7,5c-0.2,0.5-0.7,1.2-1.4,2.1c0.6,1.4,0.8,2.3,0.8,2.3s-0.3,0.8-0.7,2.1
		c1.4-2,3.1-4.6,3.6-5.9C275.8,108.4,275.7,105.2,275.2,105.3z"/>
	<path class="st1" d="M226.6,164c-7.2-2.2-11.2,3.6-11.2,3.6c1.8-0.5,9.4-1,13.2,7c2.7,5.7,0.9,22.1,0.9,22.1S242.9,168.9,226.6,164
		z"/>
	<path class="st1" d="M202.2,134.6c3.4-0.6,6.2-0.8,8.5-0.6c-3.5-2.5-6.9-4.8-10.1-6.7c-12.4,2-18.3,10.2-19.6,18.4
		c2.6,0.9,5.2,2.1,7.8,3.5C188.8,143.6,192.1,136.4,202.2,134.6z"/>
	<path class="st1" d="M252.9,191.2c6.3-12.2,12.4-25.9,22.3-25.8c9,0.1,9.4,9.8,5,11.7c0-3.4-2.7-6.1-6.1-6.1
		c-3.4,0-6.1,2.7-6.1,6.1c0,1.8,0.8,3.3,1.9,4.4c2.3,2.4,8.5,4.5,14.1,1c5.8-3.6,8.7-12.1,3.2-19.7c-5.5-7.6-16.6-5.7-21.1-3.2
		c-4.1,2.3-6.7,4.9-6.7,4.9s-0.4-2.3-1.6-5.6c-1.3,6-1.1,8.2-1.1,8.2s-2.6-0.9-6.5-2.8c1.5,13.9-4.1,24.3-4.1,24.3
		s2.4-12.4-1.5-27.3c-3.8-2.3-7.9-5.2-11.5-8.8c-3.1-3.2-7.2-6.8-11.8-10.5c-0.8,0.1-1.7,0.3-2.6,0.6c-2.6,1-2.8,2.1-2.8,2.1
		s18,2.5,22.5,22.6c2.9,13.2-1.9,28.9-5.6,38.3c1.1,1.4,2.2,2.8,3.4,4.1C241.3,206.3,248.2,200.2,252.9,191.2z"/>
	<path class="st1" d="M202.2,145c-3.3,0-5.9,2.7-5.9,5.9c0,3.3,2.7,5.9,5.9,5.9c1.1,0,2-0.3,2.9-0.8c0,1.4-0.8,3.2-3,4
		c0.8,1,1.5,2.1,2.2,3.3c0.6,1,1.2,2.1,1.9,3.2C215.9,161.8,215.8,144.3,202.2,145z"/>
	<path class="st1" d="M285.7,201.5c-2.5-4,3.1-12.7,3.1-12.7s-5.1,2.5-11.1,3c-5.9,0.5-10.7-3.1-10.7-3.1c0.2,8.6,12.4,8.6,12.4,8.6
		s-1.6,5.9,5.3,9.1c6.7,3.1,9.3-4,9.3-4S288.2,205.4,285.7,201.5z"/>
	<path class="st1" d="M324.9,245.3c15.3-8.7,27.9,1.9,27.9,1.9s-0.5-3.8-3.5-6.6c-3-2.8-9.6-4.8-15.5-6.3
		c-5.9-1.5-9.6-6.3-10.6-11.1c-1-4.8,2.6-10.6,7.6-10.6c5.1,0,8.2,5.1,5.8,7.4c-0.8-1.5-2.3-2.6-4.1-2.6c-2.6,0-4.6,2.1-4.6,4.6
		c0,1.6,0.8,2.9,2,3.8c0.1,0.1,0.1,0.2,0.2,0.2c1.2,0.7,6.1,3.4,10.7-2.3c4.6-5.7,1.7-12.7-3.7-16c-5.6-3.4-12.5,0.3-12.5,0.3
		s5.3-14.3,1.7-23c-4.5-10.8-15-10.7-15-10.7s-2.5-1.8-3.8-5.3c-1.2-3.3-0.8-9.7-0.8-9.7s-4,2.3-5.5,7.1c-1.5,4.8,2.8,10.2,2.8,10.2
		s-0.8-0.2-4.3,2.6c-3.5,2.8-6.3,7.7-5,13.8c1.3,6.1,7.7,11.3,15.4,9.3c8.5-2.3,7.4-10.5,5.6-13c-0.1-0.1-0.2-0.3-0.3-0.3
		c-0.8-1.1-2.1-1.8-3.5-1.8c-2.5,0-4.5,2-4.5,4.5c0,1.9,1.2,3.5,2.8,4.1c-3.8,2.7-7.7-0.5-8.8-3.9c-1.4-4.4,1.8-9.5,7.5-10.3
		c5.6-0.8,10.1,1.2,11.6,7.3c1.5,6.1-3.3,17.7-4.1,29.4c-0.8,11.7,8.6,20,8.6,20s-12.8,3.5-14.5,15.1c1.9,1.2,4.3,2.7,6.7,4.1
		C317.8,252.7,320,248.1,324.9,245.3z"/>
	<path class="st1" d="M329.4,259.4c1.2-3.5,5.2-7.6,11.1-6.1c5,1.3,4.9,7,2.4,8.6c-0.9-1.5-2.5-2.5-4.4-2.5c-2.8,0-5.1,2.3-5.1,5.1
		c0,2.3,1.5,4.2,3.5,4.8c3.4,1.5,9.2,1.5,12.6-4.2c3.8-6.3,2.5-14.5-7-17.8c-8-2.8-18.2,1.8-20.5,10.5c-0.2,0.6-0.3,1.3-0.4,2
		c3.5,1.8,5.9,3.3,6.9,4.1C328.6,262.2,329,260.5,329.4,259.4z"/>
	<path class="st1" d="M353.7,268.2c0.1,0,0.1,0,0.2-0.1c0.1-0.3,0.1-0.4,0.1-0.4S353.9,267.9,353.7,268.2z"/>
	<path class="st1" d="M406.2,194.4c0,2.3,1.8,4.1,4.1,4.1c2.3,0,4.1-1.8,4.1-4.1c0-2.3-1.8-4.1-4.1-4.1
		C408,190.2,406.2,192.1,406.2,194.4z"/>
	<path class="st1" d="M396.3,193.7c0.3,9.9,8.4,15,13.2,19.2c4.8,4.1,12.1,7.1,11.9,13.5c-0.2,6.4-4.8,7.1-4.8,7.1s2-2.1,1.8-5.3
		c-0.2-3.1-1.8-6.1-5.9-5.9c-4.1,0.2-7.3,3.1-6.8,9.4c0.6,7.7,14.1,12.3,20.6,2.4c7-10.5-2.6-19.2-8.7-23.2
		c-6.1-4-15.4-10.1-15.9-17.7c-0.5-7.6,7.1-9.4,7.1-9.4C405.8,180.8,395.9,183.8,396.3,193.7z"/>
	<path class="st1" d="M482.6,153.9c0.9-1.1,1.9-2.2,2.7-3.3C483.9,151.2,482.9,152.4,482.6,153.9z"/>
	<path class="st1" d="M457.8,174.3c-1.1,2.3-1.5,4.3-1.5,6.2c2.7-4.1,7.1-9,14.3-15C467.7,165.9,460.9,167.5,457.8,174.3z"/>
	<path class="st1" d="M469.8,152.6c-0.6,5.7,1.1,10.3,1.9,12.1c2.2-1.9,4.4-3.9,6.4-5.9c-0.9-2.7-1-5.6,0.6-8c2.5-3.8,6.7-4.7,9-3.2
		c1.5-2.1,3-4.3,4.3-6.4c-2.4-1.4-5.4-2-8.5-1.9C476.5,139.3,470.5,145.5,469.8,152.6z"/>
	<path class="st1" d="M419.4,186.9c0,0,9.8-5.5,19-0.7c3.7,2,8.4,6.4,13.8,10.6c0.2-0.8,0.2-1.7,0.1-2.6c-0.2-1.5-0.4-3.8,0.6-7
		c-5.4-4.7-11.7-9.4-19.5-9.4C421.2,177.9,419.4,186.9,419.4,186.9z"/>
	<path class="st1" d="M438,131.6c0,0,3.2-1.1,7.5-1c-0.5-1.2-1.1-2.4-1.7-3.6C440,128.7,438,131.6,438,131.6z"/>
	<path class="st1" d="M439.9,137.3c-8.3,2.7-11.4,13.6-6.1,18.7c4.8,4.6,10.9,2.9,13.4,0.8c1.3-0.8,2.1-2.2,2.1-3.8
		c0-2.5-2-4.5-4.5-4.5c-2.1,0-3.8,1.4-4.3,3.4c-1.2-0.6-2-2-2-3.7c0-2.5,3-5.9,7.4-5.6c1.1,0.1,2.3,0.4,3.4,0.8
		c-0.4-2.3-1-4.7-1.6-6.9c0-0.1-0.1-0.2-0.1-0.4C445.1,136.1,442.5,136.5,439.9,137.3z"/>
	<path class="st1" d="M450.7,163.5c0-0.2,0-0.5,0-0.7c-2.4,2-5.5,3.1-8.7,3c-6.3-0.2-17.3-3.9-15.7-20.5c1-10.3,8.5-18.6,14.4-23.6
		c-0.5-0.8-1-1.6-1.5-2.3c-5.6,2.8-12,7.6-15.8,14.3c-6.4,11.2-3.9,27.1-7.4,35.5c-3.5,8.4-13.4,7.8-13.4,7.8s7.1,4.5,13.7,1.8
		c8.3-3.3,8.6-11.9,8.6-11.9s10.9,9,24.4,4.6c9.3-3,14-10.8,13.4-19c-0.5,0.4-1,0.9-1.5,1.3C457,157.2,453.6,160.5,450.7,163.5z"/>
	<path class="st1" d="M431.5,109.5c-0.5-0.5-0.9-1.1-1.4-1.6C430.5,108.4,431,108.9,431.5,109.5z"/>
	<path class="st1" d="M428.3,104.2c0,0,0.2,0.7,0.6,1.7c0.2-0.5,0.3-1,0.4-1.5C428.7,104.3,428.3,104.2,428.3,104.2z"/>
	<path class="st1" d="M353.3,66.2c0,0,3.8,0.1,7-4.3c0.7-1,1.2-2,1.4-3c-1.5-0.1-3.1-0.2-4.7-0.2C357.7,62.4,353.3,66.2,353.3,66.2z
		"/>
	<path class="st1" d="M326.2,30.3c-0.9-0.9-1.9-1.7-2.9-2.3c-2.9,0.1-4.9,0.6-4.9,0.6C321.4,29,324,29.6,326.2,30.3z"/>
	<path class="st1" d="M305,35.2c-0.9,2.7-1.2,5.8-0.8,9c2.1-3.2,6.1-5.6,11.8-5.5c5.8,0.1,12.1,1.7,16.8,5.3
		c-0.2-1.2-0.4-2.5-0.8-3.7c-0.5-1.7-1.2-3.3-2-4.8c-3.6-1.5-8-2.7-13.3-2.7C312.3,32.8,308.3,33.6,305,35.2z"/>
	<path class="st1" d="M324.7,52.8c-0.7-6.6-5.7-9.1-9.5-9.1c-2.6,0.1-7.7,1.4-7.4,6c0,0,0,0.1,0,0.1c0,0.2,0,0.3,0,0.5
		c0,2.6,2.1,4.7,4.7,4.7s4.7-2.1,4.7-4.7c3.6,3.9,0.2,8.7-4.6,9.1c1.6,1.2,3.3,2.1,5,2.6l0.5,1.8C322.5,61.8,325.2,57.7,324.7,52.8z
		"/>
	<path class="st1" d="M325.3,68.7c0,0,10.7,1.4,16-2.9c2.8-2.3,4.4-4.8,5.2-6.8c-2.4,0.2-4.8,0.4-7.3,0.8c-0.9,3-2.9,4.5-2.9,4.5
		s0.6-1.6,0.7-4.2c-1.4,0.2-2.8,0.5-4.2,0.8C330.9,65.5,325.3,68.7,325.3,68.7z"/>
	<path class="st1" d="M290.4,80.6c0.2-0.6,0.4-1.1,0.5-1.6c-5.9,4.1-10.1,7.8-12.7,10.4C281.9,88.5,288.3,86.2,290.4,80.6z"/>
	<path class="st1" d="M303.3,72.5c-6.2,0.9-10.8,7.4-9.7,9.1c2.6,3.8,11.4-3.7,13.1-5.1c1.6-1.5,5-1.8,5-1.8S309.5,71.6,303.3,72.5z
		"/>
	<path class="st1" d="M320.3,152.9c0,0,0.1-0.5,0.1-1c0-0.6-0.2-1.2-0.9-1.1c-1.5,0.1-2.6-0.3-2.6-0.3l-1-0.7l-1-0.6
		c0,0,1.9-0.6,3.5-1.5c1.6-0.9,2.8-1.8,2.8-1.8s1.8,0.4,2.3,0.9c0.6,0.4,1,0.8,0.8,1.6c-0.1,0.7-0.7,1.3-0.7,1.5
		c0,0.1,0,0.1,0.1,0.1c0.4,0.1,1.1,0,1.3-0.7c0,0,0,0,0-0.1c0.1-0.7,0.1-0.9,0-1.6s-0.4-1.6-0.4-1.6s0.7,0.2,1,1.3
		c0.1,0.5,0.3,1.3,0.4,1.7c0,0.2,0.1,0.3,0.1,0.3s0-0.1,0.1-0.4c0.1-0.5,0.3-1.4,0.3-2.3c0-1.3-0.4-2.3-1.2-2.5s-0.6,0.1-1.5,0.3
		s-3.1,0.1-3.1,0.1s4.5-3.2,4.4-7.9s-3.2-13.1-3.2-13.1s1.8-1.6,1.5-2.1s-2.3,0.7-2.3,0.7s-2.7-2.3-6.2-0.6
		c-4.5,2.2-4.8,8.8-4.8,8.8s-5.9,3.1-7.5,7.3s-2.5,6.3-3.5,7.3c-1,1-10.3,9.5-11.3,10.3s-0.3,0.9,0.3,0.9s1.5-0.3,1.5-0.3
		s-0.7,1.5-0.1,1.9c0.6,0.4,2.3-1.5,5.3-4c2.9-2.5,5.6-4.5,5.6-4.5s-4.8,4.6-4.4,4.8c0.4,0.3,3.1-1.5,6.9-3.5
		c3.8-2.1,5.1-2.6,5.1-2.6s0.9,1,3.2,1.5c2.3,0.4,3.1,0.4,3.7,0.6s0.4,0.7,0.4,0.7s-1.2,1.3-0.4,1.3c0.1,0,1.2-0.9,1.9,0
		c0.5,0.7,1.3,1.3,1.6,1.6c0.1,0.1,0.2,0.2,0.2,0.2L320.3,152.9z M316.5,123.7c0.5,0,0.9,0.4,0.9,0.9c0,0.5-0.4,0.9-0.9,0.9
		c-0.5,0-0.9-0.4-0.9-0.9C315.6,124.1,316,123.7,316.5,123.7z M308,146.3c0,0,4.4-3.7,7.2-7c2.8-3.4,1.6-6.7,1.6-6.7
		s3.7,2.1,0.6,6.7C314.3,143.9,308,146.3,308,146.3z"/>
	<path class="st1" d="M319.7,114.2c6.2,0.7,6.7,6.5,6.7,6.5s2.9-10.6-6.3-11.3c-8.8-0.7-10,8.8-10,8.8S313.6,113.4,319.7,114.2z"/>
	<path class="st1" d="M427,89.1c0.1-0.6,0.2-1.1,0.3-1.7c-2.4-4.4-0.8-8.3,1-9.8c0.3,0.9,0.7,1.7,1.3,2.4c1.9-4,5-7.4,9.8-10.1
		c-3.2-3.4-9.1-4.3-15.4,0.4c-7.6,5.7-5,17.1-0.2,21.7c1.2,1.1,2.4,2,3.7,2.7C427,93,426.9,91.1,427,89.1z"/>
	<path class="st1" d="M436.5,60.7c4.6,1.2,7.6,3.6,9.5,6.5c0.3-0.1,0.6-0.2,1-0.3c1-0.3,2-0.6,3-0.8c-1.3-4.6-4.6-9.1-12.2-10.7
		c-0.7-0.2-1.5-0.3-2.2-0.4c-4,1.8-7.4,3.9-10.2,6.3C428.5,60.1,432.2,59.6,436.5,60.7z"/>
	<path class="st1" d="M491.1,74.9c0,0-4.5,4-10.2,5.2c1.2,2,2.2,4.1,3.1,6.3C490.3,82.9,491.1,74.9,491.1,74.9z"/>
	<path class="st1" d="M456.7,65.2c2.9-0.1,5.6,0.3,8.2,1.1c-1.2-4.4-3.4-10.9-8.6-16.1c-3.9,0.1-8,0.7-12.1,1.8
		C451.1,54.9,454.9,59.9,456.7,65.2z"/>
	<path class="st1" d="M376.1,183.4c0,0,1.7-0.5,6.5-2.5c4.8-2,6-6.3,6-6.3s1.5-0.7,2.5-1c1-0.3,0.7-1.6-0.4-1.3
		c-1.1,0.3-11.9,3.4-18.5,5.4c3-2.2,3.4-5.7,2.6-8.5c-0.1-0.4-0.3-0.8-0.5-1.2c0.1,0,0.1-0.1,0.2-0.1c0.5-0.4,0.6-1.1,0.3-1.6
		c-1-1.4-1.2-2.8-0.7-4.6c0.5-1.6,2.5-2.9,3.2-3.3c0.6-0.3,0.8-0.9,0.6-1.5c1.3-1.1,2.6-2.6,3.2-4.6c0.7-2.4,0.2-5-1.4-6.6
		c-1.4-1.4-3.3-2-5.3-1.4c-1.9,0.5-3,1.7-3.5,3.4c-1.3,0.4-5.2,1.5-9.9,2.9c-0.4,0.1-0.7,0.2-1.1,0.3c-1.1,0.3-2.3,0.7-3.5,1
		c-0.4,0.1-0.9,0.3-1.3,0.4c-2.2,0.6-4.4,1.3-6.4,1.8c-0.4,0.1-0.8,0.2-1.2,0.4c-2.2,0.6-4.1,1.2-5.5,1.6c-0.3,0.1-0.6,0.2-0.8,0.2
		c-1,0.3-1.7,0.5-1.7,0.5c-0.7,0.2-0.1,1.7,0.7,2.1c0.8,0.4,6.4,5.6,7.3,8.9c1,3.3-0.3,6.4,0.5,9.2c0.8,2.8,3,5.6,6.7,5.8
		c-6.6,1.9-17.4,5-18.5,5.4c-1.1,0.3-0.6,1.6,0.4,1.3c1-0.3,2.6-0.5,2.6-0.5s3.3,3,8.4,2.1c5.1-0.9,6.8-1.4,6.8-1.4s0.1,0.9,0.8,1.4
		l21.3-6.1C376.5,184.3,376.1,183.4,376.1,183.4z M371.3,163.8c-0.5-0.8-0.9-1.6-1.2-2.5c-0.7-2.4,0.1-7,0.8-9.6
		c0.2,0.4,0.4,0.8,0.7,1c0.5,0.4,1.3,0.3,1.7-0.2c0.4-0.5,0.3-1.2-0.2-1.6c-0.2-0.3-0.6-1.5-0.2-2.6c0.3-0.8,0.9-1.3,1.8-1.6
		c1.2-0.3,2.2,0,3,0.8c1,1,1.3,2.7,0.8,4.3c-0.8,2.7-3.3,4.3-4.6,4.7c-0.6,0.2-0.9,0.9-0.7,1.5c0,0.1,0.1,0.2,0.2,0.3
		c-0.8,0.7-1.5,1.7-1.8,2.8C371.4,162.1,371.3,162.9,371.3,163.8z"/>
	<path class="st1" d="M376.2,185l-21.3,6.1l-12.6,3.6l20.4,70.7c14.2-4.2,31.8-9.3,44.9-13.2l-20.4-70.5L376.2,185z M385.1,185.9
		l0.3,1c-0.4-0.3-0.8-0.6-1.3-0.7L385.1,185.9z M382,186.8c-0.3,0.3-0.5,0.6-0.7,1c-0.6,1.2-0.6,3,0.1,4.6c-0.6-0.4-1.2-0.8-2-1
		c-4.7-1.5-8.3,0.2-10.1,4.6c-0.3,0.8-0.6,2.2-0.5,3.5l-1.3,0.4c-0.6-1.2-1.6-2.2-2.3-2.7c-3.9-2.8-7.8-2.3-11,1.5
		c-0.5,0.6-0.9,1.3-1.2,1.9c-0.3-1.7-1.2-3.2-2.3-3.9c-0.4-0.3-0.8-0.4-1.2-0.5L382,186.8z M385.3,199.9c-0.4-0.1-0.7,0-0.9,0.3
		c0-0.2,0.1-0.4,0.1-0.6c0.1-1.5-0.1-3.1-0.7-4.5c1.9,1.8,3.8,3.6,4.3,4.7c0.2,0.4,0.4,1,0.2,1.5c-0.1,0.3-0.5,0.5-0.9,0.7
		c-0.5,0.1-0.9-0.1-1.1-0.3c-0.2-0.2-0.3-0.4-0.2-0.7C386,200.5,385.7,200,385.3,199.9z M384.2,201.2c0,0.6,0.3,1.1,0.7,1.6
		c0.3,0.3,0.7,0.5,1.1,0.7l-4,1.2C383,204,383.8,202.8,384.2,201.2z M386.9,209c0.3-0.2,0.8-0.3,1.4,0c1.3,0.7,0.7,3.5,0.4,4.6
		c-0.2,0.1-0.5,0.2-0.7,0.4c-1,0.8-1.6,2.3-1.5,4c0,1.4,0.6,2.9,1.2,4c-0.2-0.1-0.4-0.2-0.7-0.3c-1.5-0.7-1.8-2.7-1.8-2.8l-0.1-0.7
		l-0.7,0c0,0-2.3,0.1-4.9-1.8c-1-0.7-1.6-1.7-2-2.5c0.8,0.4,1.8,0.7,2.8,0.7c0.2,0,0.4,0,0.5,0c1.2-0.1,2.8-0.6,3.9-2.4
		c0.4-0.6,0.6-1.2,0.7-1.7c0.2,0.1,0.4,0.2,0.6,0.1c0.5-0.1,0.7-0.5,0.7-1C386.5,209.3,386.7,209.1,386.9,209z M389.6,228
		c0.5,0.1,1.2,0.5,1.7,1.4c0.7,1.2,0.7,2.6,0.2,4.2c-0.3,0.8-0.7,1.5-1.2,2.2c0-0.6,0-1.1-0.2-1.7c-0.4-1.7-1.3-2.9-2.6-3.6
		c-1.7-0.9-4.2-0.9-6.1,0.2c-1.4,0.8-2.3,2-2.3,3.4c0,0.3,0,0.6,0.1,0.9l-7.4-25.7l2.4-0.7c0,0.9,0.2,2,0.8,3.1
		c0.1,0.9,0.6,4,3.4,6.1c2.2,1.6,4.3,2,5.3,2.1c0.3,0.9,1,2.6,2.6,3.4c1.1,0.5,1.9,0.7,2.5,0.7c0.4,0.6,1.2,1.8,2.4,2.9
		c-0.4-0.3-0.8-0.4-1.3-0.5c-0.5-0.1-0.9,0.2-0.9,0.7C388.9,227.5,389.2,228,389.6,228z M367.9,240.6c0.2,0.5,0.4,1,0.7,1.5
		c-0.8-0.3-1.5-0.7-2.2-1.2c-1.3-1-2-2.3-2.1-3.6c0-1,0.3-1.8,0.7-2.1c0.3-0.3,0.4-0.8,0.1-1.2c-0.3-0.3-0.8-0.4-1.2-0.1
		c-0.3,0.3-0.6,0.7-0.8,1.1c0.4-1.6,0.5-3,0.5-3.7c0.4-0.3,1-0.9,1.7-1.9c1-1.5,0.7-3.3,0.4-4.2c0.8-0.6,2.3-2.1,3.3-4.6
		c1.3-3.3,0-6.2-0.4-7c-0.1-1.2-0.5-2.3-1-3l2.4-0.7l7.5,25.9c-0.1-0.3-0.3-0.7-0.5-1c-0.8-1.1-2.2-1.7-3.8-1.6
		c-2.2,0.1-4.3,1.3-5.2,3.1C367.4,237.4,367.3,239,367.9,240.6z M360.8,215.4c0.3,0.4,0.8,0.4,1.2,0.1c0.7-0.6,0.9-1.6,0.3-2.4
		c-0.2-0.4-0.6-0.6-1-0.8l4.8-1.4c0.7,0.7,1.3,2.1,1,3.8c-0.2,0.9-1,2.1-2.3,2.8c-0.7,0.4-1.8,0.7-3.2,0c-1-0.5-1.6-1.2-1.7-2
		c-0.1-0.8,0.3-1.5,0.5-1.7c0.1-0.1,0.2,0,0.3,0c0.2,0.1,0.3,0.3,0.3,0.3c0,0,0,0,0,0C360.6,214.5,360.5,215.1,360.8,215.4z
		 M360.9,219.1c0.8,0.4,1.6,0.5,2.3,0.5c1,0,1.8-0.3,2.4-0.6c1-0.5,1.9-1.4,2.5-2.3c0.1,0.9,0.1,2.1-0.4,3.2c-1.2,3-3.2,4.2-3.2,4.2
		l-0.7,0.4l0.3,0.7c0,0,0.8,1.9-0.1,3.3c-0.2,0.3-0.3,0.4-0.5,0.6c-0.1-1.2-0.5-2.8-1.2-4c-0.9-1.5-2.1-2.4-3.4-2.6
		c-0.3,0-0.5,0-0.8,0c-0.9-0.8-2.9-2.9-2.1-4.1c0.4-0.6,0.9-0.8,1.2-0.8c0.2,0,0.4,0.1,0.6,0.4c0.2,0.4,0.6,0.6,1.1,0.5
		c0.2-0.1,0.4-0.3,0.5-0.5C359.8,218.4,360.2,218.8,360.9,219.1z M368.7,205.8c-0.1-0.3-0.1-0.6,0.1-0.9c0.2-0.3,0.4-0.5,0.7-0.6
		c0.1,0,0.2,0,0.3,0c0.5,0,1,0.4,1.1,0.9c0.1,0.3,0.1,0.6-0.1,0.9c-0.2,0.3-0.4,0.5-0.7,0.6C369.5,206.7,368.9,206.4,368.7,205.8z
		 M383.2,211.3c-0.8,1.2-1.9,1.6-2.7,1.7c-1.4,0.1-2.8-0.5-3.4-1.1c-1.2-1.2-1.4-2.7-1.2-3.7l4.8-1.4c-0.3,0.4-0.4,0.8-0.5,1.2
		c0,1,0.6,1.7,1.5,1.9c0.5,0.1,0.8-0.3,0.9-0.7c0.1-0.5-0.3-0.9-0.7-0.9c0,0,0-0.2,0.1-0.4c0,0,0.1-0.2,0.2-0.2
		c0.2,0,0.9,0.4,1.3,1.2C383.9,209.5,383.8,210.3,383.2,211.3z M382.8,199.5c-0.2,2.2-1.1,3.7-1.9,3.8c-0.7,0.1-1.3-0.1-1.6-0.5
		c-0.2-0.3-0.2-0.7-0.1-0.8c0.2-0.4,0.1-0.9-0.3-1.1c-0.4-0.2-0.9-0.1-1.1,0.3c-0.4,0.8-0.3,1.8,0.2,2.6c0.6,0.8,1.5,1.2,2.5,1.2
		c0.1,0,0.1,0,0.2,0l-9,2.6c0.3-0.2,0.5-0.5,0.7-0.8c0.4-0.7,0.5-1.4,0.2-2.2c-0.4-1.5-2-2.4-3.5-1.9c-0.7,0.2-1.3,0.7-1.7,1.4
		c-0.4,0.7-0.5,1.4-0.2,2.2c0.3,1.1,1.3,1.9,2.5,2l-9.3,2.7c1-0.6,1.7-1.5,1.7-2.5c0-1-0.4-1.9-1.2-2.3c-0.4-0.2-0.9-0.1-1.1,0.3
		c-0.2,0.4-0.1,0.9,0.3,1.1c0.2,0.1,0.4,0.4,0.3,0.8c0,0.5-0.4,1-1.1,1.2c-0.7,0.3-2.4-0.5-3.7-2.2c-1.5-2-2.4-5.1-0.2-7.6
		c2.6-3.1,5.6-3.5,8.8-1.2c0.6,0.4,1.2,1.1,1.6,1.8l-0.6,0.2c-0.4,0.1-0.7,0.6-0.6,1c0.1,0.4,0.4,0.6,0.8,0.6c0.1,0,0.2,0,0.2,0
		l0.7-0.2c0,0.3-0.1,0.6-0.3,0.8c-0.4,0.4-0.9,0.6-1.1,0.6c-0.1,0-0.3-0.1-0.3-0.1c-0.3-0.3-0.8-0.4-1.2-0.1
		c-0.3,0.3-0.4,0.8-0.1,1.2c0.4,0.4,0.9,0.7,1.6,0.7c0.6,0,1.4-0.2,2.4-1.1c0.6-0.6,0.8-1.4,0.8-2.2c0-0.1,0-0.1,0-0.2l1.2-0.3
		c0,0.1,0,0.2,0.1,0.2c0.4,0.8,1,1.3,1.9,1.5c1.3,0.3,2.1,0,2.6-0.3c0.5-0.3,0.8-0.8,0.9-1.4c0.1-0.5-0.2-0.9-0.7-1
		c-0.4-0.1-0.9,0.2-1,0.7c0,0.1-0.1,0.2-0.2,0.3c-0.3,0.2-0.7,0.2-1.3,0.1c-0.3-0.1-0.5-0.3-0.7-0.6l1-0.3c0.4-0.1,0.7-0.6,0.6-1
		s-0.6-0.7-1-0.6l-0.9,0.2c0-0.8,0.1-1.8,0.4-2.4c1.5-3.6,4.2-4.9,8.1-3.7C382.1,193.9,383,197,382.8,199.5z M355.3,209.6
		c1.1,1.1,2.4,1.7,3.5,1.7l-3.9,1.1c0.3-0.3,0.5-0.7,0.6-1.2C355.7,210.7,355.6,210.1,355.3,209.6z M353.8,210.2
		c0.2,0.1,0.2,0.4,0.1,0.7c-0.1,0.3-0.3,0.7-0.8,0.9c-0.5,0.1-0.9,0.1-1.2-0.1c-0.4-0.3-0.6-0.9-0.7-1.3c-0.2-1.2,0.5-3.7,1.1-6.2
		c0.2,1.6,0.9,3,1.8,4.2c0.2,0.2,0.3,0.4,0.5,0.6c-0.3-0.2-0.8-0.2-1,0.1C353.4,209.4,353.4,209.9,353.8,210.2z M346.7,197.8
		l-0.2-0.7l0.9-0.3C347.1,197.1,346.8,197.4,346.7,197.8z M349.8,208.4l-2.1-7.3c0.2,0.1,0.4,0.3,0.6,0.3c0.5,0.1,0.9-0.2,1-0.6
		c0.1-0.4-0.2-0.9-0.6-1c-0.1,0-0.4-0.4-0.5-0.9c-0.1-0.4,0.1-0.8,0.4-1c0.3-0.3,0.8-0.1,1.1,0.1c1.1,0.7,2,2.6,1.5,4.3l-0.2,0.9
		C350.5,205.2,350,207,349.8,208.4z M351.2,213.5l-0.1-0.4c0.2,0.1,0.3,0.2,0.5,0.2L351.2,213.5z M354.6,225.1l-2.9-10l7.3-2.1
		c-0.5,0.6-0.8,1.5-0.8,2.5c0,0.2,0,0.4,0.1,0.7c-0.3-0.2-0.6-0.3-1-0.3c-1.1-0.1-2.2,0.5-2.8,1.6c-1.2,2.1,0.6,4.4,1.8,5.6
		c-0.3,0.2-0.7,0.5-1,0.8C355,224.3,354.8,224.7,354.6,225.1z M360.2,244.6l-4.3-14.9c0.9,0.6,1.9,0.7,2.8,0.2
		c1.4-0.8,1.6-2,1.1-2.8c-0.5-0.9-1.5-1.2-2.3-0.8c-0.4,0.2-0.5,0.8-0.3,1.2c0.2,0.4,0.8,0.7,1.2,0.4c0,0.2-0.2,0.4-0.5,0.5
		c-0.6,0.3-1.2-0.1-1.5-0.6c-0.4-0.6-0.9-1.8,0.2-2.8c0.7-0.7,1.5-1.1,2.2-1c0.8,0.1,1.6,0.8,2.2,1.8c0.7,1.2,0.9,3.1,1,4.1h0
		l0.1,0.8c0,0,0.2,2.6-0.9,5.3C360.2,238.2,359.6,240.7,360.2,244.6z M362.6,236.7c0.1-0.1,0.1-0.3,0.2-0.4c-0.1,0.3-0.1,0.7-0.1,1
		c0.1,1.8,1,3.6,2.7,4.9c1,0.8,2.1,1.3,3.3,1.7c-1.2,1.2-2.1,3.4-1.5,5.5c0.5,1.8,1.5,2.6,2.2,2.9c0.4,0.2,0.8,0.3,1.3,0.3
		c0.4,0,0.8-0.1,1.2-0.3c0.9-0.4,1.4-0.9,1.6-1.6c0.2-0.9-0.3-1.6-0.4-1.7c-0.3-0.4-0.8-0.4-1.2-0.1c-0.4,0.3-0.4,0.8-0.1,1.2
		c0,0,0.1,0.1,0,0.2c0,0.1-0.2,0.3-0.7,0.5c-0.4,0.2-0.8,0.2-1.1,0c-0.6-0.3-1-0.9-1.3-1.9c-0.5-1.8,0.7-3.8,1.7-4.4c0,0,0,0,0,0
		c0.8,0.2,1.6,0.4,2.4,0.5c0.9,0.2,1.7,0.3,2.2,0.5c1.5,0.5,3.3,1.7,4,3.5c0.6,1.4,0.3,3.1-0.7,4.9c-1,1.9-4.1,3.8-7.2,3.5
		c-2.5-0.2-6-1.8-8.2-8.3C360.9,242.5,361.5,239.3,362.6,236.7z M365.1,261.5l-3-10.5c2.7,6.5,6.8,7.8,9.1,8c0.2,0,0.5,0,0.7,0
		c3.6,0,6.9-2.2,8.1-4.4c1.2-2.3,1.5-4.4,0.8-6.3c-1.1-2.9-4.2-4.1-5.1-4.4c-0.7-0.2-1.5-0.4-2.4-0.6c-0.4-0.1-0.7-0.2-1.1-0.2
		c-0.1-0.1-0.2-0.2-0.3-0.2c-1-0.4-1.9-1.6-2.4-2.9c-0.4-1.2-0.3-2.3,0.1-3.1c0.7-1.2,2.3-2.1,3.9-2.2c0.6,0,1.7,0,2.3,0.9
		c0.6,0.8,0.7,1.6,0.3,2.2c-0.3,0.5-0.9,0.7-1.1,0.7c-0.5-0.1-0.9,0.2-1,0.7c-0.1,0.4,0.2,0.9,0.7,1c1,0.2,2.1-0.4,2.8-1.4
		c0.5-0.8,0.6-1.8,0.3-2.7l5.8,20.2L365.1,261.5z M403.7,250.4l-18.5,5.3l-5.6-19.4c0.3,0.6,0.8,1.1,1.5,1.4
		c1.1,0.5,2.4,0.4,3.1-0.3c0.3-0.3,0.4-0.8,0-1.2c-0.3-0.3-0.8-0.4-1.2,0c-0.1,0.1-0.7,0.3-1.3,0c-0.7-0.3-1-1-1-2
		c0.1-1.1,0.9-1.7,1.5-2c1.4-0.8,3.2-0.9,4.4-0.2c0.9,0.5,1.5,1.4,1.8,2.6c0.3,1.3,0.1,2.8-0.5,3.7c-0.1,0.1,0,0.2-0.1,0.3
		c-0.3,0.3-0.6,0.6-0.9,0.9c-0.7,0.7-1.3,1.3-1.7,1.8c-0.6,0.7-2.5,3.4-1.9,6.4c0.4,2,1.7,3.6,4,4.9c1,0.6,2.4,0.9,3.9,0.9
		c2,0,4.1-0.6,5.9-1.9c1.9-1.4,4.8-5,3.2-12.4L403.7,250.4z M396.2,250.2c-2.5,1.9-6.1,1.9-8,0.9c-1.8-1-2.9-2.3-3.2-3.8
		c-0.4-1.9,0.6-3.9,1.6-5.1c0.4-0.5,0.9-1,1.6-1.6c0.5-0.5,1.1-1.1,1.7-1.7c0,0,0,0,0.1,0c1.2-0.1,3.3,1,3.9,2.8
		c0.3,0.9,0.2,1.8-0.1,2.3c-0.2,0.3-0.5,0.5-0.9,0.6c-0.5,0.1-0.7,0-0.8-0.1c-0.1-0.1-0.1-0.2-0.1-0.2c0-0.5-0.3-0.9-0.7-0.9
		c-0.4,0-0.9,0.3-0.9,0.7c0,0.1-0.1,1,0.6,1.6c0.4,0.4,0.9,0.6,1.6,0.6c0.2,0,0.4,0,0.6-0.1c0.9-0.1,1.6-0.6,2.1-1.4
		c0.4-0.7,0.8-1.8,0.3-3.7c-0.6-2.2-2.5-3.5-4.2-3.9c0.8-1,1.5-2,1.9-3.2c0.7-2,0.6-4-0.3-5.6c-0.2-0.3-0.4-0.6-0.6-0.8
		c0.1,0.1,0.2,0.2,0.4,0.3c2.2,1.6,4.5,4,6.1,10.8C400.3,245.5,398.2,248.7,396.2,250.2z M394.5,218.6l4.4,15.3
		c-1.6-3.9-3.5-5.8-5.4-7.1c-2.4-1.7-3.6-3.9-3.6-4l-0.3-0.7l-0.1,0.1c-0.5-1-1.3-2.7-1.3-4c0-1.2,0.3-2.2,0.9-2.7
		c0.5-0.4,1.3-0.6,2.3-0.3c1.4,0.3,1.7,1.6,1.6,2.3c0,0.6-0.3,1.3-1,1.3c-0.3,0-0.6-0.1-0.7-0.4l-0.1-0.8l0.1,0.8
		c0.5,0,0.8-0.4,0.8-0.9c0-0.5-0.4-0.8-0.9-0.8c-0.9,0.1-1.6,0.9-1.5,1.9c0.1,0.9,0.9,1.9,2.5,1.8
		C393.3,220.2,394.1,219.6,394.5,218.6z M393.2,214c-0.4-0.3-0.8-0.5-1.4-0.6c-0.4-0.1-0.9-0.1-1.3-0.1c0.4-1.6,0.7-4.6-1.5-5.7
		c-1.1-0.6-2.3-0.5-3.2,0.1c-0.3,0.2-0.5,0.5-0.6,0.8c-0.1-0.3-0.2-0.5-0.3-0.7c-0.5-0.9-1.2-1.5-1.9-1.7l7.3-2.1L393.2,214z
		 M389.6,202c0,0,0-0.1,0-0.1l0.1,0.5l-0.7,0.2C389.3,202.4,389.5,202.2,389.6,202z M384.5,193.6l-0.7-0.7c-1.3-1.2-1.5-3.3-1-4.5
		c0.1-0.3,0.4-0.7,0.8-0.7c0.4,0,0.7,0.3,0.9,0.7c0.2,0.5,0.1,0.9,0.1,1c-0.3,0.3-0.3,0.9,0,1.2c0.3,0.3,0.9,0.3,1.2,0
		c0.2-0.2,0.3-0.5,0.4-0.8l2.3,7.8C387.5,196.4,386.1,195.1,384.5,193.6z"/>
	<path class="st1" d="M421.3,112.3l-0.3-0.1l-6,13.4l0.3,0.1l-7.2,16.2l-0.1,0c-1.6,3.6-10.3,2.5-14.3,11.6c-2.8,6.2-1,13,3.8,15.2
		l0,0c4.9,2.2,11.1-1.1,13.9-7.3c0.7-1.6,1.1-3,1.2-4.4l0,0v0c0.8-6.6-3.6-11-2.2-14l-0.1,0l7.2-16.2l0.3,0.1l5.9-13.4l-1.3-0.6
		L421.3,112.3z M409.2,148c0.2,0.2,0.3,0.4,0.4,0.7c0.1,0.3,0.2,0.5,0.3,0.8l0,0l-1.1-0.5L409.2,148z M398.2,158.8l0.5-1.1l1.1,0.5
		l-0.5,1.1L398.2,158.8z M399,159.9l-0.5,1.1l-1.1-0.5l0.5-1.1L399,159.9z M398.9,157.1l0.5-1.1l1.1,0.5l-0.5,1.1L398.9,157.1z
		 M400.4,158.5l1.1,0.5l-0.5,1.1l-1.1-0.5L400.4,158.5z M400.7,157.8l0.5-1.1l1.1,0.5l-0.5,1.1L400.7,157.8z M403.1,155.5l-0.5,1.1
		l-1.1-0.5l0.5-1.1L403.1,155.5z M402.2,154.4l0.5-1.1l1.1,0.5l-0.5,1.1L402.2,154.4z M402.1,159.2l1.1,0.5l-0.5,1.1l-1.1-0.5
		L402.1,159.2z M402.4,158.6l0.5-1.1l1.1,0.5l-0.5,1.1L402.4,158.6z M403.2,156.9l0.5-1.1l1.1,0.5l-0.5,1.1L403.2,156.9z
		 M405.6,154.5l-0.5,1.1l-1.1-0.5l0.5-1.1L405.6,154.5z M404.7,153.4l0.5-1.1l1.1,0.5l-0.5,1.1L404.7,153.4z M404.7,158.3l1.1,0.5
		l-0.5,1.1l-1.1-0.5L404.7,158.3z M404.9,157.7l0.5-1.1l1.1,0.5l-0.5,1.1L404.9,157.7z M405.7,155.9l0.5-1.1l1.1,0.5l-0.5,1.1
		L405.7,155.9z M406.5,154.2l0.5-1.1l1.1,0.5l-0.5,1.1L406.5,154.2z M407.3,152.4l0.5-1.1l1.1,0.5l-0.5,1.1L407.3,152.4z
		 M407.4,150.4l-1.1-0.5l0.5-1.1l1.1,0.5L407.4,150.4z M407.1,151l-0.5,1.1l-1.1-0.5l0.5-1.1L407.1,151z M405.7,149.6l-1.1-0.5
		l0.5-1.1l1.1,0.5L405.7,149.6z M405.4,150.3l-0.5,1.1l-1.1-0.5l0.5-1.1L405.4,150.3z M404.6,152l-0.5,1.1l-1.1-0.5l0.5-1.1
		L404.6,152z M403.1,150.6l-1.1-0.5l0.5-1.1l1.1,0.5L403.1,150.6z M402.9,151.2l-0.5,1.1l-1.1-0.5l0.5-1.1L402.9,151.2z M402.1,153
		l-0.5,1.1l-1.1-0.5l0.5-1.1L402.1,153z M401.3,154.7l-0.5,1.1l-1.1-0.5l0.5-1.1L401.3,154.7z M399.9,153.3l-1.1-0.5l0.5-1.1
		l1.1,0.5L399.9,153.3z M399.6,153.9l-0.5,1.1l-1.1-0.5l0.5-1.1L399.6,153.9z M398.8,155.7l-0.5,1.1l-1.1-0.5l0.5-1.1L398.8,155.7z
		 M398,157.4l-0.5,1.1l-1.1-0.5l0.5-1.1L398,157.4z M397.3,159.2l-0.5,1.1l-1.1-0.5l0.5-1.1L397.3,159.2z M396.5,160.9L396,162
		l-1.1-0.5l0.5-1.1L396.5,160.9z M396.3,162.9l1.1,0.5l-0.5,1.1l-1.1-0.5L396.3,162.9z M396.6,162.3l0.5-1.1l1.1,0.5l-0.5,1.1
		L396.6,162.3z M398.1,163.7l1.1,0.5l-0.5,1.1l-1.1-0.5L398.1,163.7z M398.4,163.1l0.5-1.1l1.1,0.5l-0.5,1.1L398.4,163.1z
		 M399.1,161.3l0.5-1.1l1.1,0.5l-0.5,1.1L399.1,161.3z M400.6,162.7l1.1,0.5l-0.5,1.1l-1.1-0.5L400.6,162.7z M400.9,162.1l0.5-1.1
		l1.1,0.5l-0.5,1.1L400.9,162.1z M402.3,163.5l1.1,0.5l-0.5,1.1l-1.1-0.5L402.3,163.5z M402.6,162.9l0.5-1.1l1.1,0.5l-0.5,1.1
		L402.6,162.9z M403.4,161.1l0.5-1.1l1.1,0.5l-0.5,1.1L403.4,161.1z M404.8,162.5l1.1,0.5l-0.5,1.1l-1.1-0.5L404.8,162.5z
		 M405.1,161.9l0.5-1.1l1.1,0.5l-0.5,1.1L405.1,161.9z M405.9,160.2l0.5-1.1l1.1,0.5l-0.5,1.1L405.9,160.2z M406.7,158.4l0.5-1.1
		l1.1,0.5l-0.5,1.1L406.7,158.4z M407.4,156.7l0.5-1.1l1.1,0.5l-0.5,1.1L407.4,156.7z M408.2,154.9l0.5-1.1l1.1,0.5l-0.5,1.1
		L408.2,154.9z M409,153.2l0.5-1.1l1.1,0.5l-0.5,1.1L409,153.2z M409.1,151.2l-1.1-0.5l0.5-1.1l1.1,0.5L409.1,151.2z M407.7,146.8
		c0.4,0.2,0.7,0.4,1,0.7l-0.5,1.2l-1.1-0.5L407.7,146.8z M405.9,146.2c0.4,0.1,0.8,0.2,1.2,0.3l-0.6,1.4l-1.1-0.5L405.9,146.2z
		 M403.6,146.6c0.2-0.1,0.5-0.2,0.7-0.3c0.2-0.1,0.5-0.1,0.8-0.2l-0.4,1L403.6,146.6L403.6,146.6z M403.3,147.3l1.1,0.5l-0.5,1.1
		l-1.1-0.5L403.3,147.3z M402.6,147l-0.5,1.1l-0.9-0.4C401.7,147.5,402.2,147.2,402.6,147z M400.8,148.2l1.1,0.5l-0.5,1.1l-1.1-0.5
		L400.8,148.2z M401.1,150.5l-0.5,1.1l-1.1-0.5l0.5-1.1L401.1,150.5z M399.9,148.5l-0.2,0.5l-0.3-0.1
		C399.5,148.8,399.7,148.6,399.9,148.5z M397.8,150.3c0.3-0.3,0.6-0.6,0.9-0.9l0.7,0.3l-0.5,1.1L397.8,150.3L397.8,150.3z
		 M397.5,150.9l1.1,0.5l-0.5,1.1L397,152L397.5,150.9z M396.7,152.7l1.1,0.5l-0.5,1.1l-1.1-0.5L396.7,152.7z M395.9,152.9l-0.3,0.6
		l0,0C395.7,153.3,395.8,153.1,395.9,152.9z M396,154.4l1.1,0.5l-0.5,1.1l-1.1-0.5L396,154.4z M395.2,154.1L395.2,154.1L395.2,154.1
		l-0.4,1C395,154.8,395.1,154.5,395.2,154.1z M395.2,156.2l1.1,0.5l-0.5,1.1l-1.1-0.5L395.2,156.2z M394.1,158.5l0.3-0.6l1.1,0.5
		l-0.5,1.1l-0.9-0.4C394.1,158.9,394.1,158.7,394.1,158.5z M394.2,161.2c-0.1-0.5-0.1-0.9-0.1-1.4l0.7,0.3L394.2,161.2L394.2,161.2z
		 M394.9,163.6c-0.2-0.4-0.3-0.8-0.4-1.2l0.1-0.3l1.1,0.5l-0.5,1.1L394.9,163.6z M396.4,165.8c-0.3-0.3-0.6-0.7-0.9-1l0-0.1l1.1,0.5
		L396.4,165.8z M398,166.9c-0.4-0.2-0.7-0.4-1-0.6l0.4-0.9l1.1,0.5L398,166.9z M399.8,167.6c-0.4-0.1-0.8-0.2-1.2-0.3l0.5-1l1.1,0.5
		L399.8,167.6z M400.4,166.1l-1.1-0.5l0.5-1.1l1.1,0.5L400.4,166.1z M401.9,167.5c-0.5,0.1-0.9,0.1-1.3,0.1l0.3-0.6L401.9,167.5
		L401.9,167.5z M402.2,166.8l-1.1-0.5l0.5-1.1l1.1,0.5L402.2,166.8z M404.3,166.8c-0.4,0.2-0.8,0.4-1.1,0.5l-0.3-0.2l0.5-1.1
		l1.1,0.5L404.3,166.8z M404.7,165.9l-1.1-0.5l0.5-1.1l1.1,0.5L404.7,165.9z M405.3,166.2L405.3,166.2l0.5-1.1l0.7,0.3
		C406.1,165.6,405.7,165.9,405.3,166.2z M407.4,164.4c-0.1,0.1-0.3,0.3-0.4,0.4l-0.9-0.4l0.5-1.1l1.1,0.5L407.4,164.4z M408,163.2
		l-1.1-0.5l0.5-1.1l1.1,0.5L408,163.2z M408.7,161.4l-1.1-0.5l0.5-1.1l1.1,0.5L408.7,161.4z M409.9,160.6c-0.1,0.3-0.3,0.6-0.5,1
		L409.9,160.6L409.9,160.6C409.9,160.6,409.9,160.6,409.9,160.6z M409.5,159.7l-1.1-0.5l0.5-1.1l1.1,0.5L409.5,159.7z M410.2,160
		L410.2,160l0.2-0.6C410.3,159.6,410.3,159.8,410.2,160z M410.3,157.9l-1.1-0.5l0.5-1.1l1.1,0.5L410.3,157.9z M411.1,156.2
		L411.1,156.2l-1.1-0.5l0.5-1.1l0.7,0.3C411.1,155.3,411.1,155.7,411.1,156.2z M411,153.4c0,0.2,0.1,0.5,0.1,0.7l-0.3-0.2L411,153.4
		z M410.2,150.4c0.2,0.5,0.3,1,0.4,1.5l-0.9-0.4L410.2,150.4z"/>
	<path class="st1" d="M391.6,112.8c10.8,6.3,21.7,7.9,24.3,3.4c1.2-2.1,0.4-5-1.9-8.3c-1.1,0.5-2.5,1-4,1.4c0.5,0.8,1.4,2.5,0.5,4
		c-1.3,2.1-4.1,1.7-4.1,1.7s1.9-1.1,2.5-2.2c0.5-0.9-0.5-2.4-0.8-3c-2.1,0.6-3.9,1.2-4.3,1.8c-1.6,2.3-6.7,1.6-11.1-1
		c-4.3-2.5-6.4-6.1-5-8.5c0.2-0.4,0.6-0.9,1.3-1.2c-1-3.2-0.7-6.7-0.2-9.5c-5.9-1.5-10.6-1-12.2,1.7
		C374.1,97.7,380.8,106.5,391.6,112.8z M378,93.5c0.3-0.5,0.7-0.9,1.1-1.2c0,0-0.1,0.1-0.1,0.1c-2.8,4.5,3.2,13.2,13.3,19.5
		c2.1,1.3,4.2,2.4,6.2,3.3c-2.1-0.9-4.3-1.9-6.5-3.2C381.9,106.1,375.5,97.8,378,93.5z"/>
	<path class="st1" d="M419.2,106.4c1.3,0.1,1.9,2.4,2.6,1.8c0.7-0.5-0.2-2.3-0.2-2.3s0.6-0.4,1.5-1.1c0.9-0.7,2.1-1.8,3-3
		c0.9-1.2,1.1-2.2,1-3.5c-0.1-1.3-0.2-1.9-0.7-2.1c-0.5-0.2-0.9,0.7-0.9,0.7s-0.3-0.1-0.9-0.4c-0.6-0.2-2.9-0.7-3.6-0.7
		c-0.6,0-0.9,1.5-0.3,1.5c0.6,0.1,4,0.9,4.2,1.5c0.2,0.6-0.3,2-2.3,3.7c-2,1.7-2.6,1.6-5.3,2c-2.7,0.4-4.3,0.8-4.2,1.2
		C413.1,106.2,417.9,106.3,419.2,106.4z"/>
	<path class="st1" d="M407.9,90.1c-1.8-1-3.5-1.9-5.2-2.5c1.4,2,3.7,4.9,6,6.9c2.5,1,4.9,1.5,6.7,1.5C413.5,94,411,92,407.9,90.1z"
		/>
	<path class="st1" d="M392.8,81.2c-0.2,0.3-0.3,0.7-0.3,1l0,0c0,0,0,0.1,0,0.1c0.9-0.1,1.4,0,1.5,0.1c0,0.2-0.5,0.6-1.6,1.1
		c-0.1,1.4-0.2,2.6-0.7,4.1c-0.5,1.5-3,8.9-0.3,14.5c-1,0-1.8,0.3-2.1,0.9c-0.9,1.5,1.1,4.3,4.4,6.2c3.3,1.9,6.7,2.3,7.6,0.8
		c0.2-0.4,0.2-0.8,0.1-1.3c-3.6,0.1-6.3-3-5.5-2.6c0.8,0.5,3.2,1.7,5.1,1.6c6.2-0.3,11.4-6.1,12.5-7.3c1.4-1.5,2.8-2.3,4.3-3.4
		l-0.1,0c0.3-0.2,0.6-0.5,0.8-0.8c0.1-0.2,0.2-0.5,0.3-0.8c-2.2,2.1-8.8,0.8-15.4-3l0,0c-6.9-4-10.1-8.9-9.3-10.4
		c0.6-1,3.7-1.1,7.8,0.3c-1.5-1.1-2.7-2-3.5-2.6C395.7,79.4,393.6,79.9,392.8,81.2z M406,102.9c2.3-1.8,4.2-3.7,4.5-4.1
		c0.6-0.7,1.4-0.1,0.9,0.5c0,0-2.4,2.8-5.7,4.7c-3.3,1.9-5,1.6-5,1.6S403.7,104.6,406,102.9z M398.7,99.5c0.8-1.7,2.6-5,2.6-5
		c0.6-1.1,1.6-0.6,1,0.6c-0.5,1-1.9,3.2-3.1,5.2c-1.3,2.2-2.7,4.1-2.7,4.1S397.6,101.9,398.7,99.5z M394.3,89.3
		c-0.2,0.5-0.9,3.1-1.3,5.9c-0.4,2.8,0.1,6,0.1,6s-1-1.3-1-5.1c0.1-3.8,1.3-7.3,1.3-7.3C393.7,88,394.6,88.5,394.3,89.3z"/>
	<path class="st1" d="M406.1,87.5c4.5,2.7,8,5.9,9.5,8.6c1.6,0,2.7-0.5,3.3-1.4c0,0,0,0,0-0.1c-0.3-2.5-3.1-6-7.4-9.1
		c-1.2,1.3-2.8,1.7-4.4,0.8c-0.9-0.7-1.8-1.4-2.6-2.1c-0.9,0.4-1.9,0.9-2.5,1.1C403.3,85.9,404.7,86.6,406.1,87.5z"/>
	<path class="st1" d="M368.5,64.9c1.6-0.5,2.6-0.8,2.7-0.8c1.2-0.4,2.4,0.3,2.7,1.5c0.3,1.2-0.3,2.4-1.5,2.7c-0.1,0-1.2,0.4-3,0.9
		c2.1,6.4,6.6,11.8,12.6,14.9c1.7-0.4,3.3-0.7,4.8-1l6.9-19.4l0.4,0.2l0.7-0.2l-0.4-2.3l0.1-0.1c-0.4-0.4-0.8-0.7-1.3-0.9l0,0.1
		l-0.1-0.1c-0.2-0.1-0.4-0.2-0.6-0.2l0.4,0.6l-0.9-0.7c-0.2,0-0.5-0.1-0.8-0.1l1.5,1l-2.7-0.9c-0.2,0-0.4,0.1-0.6,0.1
		c-0.1,0-0.2,0-0.2,0.1l3.5,1l-4.3,0c0-0.2,0-0.4,0-0.6c0-0.1,0-0.1,0-0.2c-6.6,1.9-6.6,2-6.6,2s-5.1-1.8-13.7-2.9
		C368.2,61.4,368.2,63.2,368.5,64.9z M393.4,62.3l-1.3,4c-0.4-0.1-0.7-0.3-1-0.5L393.4,62.3z M393.1,62.2l-2.5,3.4
		c-0.3-0.2-0.6-0.5-0.8-0.8L393.1,62.2z M392.9,61.9l-3.4,2.5c-0.2-0.3-0.4-0.7-0.6-1L392.9,61.9z M392.8,61.6l-4.1,1.3
		c-0.1-0.4-0.2-0.7-0.2-1.1L392.8,61.6z"/>
	<circle class="st1" cx="388.7" cy="148.5" r="3.5"/>
	<path class="st1" d="M321.2,96.6c2.3-0.8,4.7-1.6,7.2-2.4c2.5-0.9,4.9-1.8,7.2-2.6c-0.7-1.2-2.3-3.9-4.1-6.7
		c-0.8-1.2-1.7-2.5-2.5-3.6c-3.3,1-6.4,1.8-9.1,2.6c0.1,1.5,0.2,3.3,0.4,5C320.5,92.1,320.9,95.2,321.2,96.6z"/>
	<path class="st1" d="M319.6,79.4c0,0,0,0.1,0,0.2c2.1-0.6,4.3-1.3,6.7-2.1c-0.2-0.3-0.3-0.4-0.3-0.4s0.2,0.1,0.4,0.4
		c2-0.6,4.1-1.2,6.4-1.9c0.3-0.1,0.6-0.2,0.9-0.3c-0.6-0.2-1-0.3-1-0.3s0.5,0.1,1.4,0.2c2.5-0.7,5-1.5,7.4-2.2
		c-5.9-0.3-12.3,0.6-18.8,2.8c-1.9-5.3-3.6-9.2-4-9c-0.4,0.1,0.8,4.2,2.6,9.5c-4.8,1.8-9.2,4.1-13,6.9c3.2-1.1,6.9-2.2,11.3-3.6
		C319.6,79.5,319.6,79.4,319.6,79.4z"/>
	<path class="st1" d="M332.9,84c1.8,2.1,4,5.3,4.9,6.7c5.3-2,10.2-4,14.4-5.8c-1.1-0.8-4.3-3-7.9-5.1c-1.3-0.7-2.6-1.4-4-1.9
		c-2.2,0.6-4.4,1.3-6.6,2c-1.3,0.4-2.6,0.7-3.8,1.1C331.1,81.9,332.2,83.1,332.9,84z"/>
	<path class="st1" d="M344.4,77.9c4.8,1.8,9,4.9,10.3,5.9c1.8-0.8,3.5-1.6,5-2.3c-1.4,2.5-14.4,8.7-30.8,14.5
		c-16.4,5.8-30.4,9.1-33.1,8c1.7-0.4,3.5-0.8,5.5-1.3c0.4-1.6,1.7-6.7,4.4-11.1c1.1-1.8,2.3-3.5,3.4-4.9c-2.6,0.6-4.7,1.2-6.6,1.6
		c-5,5.1-8.1,10.9-8.8,16.7c-0.3,0-0.5,0.1-0.8,0.2c-1.9,0.7-2.9,2.8-2.3,4.7c0.7,1.9,2.8,2.9,4.7,2.3c0.8-0.3,1.4-0.8,1.9-1.5
		c1.2,1,2.9,1.4,4.5,0.8c1.6-0.6,2.6-1.9,3-3.4c1.2,1.4,3.2,2.1,5.1,1.4c1.6-0.6,2.7-1.9,3-3.5c1.2,1.3,3.2,1.9,5,1.2
		c1.7-0.6,2.8-2.1,3-3.7c1.2,1.2,3.1,1.7,4.8,1.1c2-0.7,3.2-2.7,3.1-4.8c0.2-0.1,0.3-0.1,0.5-0.2l9.3,26.4c1.2,3.3,4.1,4.3,6.2,3.5
		c1.1-0.4,2-1.2,2.4-2.3c0.5-1.2,0.5-2.6-0.1-4.1c-0.2-0.6-0.9-0.9-1.5-0.7c-0.6,0.2-0.9,0.9-0.7,1.5c0.3,0.9,0.4,1.8,0.1,2.4
		c-0.6,1.6-3.3,1.6-4.3-1.1L331.6,99c1.2,1.6,3.3,2.3,5.3,1.6c1.7-0.6,2.9-2.2,3.1-3.9c1.2,1.1,3,1.6,4.7,1c1.8-0.6,3-2.3,3.1-4.1
		c1.2,1,2.9,1.4,4.5,0.9c1.9-0.7,3.1-2.4,3.1-4.3c1.2,1,2.9,1.3,4.4,0.8c1.6-0.6,2.7-1.9,3-3.4c0.8,0.2,1.6,0.3,2.4,0
		c1.9-0.7,2.9-2.8,2.3-4.7c-0.7-1.9-2.8-2.9-4.7-2.3c-0.2,0.1-0.4,0.2-0.7,0.3c-2.8-2.8-6.6-4.9-10.9-6.2c-2.8,0.8-5.7,1.7-8.7,2.6
		C343.1,77.4,343.7,77.6,344.4,77.9z"/>
	<path class="st1" d="M304,101.8c4.4-1.2,9.5-2.7,14.9-4.5c-0.2-1.7-0.5-5.5-0.4-8.3c0-1.4,0.2-3.3,0.5-5.1
		c-3.2,0.9-6.1,1.7-8.6,2.3c-1.1,1.9-2.4,4.3-3.4,6.6C305.4,96.8,304.3,100.5,304,101.8z"/>
	<path class="st1" d="M431.1,202.8c-5.2,0.3-6.2,4.8-6.2,4.8s1.7-0.9,3.3-0.6c1.5,0.3,2.9,2.1,5.7,6.9c1.3,2.3,3.1,3.6,4.7,4.4
		c0.4-0.9,0.9-1.9,1.3-3c-2.1-3.7-5.1-7.7-5.1-7.7s3.4,2,5.6,5.3c0.1,0.1,0.2,0.3,0.3,0.4c0.6-1.5,1.2-3,1.7-4.3
		C439.5,204.4,436,202.5,431.1,202.8z"/>
	<path class="st1" d="M450,199.5c-0.9-1.3-0.3-2.3-0.7-2.2c-0.4,0.1-1.2,0.6-1.5,2.9c-0.1,0.6,0,1.2,0.1,1.8c1.1-0.5,2-1.1,2.7-2
		C450.3,199.8,450.1,199.7,450,199.5z"/>
	<path class="st1" d="M421.1,243c-1.4-1.1-2.3-1.1-2.5-0.6c-0.2,0.4,0.7,1.4,1.2,2.9c0.2,0.7,0.3,1.8,0.6,3.3c3.2-1,5.4-1.6,6.2-1.8
		c-0.4-0.3-0.7-0.5-0.9-0.6C424.6,245.5,422.6,244.1,421.1,243z"/>
	<path class="st1" d="M494,135c0.3-0.1,0.8-0.2,1.4-0.2c0.4-0.7,0.7-1.4,1-2.1C494.8,133.7,494,135,494,135z"/>
	<path class="st1" d="M497.3,110c-2.6,1-2.8,2.1-2.8,2.1s3.4,0.5,7.6,2.6c0.3-1.9,0.6-3.8,0.7-5.6C502,109.2,499.4,109.2,497.3,110z
		"/>
	<path class="st1" d="M487,96c0.4,1.7,0.6,3.5,0.7,5.2c6.4,0,9.4,2.3,11.4,3.7c2,1.4,3.1,3.1,3.6,3.9c0.3-3.3,0.2-6.5-0.1-9.7
		c-4.8-2.9-10.2-4.6-16.1-4.9C486.8,94.8,486.9,95.4,487,96z"/>
	<path class="st1" d="M482.6,134.7c9.8-2.6,12.1-16.6,4.4-21c-1.5,7.3-4.6,14.7-9.2,21.8C479.3,135.4,480.9,135.1,482.6,134.7z"/>
	<path class="st1" d="M480.7,64.1c2.7,0.5,5,0.2,6.9-0.3c-0.7-0.7-1.4-1.5-2.1-2.1c-1.3-0.2-2.6-0.5-3.9-1.1
		c-2.5-1.2-4.6-3.4-6.2-6.2c-2.6-1.3-5.4-2.3-8.2-3C470.2,58.6,474.5,63,480.7,64.1z"/>
</g>
<path class="st2" d="M115.5,176.1c0,0,5.6-1.5,10-7.9c4.3-6.3,4.7-8.8,11.6-11.9c5.4-2.4,8.8-1,8.8-1s-5.6,1.9-9.2,4.8
	c-3.6,2.9-5.5,5.8-5.5,5.8s2.1-1.6,5.3-4c3.2-2.3,6-3.2,6-3.2s-3.4,5-9,9.7C125.6,175,115.5,176.1,115.5,176.1z"/>
<path class="st2" d="M158.5,268.1c0,0-0.1-10.7-9.4-21.4c-9.3-10.7-13.5-12.5-15.8-26.1c-1.8-10.8,2.3-16.1,2.3-16.1
	s0.7,10.8,4.1,18.7c3.4,7.8,7.7,12.4,7.7,12.4s-1.9-4.4-4.6-11.2c-2.7-6.7-2.9-12.2-2.9-12.2s7.3,8.3,13,20.4
	C161.1,249.8,158.5,268.1,158.5,268.1z"/>
</svg>
