<?xml version="1.0" encoding="utf-8"?>
<!-- Generator: Adobe Illustrator 19.1.0, SVG Export Plug-In . SVG Version: 6.00 Build 0)  -->
<svg version="1.1" id="Calque_1" xmlns="http://www.w3.org/2000/svg" xmlns:xlink="http://www.w3.org/1999/xlink" x="0px" y="0px"
	 viewBox="0 0 90 45" style="enable-background:new 0 0 90 45;" xml:space="preserve">
<style type="text/css">
	.st0{fill:#FFFFFB;}
	.st1{fill:#FFEB97;}
	.st2{fill:#FDC400;}
	.st3{fill:#FFD800;}
</style>
<g>
	<g>
		<path class="st0" d="M13.4,7.7c0,0-2-2.9-5.3-3.8c-1.5-0.4-3.9-0.2-5,0.7C2.5,5.2,7.4,6.2,8.7,6.7c1.3,0.6,2.7,0.9,2.7,0.9
			S14.4,9,13.4,7.7z"/>
		<path class="st0" d="M16.2,9.2c0,0,3.7-2.2,8.9-2.6c5.4-0.4,6.2,1.7,6,2.2C30.9,9.2,28,9,24.8,9.4c-3.2,0.4-7,1.3-7.9,1.6
			C16.1,11.4,16.2,9.2,16.2,9.2z"/>
		<path class="st0" d="M14.9,8.6c0,0,3.7-1.1,8.1-0.2c4.5,1,4.5,3.1,4.2,3.4c-0.3,0.4-2.6-0.5-5.3-0.9c-2.7-0.4-6.1-0.5-6.9-0.4
			C14.1,10.5,14.9,8.6,14.9,8.6z"/>
		<path class="st1" d="M17.9,8.9c0,0,1.2-0.4,2.4-0.4c1.2,0,3,0.6,2.9,0.7c-0.1,0-2.5-0.1-3.5,0c-1.1,0.1-2,0.3-2,0.3L17.9,8.9z"/>
		<path class="st1" d="M18.1,8.5c0,0,0.5-0.6,2.3-1c1.8-0.4,4.2,0,4,0.1c-0.2,0.1-2.1,0.4-3.6,0.8c-1.5,0.5-2.8,1-2.8,1L18.1,8.5z"
			/>
		<path class="st0" d="M15.7,8.7c0,0-2.4-1.8-6.3-3c-3.9-1.2-10.1,1-8.1,1.8c1.2,0.5,5.3-0.1,9.5,2.7c3,2,5.4,0.4,5.4,0.4
			S20.3,9.2,15.7,8.7z"/>
		<path class="st0" d="M14.8,9.8c0,0-3.4-1.8-8.4-1.8c-5.2,0.1-6.2,2.1-6,2.6c0.1,0.4,3,0,6.1,0.1c3,0.1,6.8-0.2,7.6,0
			C14.8,11.1,14.8,9.8,14.8,9.8z"/>
		<path class="st1" d="M14.4,9.8c0,0,2.1-3.3,5.1-5.1c3-1.8,6.5-2.1,7.5-1.6c2.7,1.2-2.6,2.5-6.3,4.4C16.8,9.4,14.4,9.8,14.4,9.8z"
			/>
		<path class="st1" d="M12.4,9.6c0,0,1.2-4.1,2.9-6.5c1.8-2.5,4.4-2.5,4.7-0.3c0.3,2.2-1.2,5.5-3,7.1C15.2,11.5,12.4,9.6,12.4,9.6z"
			/>
		<path class="st0" d="M12.4,8.7c0,0-6.2,0.8-7.9,3.7c-1.8,3.1,4,0.7,6.1-0.3c2-0.9,4.9-2.3,4.2-2.9C14.2,8.5,12.4,8.7,12.4,8.7z"/>
		<path class="st0" d="M13.1,10.6c0,0,0.3,1.9,3.5,3.3c2,0.8,4.7,0.8,4.9-0.3c0.2-1.2-2.2-3.1-3.5-3.7C16.8,9.2,13.6,8.4,13.1,10.6z
			"/>
		<path class="st1" d="M12.7,8.8c0,0-1.2-0.3-2.9-0.4C8.1,8.2,6.5,8.4,6.7,8.5c0.1,0.1,2,0.2,3.4,0.5c1.4,0.3,2.6,0.7,2.6,0.7
			L12.7,8.8z"/>
		<path class="st1" d="M12.4,7.6c0,0-1.2-0.3-2.9-0.4C7.8,7,6.2,7.3,6.4,7.3c0.1,0.1,2.5,0.2,4.7,1.3c1.3,0.6,1.3-0.1,1.3-0.1
			L12.4,7.6z"/>
		<path class="st1" d="M13.7,7.4c0,0-1-0.7-2.5-1.3C9.7,5.4,8,5.5,8.1,5.6c0.1,0.2,1.8,0.7,3,1.5c1.2,0.8,2.1,1.7,2.1,1.7L13.7,7.4z
			"/>
		<path class="st2" d="M12.9,8.4c0,0.1,0.2,0.1,0.3,0.1c0.1,0,0.2-0.2,0.2-0.3c0-0.1-0.2-0.1-0.3-0.1C13,8.2,12.9,8.3,12.9,8.4z"/>
		<path class="st0" d="M21.5,4.4c0,0,1.9-0.9,3.4-1.1C26.3,3,28.1,3,28.7,3.8c0.3,0.3-1.2,1.1-2.8,1.8c-1.6,0.6-5.3,1.9-5.3,1.9
			s-0.1-0.1,1-0.8C22.9,5.8,24,5.2,24,5.2s-1,0-2.6,0.6c-1.6,0.7-1.6,0.7-2.5,1.1c-0.3,0.1-1.3,0.5-1.3,0.5s-1.6,1.2-0.3,0
			c2-1.8,2.2-1.9,2.2-1.9S20.4,5,21.5,4.4z"/>
		<path class="st0" d="M9.9,0.9c0,0,1.6-0.6,2.2-0.6c0.5,0,2.3,0.9,3,2.5c0.7,1.6,0.5,3.2,0.5,3.2s-0.3-0.8-1-2
			c-0.4-0.7-2-1.8-2.4-1.8c-0.4,0-1.4,0-1.2,0.2c0.2,0.2,0.9,2,1.2,2.8c0.3,0.8,0.2,0.9,0.2,0.9s-1.1-1.5-1.7-2.5
			C9.9,2.8,9.3,1.3,9.9,0.9z"/>
		<path class="st0" d="M10.2,2.5c0,0,1.5,2.8,1.9,3.5c0.5,0.6,1.1,0.7,1.1,0.7S13.2,4.7,13,3.7C12.5,1.9,12,1.6,12,1.6L10.2,2.5z"/>
		<path class="st0" d="M16.2,5.1c0,0,0.5-2.1,3-4.1c1-0.8,2-1,2.3-1c0.3,0,1.5,0.1,1.6,0.3c0.1,0.2-0.1,1.3-1.3,2.6
			c-1.2,1.3-2.3,1.9-2.3,1.9s0.8-0.6,1.1-1.1c0.4-0.8,0.5-1.3,0.2-1.2c-0.4,0.1-1.8,0.7-2.3,1C17.1,4.3,16.2,5.1,16.2,5.1z"/>
		<path class="st0" d="M10.7,7.3c0,0-2.5-0.7-4.3-0.7c-1.8,0-1.2-1.1,0-1.1C7.6,5.5,10.7,7.3,10.7,7.3z"/>
		<g>
			<path class="st3" d="M11.3,9.2c0,0,0.5-1.4,1.9-2c1.7-0.7,3.3-0.4,4.5-0.1c1.2,0.3,1.9,1.6,1.9,1.6S19,9.5,15.3,9.9
				C12.9,10.2,11.5,9.7,11.3,9.2z"/>
			<path class="st2" d="M11.3,9.2c0.1-0.2,0.2-0.4,0.3-0.5c0.1-0.1,0.2-0.2,0.3-0.1c0.1,0,0.1,0.1,0.3,0.1c0,0,0,0.1,0,0.1
				c0.1,0,0.3-0.2,0.4-0.2c0.1,0,0.2,0.2,0.2,0.3c0.1,0,0.1-0.1,0.2-0.1c0,0,0.1,0,0.2,0c0.2,0,0.2-0.1,0.4-0.2
				c0.2-0.1,0.2,0.1,0.4,0.1c0.1,0,0.2-0.1,0.2-0.1c0.1,0,0.1,0,0.2,0c0.2,0,0.2,0,0.3-0.1c0.1-0.1,0.2-0.2,0.4-0.1
				c0.1,0.1,0.1,0.2,0.2,0.3C15.3,9,15.5,9,15.5,9.2c0.2-0.2,0.3,0.2,0.3,0.3c0.1,0,0.3,0,0.4,0c0.2,0,0.2,0,0.3-0.2
				c0-0.2,0-0.3,0.2-0.4c0.1,0,0.1,0,0.2,0c0.1,0,0.1-0.1,0.2-0.1c0.3-0.1,0.5,0.4,0.7,0.2C18,8.7,18,8.6,18.1,8.5
				c0.1-0.1,0.2,0.1,0.3,0.1c0.1-0.1,0.2,0,0.3,0c0.1,0,0.2-0.1,0.3,0c0.2,0.1,0.2,0.3,0.1,0.5c-0.1,0.1-0.4,0.2-0.6,0.2
				c-0.2,0.1-0.4,0.1-0.6,0.2c-0.4,0.1-0.8,0.2-1.2,0.3c-0.4,0-0.8,0.2-1.2,0.2C14.6,10,13.9,10,13.1,10C12.6,9.9,11.5,9.8,11.3,9.2
				L11.3,9.2z"/>
			<path class="st2" d="M15.7,9.3c0,0.1,0.2,0.1,0.3,0.1c0.1,0,0.2-0.2,0.2-0.3c0-0.1-0.2-0.1-0.3-0.1C15.7,9,15.6,9.2,15.7,9.3z"/>
			<path class="st2" d="M16.1,8.8c0,0.1,0.2,0.1,0.3,0.1c0.1,0,0.2-0.2,0.2-0.3c0-0.1-0.2-0.1-0.3-0.1C16.1,8.5,16,8.7,16.1,8.8z"/>
			<path class="st2" d="M15.3,8.6c0,0.1,0.2,0.1,0.3,0.1c0.1,0,0.2-0.2,0.2-0.3c0-0.1-0.2-0.1-0.3-0.1C15.3,8.4,15.2,8.5,15.3,8.6z"
				/>
			<path class="st2" d="M12.6,8.4c0,0.1,0.2,0.1,0.3,0.1c0.1,0,0.2-0.2,0.2-0.3c0-0.1-0.2-0.1-0.3-0.1C12.6,8.2,12.6,8.3,12.6,8.4z"
				/>
			<path class="st2" d="M13.4,8.7c0,0.1,0.2,0.1,0.3,0.1c0.1,0,0.2-0.2,0.2-0.3c0-0.1-0.2-0.1-0.3-0.1C13.4,8.4,13.4,8.6,13.4,8.7z"
				/>
		</g>
	</g>
	<path class="st1" d="M17,15.2c0,0-0.3-1.1-0.6-1.6c-0.3-0.5-0.5-1-0.5-1s1.5,0.8,2.1,1.6c0.6,0.8,0.6,1.2,0.6,1.2L17,15.2z"/>
</g>
<path class="st2" d="M77.2,44.8c0,0-8-2.9-14.8-12.5c-6.8-9.6-7.6-13.2-17.5-18.4c-7.8-4.1-12.4-2.5-12.4-2.5s8,3.3,13.4,7.9
	c5.4,4.6,8.3,8.9,8.3,8.9s-3.1-2.6-7.8-6.3c-4.7-3.7-8.8-5.3-8.8-5.3s5.3,7.6,13.6,14.9C63.1,42,77.2,44.8,77.2,44.8z"/>
<path class="st2" d="M90.1,14c0,0-8.3,1.7-18.9-3C60.5,6.4,57.9,3.7,46.9,4.4c-8.7,0.5-11.8,4.2-11.8,4.2s8.5-1.3,15.4-0.2
	c6.9,1.1,11.6,3.3,11.6,3.3s-3.9-0.6-9.8-1.4c-5.9-0.7-10.1,0-10.1,0s8.4,3.7,19.2,5.7C76.7,18.8,90.1,14,90.1,14z"/>
</svg>
