<?xml version="1.0" encoding="utf-8"?>
<!-- Generator: Adobe Illustrator 19.1.0, SVG Export Plug-In . SVG Version: 6.00 Build 0)  -->
<svg version="1.1" id="Calque_1" xmlns="http://www.w3.org/2000/svg" xmlns:xlink="http://www.w3.org/1999/xlink" x="0px" y="0px"
	 viewBox="0 0 44 49" style="enable-background:new 0 0 44 49;" xml:space="preserve">
<style type="text/css">
	.st0{fill:#FDC400;}
	.st1{fill:#63B349;}
	.st2{fill:#FFEB97;}
	.st3{fill:#F5C2BB;}
	.st4{fill:#F1957B;}
	.st5{fill:#FFFFFF;}
</style>
<g>
	<g>
		<path class="st1" d="M20.5,26.5c-2.3-0.2-3.9-1.4-1.3-2.7s4.9,1,4.9,1C25,26,22.7,26.7,20.5,26.5z"/>
		<path class="st2" d="M18.9,17.4c-1,0.2-3.1-1-2-1.9c1-1,2.5-0.1,2.5-0.1C19.9,15.8,19.9,17.2,18.9,17.4z"/>
		<path class="st3" d="M38,37.6c-1.7,3.5-4.8,8.3-6.8,8.7c-3.4,0.7-1.4-5.1-1.4-5.1s-2.3,3.2-4.3,2.3c-2.4-1,0.3-4.8,0.3-4.8
			s-5,2.7-7,0.5c-1.8-1.9,4.8-5.6,8.9-8.5c9.5-6.8,10.8-4.3,12.2-2.8C41.3,29.2,40.6,32.3,38,37.6z"/>
		<path class="st4" d="M29.4,34.5c-3,2.3-6,2.8-3.7-1.6s7-4.5,7-4.5C34.8,28.7,32.4,32.3,29.4,34.5z"/>
		<g>
			<path class="st4" d="M15,35c1.5,0.9,3.2,1.4,4.9,1.3c0,0,0.1-0.1,0.2-0.2c1.7-0.6,3.9-2.6,6.6-4.4c4.6-3.3,6.1-4.3,6.1-4.3
				S31.4,28,25.9,31c-1.5,0.9-2.8,1.5-3.9,2c-0.7-0.1-1.9-0.3-3.5-1.2c-0.6-0.4-1-0.8-1.1-1.2c0.1-0.1,0.1-0.2,0.1-0.2
				c0.1-0.8,1.1-1.4,3.2-2.4c2.1-1,6.1-3,6.1-3s-0.9,0.3-5.6,2c-1.9,0.7-3.5,0.9-4.5,0.8c-0.8-0.2-1.8-0.5-2.5-1.3
				c-0.6-0.7-0.5-1.2-0.2-1.6c0.7-0.4,1.9-0.6,3.7-0.9c2.7-0.3,7.9-1.3,7.9-1.3s-1,0.1-6.9,0.4c-4.3,0.2-6.2-0.9-6.9-1.4
				c-0.2-0.2-0.2-0.3-0.2-0.5v-0.1c0-0.1,0-0.2,0-0.2v-0.1c0-0.2,0.1-0.2,0.2-0.4c0-0.1,0-0.1,0.1-0.2c0.1-0.1,0.2-0.2,0.2-0.2l0,0
				c0.2-0.2,0.5-0.3,0.8-0.5c1.1-0.6,1.4-0.6,1.6-0.6c-1.5-0.5-2.3-1.4-1.3-1.8C13.7,17,14,17,14.4,17c-0.2-0.1-0.3-0.2-0.5-0.2
				c-1.7-1.2-1-2.4,1.9-2.2c4.3,0.4,8.5,1.9,9.7,2.4c0.3,0.1,0.6,0.2,1,0.3c-8.9-4-22.4-6.7-25.8-5.1c-1.4,0.6-0.5,1.9,1.4,4.1
				c0.2,0,0.3-0.1,0.6-0.2c0.7-0.2,1.4-0.3,2.1-0.4c-1.3-0.5-1.7-1.4,0.2-2.3c2.5-1.3,4.8,1,4.8,1l0,0l0,0c1.1-1,2.6-0.1,2.6-0.1
				c0.6,0.5,0.6,1.9-0.5,2C11,16.5,10,16,9.6,15.4c-0.3,0.2-0.9,0.5-1.6,0.6c2.4,0.6,3.9,2,3.9,2c1.1,1.4-1.9,2.3-5.3,2.3
				c0,0.3-0.1,0.6-0.2,1c0.2,0.2,0.4,0.6,0.6,0.8c0.5,0.1,0.8,0.2,0.8,0.2c0.4,0.2,0.6,0.9,0.3,1.4c0.3,0.6,0.7,1.2,1,1.9
				c0.6,0.1,1,0.3,1,0.3c0.5,0.4,0.6,1.4,0,1.9c0.3,0.8,0.6,1.5,0.9,2.3c0.3,0.9,0.8,1.8,1.4,2.6c1.3-0.7,2.7,0,2.7,0
				C15.8,33.3,15.8,34.4,15,35z M10,24.8c-0.7-0.8-1.1-2-0.2-2.3c1-0.2,3.9,1.2,3.9,1.2S10.8,25.6,10,24.8z"/>
			<path class="st4" d="M27.4,49c4.5-0.2,7.7-4.9,9-7.5c0.1-0.2,1.2-2.3,1.4-2.5c-0.1-0.1-0.2-0.2-0.3-0.3c-1.8,3.3-4.5,7.2-6.3,7.6
				c-1,0.2-1.5-0.2-1.8-0.8c-0.3-1-0.1-2,0.9-3.9c1.1-2,3.1-6,3.1-6s-0.5,0.8-3.1,4.9c-0.5,0.7-0.9,1.3-1.4,1.8
				c-0.9,0.8-2.2,1.7-3.3,1.2c-0.9-0.4-1-1.1-1-1.9c0.2-1.2,0.6-1.6,2-3.2c1.5-1.8,4.3-5.2,4.3-5.2s-0.6,0.6-4.2,4
				c-1.7,1.7-3.1,2.3-4.2,2.7c-1.4,0.2-2.8,0.2-3.7-0.7c-0.6-0.7-0.2-1.6,0.7-2.6c-0.7,0.6-1.5,1.1-2.3,1.8
				c-2.2,1.9,2.6,7.7,6.8,9.9c0.7-1,3-1.9,3-1.9S27.4,48,27.4,49z M22,45.8c-1.1-0.4-3.2-2.5-2.7-3.7c0.5-1.2,4.2-1.3,4.2-1.3
				S23.1,46.1,22,45.8z"/>
		</g>
		<path class="st4" d="M42.1,27.3c0.1-0.1,0.1-0.2,0.2-0.3c3.8-10.7-4-22.2-11.4-26.7c-3.6-2.3,0,6.9-1.6,16.3
			c0,0.1,0.2,0.1,0.2,0.2c0.6,0.4,2.3,1.3,2.8,1.7c3.5,2.3,5.7,4.2,7.2,5.8c-0.4-1-1.7-4-2.7-6c-0.5-0.8-1-1.5-1.7-2.1
			c-1.1-1-1.9-1-2.3-0.7c-0.4,0.3-0.6,0.9-0.3,1.3c0.1,0.2,0.2,0.2,0.5,0.3c0.2,0.1,0.3,0.1,0.4,0c0.2-0.2,0.3-0.5,0.3-0.5l0.6,0.2
			c-0.1,0-0.2,0.5-0.6,0.8c-0.2,0.2-0.5,0.2-0.8,0.1c-0.4-0.1-0.6-0.3-0.8-0.6c-0.4-0.6-0.2-1.6,0.6-2c0.7-0.4,1.8-0.3,3,0.8
			c0.6,0.6,1.3,1.4,1.8,2.2c0.9,1.3,1.4,2.7,1.9,3.9c0.2-0.8,0.8-0.9,1.4-0.5c-0.1-1-0.6-3.7-1.6-6.1c-0.3-0.9-0.8-1.7-1.3-2.3
			c-1-1.1-1.8-1.2-2.2-1c-0.5,0.2-0.7,0.8-0.6,1.2c0.1,0.2,0.2,0.3,0.4,0.4c0.2,0.1,0.3,0,0.4,0c0.2-0.1,0.3-0.4,0.3-0.4l0.5,0.2
			c0,0.1-0.2,0.5-0.6,0.7c-0.2,0.1-0.5,0.1-0.8-0.1c-0.3-0.2-0.6-0.4-0.7-0.7c-0.3-0.8,0.1-1.6,0.8-1.9c0.7-0.3,1.8-0.1,2.8,1.2
			c0.6,0.7,1,1.5,1.4,2.4c0.9,2.1,1.6,5.7,2,7.8l0,0c0.2,1,0.3,1.9,0.5,3.5C42.1,26.7,42.1,27,42.1,27.3z"/>
		<path class="st3" d="M32.7,46.4c0.8-0.7,4.3-4.1,6.8-9.8C40,35.3,41,32,41,32c0.8-2.7,1-4.5,1-4.5s-8.6-8.1-15.5-10.3
			c-0.3-0.2-0.6-0.2-1-0.3c-1.1-0.5-5.4-2-9.7-2.4c-2.9-0.2-3.6,1-1.9,2.2c0.2,0.1,0.3,0.2,0.5,0.2c-0.4,0-0.8,0.1-1.1,0.2
			c-1.1,0.3-0.2,1.3,1.3,1.8c-0.1,0-0.5,0-1.6,0.6c-0.3,0.2-0.6,0.3-0.8,0.5l0,0c-0.1,0.1-0.2,0.2-0.2,0.2c0,0.1-0.1,0.1-0.1,0.2
			c-0.1,0.2-0.2,0.2-0.2,0.4v0.1c0,0.1,0,0.2,0,0.2v0.1c0,0.2,0.1,0.3,0.2,0.5c0.7,0.6,2.6,1.7,6.9,1.4c5.8-0.3,6.9-0.4,6.9-0.4
			s-5.2,0.9-7.9,1.3c-1.8,0.2-3,0.5-3.7,0.9l0,0c-0.1,0.1-0.1,0.2-0.2,0.2v0.1c-0.1,0.1-0.1,0.2-0.1,0.2c-0.1,0.1,0,0.2,0,0.2
			c0.1,0.1,0.1,0.2,0.1,0.2c0.1,0.2,0.2,0.3,0.3,0.6c0.2,0.2,0.3,0.4,0.6,0.6c0.1,0.1,0.2,0.1,0.3,0.2c0.1,0,0.2,0.1,0.3,0.2
			c0.2,0.1,0.3,0.1,0.5,0.2c0.1,0.1,0.1,0.1,0.2,0.1c0.2,0.1,0.4,0.1,0.6,0.2c1,0.1,2.6-0.1,4.5-0.8c4.7-1.7,5.6-2,5.6-2s-4,2-6.1,3
			s-3.1,1.6-3.2,2.4c-0.1,0.1-0.1,0.2-0.1,0.2c0.1,0.1,0.1,0.2,0.2,0.3l0,0c0.1,0.2,0.2,0.2,0.2,0.3l0.1,0.1
			c0.1,0.1,0.2,0.2,0.2,0.2s0.2,0.2,0.4,0.2c0.3,0.2,0.6,0.3,0.9,0.5l0,0c1,0.5,1.9,0.6,2.5,0.7c0-0.1,0.1-0.1,0.1-0.1
			c1.2-0.5,10.6-5.5,10.6-5.5l0,0c2.9-1.4,4.5-1.4,5.5-1c0.6,0.6,1.4,2.1,0.6,5.2c-1.1,4.2-3.8,7.1-3.8,7.1s3.1-3.2,4.8-7.7
			c0.2-0.7,0.5-1,0.6-1C40.1,35,34.4,44.9,32.7,46.4z"/>
		<path class="st5" d="M23.2,21c-2.3-0.2-3.9-1.4-1.3-2.7c2.6-1.3,4.9,1,4.9,1C27.8,20.3,25.4,21.1,23.2,21z"/>
		<path class="st5" d="M29.5,27.2c-2.2,0.5-4.1-0.2-2-2.2c2.1-1.9,5-0.5,5-0.5C33.7,25.4,31.7,26.8,29.5,27.2z"/>
		<path class="st5" d="M34,45.2c-1,1.1-2.3,1.4-1.7-0.5c0.6-1.9,2.7-2.3,2.7-2.3C35.8,42.6,35.1,44.1,34,45.2z"/>
		<path class="st5" d="M35.9,29.1c0.6-1.9,1.9-3.1,2.6-0.7s-1.6,4.1-1.6,4.1C35.6,33.1,35.4,31,35.9,29.1z"/>
	</g>
	<path class="st4" d="M29.6,5.4c-0.2-1.6-0.4-4.7,0.2-5.2c0.6-0.6,2.7,0.8,5.6,3.6c2.9,2.8,4.8,6.8,4.8,6.8s-4.1-5.1-6.7-6.7
		c-1.5-1-2.5-0.8-2.7,0.6S30,11,30,11S29.7,7,29.6,5.4z"/>
</g>
<path class="st5" d="M40.2,26c-0.4-1-2.3-5.8-3.4-7.8c-0.5-0.8-1-1.5-1.7-2.1c-1.1-1-1.9-1-2.3-0.7c-0.4,0.3-0.6,0.9-0.3,1.3
	c0.1,0.2,0.2,0.2,0.5,0.3c0.2,0.1,0.3,0.1,0.4,0c0.2-0.2,0.3-0.5,0.3-0.5l0.6,0.2c-0.1,0-0.2,0.5-0.6,0.8c-0.2,0.2-0.5,0.2-0.8,0.1
	c-0.4-0.1-0.6-0.3-0.8-0.6c-0.4-0.6-0.2-1.6,0.6-2c0.7-0.4,1.8-0.3,3,0.8c0.6,0.6,1.3,1.4,1.8,2.2c0.9,1.3,1.4,2.7,1.9,3.9
	c0.2-0.8,0.8-0.9,1.4-0.5c-0.1-1-0.6-3.7-1.6-6.1c-0.3-0.9-0.8-1.7-1.3-2.3c-1-1.1-1.8-1.2-2.1-1c-0.5,0.2-0.7,0.8-0.6,1.2
	c0.1,0.2,0.2,0.3,0.4,0.4c0.2,0.1,0.3,0,0.4,0c0.2-0.1,0.3-0.4,0.3-0.4l0.5,0.2c0,0.1-0.2,0.5-0.6,0.7c-0.2,0.1-0.5,0.1-0.8-0.1
	c-0.3-0.2-0.6-0.4-0.7-0.7c-0.3-0.8,0.1-1.6,0.8-1.9c0.7-0.3,1.8-0.1,2.8,1.2c0.6,0.7,1,1.5,1.4,2.4c0.9,2.1,1.6,5.7,2,7.8l0,0
	c0.2,1,0.3,1.9,0.5,3.5c0,0.3,0,0.8,0,1.2L40.2,26z"/>
</svg>
