<?xml version="1.0" encoding="utf-8"?>
<!-- Generator: Adobe Illustrator 19.1.0, SVG Export Plug-In . SVG Version: 6.00 Build 0)  -->
<svg version="1.1" id="Calque_1" xmlns="http://www.w3.org/2000/svg" xmlns:xlink="http://www.w3.org/1999/xlink" x="0px" y="0px"
	 viewBox="0 0 110 65" style="enable-background:new 0 0 110 65;" xml:space="preserve">
<style type="text/css">
	.st0{fill:url(#SVGID_1_);}
	.st1{fill:url(#SVGID_2_);}
	.st2{fill:url(#SVGID_3_);}
	.st3{fill:url(#SVGID_4_);}
	.st4{fill:url(#SVGID_5_);}
	.st5{fill:url(#SVGID_6_);}
</style>
<g>
	<linearGradient id="SVGID_1_" gradientUnits="userSpaceOnUse" x1="5.273" y1="31.0957" x2="143.773" y2="73.5957">
		<stop  offset="0" style="stop-color:#F6C2BC"/>
		<stop  offset="1" style="stop-color:#FEC408"/>
	</linearGradient>
	<path class="st0" d="M81.3,54.7c-0.7-0.4-1.7-0.2-2.6,0.1c0.8-0.7,1.5-1.4,1.7-1.9c0.6-1.3-0.3-4.5-1.5-5.5
		c-0.9-0.7-2.6,0.3-3.7,2.7c-1.1,2.4-0.8,5.9-0.8,5.9s0,0,0,0l0,0c0,0,1.7,2.9,2.7,3.4c1,0.5,2.7,1.4,3.7,0.8
		C82.2,59.3,83.2,55.7,81.3,54.7z"/>
	<linearGradient id="SVGID_2_" gradientUnits="userSpaceOnUse" x1="2.9905" y1="38.534" x2="141.4905" y2="81.034">
		<stop  offset="0" style="stop-color:#F6C2BC"/>
		<stop  offset="1" style="stop-color:#FEC408"/>
	</linearGradient>
	<path class="st1" d="M74,56.3L74,56.3C74,56.3,73.9,56.3,74,56.3c-0.1,0-3.2-1.7-5.8-1.7c-2.6,0-4.2,1.1-4,2.2
		c0.4,1.5,2.9,3.7,4.4,3.7c0.5,0,1.5-0.3,2.5-0.8c-0.7,0.7-1.2,1.5-1.2,2.3c0.1,2.1,3.8,2.7,5.1,1.8c1-0.7,0.9-2.6,0.9-3.7
		C75.9,59,74,56.3,74,56.3z"/>
	<linearGradient id="SVGID_3_" gradientUnits="userSpaceOnUse" x1="8.317" y1="21.1758" x2="146.817" y2="63.6758">
		<stop  offset="0" style="stop-color:#F6C2BC"/>
		<stop  offset="1" style="stop-color:#FEC408"/>
	</linearGradient>
	<path class="st2" d="M104.2,43.4c-3.3,0.9-6.7,4-6.7,4s0,0,0,0l0,0c0,0-1.6,4.1-1.3,5.5c0.3,1.4,0.8,3.9,2.2,4.5
		c2,0.7,6.4-1.2,5.9-4c-0.2-1-1.1-1.9-2.2-2.6c1.4,0.2,2.7,0.4,3.4,0.2c1.8-0.5,4.4-4,4.4-6C109.9,43.5,107.5,42.5,104.2,43.4z"/>
	<linearGradient id="SVGID_4_" gradientUnits="userSpaceOnUse" x1="8.44" y1="20.7749" x2="146.94" y2="63.2749">
		<stop  offset="0" style="stop-color:#F6C2BC"/>
		<stop  offset="1" style="stop-color:#FEC408"/>
	</linearGradient>
	<path class="st3" d="M96.7,47.1C96.7,47.1,96.7,47.1,96.7,47.1c0,0-0.7-4.5-2.8-7.3c-2.1-2.7-4.6-3.4-5.5-2.2
		c-1.2,1.6-1.4,6-0.2,7.5c0.4,0.6,1.6,1.3,2.8,1.9c-1.3-0.1-2.6,0-3.3,0.7c-2.1,1.9,0.2,6.1,2.3,6.7c1.5,0.5,3.4-1.2,4.5-2.2
		C95.4,51.3,96.7,47.1,96.7,47.1L96.7,47.1z"/>
	<linearGradient id="SVGID_5_" gradientUnits="userSpaceOnUse" x1="6.4192" y1="27.3605" x2="144.9192" y2="69.8605">
		<stop  offset="0" style="stop-color:#F6C2BC"/>
		<stop  offset="1" style="stop-color:#FEC408"/>
	</linearGradient>
	<path class="st4" d="M25,25L25,25c0,0-6.8-2.3-13.3-1.9C5.2,23.4-0.2,26.6,0,28.9c0.2,1.7,4,1.4,8.7,3.3c1.9,0.7,5.7,3.7,7.5,3.3
		c1.7-0.4,3.3-1.3,4.8-2.4c-0.3,0.8-0.5,1.7-0.4,2.6c0.6,6.5,5.7,5.7,8.6,3.3c2.1-1.8,1.5-7.2-0.4-9.8C27.5,27.4,25,25,25,25z"/>
	<linearGradient id="SVGID_6_" gradientUnits="userSpaceOnUse" x1="12.076" y1="8.9258" x2="150.576" y2="51.4258">
		<stop  offset="0" style="stop-color:#F6C2BC"/>
		<stop  offset="1" style="stop-color:#FEC408"/>
	</linearGradient>
	<path class="st5" d="M37,21.2c-0.9-0.2-1.8-0.1-2.7,0.1c1.2-1.3,2.3-2.8,2.9-4.5c0.6-1.7-1.9-5-2.4-6.9c-1.4-4.9-0.9-9.4-2.5-9.8
		C29.9-0.4,26,4.5,25,10.9c-1,6.4,0.7,13.4,0.7,13.4s0,0,0,0c0.2,0.3,2.2,2.9,3.8,4.3c2.4,2.1,7.8,3.3,9.8,1.4
		C42.1,27.4,43.4,22.4,37,21.2z"/>
</g>
</svg>
