<?xml version="1.0" encoding="utf-8"?>
<!-- Generator: Adobe Illustrator 19.1.0, SVG Export Plug-In . SVG Version: 6.00 Build 0)  -->
<svg version="1.1" id="Calque_1" xmlns="http://www.w3.org/2000/svg" xmlns:xlink="http://www.w3.org/1999/xlink" x="0px" y="0px"
	 viewBox="0 0 54 61" style="enable-background:new 0 0 54 61;" xml:space="preserve">
<style type="text/css">
	.st0{fill:#FDC400;}
	.st1{fill:#63B349;}
	.st2{fill:#FFEB97;}
	.st3{fill:#F5C2BB;}
	.st4{fill:#F1957B;}
	.st5{fill:#FFFFFF;}
</style>
<g>
	<g>
		<path class="st0" d="M2.6,39.9L2.6,39.9C2.6,40,2.6,40,2.6,39.9L2.6,39.9z"/>
		<path class="st1" d="M23.7,30.9c0,0,2.9-2.8,6.1-1.2c3.2,1.6,1.2,3.1-1.6,3.4C25.5,33.3,22.6,32.4,23.7,30.9z"/>
		<path class="st2" d="M29.6,19.2c0,0,1.8-1.1,3.1,0.1c1.3,1.2-1.2,2.6-2.5,2.4C28.9,21.5,28.9,19.8,29.6,19.2z"/>
		<path class="st3" d="M4.2,34.7c1.7-1.8,3.3-4.9,15.1,3.5c5.1,3.7,13.2,8.2,11,10.6c-2.5,2.7-8.7-0.6-8.7-0.6s3.4,4.7,0.4,6
			c-2.4,1.1-5.3-2.9-5.3-2.9s2.5,7.2-1.7,6.3c-2.5-0.5-6.4-6.5-8.5-10.8C3.2,40.3,2.4,36.4,4.2,34.7z"/>
		<path class="st4" d="M13,35.4c0,0,5.9,0.1,8.7,5.6c2.8,5.5-0.9,4.9-4.6,2C13.4,40.2,10.4,35.8,13,35.4z"/>
		<g>
			<path class="st4" d="M34.8,40.9c0,0,1.8-0.9,3.4,0c0.8-1,1.4-2.1,1.8-3.2c0.3-1,0.7-1.9,1.1-2.9c-0.7-0.7-0.6-1.9,0-2.4
				c0,0,0.5-0.3,1.3-0.4c0.4-0.8,0.9-1.6,1.3-2.3c-0.3-0.7-0.1-1.5,0.4-1.8c0,0,0.4-0.2,1-0.3c0.2-0.3,0.5-0.7,0.7-1
				c-0.2-0.4-0.3-0.8-0.3-1.2c-4.3,0-8-1.1-6.6-2.9c0,0,1.9-1.7,4.9-2.5c-0.9-0.1-1.6-0.4-2-0.7c-0.5,0.7-1.8,1.3-2.7,1.1
				c-1.4-0.2-1.4-1.9-0.6-2.5c0,0,1.8-1.1,3.2,0.1c0,0,0,0,0,0c0,0,0,0,0,0c0,0,2.8-2.8,5.9-1.2c2.3,1.2,1.8,2.3,0.2,2.9
				c0.8,0.1,1.7,0.2,2.6,0.5c0.3,0.1,0.5,0.2,0.7,0.2c2.3-2.7,3.5-4.3,1.7-5.1c-4.2-2-20.9,1.3-32,6.3c0.4-0.1,0.8-0.3,1.2-0.4
				c1.5-0.6,6.7-2.5,12-3c3.6-0.3,4.5,1.2,2.4,2.7c-0.2,0.1-0.4,0.2-0.6,0.3c0.5,0,0.9,0.1,1.4,0.2c1.3,0.4,0.3,1.6-1.6,2.2
				c0.2,0,0.6,0,2,0.7c0.4,0.2,0.7,0.4,1,0.6c0,0,0,0,0,0c0.1,0.1,0.2,0.2,0.3,0.3c0.1,0.1,0.1,0.1,0.1,0.2c0.1,0.2,0.2,0.3,0.2,0.5
				c0,0,0,0.1,0,0.1c0,0.1,0,0.2,0,0.3c0,0,0,0.1,0,0.1c0,0.2-0.1,0.4-0.3,0.6c-0.9,0.7-3.2,2.1-8.6,1.8c-7.3-0.4-8.6-0.5-8.6-0.5
				s6.4,1.2,9.8,1.6c2.2,0.3,3.7,0.6,4.6,1.1c0.4,0.5,0.6,1.1-0.2,2c-0.9,1-2.1,1.4-3.1,1.6c-1.3,0.1-3.2-0.1-5.6-1
				c-5.8-2.1-6.9-2.5-6.9-2.5s5,2.5,7.6,3.7c2.6,1.2,3.9,2,4,3c0,0.1,0,0.2,0.1,0.3c-0.2,0.5-0.6,1-1.4,1.5
				c-1.9,1.1-3.4,1.4-4.3,1.5c-1.3-0.6-2.9-1.4-4.8-2.5c-6.8-3.7-8.5-4.4-8.5-4.4s1.9,1.2,7.6,5.3c3.3,2.3,6.1,4.8,8.2,5.5
				c0.1,0.1,0.2,0.2,0.2,0.2c2.1,0.1,4.2-0.5,6.1-1.6C34,42.9,34,41.5,34.8,40.9z M36.6,29.6c0,0,3.6-1.8,4.8-1.5
				c1.2,0.3,0.7,1.8-0.2,2.8C40.3,31.9,36.6,29.6,36.6,29.6z"/>
			<path class="st4" d="M20.2,57.7c0,0,2.8,1.1,3.7,2.3c5.2-2.8,11.1-10,8.4-12.3c-1-0.8-2-1.5-2.9-2.2c1.2,1.2,1.7,2.3,0.9,3.2
				c-1.1,1.2-2.9,1.2-4.6,0.9c-1.3-0.4-3.1-1.2-5.2-3.3c-4.4-4.2-5.2-5-5.2-5s3.5,4.2,5.4,6.4c1.8,2,2.2,2.5,2.5,4
				c0.1,1-0.1,1.9-1.2,2.4c-1.4,0.6-3-0.5-4.1-1.5c-0.6-0.6-1.1-1.3-1.7-2.2c-3.3-5.1-3.9-6.1-3.9-6.1s2.4,5,3.8,7.5
				c1.2,2.3,1.5,3.5,1.1,4.8c-0.3,0.8-1,1.2-2.2,1c-2.2-0.4-5.6-5.3-7.8-9.4c-0.1,0.2-0.3,0.3-0.4,0.4c0.2,0.2,1.6,2.9,1.7,3.1
				c1.7,3.2,5.6,9,11.2,9.3C19.6,59.7,20.2,57.7,20.2,57.7z M24.6,50.8c0,0,4.6,0.1,5.2,1.6c0.6,1.5-2,4.1-3.4,4.6
				C25,57.4,24.6,50.8,24.6,50.8z"/>
		</g>
		<path class="st4" d="M1.5,32.8c0.2-2,0.3-3.1,0.6-4.3c0,0,0,0,0,0c0.5-2.6,1.4-7.1,2.5-9.7c0.5-1.1,1.1-2.1,1.8-3
			c1.3-1.6,2.6-1.9,3.5-1.5c0.9,0.4,1.4,1.4,1,2.4c-0.2,0.4-0.5,0.7-0.9,0.9c-0.4,0.2-0.8,0.2-1,0.1c-0.6-0.3-0.8-0.8-0.8-0.9
			l0.6-0.3c0,0,0.2,0.4,0.4,0.5c0.1,0,0.2,0.1,0.5,0c0.3-0.1,0.4-0.3,0.5-0.5c0.2-0.5-0.1-1.2-0.7-1.5C9,14.7,8,14.8,6.8,16.2
			C6.2,17,5.6,18,5.2,19.1c-1.3,3-1.9,6.4-2,7.6c0.7-0.5,1.4-0.4,1.7,0.6c0.6-1.5,1.3-3.3,2.4-4.9c0.6-1,1.4-2,2.2-2.7
			c1.5-1.4,2.8-1.5,3.7-1c0.9,0.5,1.2,1.7,0.7,2.5c-0.2,0.3-0.5,0.6-1,0.7c-0.4,0.1-0.8,0.1-1-0.1c-0.5-0.4-0.6-1-0.7-1l0.7-0.2
			c0,0,0.1,0.4,0.4,0.6c0.1,0.1,0.2,0.1,0.5,0c0.3-0.1,0.5-0.2,0.6-0.4c0.3-0.5,0.1-1.2-0.4-1.6c-0.5-0.3-1.5-0.3-2.9,0.9
			c-0.8,0.7-1.5,1.6-2.1,2.6c-1.3,2.5-2.9,6.2-3.4,7.5c1.8-2,4.5-4.4,8.9-7.2c0.7-0.5,2.7-1.6,3.5-2.1c0-0.1,0.3-0.1,0.3-0.2
			c-2-11.6,2.5-23-2-20.2C6.2,6.1-3.5,20.4,1.2,33.7c0.1,0.2,0.1,0.3,0.2,0.4C1.4,33.7,1.4,33.3,1.5,32.8z"/>
		<path class="st3" d="M3.3,37.2c0.2,0.1,0.5,0.4,0.8,1.3c2.1,5.6,5.9,9.6,5.9,9.6s-3.3-3.6-4.7-8.8c-1-3.8,0.1-5.6,0.8-6.4
			c1.2-0.6,3.2-0.6,6.8,1.2c0,0,0,0,0,0s11.7,6.2,13.2,6.8c0,0,0.1,0,0.1,0.1c0.7-0.1,1.8-0.3,3.1-0.9c0,0,0,0,0,0
			c0.3-0.2,0.7-0.3,1.1-0.6c0.2-0.1,0.4-0.2,0.5-0.3c0.1-0.1,0.2-0.2,0.3-0.3c0,0,0.1-0.1,0.1-0.1c0.1-0.1,0.2-0.2,0.3-0.4
			c0,0,0,0,0,0c0.1-0.1,0.1-0.3,0.2-0.4c0-0.1,0-0.2-0.1-0.3c-0.1-1-1.4-1.8-4-3c-2.6-1.2-7.6-3.7-7.6-3.7s1.1,0.4,6.9,2.5
			c2.4,0.9,4.3,1.1,5.6,1c0.3-0.1,0.5-0.1,0.8-0.2c0.1,0,0.1,0,0.2-0.1c0.2-0.1,0.4-0.1,0.6-0.2c0.1-0.1,0.3-0.2,0.4-0.2
			c0.1-0.1,0.3-0.1,0.4-0.2c0.3-0.2,0.5-0.4,0.7-0.7c0.2-0.3,0.3-0.5,0.4-0.7c0-0.1,0-0.2,0.1-0.3c0-0.1,0.1-0.2,0-0.3
			c0-0.1,0-0.2-0.1-0.3c0,0,0-0.1,0-0.1c-0.1-0.1-0.1-0.2-0.2-0.3h0c-0.9-0.5-2.4-0.8-4.6-1.1c-3.3-0.5-9.8-1.6-9.8-1.6
			s1.4,0.1,8.6,0.5c5.4,0.3,7.7-1.1,8.6-1.8c0.2-0.2,0.3-0.4,0.3-0.6c0,0,0-0.1,0-0.1c0-0.1,0-0.2,0-0.3c0,0,0-0.1,0-0.1
			c0-0.2-0.1-0.3-0.2-0.5c0-0.1-0.1-0.1-0.1-0.2c-0.1-0.1-0.2-0.2-0.3-0.3c0,0,0,0,0,0c-0.3-0.2-0.6-0.4-1-0.6
			c-1.4-0.7-1.9-0.7-2-0.7c1.9-0.6,3-1.8,1.6-2.2c-0.4-0.1-0.9-0.2-1.4-0.2c0.2-0.1,0.4-0.2,0.6-0.3c2.1-1.5,1.2-3-2.4-2.7
			c-5.3,0.5-10.6,2.4-12,3c-0.4,0.1-0.8,0.2-1.2,0.4C12.1,24.3,1.4,34.3,1.4,34.3s0.3,2.3,1.3,5.6c0,0,1.3,4.1,2,5.7
			c3,7.1,7.4,11.3,8.4,12.2C11,55.9,3.9,43.6,3.3,37.2z"/>
		<path class="st5" d="M20.3,24c0,0,2.9-2.8,6.1-1.2c3.2,1.6,1.2,3.1-1.6,3.4C22.1,26.4,19.2,25.4,20.3,24z"/>
		<path class="st5" d="M13.3,30.6c0,0,3.6-1.8,6.2,0.6c2.6,2.5,0.2,3.3-2.5,2.7C14.3,33.4,11.8,31.7,13.3,30.6z"/>
		<path class="st5" d="M10.3,52.9c0,0,2.5,0.4,3.3,2.8c0.7,2.4-0.8,2-2.1,0.6C10.1,54.9,9.2,53,10.3,52.9z"/>
		<path class="st5" d="M7.9,40.5c0,0-2.9-2.1-2-5.1c0.9-3,2.5-1.5,3.2,0.9C9.7,38.6,9.4,41.2,7.9,40.5z"/>
	</g>
	<path class="st4" d="M16.4,13.8c0,0-0.7-6.4-1-8.1c-0.3-1.7-1.5-1.9-3.4-0.7c-3.2,2-8.3,8.3-8.3,8.3s2.4-4.9,6-8.4
		c3.7-3.5,6.3-5.3,7-4.5c0.7,0.7,0.4,4.5,0.2,6.5C16.8,8.8,16.4,13.8,16.4,13.8z"/>
</g>
<path class="st5" d="M1.4,34.3c0-0.5,0-1.1,0-1.5c0.2-2,0.3-3.1,0.6-4.3c0,0,0,0,0,0c0.5-2.6,1.4-7.1,2.5-9.7c0.5-1.1,1.1-2.1,1.8-3
	c1.3-1.6,2.6-1.9,3.5-1.5c0.9,0.4,1.4,1.4,1,2.4c-0.2,0.4-0.5,0.7-0.9,0.9c-0.4,0.2-0.8,0.2-1,0.1c-0.6-0.3-0.8-0.8-0.8-0.9l0.6-0.3
	c0,0,0.2,0.4,0.4,0.5c0.1,0,0.2,0.1,0.5,0c0.3-0.1,0.4-0.3,0.5-0.5c0.2-0.5-0.1-1.2-0.7-1.5C9,14.7,8,14.8,6.8,16.2
	C6.2,17,5.6,18,5.2,19.1c-1.3,3-1.9,6.4-2,7.6c0.7-0.5,1.4-0.4,1.7,0.6c0.6-1.5,1.3-3.3,2.4-4.9c0.6-1,1.4-2,2.2-2.7
	c1.5-1.4,2.8-1.5,3.7-1c0.9,0.5,1.2,1.7,0.7,2.5c-0.2,0.3-0.5,0.6-1,0.7c-0.4,0.1-0.8,0.1-1-0.1c-0.5-0.4-0.6-1-0.7-1l0.7-0.2
	c0,0,0.1,0.4,0.4,0.6c0.1,0.1,0.2,0.1,0.5,0c0.3-0.1,0.5-0.2,0.6-0.4c0.3-0.5,0.1-1.2-0.4-1.6c-0.5-0.3-1.5-0.3-2.9,0.9
	c-0.8,0.7-1.5,1.6-2.1,2.6c-1.3,2.5-3.7,8.4-4.2,9.7L1.4,34.3z"/>
</svg>
