<?xml version="1.0" encoding="utf-8"?>
<!-- Generator: Adobe Illustrator 19.1.0, SVG Export Plug-In . SVG Version: 6.00 Build 0)  -->
<svg version="1.1" id="Calque_1" xmlns="http://www.w3.org/2000/svg" xmlns:xlink="http://www.w3.org/1999/xlink" x="0px" y="0px"
	 viewBox="0 0 48 56" style="enable-background:new 0 0 48 56;" xml:space="preserve">
<style type="text/css">
	.st0{fill:#FDC400;}
	.st1{fill:#F7C3BE;}
</style>
<g>
	<g>
		<g>
			<path class="st0" d="M24.6,47.4c0,0,1-11.9,5.5-24.1C34.7,11.1,42.8,0.2,45.9,0.1c2.3-0.1-0.5,7.1-0.8,15.5
				c-0.1,3.3,1.7,9.7,0,13.1C40.4,38.3,28.9,48.5,28,48.7C26.7,49,24.6,47.4,24.6,47.4z"/>
			<path class="st0" d="M28.3,46.7c0,0,8.8-9.5,14.5-9.9c9-0.7,4.6,9.2-0.7,15.1c-3.9,4.3-11.3,4.5-13.9,1.7c-1.8-2-3.6-6.2-3.6-6.2
				L28.3,46.7z"/>
		</g>
	</g>
	<g>
		<g>
			<g>
				<path class="st1" d="M24.8,47c0,0-5.5-9.2-11.7-17.8C6.9,20.5,0.7,13.8,0.2,14.5c-0.4,0.5,3.3,5.5,7.1,12.1
					c1.5,2.6,4.1,8.1,5.9,10.4c5.1,6.5,11.4,11.9,11.7,11.9C25.2,48.8,24.8,47,24.8,47z"/>
				<path class="st1" d="M23.9,47.2c0,0-5.6-5.4-6.7-4.4c-1.7,1.6,3.5,8.4,6.9,11.8c2.5,2.5,3.8,0.9,2.9-1.9c-0.6-2-2.3-5.8-2.3-5.8
					L23.9,47.2z"/>
			</g>
		</g>
	</g>
</g>
</svg>
